<svg
    id="button4"
    data-name="btn pre"
    xmlns="http://www.w3.org/2000/svg"
    xmlns:xlink="http://www.w3.org/1999/xlink"
    viewBox="0 0 236.09 51.85"
    x="0px"
    y="0px"
    xml:space="preserve"
  >
    <defs>
      <linearGradient
        id="button4_3"
        x1="1990"
        y1="-1625.52"
        x2="2206.08"
        y2="-1625.52"
        gradientTransform="matrix(1, 0, 0, -1, -1980, -1599.59)"
        gradientUnits="userSpaceOnUse"
      >
        <stop offset="0" stop-color="#10EBE3" stop-opacity="0" />
        <stop offset="0.5" stop-color="#10EBE3" />
        <stop offset="0.5" stop-color="#10EBE3" />
        <stop offset="1" stop-color="#10EBE3" stop-opacity="0" />
      </linearGradient>
    </defs>
    <path
      d="M204,39.41l-9.45,12H19.21L11,41.41H10v-30H33l8.64-11H216.82l8.18,10h1.08v29Z"
      fill-rule="evenodd"
      opacity="0.5"
      fill="url(#button4_3)"
      style="isolation: isolate"
    />
    <path d="M7.21,0h7.2L7.21,9H1.81V42.75l5.4.09,7.2,9H7.21L0,43V9Z" fill="#10EBE3" fill-rule="evenodd" opacity="0.5" style="isolation: isolate" />
    <path
      id="button4_Rectangle_1031_copy"
      data-name="Rectangle 1031 copy"
      d="M18,9l7.21-9H18l-7.2,9ZM28.82,9,36,0h-7.2L21.61,9Z"
      fill="#10EBE3"
      fill-rule="evenodd"
    />
    <path d="M3.61,10.82h1.8V41H3.61V10.82Z" fill="#EB9C10" fill-rule="evenodd" />
    <path
      d="M228.88,51.84h-7.2l7.2-9h5.4V9.1L228.88,9l-7.2-9h7.2l7.2,8.87v34Z"
      fill="#10EBE3"
      fill-rule="evenodd"
      opacity="0.5"
      style="isolation: isolate"
    />
    <path
      id="button4_Rectangle_1031_copy-2"
      data-name="Rectangle 1031 copy-2"
      d="M218.07,42.84l-7.2,9h7.2l7.21-9Zm-10.8,0-7.2,9h7.2l7.2-9Z"
      fill="#10EBE3"
      fill-rule="evenodd"
    />
    <path d="M230.68,10.82h1.8V41h-1.8V10.82Z" fill="#EB9C10" fill-rule="evenodd" />
  </svg>