<svg
    id="button9"
    xmlns="http://www.w3.org/2000/svg"
    xmlns:xlink="http://www.w3.org/1999/xlink"
    viewBox="0 0 180 40"
    x="0px"
    y="0px"
    xml:space="preserve"
  >
      <path id="button9_border" d="M178,8V2H2V8H0V0H180V8ZM2,32v6H178V32h2v8H0V32Z" fill="#10EBE3" fill-rule="evenodd" />
      <path id="button9_dian" d="M0,10H2v2H0V10ZM0,28H2v2H0V28ZM178,10h2v2h-2V10Zm0,18h2v2h-2V28Z" fill="#10EBE3" fill-rule="evenodd" />
      <path id="button9_bg" d="M3,3H177V37H3V3Z" fill="#115FEA" fill-rule="evenodd" opacity="0.1" style="isolation: isolate" />
      <path
        id="button9_bg-1"
        d="M175.21,37h-1.42L177,33.79v1.42Zm-4,0h-1.42L177,29.79v1.42Zm-4,0H165.8L177,25.79v1.42Zm-4,0H161.8L177,21.79v1.42Zm-4,0H157.8L177,17.79v1.42Zm-4,0H153.8L177,13.79v1.42Zm-4,0H149.8L177,9.79v1.42Zm-4,0H145.8L177,5.79V7.21Zm-8,0H137.8l34-34h1.42Zm-4,0H133.8l34-34h1.41Zm-4,0H129.8l34-34h1.41Zm-4,0H125.8l34-34h1.41Zm-4,0H121.8l34-34h1.41Zm-4,0H117.8l34-34h1.41Zm-4,0H113.8l34-34h1.41Zm-4,0H109.8l34-34h1.41Zm-4,0H105.8l34-34h1.41Zm-4,0H101.8l34-34h1.41Zm-4,0H97.8l34-34h1.41Zm-4,0H93.8l34-34h1.41Zm-4,0H89.8l34-34h1.41Zm-4,0H85.8l34-34h1.41Zm-4,0H81.8l34-34h1.41Zm-4,0H77.8l34-34h1.41Zm-4,0H73.8l34-34h1.41Zm-4,0H69.8l34-34h1.41Zm-4,0H65.8l34-34h1.41Zm-4,0H61.8l34-34h1.41Zm-4,0H57.8l34-34h1.41Zm-4,0H53.8l34-34h1.41Zm-4,0H49.8l34-34h1.41Zm-4,0H45.8l34-34h1.41Zm-4,0H41.8l34-34h1.41Zm-4,0H37.8l34-34h1.41Zm-4,0H33.8l34-34h1.41Zm-4,0H29.8l34-34h1.41Zm-4,0H25.8l34-34h1.41Zm-4,0H21.8l34-34h1.41Zm-4,0H17.8l34-34h1.41Zm-4,0H13.8l34-34h1.41Zm-4,0H9.8l34-34h1.41Zm-4,0H5.8l34-34h1.41Zm-4,0H3V35.79L35.79,3h1.42ZM3,33.21V31.79L31.79,3h1.42Zm0-4V27.79L27.79,3h1.42Zm0-4V23.79L23.79,3h1.42Zm0-4V19.79L19.79,3h1.42Zm0-4V15.79L15.79,3h1.42Zm0-4V11.79L11.79,3h1.42Zm0-4V7.79L7.79,3H9.21Zm0-4V3.79L3.79,3H5.21ZM143.21,37h-1.42l34-34H177v.21Z"
        fill="#10EBE3"
        fill-rule="evenodd"
        opacity="0.2"
        style="isolation: isolate"
      />
      <polygon points="89 0 91 0 91 8 89 8 89 0 89 0" fill="#10EBE3" fill-rule="evenodd" />
      <polygon points="89 32 91 32 91 40 89 40 89 32 89 32" fill="#10EBE3" fill-rule="evenodd" />
  </svg>