<svg version="1.1" id="ajdrCFm0VL" xmlns="http://www.w3.org/2000/svg" xmlns:xlink="http://www.w3.org/1999/xlink" x="0px" y="0px" viewBox="0 0 1920 84.5" xml:space="preserve"><linearGradient id="f6K5GJ4rL8" gradientUnits="userSpaceOnUse" x1="865" y1="-2333.5" x2="1920" y2="-2333.5" gradientTransform="matrix(1 0 0 -1 0 -2258)"><stop offset="0" style="stop-color:var(--theme-groups-0);"/><stop offset="1" style="stop-color:var(--theme-groups-0);stop-opacity: 0"/></linearGradient><linearGradient id="fAkD7EljSi" gradientUnits="userSpaceOnUse" x1="1208" y1="-2336.1001" x2="1208" y2="-2245.1001" gradientTransform="matrix(1 0 0 -1 0 -2258)"><stop offset="0" style="stop-color:var(--theme-groups-0);"/><stop offset="1" style="stop-color:var(--theme-groups-0);stop-opacity: 0"/></linearGradient><linearGradient id="woDk3ltoIs" gradientUnits="userSpaceOnUse" x1="497.6346" y1="-2296.613" x2="1920" y2="-2296.613" gradientTransform="matrix(1 0 0 -1 0 -2258)"><stop offset="0" style="stop-color:var(--theme-groups-0);stop-opacity: 0.102"/><stop offset="0.557" style="stop-color:var(--theme-groups-0);"/><stop offset="1" style="stop-color:var(--theme-groups-0);stop-opacity: 0.2"/></linearGradient><linearGradient id="qwV9gsTwxR" gradientUnits="userSpaceOnUse" x1="865.9985" y1="-2327" x2="1551.0015" y2="-2327" gradientTransform="matrix(1 0 0 -1 0 -2258)"><stop offset="0" style="stop-color:var(--theme-groups-1);stop-opacity: 0"/><stop offset="0.486" style="stop-color:var(--theme-groups-1);"/><stop offset="0.49" style="stop-color:var(--theme-groups-1);"/><stop offset="1" style="stop-color:var(--theme-groups-1);stop-opacity: 0"/></linearGradient><linearGradient id="l4hQ_ZJX2q" gradientUnits="userSpaceOnUse" x1="270.5" y1="-2338" x2="270.5" y2="-2258" gradientTransform="matrix(1 0 0 -1 0 -2258)"><stop offset="0" style="stop-color:var(--theme-groups-0);"/><stop offset="1" style="stop-color:var(--theme-groups-0);stop-opacity: 0.102"/></linearGradient><linearGradient id="agL9HQnT_i" gradientUnits="userSpaceOnUse" x1="243.5" y1="-2337.8" x2="243.5" y2="-2258" gradientTransform="matrix(1 0 0 -1 0 -2258)"><stop offset="0" style="stop-color:var(--theme-groups-0);"/><stop offset="0.8067" style="stop-color:var(--theme-groups-0);stop-opacity: 3e-2"/></linearGradient><linearGradient id="pQnBDZTQ_x" gradientUnits="userSpaceOnUse" x1="244.1119" y1="-2258.6323" x2="244.1119" y2="-2338.6323" gradientTransform="matrix(1 0 0 -1 0 -2258)"><stop offset="0" style="stop-color:var(--theme-groups-1);stop-opacity: 0"/><stop offset="0.9966" style="stop-color:var(--theme-groups-1);"/></linearGradient><linearGradient id="kq9uDZMEco" gradientUnits="userSpaceOnUse" x1="0" y1="-2298.3164" x2="487" y2="-2298.3164" gradientTransform="matrix(1 0 0 -1 0 -2258)"><stop offset="0" style="stop-color:var(--theme-groups-0);"/><stop offset="1" style="stop-color:var(--theme-groups-0);stop-opacity: 0"/></linearGradient><path id="n2KWr_y3OY" class="l-d-p5j_Lq" d="M871,73l-6,5h1055v-5H871z"/><path id="mRiWj_nTo0" class="dVXoGbc-Gj" d="M548,9.1l-52,69h360.7l9-8H1920v-83h-841.4l-21,22C1057.6,9.1,548,9.1,548,9.1z"/><path id="tTWpv6jsAN" class="wi1lADAnCm" d="M1069,0l-11,9H548l-50.4,68h358l10.3-8h1054"/><path id="iotfcOok0R" class="dBxKGpS1Yy" d="M866,69.5l685-1"/><path id="fry1OV9kv6" class="muzNPLZsxU" d="M0,80c0,0,343.9-0.2,403-0.2s75-7.9,93-24.8s45-55,45-55H0V80z"/><path id="vVuqInyDlp" class="vb8_RD-6Lh" d="M0,79.8h349c59.1,0,75-7.9,93-24.8s45-55,45-55H0V79.8z"/><path id="e2sUw4lLTx" class="ki0z8HXI8L" d="M0,80c155.1,0,289.9-0.2,349-0.2s75-7.9,93-24.8s45-55,45-55"/><path id="s7OD-WlHbJ" class="ieA21iNUOy" d="M0,80c154.6,0,289.9-0.2,349-0.2s75-7.9,93-24.8s45-55,45-55"/><g id="uY3Uh7ilPS"><rect id="dtT77pf-c2" x="508" y="71" class="rgEes17Kq7" width="176" height="1"/><rect id="yQqf5BoIJV" x="596" y="71" class="i8puyYRxIN" width="88" height="1"/><rect id="wmkbdbq30u" x="507" y="71" class="tdzcL8D3wm" width="76" height="1"/><rect id="zqygmFYsDQ" x="689" y="67.5" class="zG4fG1K29H" width="3" height="3"/><rect id="tenKK8ehUj" x="595" y="69" class="zG4fG1K29H" width="3" height="3"/><rect id="lGgsdJrfO2" x="507" y="69" class="zG4fG1K29H" width="3" height="3"/><linearGradient id="bDeAAp25tr" gradientUnits="userSpaceOnUse" x1="596" y1="3979.5" x2="684" y2="3979.5" gradientTransform="matrix(1 0 0 1 0 -3908)"><stop offset="0" style="stop-color:var(--theme-groups-1);"/><stop offset="1" style="stop-color:var(--theme-groups-1);stop-opacity: 0"/></linearGradient><linearGradient id="dtYic1qpqv" gradientUnits="userSpaceOnUse" x1="507" y1="3979.5" x2="583" y2="3979.5" gradientTransform="matrix(1 0 0 1 0 -3908)"><stop offset="0" style="stop-color:var(--theme-groups-1);"/><stop offset="1" style="stop-color:var(--theme-groups-1);stop-opacity: 0"/></linearGradient><linearGradient id="uU9Q4DtXrV" gradientUnits="userSpaceOnUse" x1="795" y1="-2324" x2="856" y2="-2324" gradientTransform="matrix(1 0 0 -1 0 -2258)"><stop offset="0" style="stop-color:var(--theme-groups-0);"/><stop offset="1" style="stop-color:var(--theme-groups-0);stop-opacity: 0"/></linearGradient><linearGradient id="vNMD3hv0RM" gradientUnits="userSpaceOnUse" x1="512" y1="-2325" x2="698" y2="-2325" gradientTransform="matrix(1 0 0 -1 0 -2258)"><stop offset="0" style="stop-color:var(--theme-groups-1);"/><stop offset="1" style="stop-color:var(--theme-groups-1);stop-opacity: 0"/></linearGradient><linearGradient id="on5gCVCxmq" gradientUnits="userSpaceOnUse" x1="512.0983" y1="40.75" x2="551.8018" y2="40.75"><stop offset="0" style="stop-color:var(--theme-groups-1);"/><stop offset="1" style="stop-color:var(--theme-groups-1);stop-opacity: 0"/></linearGradient><path id="jzsfj1oNiA" class="sRKEF1KqOS" d="M690,70h162l8-7"/><path id="jL3QmCVCYD" class="c77g_WipAK" d="M795,68l4-4h57l-4,4H795z"/><path id="luXPiF7f4A" class="txq_jMioBL" d="M512,67h186"/><path id="uWUTuvFRKD" class="s6jhfr4cjX" d="M551.4,14.5L512.5,67"/></g><style>.l-d-p5j_Lq { opacity: 0.5; fill-rule: evenodd; clip-rule: evenodd; fill: url(#f6K5GJ4rL8); enable-background: new;}.dVXoGbc-Gj { opacity: 0.45; fill-rule: evenodd; clip-rule: evenodd; fill: url(#fAkD7EljSi); enable-background: new;}.wi1lADAnCm { fill: none; stroke: url(#woDk3ltoIs); stroke-width: 2;}.dBxKGpS1Yy { fill: none; stroke: url(#qwV9gsTwxR); stroke-width: 2;}.muzNPLZsxU { opacity: 0.35; fill-rule: evenodd; clip-rule: evenodd; fill: url(#l4hQ_ZJX2q); enable-background: new;}.vb8_RD-6Lh { opacity: 0.43; fill-rule: evenodd; clip-rule: evenodd; fill: url(#agL9HQnT_i); enable-background: new;}.ki0z8HXI8L { fill: none; stroke: url(#pQnBDZTQ_x); stroke-width: 3;}.ieA21iNUOy { fill: none; stroke: url(#kq9uDZMEco); stroke-width: 3;}.rgEes17Kq7 { opacity: 0.27; fill: var(--theme-groups-1); enable-background: new;}.i8puyYRxIN { opacity: 0.64; fill: url(#bDeAAp25tr); enable-background: new;}.tdzcL8D3wm { opacity: 0.64; fill: url(#dtYic1qpqv); enable-background: new;}.sRKEF1KqOS { opacity: 0.35; fill: none; stroke: var(--theme-groups-1); stroke-miterlimit: 10; enable-background: new;}.zG4fG1K29H { fill: var(--theme-groups-1);}.c77g_WipAK { opacity: 0.72; fill-rule: evenodd; clip-rule: evenodd; fill: url(#uU9Q4DtXrV); enable-background: new;}.txq_jMioBL { fill: none; stroke: url(#vNMD3hv0RM);}.s6jhfr4cjX { fill: none; stroke: url(#on5gCVCxmq);}</style></svg>