<svg id="t5wjl9sLMm" xmlns="http://www.w3.org/2000/svg" xmlns:xlink="http://www.w3.org/1999/xlink" viewBox="0 0 1920 80" x="0px" y="0px" xml:space="preserve"><defs><linearGradient id="k4cF1d5GsB" x1="2153" y1="-627.36" x2="2153" y2="-548.36" gradientTransform="matrix(1, 0, 0, -1, -1193, -550.61)" gradientUnits="userSpaceOnUse"><stop offset="0" style="stop-color:var(--theme-groups-0);"/><stop offset="0" style="stop-color:var(--theme-groups-0);"/><stop offset="1" style="stop-color:var(--theme-groups-0);stop-opacity:0;"/></linearGradient><linearGradient id="jufTTx50f3" x1="1193" y1="-613.36" x2="3113" y2="-613.36" gradientTransform="matrix(1, 0, 0, -1, -1193, -550.61)" gradientUnits="userSpaceOnUse"><stop offset="0" style="stop-color:var(--theme-groups-0);stop-opacity:0.1;"/><stop offset="0.53" style="stop-color:var(--theme-groups-1);"/><stop offset="0.54" style="stop-color:var(--theme-groups-1);"/><stop offset="1" style="stop-color:var(--theme-groups-0);stop-opacity:0.1;"/></linearGradient><linearGradient id="cKFlsrjj1x" x1="1790.5" y1="-612.31" x2="1549.5" y2="-612.31" gradientTransform="matrix(1, 0, 0, -1, -1193, -550.61)" gradientUnits="userSpaceOnUse"><stop offset="0" style="stop-color:var(--theme-groups-1);"/><stop offset="0" style="stop-color:var(--theme-groups-1);"/><stop offset="1" style="stop-color:var(--theme-groups-1);stop-opacity:0;"/></linearGradient><linearGradient id="vXbL6-WpFA" x1="2546.5" y1="-612.25" x2="2787.5" y2="-612.25" xlink:href="#cKFlsrjj1x"/><linearGradient id="pI_5a8ID3j" x1="1785.76" y1="-579.56" x2="1611.76" y2="-579.56" xlink:href="#k4cF1d5GsB"/><linearGradient id="o9Z0Kp4RuG" x1="1892" y1="-579.86" x2="1761" y2="-579.86" gradientTransform="matrix(1, 0, 0, -1, -1193, -550.61)" gradientUnits="userSpaceOnUse"><stop offset="0" style="stop-color:var(--theme-groups-1);"/><stop offset="1" style="stop-color:var(--theme-groups-0);stop-opacity:0.3;"/></linearGradient><linearGradient id="rlobRQY6TC" x1="2694.99" y1="-579.55" x2="2520.98" y2="-579.55" gradientTransform="translate(4022.97 -550.61) rotate(180)" xlink:href="#k4cF1d5GsB"/><linearGradient id="p6kluxDVuW" x1="2414.72" y1="-579.86" x2="2545.73" y2="-579.86" gradientTransform="matrix(1, 0, 0, -1, -1193, -550.61)" gradientUnits="userSpaceOnUse"><stop offset="0" style="stop-color:var(--theme-groups-1);"/><stop offset="1" style="stop-color:var(--theme-groups-0);stop-opacity:0.3;"/></linearGradient></defs><path id="kP3Tzg8LmM" d="M1264-2.25l-34,35h-18l-22,21h-94l-17,9-7.83-.2L1054,76.75H866l-17.17-14.2-7.83.2-17-9H730l-22-21H690l-34-35L960-.37Z" style="fill:url(#k4cF1d5GsB);fill-rule:evenodd;opacity:0.5;isolation: isolate"/><path d="M596,63.2H358a1.5,1.5,0,0,1,0-3H596a1.5,1.5,0,0,1,0,3Z" style="fill:url(#cKFlsrjj1x);"/><path d="M1593,63.14H1355a1.5,1.5,0,0,1,0-3h238a1.5,1.5,0,0,1,0,3Z" style="fill:url(#vXbL6-WpFA);"/><path id="wXZU8FDCuK" d="M880,74.25h160v4H880v-4Z" style="fill:var(--theme-groups-1);fill-rule:evenodd;"/><polygon points="1064.53 78.25 855.47 78.25 845.47 70.25 836.65 70.25 822.65 63.25 355.7 63.25 355.42 63.13 324.7 50.25 0 50.25 0 47.25 325.3 47.25 325.58 47.37 356.3 60.25 823.35 60.25 837.35 67.25 846.53 67.25 856.53 75.25 1063.47 75.25 1073.47 67.25 1082.65 67.25 1096.65 60.25 1563.7 60.25 1594.7 47.25 1920 47.25 1920 50.25 1595.3 50.25 1564.3 63.25 1097.35 63.25 1083.35 70.25 1074.53 70.25 1064.53 78.25" style="fill:url(#jufTTx50f3);opacity:0.6;isolation: isolate"/><g id="uW3zs74JoA"><polygon points="718.29 51.46 705.59 38.75 686.58 38.75 658.28 9.45 659.72 8.05 687.42 36.75 706.41 36.75 719.71 50.04 718.29 51.46" style="fill:var(--theme-groups-1);"/><polygon points="710.29 49.46 703.59 42.75 684.55 42.75 675.26 32.42 676.74 31.08 685.45 40.75 704.41 40.75 711.71 48.04 710.29 49.46" style="fill:var(--theme-groups-0);"/><path id="imCZnK94yQ" data-name=" 001" d="M425.55,31.56V26.34a3.4,3.4,0,0,0-6.79,0v5.22a3.4,3.4,0,0,0,6.79,0Zm-1.69,0a1.72,1.72,0,0,1-3.41.39,2.54,2.54,0,0,1,0-.39V26.39a1.72,1.72,0,1,1,3.41-.38,2.41,2.41,0,0,1,0,.38Zm8.56,3.32V23.08h-1.69l-2.29,2v1.86l2.29-2v9.92Zm10.73-3.27V26.34a3.4,3.4,0,0,0-6.79,0v5.22a3.4,3.4,0,0,0,6.79,0Zm-1.69,0a1.72,1.72,0,0,1-3.41.39,2.54,2.54,0,0,1,0-.39V26.39a1.72,1.72,0,1,1,3.41-.38,2.41,2.41,0,0,1,0,.38Zm10.49,0V26.34a3.39,3.39,0,1,0-6.78,0v5.22a3.39,3.39,0,0,0,6.78,0Zm-1.69,0a1.72,1.72,0,0,1-3.41.39,2.54,2.54,0,0,1,0-.39V26.39a1.72,1.72,0,1,1,3.41-.38,2.41,2.41,0,0,1,0,.38Zm10.49,0V26.34a3.39,3.39,0,1,0-6.78,0v5.22a3.39,3.39,0,0,0,6.78,0Zm-1.69,0a1.72,1.72,0,0,1-3.41.39,2.54,2.54,0,0,1,0-.39V26.39a1.72,1.72,0,1,1,3.41-.38,2.41,2.41,0,0,1,0,.38Zm10.49,0V26.34a3.39,3.39,0,1,0-6.78,0v5.22a3.39,3.39,0,0,0,6.78,0Zm-1.68,0a1.72,1.72,0,0,1-3.42.39,2.54,2.54,0,0,1,0-.39V26.39a1.72,1.72,0,0,1,3.42-.39,2.54,2.54,0,0,1,0,.39Zm10.48,0V26.34a3.39,3.39,0,0,0-6.78,0v5.22a3.39,3.39,0,0,0,6.78,0Zm-1.68,0a1.72,1.72,0,0,1-3.42.39,2.54,2.54,0,0,1,0-.39V26.39a1.72,1.72,0,0,1,3.42-.39,2.54,2.54,0,0,1,0,.39Zm10.48,0V26.34a3.39,3.39,0,1,0-6.78,0v5.22a3.39,3.39,0,0,0,6.78,0Zm-1.68,0a1.72,1.72,0,0,1-3.42.39,2.54,2.54,0,0,1,0-.39V26.39a1.72,1.72,0,0,1,3.42-.39,2.54,2.54,0,0,1,0,.39Zm10.48,0V26.34a3.39,3.39,0,1,0-6.78,0v5.22a3.39,3.39,0,0,0,6.78,0Zm-1.68,0a1.72,1.72,0,0,1-3.42.39,2.54,2.54,0,0,1,0-.39V26.39a1.72,1.72,0,0,1,3.42-.39,2.54,2.54,0,0,1,0,.39Zm8.55,3.32V23.08h-1.68l-2.3,2v1.86l2.3-2v9.92Zm8.8,0V23.08h-1.68l-2.3,2v1.86l2.3-2v9.92Zm8.8,0V23.08h-1.68l-2.3,2v1.86l2.3-2v9.92Zm10.73-3.27V26.34a3.39,3.39,0,1,0-6.78,0v5.22a3.39,3.39,0,0,0,6.78,0Zm-1.68,0a1.72,1.72,0,0,1-3.42.39,2.54,2.54,0,0,1,0-.39V26.39a1.72,1.72,0,0,1,3.42-.39,2.54,2.54,0,0,1,0,.39Zm10.48,0V26.34a3.39,3.39,0,0,0-6.78,0v5.22a3.39,3.39,0,0,0,6.78,0Zm-1.68,0a1.72,1.72,0,0,1-3.42.39,2.54,2.54,0,0,1,0-.39V26.39a1.72,1.72,0,0,1,3.42-.39,2.54,2.54,0,0,1,0,.39Zm8.55,3.32V23.08h-1.68l-2.3,2v1.86l2.3-2v9.92Zm10.73-3.27V26.34a3.39,3.39,0,0,0-6.78,0v5.22a3.39,3.39,0,1,0,6.78,0Zm-1.68,0a1.72,1.72,0,0,1-3.42.39,2.54,2.54,0,0,1,0-.39V26.39a1.72,1.72,0,0,1,3.42-.39,2.54,2.54,0,0,1,0,.39Zm8.55,3.32V23.08h-1.68l-2.29,2v1.86l2.29-2v9.92Zm10.73-3.27V26.34a3.39,3.39,0,1,0-6.78,0v5.22a3.39,3.39,0,1,0,6.78,0Zm-1.68,0a1.72,1.72,0,0,1-3.42.39,2.54,2.54,0,0,1,0-.39V26.39a1.72,1.72,0,0,1,3.42-.39,2.54,2.54,0,0,1,0,.39ZM582,34.83V23.08h-1.68l-2.29,2v1.86l2.29-2v9.92Zm10.74-3.27V26.34a3.4,3.4,0,0,0-6.79,0v5.22a3.4,3.4,0,0,0,6.79,0Zm-1.69,0a1.72,1.72,0,0,1-3.41.39,2.54,2.54,0,0,1,0-.39V26.39a1.72,1.72,0,1,1,3.41-.38,2.41,2.41,0,0,1,0,.38Z" style="fill:url(#pI_5a8ID3j);fill-rule:evenodd;opacity:0.5;isolation: isolate"/><path id="pW4X9BuHYq" d="M639,4.75h3v3h-3v-3Zm6,7h3v3h-3v-3Zm6,6h3v3h-3v-3Zm6,7h3v3h-3v-3Zm7,6h3v3h-3v-3Zm7,7h3v3h-3v-3Zm7,6h3v3h-3v-3Zm6,7h3v3h-3v-3Zm-58-46h3v3h-3v-3Zm6,7h3v3h-3v-3Zm6,6h3v3h-3v-3Zm6,7h3v3h-3v-3Zm7,6h3v3h-3v-3Zm7,7h3v3h-3v-3Zm7,6h3v3h-3v-3Zm6,7h3v3h-3v-3Zm-57-46h3v3h-3v-3Zm6,7h3v3h-3v-3Zm6,6h3v3h-3v-3Zm6,7h3v3h-3v-3Zm7,6h3v3h-3v-3Zm7,7h3v3h-3v-3Zm7,6h3v3h-3v-3Zm-46-32h3v3h-3v-3Zm6,6h3v3h-3v-3Zm6,7h3v3h-3v-3Zm7,6h3v3h-3v-3Zm7,7h3v3h-3v-3Zm7,6h3v3h-3v-3Zm-46-32h3v3h-3v-3Zm6,6h3v3h-3v-3Zm6,7h3v3h-3v-3Zm7,6h3v3h-3v-3Zm7,7h3v3h-3v-3Zm-33-20h3v3h-3v-3Zm6,7h3v3h-3v-3Zm7,6h3v3h-3v-3Zm7,7h3v3h-3v-3Zm-26-13h3v3h-3v-3Zm7,6h3v3h-3v-3Zm-20-6h3v3h-3v-3Zm128,26h3v3h-3v-3Z" style="fill:url(#o9Z0Kp4RuG);fill-rule:evenodd;"/></g><g id="eJKD1JY1rq"><polygon points="1202.43 51.46 1201.01 50.04 1214.31 36.75 1233.3 36.75 1261.01 8.05 1262.45 9.45 1234.14 38.75 1215.13 38.75 1202.43 51.46" style="fill:var(--theme-groups-1);"/><polygon points="1210.43 49.46 1209.01 48.04 1216.31 40.75 1235.27 40.75 1243.98 31.08 1245.46 32.42 1236.16 42.75 1217.13 42.75 1210.43 49.46" style="fill:var(--theme-groups-0);"/><path id="pZBLd8K1tQ" data-name=" 001-2" d="M1331.56,34.77a3.4,3.4,0,0,1-3.58-3.21V26.34a3.4,3.4,0,0,1,6.79,0v5.22A3.4,3.4,0,0,1,1331.56,34.77Zm1.52-8.38a2.54,2.54,0,0,0,0-.39,1.72,1.72,0,1,0-3.41.39v5.12a1.28,1.28,0,0,0,0,.39,1.72,1.72,0,0,0,3.41-.39Zm6.87,8.44V24.91l-2.29,2V25.06l2.29-2h1.69V34.83Zm12.42-3.27a3.39,3.39,0,0,1-6.78,0V26.34a3.39,3.39,0,1,1,6.78,0v5.22Zm-1.68-5.17a2.54,2.54,0,0,0,0-.39,1.72,1.72,0,0,0-3.42.39v5.12a1.28,1.28,0,0,0,0,.39,1.72,1.72,0,0,0,3.42-.39Zm10.48,5.17a3.39,3.39,0,0,1-6.78,0V26.34a3.39,3.39,0,0,1,6.78,0v5.22Zm-1.68-5.17a2.54,2.54,0,0,0,0-.39,1.72,1.72,0,0,0-3.42.39v5.12a1.28,1.28,0,0,0,0,.39,1.72,1.72,0,0,0,3.42-.39ZM1370,31.56a3.39,3.39,0,0,1-6.78,0V26.34a3.39,3.39,0,0,1,6.78,0v5.22Zm-1.68-5.17a2.54,2.54,0,0,0,0-.39,1.72,1.72,0,0,0-3.42.39v5.12a1.28,1.28,0,0,0,0,.39,1.72,1.72,0,0,0,3.42-.39Zm10.48,5.17a3.39,3.39,0,0,1-6.78,0V26.34a3.39,3.39,0,1,1,6.78,0v5.22Zm-1.68-5.17a2.54,2.54,0,0,0,0-.39,1.72,1.72,0,0,0-3.42.39v5.12a1.28,1.28,0,0,0,0,.39,1.72,1.72,0,0,0,3.42-.39Zm10.49,5.17a3.4,3.4,0,0,1-6.79,0V26.34a3.4,3.4,0,0,1,6.79,0v5.22Zm-1.69-5.17a2.54,2.54,0,0,0,0-.39,1.72,1.72,0,0,0-3.41.39v5.12a1.28,1.28,0,0,0,0,.39,1.72,1.72,0,1,0,3.41-.39Zm10.49,5.17a3.4,3.4,0,0,1-6.79,0V26.34a3.4,3.4,0,0,1,6.79,0v5.22Zm-1.69-5.17a2.54,2.54,0,0,0,0-.39,1.72,1.72,0,0,0-3.41.39v5.12a1.28,1.28,0,0,0,0,.39,1.72,1.72,0,1,0,3.41-.39Zm10.49,5.17a3.4,3.4,0,0,1-6.79,0V26.34a3.4,3.4,0,0,1,6.79,0v5.22Zm-1.69-5.17a2.54,2.54,0,0,0,0-.39,1.72,1.72,0,0,0-3.41.39v5.12a1.28,1.28,0,0,0,0,.39,1.72,1.72,0,1,0,3.41-.39Zm6.87,8.44V24.91l-2.29,2V25.06l2.29-2h1.69V34.83Zm8.81,0V24.91l-2.3,2V25.06l2.3-2h1.68V34.83Zm10.48,0H1428V24.91l-2.3,2V25.06l2.3-2h1.68V34.83Zm10.73-3.27a3.39,3.39,0,0,1-6.78,0V26.34a3.39,3.39,0,1,1,6.78,0v5.22Zm-1.68-5.17a2.54,2.54,0,0,0,0-.39,1.72,1.72,0,0,0-3.42.39v5.12a2.54,2.54,0,0,0,0,.39,1.72,1.72,0,0,0,3.42-.39Zm10.48,5.17a3.39,3.39,0,0,1-6.78,0V26.34a3.39,3.39,0,0,1,6.78,0v5.22Zm-1.68-5.17a2.54,2.54,0,0,0,0-.39,1.72,1.72,0,0,0-3.41.39v5.12a2.54,2.54,0,0,0,0,.39,1.72,1.72,0,1,0,3.41-.39Zm6.87,8.44V24.91l-2.29,2V25.06l2.29-2h1.69V34.83Zm12.42-3.27a3.4,3.4,0,0,1-6.79,0V26.34a3.4,3.4,0,0,1,6.79,0v5.22Zm-1.69-5.17a2.54,2.54,0,0,0,0-.39,1.72,1.72,0,1,0-3.41.39v5.12a2.54,2.54,0,0,0,0,.39,1.72,1.72,0,0,0,3.41-.39Zm8.56,8.44H1472V24.91l-2.29,2V25.06l2.29-2h1.69V34.83Zm10.73-3.27a3.39,3.39,0,0,1-6.78,0V26.34a3.39,3.39,0,0,1,6.78,0v5.22Zm-1.68-5.17a2.54,2.54,0,0,0,0-.39,1.72,1.72,0,0,0-3.42.39v5.12a2.54,2.54,0,0,0,0,.39,1.72,1.72,0,0,0,3.42-.39Zm6.87,8.44V24.91l-2.3,2V25.06l2.3-2h1.68V34.83ZM1502,31.56a3.39,3.39,0,0,1-6.78,0V26.34a3.39,3.39,0,0,1,6.78,0v5.22Zm-1.68-5.17a2.54,2.54,0,0,0,0-.39,1.72,1.72,0,0,0-3.42.39v5.12a2.54,2.54,0,0,0,0,.39,1.72,1.72,0,0,0,3.42-.39Z" style="fill:url(#rlobRQY6TC);fill-rule:evenodd;opacity:0.5;isolation: isolate"/><path id="bFHAb3xarl" d="M1281.73,4.75h-3v3h3v-3Zm-6,7h-3v3h3v-3Zm-6,6h-3v3h3v-3Zm-6,7h-3v3h3v-3Zm-7,6h-3v3h3v-3Zm-7,7h-3v3h3v-3Zm-7,6h-3v3h3v-3Zm-6,7h-3v3h3v-3Zm58-46h-3v3h3v-3Zm-6,7h-3v3h3v-3Zm-6,6h-3v3h3v-3Zm-6,7h-3v3h3v-3Zm-7,6h-3v3h3v-3Zm-7,7h-3v3h3v-3Zm-7,6h-3v3h3v-3Zm-6,7h-3v3h3v-3Zm57-46h-3v3h3v-3Zm-6,7h-3v3h3v-3Zm-6,6h-3v3h3v-3Zm-6,7h-3v3h3v-3Zm-7,6h-3v3h3v-3Zm-7,7h-3v3h3v-3Zm-7,6h-3v3h3v-3Zm46-32h-3v3h3v-3Zm-6,6h-3v3h3v-3Zm-6,7h-3v3h3v-3Zm-7,6h-3v3h3v-3Zm-7,7h-3v3h3v-3Zm-7,6h-3v3h3v-3Zm46-32h-3v3h3v-3Zm-6,6h-3v3h3v-3Zm-6,7h-3v3h3v-3Zm-7,6h-3v3h3v-3Zm-7,7h-3v3h3v-3Zm33-20h-3v3h3v-3Zm-6,7h-3v3h3v-3Zm-7,6h-3v3h3v-3Zm-7,7h-3v3h3v-3Zm26-13h-3v3h3v-3Zm-7,6h-3v3h3v-3Zm20-6h-3v3h3v-3Zm-128,26h-3v3h3v-3Z" style="fill:url(#p6kluxDVuW);fill-rule:evenodd;"/></g><style/></svg>