<svg version="1.1" xmlns="http://www.w3.org/2000/svg" xmlns:xlink="http://www.w3.org/1999/xlink" x="0px" y="0px" viewBox="0 0 1920 93" style="enable-background: new 0 0 1920 93" xml:space="preserve"><g><line class="wymNRPJw57" x1="1744.9" y1="36" x2="1880.1" y2="36" style="stroke:var(--theme-groups-5);"/></g><g id="iLbKd5yjWy"><g id="qfmrN5g4ZU"><g><path id="uKVv3m-JTV" class="kUFdAhswmm" d="M40.1,68.2h356l12-15h1407"/></g><g><path id="hc40OxRl7x" class="kUFdAhswmm" d="M40.1,74.2h356l12-15h1407"/></g><g><linearGradient id="quHkJDHqYn" gradientUnits="userSpaceOnUse" x1="1815.1" y1="4068.2" x2="40.1" y2="4068.2" gradientTransform="matrix(1 0 0 1 0 -4002)"><stop offset="1.807273e-02" style="stop-color:var(--theme-groups-2);stop-opacity: 0"/><stop offset="0.5307" style="stop-color:var(--theme-groups-2);stop-opacity: 0"/><stop offset="0.7214" style="stop-color:var(--theme-groups-2);stop-opacity: 0.3"/><stop offset="1" style="stop-color:var(--theme-groups-0);stop-opacity: 0.6"/></linearGradient><polygon class="zi8DJl0rhH" points="396.3,74.2 40.1,74.2 40.1,73.2 395.8,73.2 407.8,58.2 1815.1,58.2 1815.1,59.2 408.3,59.2 "/></g><g id="qpNuCfbI5O"><linearGradient id="xK0XJhDARl" gradientUnits="userSpaceOnUse" x1="158.1" y1="4076.2" x2="158.1" y2="4013.2" gradientTransform="matrix(1 0 0 1 0 -4002)"><stop offset="0" style="stop-color:var(--theme-groups-0);"/><stop offset="1" style="stop-color:var(--theme-groups-2);stop-opacity: 0"/></linearGradient><linearGradient id="orOdizRPlx" gradientUnits="userSpaceOnUse" x1="128.1" y1="4076.2" x2="128.1" y2="4013.2" gradientTransform="matrix(1 0 0 1 0 -4002)"><stop offset="0" style="stop-color:var(--theme-groups-0);"/><stop offset="1" style="stop-color:var(--theme-groups-2);stop-opacity: 0"/></linearGradient><linearGradient id="uKCH_InIL7" gradientUnits="userSpaceOnUse" x1="98.1" y1="4076.2" x2="98.1" y2="4013.2" gradientTransform="matrix(1 0 0 1 0 -4002)"><stop offset="0" style="stop-color:var(--theme-groups-0);"/><stop offset="1" style="stop-color:var(--theme-groups-2);stop-opacity: 0"/></linearGradient><linearGradient id="hVMQf__dVn" gradientUnits="userSpaceOnUse" x1="218.1" y1="4076.2" x2="218.1" y2="4013.2" gradientTransform="matrix(1 0 0 1 0 -4002)"><stop offset="0" style="stop-color:var(--theme-groups-0);"/><stop offset="1" style="stop-color:var(--theme-groups-2);stop-opacity: 0"/></linearGradient><linearGradient id="zvl-v-aIHr" gradientUnits="userSpaceOnUse" x1="248.1" y1="4076.2" x2="248.1" y2="4013.2" gradientTransform="matrix(1 0 0 1 0 -4002)"><stop offset="0" style="stop-color:var(--theme-groups-0);"/><stop offset="1" style="stop-color:var(--theme-groups-2);stop-opacity: 0"/></linearGradient><linearGradient id="xx2JB5DNe-" gradientUnits="userSpaceOnUse" x1="278.1" y1="4076.2" x2="278.1" y2="4013.2" gradientTransform="matrix(1 0 0 1 0 -4002)"><stop offset="0" style="stop-color:var(--theme-groups-0);"/><stop offset="1" style="stop-color:var(--theme-groups-2);stop-opacity: 0"/></linearGradient><linearGradient id="k1o2Gkrtc2" gradientUnits="userSpaceOnUse" x1="188.1" y1="74.2" x2="188.1" y2="11.2"><stop offset="0" style="stop-color:var(--theme-groups-0);"/><stop offset="1" style="stop-color:var(--theme-groups-2);stop-opacity: 0"/></linearGradient><path id="pv8_uhizCT" class="mCF1RmKSSj" d="M118.1,74.2h22l58-63h-22L118.1,74.2z"/><path id="lzBcNekOFl" class="gQk3IEklE7" d="M88.1,74.2h22l58-63h-22L88.1,74.2z"/><path id="zG9JLsMAmO" class="clpq6eFgJQ" d="M58.1,74.2h22l58-63h-22L58.1,74.2z"/><path id="cyJiTlon0l" class="rC0U42Ku8B" d="M178.1,74.2h22l58-63h-22L178.1,74.2z"/><path id="jKTck0VyLQ" class="zwcxhD_dGr" d="M208.1,74.2h22l58-63h-22L208.1,74.2z"/><path id="cpHeNCFHAo" class="nmHohZeWkx" d="M238.1,74.2h22l58-63h-22L238.1,74.2z"/><path id="oi7DR2jOvF" class="trZ2J5p5fO" d="M148.1,74.2h22l58-63h-22L148.1,74.2z"/><g><path id="w21eh1l4bA" class="kUFdAhswmm" d="M444.1,50.2"/><path id="bUg61SuzY0" class="kUFdAhswmm" d="M1880.1,29.2h-233l-21,21"/></g><g><rect x="444.1" y="49.7" class="n84FdIspiD" width="949.9" height="1" style="fill:var(--theme-groups-2);"/><rect x="1414.1" y="49.7" class="uDGF-dlp9h" width="149" height="1" style="fill:var(--theme-groups-2);"/><polygon class="voVKFSKFnS" points="1626.3,50.7 1574.4,50.7 1574.4,49.7 1625.9,49.7 1646.9,28.7 1880.1,28.7 1880.1,29.7 1647.3,29.7 " style="fill:var(--theme-groups-2);"/></g></g><g><linearGradient id="zE7XAIZKn-" gradientUnits="userSpaceOnUse" x1="1815.1" y1="4062.7" x2="40.1" y2="4062.7" gradientTransform="matrix(1 0 0 1 0 -4002)"><stop offset="1.807273e-02" style="stop-color:var(--theme-groups-2);stop-opacity: 0"/><stop offset="0.5307" style="stop-color:var(--theme-groups-2);stop-opacity: 0"/><stop offset="0.7214" style="stop-color:var(--theme-groups-2);stop-opacity: 0.3"/><stop offset="1" style="stop-color:var(--theme-groups-0);stop-opacity: 0.6"/></linearGradient><polygon class="mJD6DAtAZE" points="396.3,68.7 40.1,68.7 40.1,67.7 395.8,67.7 407.8,52.7 1815.1,52.7 1815.1,53.7 408.3,53.7 "/></g><linearGradient id="nLVtO3iKHz" gradientUnits="userSpaceOnUse" x1="960.1" y1="0.2" x2="960.1" y2="68.2"><stop offset="0" style="stop-color:var(--theme-groups-2);stop-opacity: 0"/><stop offset="1" style="stop-color:var(--theme-groups-2);"/></linearGradient><path id="uZyZfDNplf" class="uKOIcpFwPp" d="M1880.1,0.2H40.1v68h356l12-15h448l3-3h636l2,3h66v-3h63l21-21h233V0.2z"/></g><polygon class="wHo2dchiIw" points="1530,49.7 1493,49.7 1414,49.7 1414,50.7 1494,50.7 1497,53.7 1563,53.7 1563,49.7 " style="fill:var(--theme-groups-2);"/><path class="n84FdIspiD" d="M1018,42h1v17h-1V42z" style="fill:var(--theme-groups-2);"/><path class="n84FdIspiD" d="M1078,42h1v17h-1V42z" style="fill:var(--theme-groups-2);"/><path class="n84FdIspiD" d="M1137,42h1v17h-1V42z" style="fill:var(--theme-groups-2);"/><path class="n84FdIspiD" d="M781,42h1v17h-1V42z" style="fill:var(--theme-groups-2);"/><path class="n84FdIspiD" d="M840,42h1v17h-1V42z" style="fill:var(--theme-groups-2);"/><path class="n84FdIspiD" d="M900,42h1v17h-1V42z" style="fill:var(--theme-groups-2);"/><path class="n84FdIspiD" d="M959,42h1v17h-1V42z" style="fill:var(--theme-groups-2);"/><rect id="i3jkvDeGh-" x="899" y="49.7" class="kpHzq4KV2x" width="3" height="1" style="fill:var(--theme-groups-4);"/><rect id="pNyc8txKih" x="1017" y="49.7" class="kpHzq4KV2x" width="3" height="1" style="fill:var(--theme-groups-4);"/><rect id="fx2s_vzGGk" x="1077" y="49.7" class="kpHzq4KV2x" width="3" height="1" style="fill:var(--theme-groups-4);"/><rect id="mLOpCBHTKF" x="1136" y="49.7" class="kpHzq4KV2x" width="3" height="1" style="fill:var(--theme-groups-4);"/><rect id="rFYDi0LevZ" x="839" y="49.7" class="kpHzq4KV2x" width="3" height="1" style="fill:var(--theme-groups-4);"/><rect id="iVofDCcwOy" x="780" y="49.7" class="kpHzq4KV2x" width="3" height="1" style="fill:var(--theme-groups-4);"/><rect id="jKdBL56qjm" x="958" y="49.7" class="kpHzq4KV2x" width="3" height="1" style="fill:var(--theme-groups-4);"/></g><style>.wymNRPJw57 { opacity: 0.6; fill: none; stroke-miterlimit: 10; stroke-dasharray: 4, 2; enable-background: new;}.kUFdAhswmm { fill: none;}.zi8DJl0rhH { opacity: 0.6; fill: url(#quHkJDHqYn);}.uKOIcpFwPp { opacity: 0.3; fill-rule: evenodd; clip-rule: evenodd; fill: url(#nLVtO3iKHz); enable-background: new;}.mCF1RmKSSj { opacity: 0.4; fill-rule: evenodd; clip-rule: evenodd; fill: url(#xK0XJhDARl);}.gQk3IEklE7 { opacity: 0.25; fill-rule: evenodd; clip-rule: evenodd; fill: url(#orOdizRPlx);}.clpq6eFgJQ { opacity: 0.2; fill-rule: evenodd; clip-rule: evenodd; fill: url(#uKCH_InIL7);}.rC0U42Ku8B { opacity: 0.4; fill-rule: evenodd; clip-rule: evenodd; fill: url(#hVMQf__dVn);}.zwcxhD_dGr { opacity: 0.25; fill-rule: evenodd; clip-rule: evenodd; fill: url(#zvl-v-aIHr);}.nmHohZeWkx { opacity: 0.2; fill-rule: evenodd; clip-rule: evenodd; fill: url(#xx2JB5DNe-);}.trZ2J5p5fO { opacity: 0.5; fill-rule: evenodd; clip-rule: evenodd; fill: url(#k1o2Gkrtc2);}.n84FdIspiD { opacity: 0.8;}.uDGF-dlp9h {}.voVKFSKFnS {}.mJD6DAtAZE { fill: url(#zE7XAIZKn-);}.wHo2dchiIw { fill-rule: evenodd; clip-rule: evenodd;}.kpHzq4KV2x {}</style></svg>