<svg id="y4hDXt8Qjl" xmlns="http://www.w3.org/2000/svg" xmlns:xlink="http://www.w3.org/1999/xlink" viewBox="0 0 1920 80" x="0px" y="0px" xml:space="preserve"><defs><linearGradient id="fLatRVp0cu" x1="960" y1="-691.92" x2="960" y2="-611.92" gradientTransform="matrix(1, 0, 0, -1, 0, -613.92)" gradientUnits="userSpaceOnUse"><stop offset="0" style="stop-color:var(--theme-groups-0);"/><stop offset="0" style="stop-color:var(--theme-groups-0);"/><stop offset="1" style="stop-color:var(--theme-groups-0);stop-opacity:0;"/></linearGradient><linearGradient id="ds90VufETJ" x1="960" y1="-691.92" x2="960" y2="-611.92" gradientTransform="matrix(1, 0, 0, -1, 0, -613.92)" gradientUnits="userSpaceOnUse"><stop offset="0" style="stop-color:var(--theme-groups-1);"/><stop offset="0" style="stop-color:var(--theme-groups-1);"/><stop offset="0.12" style="stop-color:var(--theme-groups-1);stop-opacity:0.81;"/><stop offset="0.3" style="stop-color:var(--theme-groups-1);stop-opacity:0.57;"/><stop offset="0.46" style="stop-color:var(--theme-groups-1);stop-opacity:0.36;"/><stop offset="0.62" style="stop-color:var(--theme-groups-1);stop-opacity:0.21;"/><stop offset="0.77" style="stop-color:var(--theme-groups-1);stop-opacity:0.09;"/><stop offset="0.9" style="stop-color:var(--theme-groups-1);stop-opacity:0.02;"/><stop offset="1" style="stop-color:var(--theme-groups-1);stop-opacity:0;"/></linearGradient><linearGradient id="oY3XtBKojw" x1="2152" y1="-1692.92" x2="2152" y2="-1610.92" gradientTransform="matrix(1, 0, 0, -1, -1192, -1612.92)" gradientUnits="userSpaceOnUse"><stop offset="0" style="stop-color:var(--theme-groups-1);"/><stop offset="0.63" style="stop-color:var(--theme-groups-1);stop-opacity:0.37;"/><stop offset="1" style="stop-color:var(--theme-groups-1);stop-opacity:0;"/></linearGradient><linearGradient id="vO7yWMYL4r" x1="2152" y1="-1692.92" x2="2152" y2="-1610.92" gradientTransform="matrix(1, 0, 0, -1, -1192, -1612.92)" gradientUnits="userSpaceOnUse"><stop offset="0" style="stop-color:var(--theme-groups-1);"/><stop offset="0" style="stop-color:var(--theme-groups-1);"/><stop offset="1" style="stop-color:var(--theme-groups-1);stop-opacity:0;"/></linearGradient><linearGradient id="n0WbCQxMGY" x1="1928.27" y1="-1650.92" x2="1193" y2="-1650.92" gradientTransform="matrix(1, 0, 0, -1, -1192, -1612.92)" xlink:href="#fLatRVp0cu"/><linearGradient id="hUSpMyM5rZ" x1="1928" y1="-1675.92" x2="1373" y2="-1675.92" xlink:href="#vO7yWMYL4r"/><linearGradient id="wJzkS55gzF" x1="2376.01" y1="-1650.92" x2="3111" y2="-1650.92" gradientTransform="matrix(1, 0, 0, -1, -1192, -1612.92)" xlink:href="#fLatRVp0cu"/><linearGradient id="ciXTNvdgXP" x1="2377.28" y1="-1675.92" x2="2932.28" y2="-1675.92" xlink:href="#vO7yWMYL4r"/></defs><path id="sY29M_TlPq" d="M700-2h520a80,80,0,0,1-80,80H780A80,80,0,0,1,700-2Z" style="fill:url(#fLatRVp0cu);opacity:0.5;isolation: isolate"/><path id="xxXPspSyjp" d="M720-2h480a80,80,0,0,1-80,80H800A80,80,0,0,1,720-2Z" style="fill:url(#fLatRVp0cu);opacity:0.5;isolation: isolate"/><path id="bwVCD8749Y" d="M740-2h440a80,80,0,0,1-80,80H820A80,80,0,0,1,740-2Z" style="fill:url(#ds90VufETJ);opacity:0.6;isolation: isolate"/><path d="M1140,80H780A82.1,82.1,0,0,1,698-2h4a78.09,78.09,0,0,0,78,78h360a78.09,78.09,0,0,0,78-78h4A82.1,82.1,0,0,1,1140,80Z" style="fill:url(#oY3XtBKojw);"/><path d="M1120,80H800A82.1,82.1,0,0,1,718-2h4a78.09,78.09,0,0,0,78,78h320a78.09,78.09,0,0,0,78-78h4A82.1,82.1,0,0,1,1120,80Z" style="fill:url(#vO7yWMYL4r);opacity:0.5;isolation: isolate"/><g id="zuHLC2HrJL"><path id="kKicirulZu" d="M736.27,65H1V11H701.05A80,80,0,0,0,736.27,65Z" style="fill:url(#n0WbCQxMGY);fill-rule:evenodd;opacity:0.3;isolation: isolate"/><path id="qKgL4opW18" d="M181,61H736v4H181V61Z" style="fill:url(#hUSpMyM5rZ);fill-rule:evenodd;opacity:0.5;isolation: isolate"/><path id="pI6GESDioP" d="M1184,65h735V11H1219.22A80,80,0,0,1,1184,65Z" style="fill:url(#wJzkS55gzF);fill-rule:evenodd;opacity:0.3;isolation: isolate"/><path id="bb_t1Hj6Zd" d="M1740.28,61h-555v4h555V61Z" style="fill:url(#ciXTNvdgXP);fill-rule:evenodd;opacity:0.5;isolation: isolate"/></g><style/></svg>