<svg version="1.1" id="x6CWvc1GDl" xmlns="http://www.w3.org/2000/svg" xmlns:xlink="http://www.w3.org/1999/xlink" x="0px" y="0px" viewBox="0 0 2730 105" xml:space="preserve"><linearGradient id="pFHJ1A5Gqm" gradientUnits="userSpaceOnUse" x1="-0.4054" y1="71.8497" x2="897.6157" y2="71.8497" gradientTransform="matrix(1 0 0 1 0 -25)"><stop offset="0" style="stop-color:var(--theme-groups-2);stop-opacity: 0"/><stop offset="0.5262" style="stop-color:var(--theme-groups-2);"/><stop offset="1" style="stop-color:var(--theme-groups-2);stop-opacity: 0"/></linearGradient><linearGradient id="y8Owupyv_x" gradientUnits="userSpaceOnUse" x1="-0.4053" y1="78.0352" x2="900.2721" y2="78.0352" gradientTransform="matrix(1 0 0 1 0 -25)"><stop offset="0" style="stop-color:var(--theme-groups-2);stop-opacity: 0"/><stop offset="0.5262" style="stop-color:var(--theme-groups-2);"/><stop offset="1" style="stop-color:var(--theme-groups-2);stop-opacity: 0"/></linearGradient><linearGradient id="gC6ciYM3uE" gradientUnits="userSpaceOnUse" x1="-0.4053" y1="86.0044" x2="434.064" y2="86.0044" gradientTransform="matrix(1 0 0 1 0 -25)"><stop offset="0" style="stop-color:var(--theme-groups-0);stop-opacity: 0"/><stop offset="1" style="stop-color:var(--theme-groups-0);"/></linearGradient><linearGradient id="i7CBxM6MyU" gradientUnits="userSpaceOnUse" x1="-1.1154" y1="86.0044" x2="435.6984" y2="86.0044" gradientTransform="matrix(1 0 0 1 0 -25)"><stop offset="0" style="stop-color:var(--theme-groups-0);stop-opacity: 0"/><stop offset="1" style="stop-color:var(--theme-groups-0);"/></linearGradient><linearGradient id="hxAaeqNlmb" gradientUnits="userSpaceOnUse" x1="1831.9789" y1="58.1503" x2="2730" y2="58.1503" gradientTransform="matrix(1 0 0 -1 0 105)"><stop offset="0" style="stop-color:var(--theme-groups-2);stop-opacity: 0"/><stop offset="0.5262" style="stop-color:var(--theme-groups-2);"/><stop offset="1" style="stop-color:var(--theme-groups-2);stop-opacity: 0"/></linearGradient><linearGradient id="pO0DHpEecm" gradientUnits="userSpaceOnUse" x1="1829.3223" y1="78.0352" x2="2729.9998" y2="78.0352" gradientTransform="matrix(1 0 0 1 0 -25)"><stop offset="0" style="stop-color:var(--theme-groups-2);stop-opacity: 0"/><stop offset="0.5262" style="stop-color:var(--theme-groups-2);"/><stop offset="1" style="stop-color:var(--theme-groups-2);stop-opacity: 0"/></linearGradient><linearGradient id="hLYZkNAeH3" gradientUnits="userSpaceOnUse" x1="2729.0437" y1="85.8557" x2="2321.5996" y2="86.1706" gradientTransform="matrix(1 0 0 1 0 -25)"><stop offset="0" style="stop-color:var(--theme-groups-0);stop-opacity: 0"/><stop offset="1" style="stop-color:var(--theme-groups-0);"/></linearGradient><linearGradient id="wcCXID87nk" gradientUnits="userSpaceOnUse" x1="2730.9226" y1="84.3312" x2="2293.6904" y2="88.1004" gradientTransform="matrix(1 0 0 1 0 -25)"><stop offset="0" style="stop-color:var(--theme-groups-0);stop-opacity: 0"/><stop offset="1" style="stop-color:var(--theme-groups-0);"/></linearGradient><path class="ek_H44uVHM" d="M897.4,81.7c0,0-19.6-7.4-44.6-38.5c-25-31.1-44.5-31.1-111.9-31.1c-67.6,0-741.3,0-741.3,0"/><path class="byyw9sSRxh" d="M-0.4,24.4h720.1h77.8c24.9,0,48.7,10.1,65.8,28.3c11.9,12.8,26.1,25.7,36.8,29"/><path class="uDMM2gneSR" d="M847.8,86.6h25.3l-33.2-37.8c-7.5-8.5-18.3-13.5-29.7-13.5h-9.5L847.8,86.6z"/><path class="gujHI8Fhsg" d="M1832.2,81.7c0,0,19.6-7.4,44.6-38.5s44.5-31.1,111.9-31.1c67.5,0,741.3,0,741.3,0"/><path class="eJ0kWp3RJa" d="M2730,24.4h-720.1h-77.8c-24.9,0-48.7,10.1-65.8,28.3c-11.9,12.8-26.1,25.7-36.8,29"/><path class="uDMM2gneSR" d="M1881.7,86.6h-25.1l33.2-37.8c7.5-8.5,18.3-13.5,29.7-13.5h9.5L1881.7,86.6z"/><polygon class="uDMM2gneSR" points="806.6,86.6 831.7,86.6 786.7,35.4 759.3,35.4 "/><polygon class="uDMM2gneSR" points="763.1,86.6 788.3,86.6 743.3,35.4 715.9,35.4 "/><polygon class="uDMM2gneSR" points="717.8,86.6 743,86.6 698,35.4 670.5,35.4 "/><polygon class="uDMM2gneSR" points="673.4,86.6 698.5,86.6 653.5,35.4 626.1,35.4 "/><polygon class="uDMM2gneSR" points="629.4,86.6 654.5,86.6 609.5,35.4 582.1,35.4 "/><polygon class="uDMM2gneSR" points="584.9,86.6 610,86.6 565,35.4 537.6,35.4 "/><polygon class="uDMM2gneSR" points="541.4,86.6 566.6,86.6 521.6,35.4 494.3,35.4 "/><polygon class="uDMM2gneSR" points="497.1,86.6 522.3,86.6 477.2,35.4 449.8,35.4 "/><polygon class="uDMM2gneSR" points="453.4,86.6 478.5,86.6 433.5,35.4 406.1,35.4 "/><polygon class="mw__f1wCgz" points="434.1,86.6 -0.4,86.6 -0.4,35.4 386.2,35.4 "/><polygon class="uDMM2gneSR" points="1923,86.6 1897.8,86.6 1942.9,35.4 1970.3,35.4 "/><polygon class="uDMM2gneSR" points="1966.4,86.6 1941.3,86.6 1986.3,35.4 2013.7,35.4 "/><polygon class="uDMM2gneSR" points="2011.8,86.6 1986.6,86.6 2031.6,35.4 2059.1,35.4 "/><polygon class="uDMM2gneSR" points="2056.2,86.6 2031.1,86.6 2076.1,35.4 2103.4,35.4 "/><polygon class="uDMM2gneSR" points="2100.2,86.6 2075.1,86.6 2120.1,35.4 2147.5,35.4 "/><polygon class="uDMM2gneSR" points="2144.7,86.6 2119.4,86.6 2164.6,35.4 2191.8,35.4 "/><polygon class="uDMM2gneSR" points="2188.2,86.6 2162.9,86.6 2207.9,35.4 2235.3,35.4 "/><polygon class="uDMM2gneSR" points="2232.5,86.6 2207.3,86.6 2252.4,35.4 2279.8,35.4 "/><polygon class="uDMM2gneSR" points="2276.2,86.6 2251.1,86.6 2296.1,35.4 2323.5,35.4 "/><polygon class="sjRYLtO254" points="2295.5,86.6 2730,86.6 2730,35.4 2343.3,35.4 "/><g><linearGradient id="mV6b0dWlUV" gradientUnits="userSpaceOnUse" x1="1360.4351" y1="7.9055" x2="1359.7699" y2="85.7201"><stop offset="0" style="stop-color:var(--theme-groups-0);stop-opacity: 0"/><stop offset="1" style="stop-color:var(--theme-groups-0);"/></linearGradient><linearGradient id="bQ8tEh8vWI" gradientUnits="userSpaceOnUse" x1="1360.4351" y1="7.9055" x2="1359.7699" y2="85.7201"><stop offset="0" style="stop-color:var(--theme-groups-1);stop-opacity: 0"/><stop offset="1" style="stop-color:var(--theme-groups-1);"/></linearGradient><linearGradient id="axauGFP3Sh" gradientUnits="userSpaceOnUse" x1="992.3218" y1="66.9492" x2="916.9426" y2="1.3312"><stop offset="0" style="stop-color:var(--theme-groups-1);stop-opacity: 0"/><stop offset="1" style="stop-color:var(--theme-groups-1);"/></linearGradient><linearGradient id="uKIYQqN77Z" gradientUnits="userSpaceOnUse" x1="918.6313" y1="12.7205" x2="903.1992" y2="32.51"><stop offset="0" style="stop-color:var(--theme-groups-1);stop-opacity: 0"/><stop offset="1" style="stop-color:var(--theme-groups-1);"/></linearGradient><linearGradient id="kmEok1qQx5" gradientUnits="userSpaceOnUse" x1="976.7715" y1="9.2925" x2="956.1895" y2="19.4856"><stop offset="0" style="stop-color:var(--theme-groups-1);stop-opacity: 0"/><stop offset="1" style="stop-color:var(--theme-groups-1);"/></linearGradient><linearGradient id="eRBpKgxttd" gradientUnits="userSpaceOnUse" x1="1235.7079" y1="81.8587" x2="907.6007" y2="82.0804"><stop offset="0" style="stop-color:var(--theme-groups-0);stop-opacity: 0"/><stop offset="1" style="stop-color:var(--theme-groups-0);"/></linearGradient><linearGradient id="r8xqu7amZl" gradientUnits="userSpaceOnUse" x1="1268.5145" y1="18.9534" x2="969.2275" y2="19.1751"><stop offset="0" style="stop-color:var(--theme-groups-0);stop-opacity: 0"/><stop offset="1" style="stop-color:var(--theme-groups-0);"/></linearGradient><linearGradient id="onAoVnLHgD" gradientUnits="userSpaceOnUse" x1="1734.7852" y1="62.8673" x2="1795.1707" y2="-2.419"><stop offset="0" style="stop-color:var(--theme-groups-1);stop-opacity: 0"/><stop offset="1" style="stop-color:var(--theme-groups-1);"/></linearGradient><linearGradient id="tFM78HldGS" gradientUnits="userSpaceOnUse" x1="1798.6143" y1="24.4202" x2="1815.0786" y2="24.4202"><stop offset="0" style="stop-color:var(--theme-groups-1);stop-opacity: 0"/><stop offset="1" style="stop-color:var(--theme-groups-1);"/></linearGradient><linearGradient id="iusZ_Pqkih" gradientUnits="userSpaceOnUse" x1="1740.0763" y1="15.2889" x2="1759.7661" y2="15.2889"><stop offset="0" style="stop-color:var(--theme-groups-1);stop-opacity: 0"/><stop offset="1" style="stop-color:var(--theme-groups-1);"/></linearGradient><linearGradient id="oAwCwolELe" gradientUnits="userSpaceOnUse" x1="1484.6017" y1="81.9686" x2="1809.0735" y2="81.9686"><stop offset="0" style="stop-color:var(--theme-groups-0);stop-opacity: 0"/><stop offset="1" style="stop-color:var(--theme-groups-0);"/></linearGradient><linearGradient id="qSwiL2ylVE" gradientUnits="userSpaceOnUse" x1="1447.5787" y1="19.1738" x2="1750.8839" y2="19.1738"><stop offset="0" style="stop-color:var(--theme-groups-0);stop-opacity: 0"/><stop offset="1" style="stop-color:var(--theme-groups-0);"/></linearGradient><linearGradient id="pkjnrlgske" gradientUnits="userSpaceOnUse" x1="777.7115" y1="98.2077" x2="1968.4858" y2="98.2077"><stop offset="0" style="stop-color:var(--theme-groups-1);stop-opacity: 0"/><stop offset="0.5001" style="stop-color:var(--theme-groups-1);"/><stop offset="1" style="stop-color:var(--theme-groups-1);stop-opacity: 0"/></linearGradient><linearGradient id="sezWq2bi3e" gradientUnits="userSpaceOnUse" x1="910.7897" y1="94.1341" x2="1835.4076" y2="94.1341"><stop offset="0" style="stop-color:var(--theme-groups-1);stop-opacity: 0"/><stop offset="0.5001" style="stop-color:var(--theme-groups-1);"/><stop offset="1" style="stop-color:var(--theme-groups-1);stop-opacity: 0"/></linearGradient><path class="x6mVBpWN8D" d="M952.3,90.7h-51.7c-3.4,0-6.5-2-7.9-5.2L888,75c-2.2-5-2.3-10.7-0.3-15.8l15.8-39.6c2.2-5.6,7.7-9.3,13.7-9.3h27.4c2,0,4-0.8,5.4-2.2v0c1.4-1.4,3.4-2.2,5.4-2.2h89.3h720.9l5.3,4.7h39.9l22.7,56.5l-9.4,23.8H952.3z"/><path class="qRZtDEqLgn" d="M952.3,90.7h-51.7c-3.4,0-6.5-2-7.9-5.2L888,75c-2.2-5-2.3-10.7-0.3-15.8l15.8-39.6c2.2-5.6,7.7-9.3,13.7-9.3h27.4c2,0,4-0.8,5.4-2.2v0c1.4-1.4,3.4-2.2,5.4-2.2h89.3h720.9l5.3,4.7h39.9l22.7,56.5l-9.4,23.8H952.3z"/><path class="zXvkSgNh0j" d="M952.3,90.7h-51.7c-3.4,0-6.5-2-7.9-5.2L888,75c-2.2-5-2.3-10.7-0.3-15.8l15.8-39.6c2.2-5.6,7.7-9.3,13.7-9.3h27.4c2,0,4-0.8,5.4-2.2v0c1.4-1.4,3.4-2.2,5.4-2.2h89.3h720.9l5.3,4.7h39.9l22.7,56.5l-9.4,23.8H952.3z M947,22.4h-32.4c-3.8,0-7.2,2.3-8.6,5.9l-13.3,34.2c-0.9,2.3-0.3,4.9,1.6,6.6l16.5,15c2.8,2.5,6.4,3.9,10.2,3.9h878.3c4,0,7.8-1.5,10.6-4.3l14.4-14c1.7-1.7,2.3-4.2,1.4-6.5l-13.8-35c-1.4-3.5-4.8-5.8-8.6-5.8h-34c-6.3,0-12.4-2.6-16.7-7.3v0c-2.5-2.7-6-4.2-9.7-4.2H973.8c-3.1,0-6.1,1.1-8.4,3.1l-3.7,3.1C957.5,20.5,952.3,22.4,947,22.4z"/><path class="guIfMunwco" d="M1044.7,5.8h-89.3c-2,0-4,0.8-5.4,2.2v0c-1.4,1.4-3.4,2.2-5.4,2.2h-27.4c-6,0-11.5,3.7-13.7,9.3l-15.8,39.6c-2,5.1-1.9,10.8,0.3,15.8l4.6,10.6c1.4,3.1,4.5,5.2,7.9,5.2h51.7"/><path class="j8LU2eXcb8" d="M904.7,32.7c0,0,4.8-18.2,15-18.3"/><path class="ohN1lqxnqO" d="M957.1,19.7c0,0,3.3-0.6,8-5.3c2.7-2.7,4.1-3.6,11.6-3.6"/><path class="mZRXoMSq4w" d="M1674.1,5.8h89.3c2,0,4,0.8,5.4,2.2v0c1.4,1.4,3.4,2.2,5.4,2.2h27.4c6,0,11.5,3.7,13.7,9.3l15.8,39.6c2,5.1,1.9,10.8-0.3,15.8l-4.6,10.6c-1.4,3.1-4.5,5.2-7.9,5.2h-51.7"/><path class="q-QSsNxIll" d="M1814.3,33.5c0,0-4.8-18.2-15-18.3"/><path class="b5CGDBp2S5" d="M1759.6,19.7c0,0-3.3-0.6-8-5.3c-2.7-2.7-4.1-3.6-11.6-3.6"/><line class="pe5bFPnHms" x1="938.3" y1="35.7" x2="927.3" y2="70.9"/><line class="pe5bFPnHms" x1="946.8" y1="35.7" x2="940.5" y2="55.5"/><line class="pe5bFPnHms" x1="955.3" y1="35.7" x2="951.4" y2="48.2"/><line class="pe5bFPnHms" x1="1781.6" y1="35.7" x2="1792.5" y2="70.9"/><line class="pe5bFPnHms" x1="1773.1" y1="35.7" x2="1779.4" y2="55.5"/><line class="pe5bFPnHms" x1="1764.6" y1="35.7" x2="1768.4" y2="48.2"/><line class="eRqUJ2VTEd" x1="777.7" y1="98.2" x2="1968.5" y2="98.2"/><line class="sCH4H6OhL8" x1="1835.4" y1="94.1" x2="910.8" y2="94.1"/><polygon class="abpb3WU14W" points="913.5,35.7 923.3,35.7 913.5,63.5 903.6,63.5 "/><polygon class="fv_6jRUhPv" points="910.8,79.3 917.7,84.7 1235.3,84.7 1235.3,79.3 "/><polygon class="clEYdCoFvK" points="969,21.5 973,16.8 1272.3,16.8 1268.8,20.3 "/><polygon class="abpb3WU14W" points="1806.3,35.7 1796.5,35.7 1806.3,63.5 1816.3,63.5 "/><polygon class="xDPVU48dNi" points="1809.1,79.3 1802.2,84.7 1484.6,84.7 1484.6,79.3 "/><polygon class="pd5jpBNssy" points="1750.9,21.5 1746.9,16.8 1447.6,16.8 1451,20.3 "/></g><style>.ek_H44uVHM { opacity: 0.3; fill: none; stroke: url(#pFHJ1A5Gqm); stroke-width: 1.4203; stroke-miterlimit: 10; enable-background: new;}.byyw9sSRxh { opacity: 0.3; fill: none; stroke: url(#y8Owupyv_x); stroke-width: 1.4203; stroke-miterlimit: 10; enable-background: new;}.uDMM2gneSR { opacity: 0.4; fill: var(--theme-groups-0); fill-opacity: 0.5; stroke: var(--theme-groups-0); stroke-width: 1.4203; stroke-miterlimit: 10; enable-background: new;}.mw__f1wCgz { opacity: 0.4; fill: url(#gC6ciYM3uE); fill-opacity: 0.5; stroke: url(#i7CBxM6MyU); stroke-width: 1.4203; stroke-miterlimit: 10; enable-background: new;}.gujHI8Fhsg { opacity: 0.3; fill: none; stroke: url(#hxAaeqNlmb); stroke-width: 1.4203; stroke-miterlimit: 10; enable-background: new;}.eJ0kWp3RJa { opacity: 0.3; fill: none; stroke: url(#pO0DHpEecm); stroke-width: 1.4203; stroke-miterlimit: 10; enable-background: new;}.sjRYLtO254 { opacity: 0.4; fill: url(#hLYZkNAeH3); fill-opacity: 0.5; stroke: url(#wcCXID87nk); stroke-width: 1.4203; stroke-miterlimit: 10; enable-background: new;}.x6mVBpWN8D { opacity: 0.36; fill: url(#mV6b0dWlUV); enable-background: new;}.qRZtDEqLgn { opacity: 0.2; fill: url(#bQ8tEh8vWI); enable-background: new;}.zXvkSgNh0j { opacity: 0.5; fill: var(--theme-groups-0);}.guIfMunwco { fill: none; stroke: url(#axauGFP3Sh); stroke-width: 2; stroke-miterlimit: 10;}.j8LU2eXcb8 { fill: none; stroke: url(#uKIYQqN77Z); stroke-width: 1.5; stroke-linecap: round; stroke-miterlimit: 10;}.ohN1lqxnqO { fill: none; stroke: url(#kmEok1qQx5); stroke-width: 1.5; stroke-linecap: round; stroke-miterlimit: 10;}.pe5bFPnHms { opacity: 0.6; fill: none; stroke: var(--theme-groups-0); stroke-width: 1.5; stroke-linecap: round; stroke-miterlimit: 10;}.abpb3WU14W { fill: var(--theme-groups-1);}.fv_6jRUhPv { opacity: 0.3; fill: url(#eRBpKgxttd);}.clEYdCoFvK { opacity: 0.3; fill: url(#r8xqu7amZl);}.mZRXoMSq4w { fill: none; stroke: url(#onAoVnLHgD); stroke-width: 2; stroke-miterlimit: 10;}.q-QSsNxIll { fill: none; stroke: url(#tFM78HldGS); stroke-width: 1.5; stroke-linecap: round; stroke-miterlimit: 10;}.b5CGDBp2S5 { fill: none; stroke: url(#iusZ_Pqkih); stroke-width: 1.5; stroke-miterlimit: 10;}.xDPVU48dNi { opacity: 0.3; fill: url(#oAwCwolELe);}.pd5jpBNssy { opacity: 0.3; fill: url(#qSwiL2ylVE);}.eRqUJ2VTEd { opacity: 0.5; fill: none; stroke: url(#pkjnrlgske); stroke-width: 3; stroke-miterlimit: 10;}.sCH4H6OhL8 { opacity: 0.2; fill: none; stroke: url(#sezWq2bi3e); stroke-width: 3; stroke-miterlimit: 10;}</style></svg>