<svg version="1.1" id="uXpzXpwzIT" xmlns="http://www.w3.org/2000/svg" xmlns:xlink="http://www.w3.org/1999/xlink" x="0px" y="0px" viewBox="0 0 1920 77.5" style="enable-background: new 0 0 1920 77.5" xml:space="preserve"><g id="t1eDtJ0dYY"><g id="dkyluJjJdK"><linearGradient id="fgeShZpuRu" gradientUnits="userSpaceOnUse" x1="2649" y1="-2083" x2="2649" y2="-2014" gradientTransform="matrix(1 0 0 -1 -1689 -2006)"><stop offset="0" style="stop-color:var(--theme-groups-0);"/><stop offset="1" style="stop-color:var(--theme-groups-2);stop-opacity: 0.4"/></linearGradient><linearGradient id="jHSsQMc0Ey" gradientUnits="userSpaceOnUse" x1="2649" y1="-2075" x2="2649" y2="-2006" gradientTransform="matrix(1 0 0 -1 -1689 -2006)"><stop offset="0" style="stop-color:var(--theme-groups-0);"/><stop offset="1" style="stop-color:var(--theme-groups-3);"/></linearGradient><linearGradient id="qeRfsXRDjK" gradientUnits="userSpaceOnUse" x1="2986.7651" y1="-2076" x2="2986.7651" y2="-2037" gradientTransform="matrix(1 0 0 -1 -1689 -2006)"><stop offset="0" style="stop-color:var(--theme-groups-0);"/><stop offset="1" style="stop-color:var(--theme-groups-1);"/></linearGradient><linearGradient id="nIH6Ksqqxr" gradientUnits="userSpaceOnUse" x1="2354.9998" y1="-2041.0383" x2="2630" y2="-2041.0383" gradientTransform="matrix(1 0 0 -1 -1689 -2006)"><stop offset="0.295" style="stop-color:var(--theme-groups-0);"/><stop offset="0.3" style="stop-color:var(--theme-groups-0);stop-opacity: 0"/><stop offset="1" style="stop-color:var(--theme-groups-0);"/></linearGradient><path id="c881HV8bVa" class="vFvRiEb9UU" d="M1254,8c0,0-17.9,34.6-43.1,54.7c-13.6,10.8-33.1,14.3-54.3,14.3H764c-25.8,0-40.4-0.9-56-14c-23.8-20.1-42-55-42-55H1254z"/><path id="zonEKnMo5R" class="opxS0IvQLJ" d="M1254,0c0,0-17.9,34.6-43.1,54.7c-13.6,10.8-33.1,14.3-54.3,14.3H764c-25.8,0-40.4-0.9-56-14c-23.8-20.1-42-55-42-55H1254z"/><path class="mCGZv01pFI" d="M1156.5,72v-4c42.7,0,61.7-18.3,75.8-38.2l0.6-0.8h206v4h-204C1220.3,53.4,1200.5,72,1156.5,72z"/><path class="zVTVY4MO7x" d="M941,71H764c-25.6,0-40.9-0.7-57.3-14.5C682.9,36.4,665,2.4,664.2,0.9l3.5-1.8c0.2,0.3,18.3,34.8,41.5,54.4C724.6,66.4,739.3,67,764,67h177V71z"/><g id="xFDQmR1fhz"><g id="syneSax3lH" class="k9SWSt7uIQ"><path class="fqKFLCXjIJ" d="M1736,61c-0.2,0-0.5-0.1-0.7-0.3l-8.7-7.7H1590c-0.6,0-1-0.4-1-1s0.4-1,1-1h137.4l9.3,8.3c0.4,0.4,0.5,1,0.1,1.4C1736.5,60.9,1736.3,61,1736,61z"/><path class="fqKFLCXjIJ" d="M1735.4,47H1407c-0.6,0-1-0.4-1-1s0.4-1,1-1h327.6l7.7-6.8c0.4-0.4,1-0.3,1.4,0.1c0.4,0.4,0.3,1-0.1,1.4L1735.4,47z"/><rect id="rnIQOrQe1O" x="1499" y="51" class="fqKFLCXjIJ" width="87" height="2"/><rect id="kuJ1UjJjQT" x="1429" y="51" class="fqKFLCXjIJ" width="67" height="2"/></g><path id="qf3e8xmAzQ" class="e5MvEGTjKf" d="M1410,53v-2"/><path id="ptTgQAyrjc" class="skXmB4PbqA" d="M1920,49v-7h-171l7,7H1920z"/><path id="ihsKR3I7Rs" class="xU5pKviHJ3" d="M1233,32h687V0h-667L1233,32z"/><path class="fwzZgy0cvg" d="M1692,32c-0.6,0-1-0.4-1-1v-7h-423.6l3.3,3.3c0.4,0.4,0.4,1,0,1.4s-1,0.4-1.4,0l-6.7-6.7H1693v9C1693,31.6,1692.6,32,1692,32z"/><linearGradient id="j-NmD5jyj5" gradientUnits="userSpaceOnUse" x1="3438" y1="-2051.5" x2="3609" y2="-2051.5" gradientTransform="matrix(1 0 0 -1 -1689 -2006)"><stop offset="0" style="stop-color:var(--theme-groups-2);"/><stop offset="1" style="stop-color:var(--theme-groups-1);"/></linearGradient><linearGradient id="igTEjzHBEK" gradientUnits="userSpaceOnUse" x1="2922" y1="-2022" x2="3609" y2="-2022" gradientTransform="matrix(1 0 0 -1 -1689 -2006)"><stop offset="0" style="stop-color:var(--theme-groups-1);stop-opacity: 0.702"/><stop offset="1" style="stop-color:var(--theme-groups-2);stop-opacity: 0.702"/></linearGradient></g><g id="dZPcXm3N3v"><path class="fY6GznJ0dg" d="M760.5,76.5c-1.7,0-3.4,0-5-0.1l0-1c1.6,0.1,3.3,0.1,5,0.1V76.5z M750.4,76.2c-1.7-0.1-3.4-0.3-5-0.5l0.1-1c1.6,0.2,3.3,0.3,5,0.5L750.4,76.2z M740.5,75c-1.7-0.3-3.3-0.6-4.9-0.9l0.2-1c1.6,0.3,3.2,0.6,4.9,0.9L740.5,75z M730.7,72.9c-1.6-0.4-3.2-0.9-4.8-1.4l0.3-0.9c1.6,0.5,3.2,1,4.8,1.4L730.7,72.9z M721.1,69.8c-1.6-0.6-3.1-1.3-4.6-2l0.4-0.9c1.5,0.7,3,1.4,4.5,2L721.1,69.8z M712.1,65.4c-1.4-0.8-2.9-1.7-4.3-2.6l0.6-0.8c1.4,0.9,2.8,1.8,4.2,2.6L712.1,65.4z M703.7,59.9c-1.3-1-2.6-2.1-3.9-3.2l0.7-0.8c1.3,1.1,2.6,2.1,3.9,3.1L703.7,59.9z M696.1,53.3c-1.2-1.1-2.3-2.3-3.5-3.6l0.7-0.7c1.1,1.2,2.3,2.4,3.5,3.6L696.1,53.3z M689.2,45.9c-1-1.2-2.1-2.6-3.1-3.9l0.8-0.6c1,1.3,2.1,2.6,3.1,3.9L689.2,45.9z M683.1,38l-0.4-0.5h-3.9v-1h4.4l0.6,0.9L683.1,38z M673.9,37.5h-5v-1h5V37.5z M663.9,37.5h-5v-1h5V37.5z M653.9,37.5h-5v-1h5V37.5z M643.9,37.5h-5v-1h5V37.5z M633.9,37.5h-5v-1h5V37.5z M623.9,37.5h-5v-1h5V37.5z M613.9,37.5h-5v-1h5V37.5z M603.9,37.5h-5v-1h5V37.5z M593.9,37.5h-5v-1h5V37.5z M583.9,37.5h-5v-1h5V37.5z M573.9,37.5h-5v-1h5V37.5z M563.9,37.5h-5v-1h5V37.5z M553.9,37.5h-5v-1h5V37.5z M543.9,37.5h-5v-1h5V37.5z M533.9,37.5h-5v-1h5V37.5z M523.9,37.5h-5v-1h5V37.5z M513.9,37.5h-5v-1h5V37.5z M503.9,37.5h-5v-1h5V37.5z M493.9,37.5h-5v-1h5V37.5z M483.9,37.5h-5v-1h5V37.5z M473.9,37.5h-5v-1h5V37.5z M463.9,37.5h-5v-1h5V37.5z M453.9,37.5h-5v-1h5V37.5z M443.9,37.5h-5v-1h5V37.5z M433.9,37.5h-5v-1h5V37.5z M423.9,37.5h-5v-1h5V37.5z M413.9,37.5h-5v-1h5V37.5z M403.9,37.5h-5v-1h5V37.5z M393.9,37.5h-5v-1h5V37.5z M383.9,37.5h-5v-1h5V37.5z M373.9,37.5h-5v-1h5V37.5z M363.9,37.5h-5v-1h5V37.5z M353.9,37.5h-5v-1h5V37.5z M343.9,37.5h-5v-1h5V37.5z M333.9,37.5h-5v-1h5V37.5z M323.9,37.5h-5v-1h5V37.5z M313.9,37.5h-5v-1h5V37.5z M303.9,37.5h-5v-1h5V37.5z M293.9,37.5h-5v-1h5V37.5z M283.9,37.5h-5v-1h5V37.5z M273.9,37.5h-5v-1h5V37.5z M263.9,37.5h-5v-1h5V37.5z M253.9,37.5h-5v-1h5V37.5z M243.9,37.5h-5v-1h5V37.5z M233.9,37.5h-5v-1h5V37.5z M223.9,37.5h-5v-1h5V37.5z M213.9,37.5h-5v-1h5V37.5z M203.9,37.5h-5v-1h5V37.5z M193.9,37.5h-5v-1h5V37.5z M183.9,37.5h-5v-1h5V37.5z M173.9,37.5h-5v-1h5V37.5z M163.9,37.5h-5v-1h5V37.5z M153.9,37.5h-5v-1h5V37.5z M143.9,37.5h-5v-1h5V37.5z M133.9,37.5h-5v-1h5V37.5z M123.9,37.5h-5v-1h5V37.5z M113.9,37.5h-5v-1h5V37.5z M103.9,37.5h-5v-1h5V37.5z M93.9,37.5h-5v-1h5V37.5z M83.9,37.5h-5v-1h5V37.5z M73.9,37.5h-5v-1h5V37.5z M63.9,37.5h-5v-1h5V37.5z M53.9,37.5h-5v-1h5V37.5z M43.9,37.5h-5v-1h5V37.5z M33.9,37.5h-5v-1h5V37.5z M23.9,37.5h-5v-1h5V37.5z M13.9,37.5h-5v-1h5V37.5z M3.9,37.5H0v-1h3.9V37.5z"/><path class="fY6GznJ0dg" d="M1160,76.5v-1c1.7,0,3.4,0,5-0.1l0,1C1163.4,76.5,1161.7,76.5,1160,76.5z M1170,76.2l-0.1-1c1.7-0.1,3.3-0.3,5-0.5l0.1,1C1173.4,75.9,1171.7,76,1170,76.2z M1180,75l-0.2-1c1.7-0.3,3.3-0.6,4.9-0.9l0.2,1C1183.3,74.4,1181.7,74.7,1180,75z M1189.8,72.9l-0.3-1c1.6-0.4,3.2-0.9,4.8-1.4l0.3,0.9C1193.1,72,1191.4,72.5,1189.8,72.9z M1199.3,69.7l-0.4-0.9c1.5-0.6,3.1-1.3,4.5-2l0.4,0.9C1202.5,68.4,1200.9,69.1,1199.3,69.7z M1208.4,65.4l-0.5-0.9c1.4-0.8,2.8-1.7,4.2-2.6l0.6,0.8C1211.3,63.7,1209.8,64.6,1208.4,65.4z M1216.8,59.8l-0.6-0.8c1.3-1,2.6-2,3.9-3.1l0.7,0.8C1219.4,57.8,1218.1,58.8,1216.8,59.8z M1224.4,53.3l-0.7-0.7c1.2-1.1,2.3-2.3,3.5-3.6l0.7,0.7C1226.7,50.9,1225.6,52.1,1224.4,53.3z M1231.2,45.9l-0.8-0.6c1-1.2,2.1-2.5,3.1-3.9l0.8,0.6C1233.3,43.3,1232.3,44.6,1231.2,45.9z M1237.3,38l-0.8-0.6l0.6-0.9h4.4v1h-3.9L1237.3,38z M1920,37.5h-3.4v-1h3.4V37.5z M1911.6,37.5h-5v-1h5V37.5z M1901.6,37.5h-5v-1h5V37.5z M1891.6,37.5h-5v-1h5V37.5z M1881.6,37.5h-5v-1h5V37.5z M1871.6,37.5h-5v-1h5V37.5z M1861.6,37.5h-5v-1h5V37.5z M1851.6,37.5h-5v-1h5V37.5z M1841.6,37.5h-5v-1h5V37.5z M1831.6,37.5h-5v-1h5V37.5z M1821.6,37.5h-5v-1h5V37.5z M1811.6,37.5h-5v-1h5V37.5z M1801.6,37.5h-5v-1h5V37.5z M1791.6,37.5h-5v-1h5V37.5z M1781.6,37.5h-5v-1h5V37.5z M1771.6,37.5h-5v-1h5V37.5z M1761.6,37.5h-5v-1h5V37.5z M1751.6,37.5h-5v-1h5V37.5z M1741.6,37.5h-5v-1h5V37.5z M1731.6,37.5h-5v-1h5V37.5z M1721.6,37.5h-5v-1h5V37.5z M1711.6,37.5h-5v-1h5V37.5z M1701.6,37.5h-5v-1h5V37.5z M1691.6,37.5h-5v-1h5V37.5z M1681.6,37.5h-5v-1h5V37.5z M1671.6,37.5h-5v-1h5V37.5z M1661.6,37.5h-5v-1h5V37.5z M1651.6,37.5h-5v-1h5V37.5z M1641.6,37.5h-5v-1h5V37.5z M1631.6,37.5h-5v-1h5V37.5z M1621.6,37.5h-5v-1h5V37.5z M1611.6,37.5h-5v-1h5V37.5z M1601.6,37.5h-5v-1h5V37.5z M1591.6,37.5h-5v-1h5V37.5z M1581.6,37.5h-5v-1h5V37.5z M1571.6,37.5h-5v-1h5V37.5z M1561.6,37.5h-5v-1h5V37.5z M1551.6,37.5h-5v-1h5V37.5z M1541.6,37.5h-5v-1h5V37.5z M1531.6,37.5h-5v-1h5V37.5z M1521.6,37.5h-5v-1h5V37.5z M1511.6,37.5h-5v-1h5V37.5z M1501.6,37.5h-5v-1h5V37.5z M1491.6,37.5h-5v-1h5V37.5z M1481.6,37.5h-5v-1h5V37.5z M1471.6,37.5h-5v-1h5V37.5z M1461.6,37.5h-5v-1h5V37.5z M1451.6,37.5h-5v-1h5V37.5z M1441.6,37.5h-5v-1h5V37.5z M1431.6,37.5h-5v-1h5V37.5z M1421.6,37.5h-5v-1h5V37.5z M1411.6,37.5h-5v-1h5V37.5z M1401.6,37.5h-5v-1h5V37.5z M1391.6,37.5h-5v-1h5V37.5z M1381.6,37.5h-5v-1h5V37.5z M1371.6,37.5h-5v-1h5V37.5z M1361.6,37.5h-5v-1h5V37.5z M1351.6,37.5h-5v-1h5V37.5z M1341.6,37.5h-5v-1h5V37.5z M1331.6,37.5h-5v-1h5V37.5z M1321.6,37.5h-5v-1h5V37.5z M1311.6,37.5h-5v-1h5V37.5z M1301.6,37.5h-5v-1h5V37.5z M1291.6,37.5h-5v-1h5V37.5z M1281.6,37.5h-5v-1h5V37.5z M1271.6,37.5h-5v-1h5V37.5z M1261.6,37.5h-5v-1h5V37.5z M1251.6,37.5h-5v-1h5V37.5z"/><path class="bCSX9KyJ1g" d="M763.5,72c-44,0-63.8-18.6-78.5-39H481v-4h206l0.6,0.8C701.8,49.7,720.7,68,763.5,68V72z"/><path id="vra9Hyj0jD" class="e5MvEGTjKf" d="M510,51L510,51z"/><path id="tiFYQs9FMF" class="yDm7yBfB2-" d="M-1,49v-7h172l-7,7H-1z"/><path id="jHXd3mhBX7" class="kvPJuXtXoE" d="M688,32H0V0h667L688,32z"/><path class="fwzZgy0cvg" d="M228,32c-0.6,0-1-0.4-1-1v-9h430.4l-6.7,6.7c-0.4,0.4-1,0.4-1.4,0s-0.4-1,0-1.4l3.3-3.3H229v7C229,31.6,228.6,32,228,32z"/><linearGradient id="sS7GYloDw3" gradientUnits="userSpaceOnUse" x1="2170" y1="-2056.5" x2="2452.4697" y2="-2056.5" gradientTransform="matrix(1 0 0 -1 -1689 -2006)"><stop offset="0" style="stop-color:var(--theme-groups-1);"/><stop offset="1" style="stop-color:var(--theme-groups-0);"/></linearGradient><linearGradient id="g897kZIpoQ" gradientUnits="userSpaceOnUse" x1="1688" y1="-2051.5" x2="1860" y2="-2051.5" gradientTransform="matrix(1 0 0 -1 -1689 -2006)"><stop offset="0" style="stop-color:var(--theme-groups-1);stop-opacity: 0.4"/><stop offset="1" style="stop-color:var(--theme-groups-2);"/></linearGradient><linearGradient id="z9BoqrJxF5" gradientUnits="userSpaceOnUse" x1="1689" y1="-2022" x2="2377" y2="-2022" gradientTransform="matrix(1 0 0 -1 -1689 -2006)"><stop offset="0" style="stop-color:var(--theme-groups-1);stop-opacity: 0.702"/><stop offset="1" style="stop-color:var(--theme-groups-2);stop-opacity: 0.702"/></linearGradient><g id="hHQAIV4_Ji" class="k9SWSt7uIQ"><path class="fqKFLCXjIJ" d="M184,61c-0.3,0-0.6-0.1-0.7-0.3c-0.4-0.4-0.3-1,0.1-1.4l9.3-8.3H330c0.6,0,1,0.4,1,1s-0.4,1-1,1H193.4l-8.7,7.7C184.5,60.9,184.2,61,184,61z"/><path class="fqKFLCXjIJ" d="M513,47H184.6l-8.3-7.2c-0.4-0.4-0.5-1-0.1-1.4c0.4-0.4,1-0.5,1.4-0.1l7.7,6.8H513c0.6,0,1,0.4,1,1S513.6,47,513,47z"/><rect id="qZxv_8lzCz" x="334" y="51" class="fqKFLCXjIJ" width="87" height="2"/><rect id="md9GHTV_Ip" x="424" y="51" class="fqKFLCXjIJ" width="67" height="2"/></g></g><rect id="lkigJg8s55" x="1154" y="68" class="wVEmxm3XKo" width="4" height="4"/><rect id="f9VDzVKgM9" x="762" y="68" class="wVEmxm3XKo" width="4" height="4"/></g><g id="gdMblCUVow"><linearGradient id="sQ-YQy0_lX" gradientUnits="userSpaceOnUse" x1="2323.5" y1="-2070" x2="2323.5" y2="-2046" gradientTransform="matrix(1 0 0 -1 -1689 -2006)"><stop offset="0" style="stop-color:var(--theme-groups-3);stop-opacity: 0.102"/><stop offset="1" style="stop-color:var(--theme-groups-3);"/></linearGradient><linearGradient id="voGzxKSndS" gradientUnits="userSpaceOnUse" x1="2325.5" y1="-2066" x2="2325.5" y2="-2042" gradientTransform="matrix(1 0 0 -1 -1689 -2006)"><stop offset="0" style="stop-color:var(--theme-groups-3);stop-opacity: 0.102"/><stop offset="1" style="stop-color:var(--theme-groups-3);"/></linearGradient><linearGradient id="z7qFLmZeaC" gradientUnits="userSpaceOnUse" x1="2325.5349" y1="-2066" x2="2325.5349" y2="-2042" gradientTransform="matrix(1 0 0 -1 -1689 -2006)"><stop offset="0" style="stop-color:var(--theme-groups-3);stop-opacity: 0"/><stop offset="1" style="stop-color:var(--theme-groups-3);"/></linearGradient><path id="fc909Aly4s" class="lStJkRUWqq" d="M703,64h-15l-12-13l-86,1l10,12h-13l-21-24h114L703,64z"/><path id="hIS0zdqT7U" class="iz6YX5bokO" d="M705,60h-15l-12-13h-87l11,13h-13l-21-24h114L705,60z"/><path class="wpCDIirYR7" d="M706.2,60.5h-15.4l-12-12h-85.7l10,12h-14.3l-21.9-25h115.3L706.2,60.5z M691.2,59.5h12.6l-22-23H569.1l20.1,23h11.7l-10-12h88.3L691.2,59.5z"/><path id="ydz5U3wBAK" class="fPrqrQGC48" d="M673,40l3,3h-16l-3-3H673z"/></g><g id="i2XqQO94oT"><linearGradient id="gHNetOj5HC" gradientUnits="userSpaceOnUse" x1="2975.5" y1="-2070" x2="2975.5" y2="-2046" gradientTransform="matrix(1 0 0 -1 -1689 -2006)"><stop offset="0" style="stop-color:var(--theme-groups-2);stop-opacity: 0"/><stop offset="0.565" style="stop-color:var(--theme-groups-2);"/><stop offset="1" style="stop-color:var(--theme-groups-1);"/></linearGradient><linearGradient id="yrGXx7DyAM" gradientUnits="userSpaceOnUse" x1="2973.5" y1="-2066" x2="2973.5" y2="-2042" gradientTransform="matrix(1 0 0 -1 -1689 -2006)"><stop offset="0" style="stop-color:var(--theme-groups-2);stop-opacity: 0"/><stop offset="0.565" style="stop-color:var(--theme-groups-2);"/><stop offset="1" style="stop-color:var(--theme-groups-1);"/></linearGradient><path id="At8uj-7hsq" class="oxvGW-2nY3" d="M1218,64h15l12-13l86,1l-10,12h13l21-24h-114L1218,64z"/><path id="znEJMyIjP7" class="lxqIrBmQLe" d="M1216,60h15l12-13h87l-11,13h13l21-24h-114L1216,60z"/><path id="qPNksnn3IP" class="i_nkC5RCjj" d="M1248,40l-3,3h16l3-3H1248z"/></g><g id="uZgJpJC05y"><linearGradient id="mrA2t0FaF5" gradientUnits="userSpaceOnUse" x1="2323.5" y1="-2070" x2="2323.5" y2="-2046" gradientTransform="matrix(1 0 0 -1 -1689 -2006)"><stop offset="0" style="stop-color:var(--theme-groups-2);stop-opacity: 0"/><stop offset="0.565" style="stop-color:var(--theme-groups-2);"/><stop offset="1" style="stop-color:var(--theme-groups-1);"/></linearGradient><linearGradient id="jEApk_mmU8" gradientUnits="userSpaceOnUse" x1="2325.5" y1="-2066" x2="2325.5" y2="-2042" gradientTransform="matrix(1 0 0 -1 -1689 -2006)"><stop offset="0" style="stop-color:var(--theme-groups-2);stop-opacity: 0"/><stop offset="0.565" style="stop-color:var(--theme-groups-2);"/><stop offset="1" style="stop-color:var(--theme-groups-1);"/></linearGradient><path id="tn16z1W0Ue" class="qF2NJ-19f7" d="M703,64h-15l-12-13l-86,1l10,12h-13l-21-24h114L703,64z"/><path id="m9ChuEVwWt" class="soAvYOGqin" d="M705,60h-15l-12-13h-87l11,13h-13l-21-24h114L705,60z"/><path id="wJtLEJrmvc" class="i_nkC5RCjj" d="M673,40l3,3h-16l-3-3H673z"/></g><g id="fHK9YkOjGu" class="fpbFLRO1og"><g id="rHIXyi2MGp"><g id="ph5QEupXz8" class="tsyjm8ilyw"><path class="s_CoOJD9iB" d="M1243,12.6l-5.5-3.4V2.7l5.5-3.3l5.5,3.3v6.5L1243,12.6z M1238.5,8.7l4.5,2.7l4.5-2.7V3.3l-4.5-2.7l-4.5,2.7V8.7z"/><path class="s_CoOJD9iB" d="M1234,12.6l-5.5-3.4V2.7l5.5-3.3l5.5,3.3v6.5L1234,12.6z M1229.5,8.7l4.5,2.7l4.5-2.7V3.3l-4.5-2.7l-4.5,2.7V8.7z"/><path class="s_CoOJD9iB" d="M1225,12.6l-5.5-3.4V2.7l5.5-3.3l5.5,3.3v6.5L1225,12.6z M1220.5,8.7l4.5,2.7l4.5-2.7V3.3l-4.5-2.7l-4.5,2.7V8.7z"/><path class="s_CoOJD9iB" d="M1216,12.6l-5.5-3.4V2.7l5.5-3.3l5.5,3.3v6.5L1216,12.6z M1211.5,8.7l4.5,2.7l4.5-2.7V3.3l-4.5-2.7l-4.5,2.7V8.7z"/><path class="s_CoOJD9iB" d="M1207,12.6l-5.5-3.4V2.7l5.5-3.3l5.5,3.3v6.5L1207,12.6z M1202.5,8.7l4.5,2.7l4.5-2.7V3.3l-4.5-2.7l-4.5,2.7V8.7z"/><path class="s_CoOJD9iB" d="M1198,12.6l-5.5-3.4V2.7l5.5-3.3l5.5,3.3v6.5L1198,12.6z M1193.5,8.7l4.5,2.7l4.5-2.7V3.3l-4.5-2.7l-4.5,2.7V8.7z"/><path class="s_CoOJD9iB" d="M1189,12.6l-5.5-3.4V2.7l5.5-3.3l5.5,3.3v6.5L1189,12.6z M1184.5,8.7l4.5,2.7l4.5-2.7V3.3l-4.5-2.7l-4.5,2.7V8.7z"/><path class="s_CoOJD9iB" d="M1180,12.6l-5.5-3.4V2.7l5.5-3.3l5.5,3.3v6.5L1180,12.6z M1175.5,8.7l4.5,2.7l4.5-2.7V3.3l-4.5-2.7l-4.5,2.7V8.7z"/><path class="s_CoOJD9iB" d="M1171,12.6l-5.5-3.4V2.7l5.5-3.3l5.5,3.3v6.5L1171,12.6z M1166.5,8.7l4.5,2.7l4.5-2.7V3.3l-4.5-2.7l-4.5,2.7V8.7z"/><path class="s_CoOJD9iB" d="M1162,12.6l-5.5-3.4V2.7l5.5-3.3l5.5,3.3v6.5L1162,12.6z M1157.5,8.7l4.5,2.7l4.5-2.7V3.3l-4.5-2.7l-4.5,2.7V8.7z"/><path class="s_CoOJD9iB" d="M1153,12.6l-5.5-3.4V2.7l5.5-3.3l5.5,3.3v6.5L1153,12.6z M1148.5,8.7l4.5,2.7l4.5-2.7V3.3l-4.5-2.7l-4.5,2.7V8.7z"/><path class="s_CoOJD9iB" d="M1144,12.6l-5.5-3.4V2.7l5.5-3.3l5.5,3.3v6.5L1144,12.6z M1139.5,8.7l4.5,2.7l4.5-2.7V3.3l-4.5-2.7l-4.5,2.7V8.7z"/><path class="s_CoOJD9iB" d="M1135,12.6l-5.5-3.4V2.7l5.5-3.3l5.5,3.3v6.5L1135,12.6z M1130.5,8.7l4.5,2.7l4.5-2.7V3.3l-4.5-2.7l-4.5,2.7V8.7z"/><path class="s_CoOJD9iB" d="M1126,12.6l-5.5-3.4V2.7l5.5-3.3l5.5,3.3v6.5L1126,12.6z M1121.5,8.7l4.5,2.7l4.5-2.7V3.3l-4.5-2.7l-4.5,2.7V8.7z"/><path class="s_CoOJD9iB" d="M1117,12.6l-5.5-3.4V2.7l5.5-3.3l5.5,3.3v6.5L1117,12.6z M1112.5,8.7l4.5,2.7l4.5-2.7V3.3l-4.5-2.7l-4.5,2.7V8.7z"/><path class="s_CoOJD9iB" d="M1108,12.6l-5.5-3.4V2.7l5.5-3.3l5.5,3.3v6.5L1108,12.6z M1103.5,8.7l4.5,2.7l4.5-2.7V3.3l-4.5-2.7l-4.5,2.7V8.7z"/><path class="s_CoOJD9iB" d="M1099,12.6l-5.5-3.4V2.7l5.5-3.3l5.5,3.3v6.5L1099,12.6z M1094.5,8.7l4.5,2.7l4.5-2.7V3.3l-4.5-2.7l-4.5,2.7V8.7z"/><path class="s_CoOJD9iB" d="M1090,12.6l-5.5-3.4V2.7l5.5-3.3l5.5,3.3v6.5L1090,12.6z M1085.5,8.7l4.5,2.7l4.5-2.7V3.3l-4.5-2.7l-4.5,2.7V8.7z"/><path class="sr53teZzmD" d="M1081,12.6l-5.5-3.4V2.7l5.5-3.3l5.5,3.3v6.5L1081,12.6z M1076.5,8.7l4.5,2.7l4.5-2.7V3.3l-4.5-2.7l-4.5,2.7V8.7z"/><path class="uftimXRHl7" d="M1072,12.6l-5.5-3.4V2.7l5.5-3.3l5.5,3.3v6.5L1072,12.6z M1067.5,8.7l4.5,2.7l4.5-2.7V3.3l-4.5-2.7l-4.5,2.7V8.7z"/><path class="sjbwRYM8Pu" d="M1063,12.6l-5.5-3.4V2.7l5.5-3.3l5.5,3.3v6.5L1063,12.6z M1058.5,8.7l4.5,2.7l4.5-2.7V3.3l-4.5-2.7l-4.5,2.7V8.7z"/><path class="vADA5CCI7R" d="M1054,12.6l-5.5-3.4V2.7l5.5-3.3l5.5,3.3v6.5L1054,12.6z M1049.5,8.7l4.5,2.7l4.5-2.7V3.3l-4.5-2.7l-4.5,2.7V8.7z"/></g><g id="gQ13WcILll" class="q4LFtIU9LW"><path class="s_CoOJD9iB" d="M1238,20.6l-5.5-3.4v-6.5l5.5-3.3l5.5,3.3v6.5L1238,20.6z M1233.5,16.7l4.5,2.7l4.5-2.7v-5.4l-4.5-2.7l-4.5,2.7V16.7z"/><path class="s_CoOJD9iB" d="M1229,20.6l-5.5-3.4v-6.5l5.5-3.3l5.5,3.3v6.5L1229,20.6z M1224.5,16.7l4.5,2.7l4.5-2.7v-5.4l-4.5-2.7l-4.5,2.7V16.7z"/><path class="s_CoOJD9iB" d="M1220,20.6l-5.5-3.4v-6.5l5.5-3.3l5.5,3.3v6.5L1220,20.6z M1215.5,16.7l4.5,2.7l4.5-2.7v-5.4l-4.5-2.7l-4.5,2.7V16.7z"/><path class="s_CoOJD9iB" d="M1211,20.6l-5.5-3.4v-6.5l5.5-3.3l5.5,3.3v6.5L1211,20.6z M1206.5,16.7l4.5,2.7l4.5-2.7v-5.4l-4.5-2.7l-4.5,2.7V16.7z"/><path class="s_CoOJD9iB" d="M1202,20.6l-5.5-3.4v-6.5l5.5-3.3l5.5,3.3v6.5L1202,20.6z M1197.5,16.7l4.5,2.7l4.5-2.7v-5.4l-4.5-2.7l-4.5,2.7V16.7z"/><path class="s_CoOJD9iB" d="M1193,20.6l-5.5-3.4v-6.5l5.5-3.3l5.5,3.3v6.5L1193,20.6z M1188.5,16.7l4.5,2.7l4.5-2.7v-5.4l-4.5-2.7l-4.5,2.7V16.7z"/><path class="s_CoOJD9iB" d="M1184,20.6l-5.5-3.4v-6.5l5.5-3.3l5.5,3.3v6.5L1184,20.6z M1179.5,16.7l4.5,2.7l4.5-2.7v-5.4l-4.5-2.7l-4.5,2.7V16.7z"/><path class="s_CoOJD9iB" d="M1175,20.6l-5.5-3.4v-6.5l5.5-3.3l5.5,3.3v6.5L1175,20.6z M1170.5,16.7l4.5,2.7l4.5-2.7v-5.4l-4.5-2.7l-4.5,2.7V16.7z"/><path class="s_CoOJD9iB" d="M1166,20.6l-5.5-3.4v-6.5l5.5-3.3l5.5,3.3v6.5L1166,20.6z M1161.5,16.7l4.5,2.7l4.5-2.7v-5.4l-4.5-2.7l-4.5,2.7V16.7z"/><path class="s_CoOJD9iB" d="M1157,20.6l-5.5-3.4v-6.5l5.5-3.3l5.5,3.3v6.5L1157,20.6z M1152.5,16.7l4.5,2.7l4.5-2.7v-5.4l-4.5-2.7l-4.5,2.7V16.7z"/><path class="s_CoOJD9iB" d="M1148,20.6l-5.5-3.4v-6.5l5.5-3.3l5.5,3.3v6.5L1148,20.6z M1143.5,16.7l4.5,2.7l4.5-2.7v-5.4l-4.5-2.7l-4.5,2.7V16.7z"/><path class="s_CoOJD9iB" d="M1139,20.6l-5.5-3.4v-6.5l5.5-3.3l5.5,3.3v6.5L1139,20.6z M1134.5,16.7l4.5,2.7l4.5-2.7v-5.4l-4.5-2.7l-4.5,2.7V16.7z"/><path class="s_CoOJD9iB" d="M1130,20.6l-5.5-3.4v-6.5l5.5-3.3l5.5,3.3v6.5L1130,20.6z M1125.5,16.7l4.5,2.7l4.5-2.7v-5.4l-4.5-2.7l-4.5,2.7V16.7z"/><path class="s_CoOJD9iB" d="M1121,20.6l-5.5-3.4v-6.5l5.5-3.3l5.5,3.3v6.5L1121,20.6z M1116.5,16.7l4.5,2.7l4.5-2.7v-5.4l-4.5-2.7l-4.5,2.7V16.7z"/><path class="s_CoOJD9iB" d="M1112,20.6l-5.5-3.4v-6.5l5.5-3.3l5.5,3.3v6.5L1112,20.6z M1107.5,16.7l4.5,2.7l4.5-2.7v-5.4l-4.5-2.7l-4.5,2.7V16.7z"/><path class="s_CoOJD9iB" d="M1103,20.6l-5.5-3.4v-6.5l5.5-3.3l5.5,3.3v6.5L1103,20.6z M1098.5,16.7l4.5,2.7l4.5-2.7v-5.4l-4.5-2.7l-4.5,2.7V16.7z"/><path class="s_CoOJD9iB" d="M1094,20.6l-5.5-3.4v-6.5l5.5-3.3l5.5,3.3v6.5L1094,20.6z M1089.5,16.7l4.5,2.7l4.5-2.7v-5.4l-4.5-2.7l-4.5,2.7V16.7z"/><path class="sZ4s3xrktP" d="M1085,20.6l-5.5-3.4v-6.5l5.5-3.3l5.5,3.3v6.5L1085,20.6z M1080.5,16.7l4.5,2.7l4.5-2.7v-5.4l-4.5-2.7l-4.5,2.7V16.7z"/><path class="sr53teZzmD" d="M1076,20.6l-5.5-3.4v-6.5l5.5-3.3l5.5,3.3v6.5L1076,20.6z M1071.5,16.7l4.5,2.7l4.5-2.7v-5.4l-4.5-2.7l-4.5,2.7V16.7z"/><path class="uftimXRHl7" d="M1067,20.6l-5.5-3.4v-6.5l5.5-3.3l5.5,3.3v6.5L1067,20.6z M1062.5,16.7l4.5,2.7l4.5-2.7v-5.4l-4.5-2.7l-4.5,2.7V16.7z"/><path class="sjbwRYM8Pu" d="M1058,20.6l-5.5-3.4v-6.5l5.5-3.3l5.5,3.3v6.5L1058,20.6z M1053.5,16.7l4.5,2.7l4.5-2.7v-5.4l-4.5-2.7l-4.5,2.7V16.7z"/><path class="vADA5CCI7R" d="M1049,20.6l-5.5-3.4v-6.5l5.5-3.3l5.5,3.3v6.5L1049,20.6z M1044.5,16.7l4.5,2.7l4.5-2.7v-5.4l-4.5-2.7l-4.5,2.7V16.7z"/></g><g id="aE9r2vwTIJ" class="gjckiVl-U3"><path class="s_CoOJD9iB" d="M1233,28.6l-5.5-3.4v-6.5l5.5-3.3l5.5,3.3v6.5L1233,28.6z M1228.5,24.7l4.5,2.7l4.5-2.7v-5.4l-4.5-2.7l-4.5,2.7V24.7z"/><path class="s_CoOJD9iB" d="M1224,28.6l-5.5-3.4v-6.5l5.5-3.3l5.5,3.3v6.5L1224,28.6z M1219.5,24.7l4.5,2.7l4.5-2.7v-5.4l-4.5-2.7l-4.5,2.7V24.7z"/><path class="s_CoOJD9iB" d="M1215,28.6l-5.5-3.4v-6.5l5.5-3.3l5.5,3.3v6.5L1215,28.6z M1210.5,24.7l4.5,2.7l4.5-2.7v-5.4l-4.5-2.7l-4.5,2.7V24.7z"/><path class="s_CoOJD9iB" d="M1206,28.6l-5.5-3.4v-6.5l5.5-3.3l5.5,3.3v6.5L1206,28.6z M1201.5,24.7l4.5,2.7l4.5-2.7v-5.4l-4.5-2.7l-4.5,2.7V24.7z"/><path class="s_CoOJD9iB" d="M1197,28.6l-5.5-3.4v-6.5l5.5-3.3l5.5,3.3v6.5L1197,28.6z M1192.5,24.7l4.5,2.7l4.5-2.7v-5.4l-4.5-2.7l-4.5,2.7V24.7z"/><path class="s_CoOJD9iB" d="M1188,28.6l-5.5-3.4v-6.5l5.5-3.3l5.5,3.3v6.5L1188,28.6z M1183.5,24.7l4.5,2.7l4.5-2.7v-5.4l-4.5-2.7l-4.5,2.7V24.7z"/><path class="s_CoOJD9iB" d="M1179,28.6l-5.5-3.4v-6.5l5.5-3.3l5.5,3.3v6.5L1179,28.6z M1174.5,24.7l4.5,2.7l4.5-2.7v-5.4l-4.5-2.7l-4.5,2.7V24.7z"/><path class="s_CoOJD9iB" d="M1170,28.6l-5.5-3.4v-6.5l5.5-3.3l5.5,3.3v6.5L1170,28.6z M1165.5,24.7l4.5,2.7l4.5-2.7v-5.4l-4.5-2.7l-4.5,2.7V24.7z"/><path class="s_CoOJD9iB" d="M1161,28.6l-5.5-3.4v-6.5l5.5-3.3l5.5,3.3v6.5L1161,28.6z M1156.5,24.7l4.5,2.7l4.5-2.7v-5.4l-4.5-2.7l-4.5,2.7V24.7z"/><path class="s_CoOJD9iB" d="M1152,28.6l-5.5-3.4v-6.5l5.5-3.3l5.5,3.3v6.5L1152,28.6z M1147.5,24.7l4.5,2.7l4.5-2.7v-5.4l-4.5-2.7l-4.5,2.7V24.7z"/><path class="s_CoOJD9iB" d="M1143,28.6l-5.5-3.4v-6.5l5.5-3.3l5.5,3.3v6.5L1143,28.6z M1138.5,24.7l4.5,2.7l4.5-2.7v-5.4l-4.5-2.7l-4.5,2.7V24.7z"/><path class="s_CoOJD9iB" d="M1134,28.6l-5.5-3.4v-6.5l5.5-3.3l5.5,3.3v6.5L1134,28.6z M1129.5,24.7l4.5,2.7l4.5-2.7v-5.4l-4.5-2.7l-4.5,2.7V24.7z"/><path class="s_CoOJD9iB" d="M1125,28.6l-5.5-3.4v-6.5l5.5-3.3l5.5,3.3v6.5L1125,28.6z M1120.5,24.7l4.5,2.7l4.5-2.7v-5.4l-4.5-2.7l-4.5,2.7V24.7z"/><path class="s_CoOJD9iB" d="M1116,28.6l-5.5-3.4v-6.5l5.5-3.3l5.5,3.3v6.5L1116,28.6z M1111.5,24.7l4.5,2.7l4.5-2.7v-5.4l-4.5-2.7l-4.5,2.7V24.7z"/><path class="s_CoOJD9iB" d="M1107,28.6l-5.5-3.4v-6.5l5.5-3.3l5.5,3.3v6.5L1107,28.6z M1102.5,24.7l4.5,2.7l4.5-2.7v-5.4l-4.5-2.7l-4.5,2.7V24.7z"/><path class="s_CoOJD9iB" d="M1098,28.6l-5.5-3.4v-6.5l5.5-3.3l5.5,3.3v6.5L1098,28.6z M1093.5,24.7l4.5,2.7l4.5-2.7v-5.4l-4.5-2.7l-4.5,2.7V24.7z"/><path class="s_CoOJD9iB" d="M1089,28.6l-5.5-3.4v-6.5l5.5-3.3l5.5,3.3v6.5L1089,28.6z M1084.5,24.7l4.5,2.7l4.5-2.7v-5.4l-4.5-2.7l-4.5,2.7V24.7z"/><path class="yGMSPzGAE5" d="M1080,28.6l-5.5-3.4v-6.5l5.5-3.3l5.5,3.3v6.5L1080,28.6z M1075.5,24.7l4.5,2.7l4.5-2.7v-5.4l-4.5-2.7l-4.5,2.7V24.7z"/><path class="sr53teZzmD" d="M1071,28.6l-5.5-3.4v-6.5l5.5-3.3l5.5,3.3v6.5L1071,28.6z M1066.5,24.7l4.5,2.7l4.5-2.7v-5.4l-4.5-2.7l-4.5,2.7V24.7z"/><path class="uftimXRHl7" d="M1062,28.6l-5.5-3.4v-6.5l5.5-3.3l5.5,3.3v6.5L1062,28.6z M1057.5,24.7l4.5,2.7l4.5-2.7v-5.4l-4.5-2.7l-4.5,2.7V24.7z"/><path class="sjbwRYM8Pu" d="M1053,28.6l-5.5-3.4v-6.5l5.5-3.3l5.5,3.3v6.5L1053,28.6z M1048.5,24.7l4.5,2.7l4.5-2.7v-5.4l-4.5-2.7l-4.5,2.7V24.7z"/><path class="vADA5CCI7R" d="M1044,28.6l-5.5-3.4v-6.5l5.5-3.3l5.5,3.3v6.5L1044,28.6z M1039.5,24.7l4.5,2.7l4.5-2.7v-5.4l-4.5-2.7l-4.5,2.7V24.7z"/></g><g id="q9kszo7cwW" class="hs0sgz00CD"><path class="s_CoOJD9iB" d="M1228,36.6l-5.5-3.4v-6.5l5.5-3.3l5.5,3.3v6.5L1228,36.6z M1223.5,32.7l4.5,2.7l4.5-2.7v-5.4l-4.5-2.7l-4.5,2.7V32.7z"/><path class="s_CoOJD9iB" d="M1219,36.6l-5.5-3.4v-6.5l5.5-3.3l5.5,3.3v6.5L1219,36.6z M1214.5,32.7l4.5,2.7l4.5-2.7v-5.4l-4.5-2.7l-4.5,2.7V32.7z"/><path class="s_CoOJD9iB" d="M1210,36.6l-5.5-3.4v-6.5l5.5-3.3l5.5,3.3v6.5L1210,36.6z M1205.5,32.7l4.5,2.7l4.5-2.7v-5.4l-4.5-2.7l-4.5,2.7V32.7z"/><path class="s_CoOJD9iB" d="M1201,36.6l-5.5-3.4v-6.5l5.5-3.3l5.5,3.3v6.5L1201,36.6z M1196.5,32.7l4.5,2.7l4.5-2.7v-5.4l-4.5-2.7l-4.5,2.7V32.7z"/><path class="s_CoOJD9iB" d="M1192,36.6l-5.5-3.4v-6.5l5.5-3.3l5.5,3.3v6.5L1192,36.6z M1187.5,32.7l4.5,2.7l4.5-2.7v-5.4l-4.5-2.7l-4.5,2.7V32.7z"/><path class="s_CoOJD9iB" d="M1183,36.6l-5.5-3.4v-6.5l5.5-3.3l5.5,3.3v6.5L1183,36.6z M1178.5,32.7l4.5,2.7l4.5-2.7v-5.4l-4.5-2.7l-4.5,2.7V32.7z"/><path class="s_CoOJD9iB" d="M1174,36.6l-5.5-3.4v-6.5l5.5-3.3l5.5,3.3v6.5L1174,36.6z M1169.5,32.7l4.5,2.7l4.5-2.7v-5.4l-4.5-2.7l-4.5,2.7V32.7z"/><path class="s_CoOJD9iB" d="M1165,36.6l-5.5-3.4v-6.5l5.5-3.3l5.5,3.3v6.5L1165,36.6z M1160.5,32.7l4.5,2.7l4.5-2.7v-5.4l-4.5-2.7l-4.5,2.7V32.7z"/><path class="s_CoOJD9iB" d="M1156,36.6l-5.5-3.4v-6.5l5.5-3.3l5.5,3.3v6.5L1156,36.6z M1151.5,32.7l4.5,2.7l4.5-2.7v-5.4l-4.5-2.7l-4.5,2.7V32.7z"/><path class="s_CoOJD9iB" d="M1147,36.6l-5.5-3.4v-6.5l5.5-3.3l5.5,3.3v6.5L1147,36.6z M1142.5,32.7l4.5,2.7l4.5-2.7v-5.4l-4.5-2.7l-4.5,2.7V32.7z"/><path class="s_CoOJD9iB" d="M1138,36.6l-5.5-3.4v-6.5l5.5-3.3l5.5,3.3v6.5L1138,36.6z M1133.5,32.7l4.5,2.7l4.5-2.7v-5.4l-4.5-2.7l-4.5,2.7V32.7z"/><path class="s_CoOJD9iB" d="M1129,36.6l-5.5-3.4v-6.5l5.5-3.3l5.5,3.3v6.5L1129,36.6z M1124.5,32.7l4.5,2.7l4.5-2.7v-5.4l-4.5-2.7l-4.5,2.7V32.7z"/><path class="s_CoOJD9iB" d="M1120,36.6l-5.5-3.4v-6.5l5.5-3.3l5.5,3.3v6.5L1120,36.6z M1115.5,32.7l4.5,2.7l4.5-2.7v-5.4l-4.5-2.7l-4.5,2.7V32.7z"/><path class="s_CoOJD9iB" d="M1111,36.6l-5.5-3.4v-6.5l5.5-3.3l5.5,3.3v6.5L1111,36.6z M1106.5,32.7l4.5,2.7l4.5-2.7v-5.4l-4.5-2.7l-4.5,2.7V32.7z"/><path class="s_CoOJD9iB" d="M1102,36.6l-5.5-3.4v-6.5l5.5-3.3l5.5,3.3v6.5L1102,36.6z M1097.5,32.7l4.5,2.7l4.5-2.7v-5.4l-4.5-2.7l-4.5,2.7V32.7z"/><path class="s_CoOJD9iB" d="M1093,36.6l-5.5-3.4v-6.5l5.5-3.3l5.5,3.3v6.5L1093,36.6z M1088.5,32.7l4.5,2.7l4.5-2.7v-5.4l-4.5-2.7l-4.5,2.7V32.7z"/><path class="s_CoOJD9iB" d="M1084,36.6l-5.5-3.4v-6.5l5.5-3.3l5.5,3.3v6.5L1084,36.6z M1079.5,32.7l4.5,2.7l4.5-2.7v-5.4l-4.5-2.7l-4.5,2.7V32.7z"/><path class="sZ4s3xrktP" d="M1075,36.6l-5.5-3.4v-6.5l5.5-3.3l5.5,3.3v6.5L1075,36.6z M1070.5,32.7l4.5,2.7l4.5-2.7v-5.4l-4.5-2.7l-4.5,2.7V32.7z"/><path class="sr53teZzmD" d="M1066,36.6l-5.5-3.4v-6.5l5.5-3.3l5.5,3.3v6.5L1066,36.6z M1061.5,32.7l4.5,2.7l4.5-2.7v-5.4l-4.5-2.7l-4.5,2.7V32.7z"/><path class="uftimXRHl7" d="M1057,36.6l-5.5-3.4v-6.5l5.5-3.3l5.5,3.3v6.5L1057,36.6z M1052.5,32.7l4.5,2.7l4.5-2.7v-5.4l-4.5-2.7l-4.5,2.7V32.7z"/><path class="sjbwRYM8Pu" d="M1048,36.6l-5.5-3.4v-6.5l5.5-3.3l5.5,3.3v6.5L1048,36.6z M1043.5,32.7l4.5,2.7l4.5-2.7v-5.4l-4.5-2.7l-4.5,2.7V32.7z"/><path class="vADA5CCI7R" d="M1039,36.6l-5.5-3.4v-6.5l5.5-3.3l5.5,3.3v6.5L1039,36.6z M1034.5,32.7l4.5,2.7l4.5-2.7v-5.4l-4.5-2.7l-4.5,2.7V32.7z"/></g><g id="sou-rMmJ7R" class="hlKrWlCYS2"><path class="s_CoOJD9iB" d="M1224,44.6l-5.5-3.4v-6.5l5.5-3.3l5.5,3.3v6.5L1224,44.6z M1219.5,40.7l4.5,2.7l4.5-2.7v-5.4l-4.5-2.7l-4.5,2.7V40.7z"/><path class="s_CoOJD9iB" d="M1215,44.6l-5.5-3.4v-6.5l5.5-3.3l5.5,3.3v6.5L1215,44.6z M1210.5,40.7l4.5,2.7l4.5-2.7v-5.4l-4.5-2.7l-4.5,2.7V40.7z"/><path class="s_CoOJD9iB" d="M1206,44.6l-5.5-3.4v-6.5l5.5-3.3l5.5,3.3v6.5L1206,44.6z M1201.5,40.7l4.5,2.7l4.5-2.7v-5.4l-4.5-2.7l-4.5,2.7V40.7z"/><path class="s_CoOJD9iB" d="M1197,44.6l-5.5-3.4v-6.5l5.5-3.3l5.5,3.3v6.5L1197,44.6z M1192.5,40.7l4.5,2.7l4.5-2.7v-5.4l-4.5-2.7l-4.5,2.7V40.7z"/><path class="s_CoOJD9iB" d="M1188,44.6l-5.5-3.4v-6.5l5.5-3.3l5.5,3.3v6.5L1188,44.6z M1183.5,40.7l4.5,2.7l4.5-2.7v-5.4l-4.5-2.7l-4.5,2.7V40.7z"/><path class="s_CoOJD9iB" d="M1179,44.6l-5.5-3.4v-6.5l5.5-3.3l5.5,3.3v6.5L1179,44.6z M1174.5,40.7l4.5,2.7l4.5-2.7v-5.4l-4.5-2.7l-4.5,2.7V40.7z"/><path class="s_CoOJD9iB" d="M1170,44.6l-5.5-3.4v-6.5l5.5-3.3l5.5,3.3v6.5L1170,44.6z M1165.5,40.7l4.5,2.7l4.5-2.7v-5.4l-4.5-2.7l-4.5,2.7V40.7z"/><path class="s_CoOJD9iB" d="M1161,44.6l-5.5-3.4v-6.5l5.5-3.3l5.5,3.3v6.5L1161,44.6z M1156.5,40.7l4.5,2.7l4.5-2.7v-5.4l-4.5-2.7l-4.5,2.7V40.7z"/><path class="s_CoOJD9iB" d="M1152,44.6l-5.5-3.4v-6.5l5.5-3.3l5.5,3.3v6.5L1152,44.6z M1147.5,40.7l4.5,2.7l4.5-2.7v-5.4l-4.5-2.7l-4.5,2.7V40.7z"/><path class="s_CoOJD9iB" d="M1143,44.6l-5.5-3.4v-6.5l5.5-3.3l5.5,3.3v6.5L1143,44.6z M1138.5,40.7l4.5,2.7l4.5-2.7v-5.4l-4.5-2.7l-4.5,2.7V40.7z"/><path class="s_CoOJD9iB" d="M1134,44.6l-5.5-3.4v-6.5l5.5-3.3l5.5,3.3v6.5L1134,44.6z M1129.5,40.7l4.5,2.7l4.5-2.7v-5.4l-4.5-2.7l-4.5,2.7V40.7z"/><path class="s_CoOJD9iB" d="M1125,44.6l-5.5-3.4v-6.5l5.5-3.3l5.5,3.3v6.5L1125,44.6z M1120.5,40.7l4.5,2.7l4.5-2.7v-5.4l-4.5-2.7l-4.5,2.7V40.7z"/><path class="s_CoOJD9iB" d="M1116,44.6l-5.5-3.4v-6.5l5.5-3.3l5.5,3.3v6.5L1116,44.6z M1111.5,40.7l4.5,2.7l4.5-2.7v-5.4l-4.5-2.7l-4.5,2.7V40.7z"/><path class="s_CoOJD9iB" d="M1107,44.6l-5.5-3.4v-6.5l5.5-3.3l5.5,3.3v6.5L1107,44.6z M1102.5,40.7l4.5,2.7l4.5-2.7v-5.4l-4.5-2.7l-4.5,2.7V40.7z"/><path class="s_CoOJD9iB" d="M1098,44.6l-5.5-3.4v-6.5l5.5-3.3l5.5,3.3v6.5L1098,44.6z M1093.5,40.7l4.5,2.7l4.5-2.7v-5.4l-4.5-2.7l-4.5,2.7V40.7z"/><path class="s_CoOJD9iB" d="M1089,44.6l-5.5-3.4v-6.5l5.5-3.3l5.5,3.3v6.5L1089,44.6z M1084.5,40.7l4.5,2.7l4.5-2.7v-5.4l-4.5-2.7l-4.5,2.7V40.7z"/><path class="s_CoOJD9iB" d="M1080,44.6l-5.5-3.4v-6.5l5.5-3.3l5.5,3.3v6.5L1080,44.6z M1075.5,40.7l4.5,2.7l4.5-2.7v-5.4l-4.5-2.7l-4.5,2.7V40.7z"/><path class="sZ4s3xrktP" d="M1071,44.6l-5.5-3.4v-6.5l5.5-3.3l5.5,3.3v6.5L1071,44.6z M1066.5,40.7l4.5,2.7l4.5-2.7v-5.4l-4.5-2.7l-4.5,2.7V40.7z"/><path class="sr53teZzmD" d="M1062,44.6l-5.5-3.4v-6.5l5.5-3.3l5.5,3.3v6.5L1062,44.6z M1057.5,40.7l4.5,2.7l4.5-2.7v-5.4l-4.5-2.7l-4.5,2.7V40.7z"/><path class="uftimXRHl7" d="M1053,44.6l-5.5-3.4v-6.5l5.5-3.3l5.5,3.3v6.5L1053,44.6z M1048.5,40.7l4.5,2.7l4.5-2.7v-5.4l-4.5-2.7l-4.5,2.7V40.7z"/><path class="sjbwRYM8Pu" d="M1044,44.6l-5.5-3.4v-6.5l5.5-3.3l5.5,3.3v6.5L1044,44.6z M1039.5,40.7l4.5,2.7l4.5-2.7v-5.4l-4.5-2.7l-4.5,2.7V40.7z"/><path class="vADA5CCI7R" d="M1035,44.6l-5.5-3.4v-6.5l5.5-3.3l5.5,3.3v6.5L1035,44.6z M1030.5,40.7l4.5,2.7l4.5-2.7v-5.4l-4.5-2.7l-4.5,2.7V40.7z"/></g><g id="m9MtXrmE3m" class="wFm77Il-fb"><path class="s_CoOJD9iB" d="M1210,52.6l-5.5-3.4v-6.5l5.5-3.3l5.5,3.3v6.5L1210,52.6z M1205.5,48.7l4.5,2.7l4.5-2.7v-5.4l-4.5-2.7l-4.5,2.7V48.7z"/><path class="s_CoOJD9iB" d="M1201,52.6l-5.5-3.4v-6.5l5.5-3.3l5.5,3.3v6.5L1201,52.6z M1196.5,48.7l4.5,2.7l4.5-2.7v-5.4l-4.5-2.7l-4.5,2.7V48.7z"/><path class="s_CoOJD9iB" d="M1192,52.6l-5.5-3.4v-6.5l5.5-3.3l5.5,3.3v6.5L1192,52.6z M1187.5,48.7l4.5,2.7l4.5-2.7v-5.4l-4.5-2.7l-4.5,2.7V48.7z"/><path class="s_CoOJD9iB" d="M1183,52.6l-5.5-3.4v-6.5l5.5-3.3l5.5,3.3v6.5L1183,52.6z M1178.5,48.7l4.5,2.7l4.5-2.7v-5.4l-4.5-2.7l-4.5,2.7V48.7z"/><path class="s_CoOJD9iB" d="M1174,52.6l-5.5-3.4v-6.5l5.5-3.3l5.5,3.3v6.5L1174,52.6z M1169.5,48.7l4.5,2.7l4.5-2.7v-5.4l-4.5-2.7l-4.5,2.7V48.7z"/><path class="s_CoOJD9iB" d="M1165,52.6l-5.5-3.4v-6.5l5.5-3.3l5.5,3.3v6.5L1165,52.6z M1160.5,48.7l4.5,2.7l4.5-2.7v-5.4l-4.5-2.7l-4.5,2.7V48.7z"/><path class="s_CoOJD9iB" d="M1156,52.6l-5.5-3.4v-6.5l5.5-3.3l5.5,3.3v6.5L1156,52.6z M1151.5,48.7l4.5,2.7l4.5-2.7v-5.4l-4.5-2.7l-4.5,2.7V48.7z"/><path class="s_CoOJD9iB" d="M1147,52.6l-5.5-3.4v-6.5l5.5-3.3l5.5,3.3v6.5L1147,52.6z M1142.5,48.7l4.5,2.7l4.5-2.7v-5.4l-4.5-2.7l-4.5,2.7V48.7z"/><path class="s_CoOJD9iB" d="M1138,52.6l-5.5-3.4v-6.5l5.5-3.3l5.5,3.3v6.5L1138,52.6z M1133.5,48.7l4.5,2.7l4.5-2.7v-5.4l-4.5-2.7l-4.5,2.7V48.7z"/><path class="s_CoOJD9iB" d="M1129,52.6l-5.5-3.4v-6.5l5.5-3.3l5.5,3.3v6.5L1129,52.6z M1124.5,48.7l4.5,2.7l4.5-2.7v-5.4l-4.5-2.7l-4.5,2.7V48.7z"/><path class="s_CoOJD9iB" d="M1120,52.6l-5.5-3.4v-6.5l5.5-3.3l5.5,3.3v6.5L1120,52.6z M1115.5,48.7l4.5,2.7l4.5-2.7v-5.4l-4.5-2.7l-4.5,2.7V48.7z"/><path class="s_CoOJD9iB" d="M1111,52.6l-5.5-3.4v-6.5l5.5-3.3l5.5,3.3v6.5L1111,52.6z M1106.5,48.7l4.5,2.7l4.5-2.7v-5.4l-4.5-2.7l-4.5,2.7V48.7z"/><path class="s_CoOJD9iB" d="M1102,52.6l-5.5-3.4v-6.5l5.5-3.3l5.5,3.3v6.5L1102,52.6z M1097.5,48.7l4.5,2.7l4.5-2.7v-5.4l-4.5-2.7l-4.5,2.7V48.7z"/><path class="s_CoOJD9iB" d="M1093,52.6l-5.5-3.4v-6.5l5.5-3.3l5.5,3.3v6.5L1093,52.6z M1088.5,48.7l4.5,2.7l4.5-2.7v-5.4l-4.5-2.7l-4.5,2.7V48.7z"/><path class="s_CoOJD9iB" d="M1084,52.6l-5.5-3.4v-6.5l5.5-3.3l5.5,3.3v6.5L1084,52.6z M1079.5,48.7l4.5,2.7l4.5-2.7v-5.4l-4.5-2.7l-4.5,2.7V48.7z"/><path class="s_CoOJD9iB" d="M1075,52.6l-5.5-3.4v-6.5l5.5-3.3l5.5,3.3v6.5L1075,52.6z M1070.5,48.7l4.5,2.7l4.5-2.7v-5.4l-4.5-2.7l-4.5,2.7V48.7z"/><path class="s_CoOJD9iB" d="M1066,52.6l-5.5-3.4v-6.5l5.5-3.3l5.5,3.3v6.5L1066,52.6z M1061.5,48.7l4.5,2.7l4.5-2.7v-5.4l-4.5-2.7l-4.5,2.7V48.7z"/><path class="sZ4s3xrktP" d="M1057,52.6l-5.5-3.4v-6.5l5.5-3.3l5.5,3.3v6.5L1057,52.6z M1052.5,48.7l4.5,2.7l4.5-2.7v-5.4l-4.5-2.7l-4.5,2.7V48.7z"/><path class="sr53teZzmD" d="M1048,52.6l-5.5-3.4v-6.5l5.5-3.3l5.5,3.3v6.5L1048,52.6z M1043.5,48.7l4.5,2.7l4.5-2.7v-5.4l-4.5-2.7l-4.5,2.7V48.7z"/><path class="uftimXRHl7" d="M1039,52.6l-5.5-3.4v-6.5l5.5-3.3l5.5,3.3v6.5L1039,52.6z M1034.5,48.7l4.5,2.7l4.5-2.7v-5.4l-4.5-2.7l-4.5,2.7V48.7z"/><path class="sjbwRYM8Pu" d="M1030,52.6l-5.5-3.4v-6.5l5.5-3.3l5.5,3.3v6.5L1030,52.6z M1025.5,48.7l4.5,2.7l4.5-2.7v-5.4l-4.5-2.7l-4.5,2.7V48.7z"/><path class="vADA5CCI7R" d="M1021,52.6l-5.5-3.4v-6.5l5.5-3.3l5.5,3.3v6.5L1021,52.6z M1016.5,48.7l4.5,2.7l4.5-2.7v-5.4l-4.5-2.7l-4.5,2.7V48.7z"/></g><g id="b8bAYmRE6S" class="ucT5DBQNtx"><path class="s_CoOJD9iB" d="M1197,60.6l-5.5-3.4v-6.5l5.5-3.3l5.5,3.3v6.5L1197,60.6z M1192.5,56.7l4.5,2.7l4.5-2.7v-5.4l-4.5-2.7l-4.5,2.7V56.7z"/><path class="s_CoOJD9iB" d="M1188,60.6l-5.5-3.4v-6.5l5.5-3.3l5.5,3.3v6.5L1188,60.6z M1183.5,56.7l4.5,2.7l4.5-2.7v-5.4l-4.5-2.7l-4.5,2.7V56.7z"/><path class="s_CoOJD9iB" d="M1179,60.6l-5.5-3.4v-6.5l5.5-3.3l5.5,3.3v6.5L1179,60.6z M1174.5,56.7l4.5,2.7l4.5-2.7v-5.4l-4.5-2.7l-4.5,2.7V56.7z"/><path class="s_CoOJD9iB" d="M1170,60.6l-5.5-3.4v-6.5l5.5-3.3l5.5,3.3v6.5L1170,60.6z M1165.5,56.7l4.5,2.7l4.5-2.7v-5.4l-4.5-2.7l-4.5,2.7V56.7z"/><path class="s_CoOJD9iB" d="M1161,60.6l-5.5-3.4v-6.5l5.5-3.3l5.5,3.3v6.5L1161,60.6z M1156.5,56.7l4.5,2.7l4.5-2.7v-5.4l-4.5-2.7l-4.5,2.7V56.7z"/><path class="s_CoOJD9iB" d="M1152,60.6l-5.5-3.4v-6.5l5.5-3.3l5.5,3.3v6.5L1152,60.6z M1147.5,56.7l4.5,2.7l4.5-2.7v-5.4l-4.5-2.7l-4.5,2.7V56.7z"/><path class="s_CoOJD9iB" d="M1143,60.6l-5.5-3.4v-6.5l5.5-3.3l5.5,3.3v6.5L1143,60.6z M1138.5,56.7l4.5,2.7l4.5-2.7v-5.4l-4.5-2.7l-4.5,2.7V56.7z"/><path class="s_CoOJD9iB" d="M1134,60.6l-5.5-3.4v-6.5l5.5-3.3l5.5,3.3v6.5L1134,60.6z M1129.5,56.7l4.5,2.7l4.5-2.7v-5.4l-4.5-2.7l-4.5,2.7V56.7z"/><path class="s_CoOJD9iB" d="M1125,60.6l-5.5-3.4v-6.5l5.5-3.3l5.5,3.3v6.5L1125,60.6z M1120.5,56.7l4.5,2.7l4.5-2.7v-5.4l-4.5-2.7l-4.5,2.7V56.7z"/><path class="s_CoOJD9iB" d="M1116,60.6l-5.5-3.4v-6.5l5.5-3.3l5.5,3.3v6.5L1116,60.6z M1111.5,56.7l4.5,2.7l4.5-2.7v-5.4l-4.5-2.7l-4.5,2.7V56.7z"/><path class="s_CoOJD9iB" d="M1107,60.6l-5.5-3.4v-6.5l5.5-3.3l5.5,3.3v6.5L1107,60.6z M1102.5,56.7l4.5,2.7l4.5-2.7v-5.4l-4.5-2.7l-4.5,2.7V56.7z"/><path class="s_CoOJD9iB" d="M1098,60.6l-5.5-3.4v-6.5l5.5-3.3l5.5,3.3v6.5L1098,60.6z M1093.5,56.7l4.5,2.7l4.5-2.7v-5.4l-4.5-2.7l-4.5,2.7V56.7z"/><path class="s_CoOJD9iB" d="M1089,60.6l-5.5-3.4v-6.5l5.5-3.3l5.5,3.3v6.5L1089,60.6z M1084.5,56.7l4.5,2.7l4.5-2.7v-5.4l-4.5-2.7l-4.5,2.7V56.7z"/><path class="s_CoOJD9iB" d="M1080,60.6l-5.5-3.4v-6.5l5.5-3.3l5.5,3.3v6.5L1080,60.6z M1075.5,56.7l4.5,2.7l4.5-2.7v-5.4l-4.5-2.7l-4.5,2.7V56.7z"/><path class="s_CoOJD9iB" d="M1071,60.6l-5.5-3.4v-6.5l5.5-3.3l5.5,3.3v6.5L1071,60.6z M1066.5,56.7l4.5,2.7l4.5-2.7v-5.4l-4.5-2.7l-4.5,2.7V56.7z"/><path class="s_CoOJD9iB" d="M1062,60.6l-5.5-3.4v-6.5l5.5-3.3l5.5,3.3v6.5L1062,60.6z M1057.5,56.7l4.5,2.7l4.5-2.7v-5.4l-4.5-2.7l-4.5,2.7V56.7z"/><path class="s_CoOJD9iB" d="M1053,60.6l-5.5-3.4v-6.5l5.5-3.3l5.5,3.3v6.5L1053,60.6z M1048.5,56.7l4.5,2.7l4.5-2.7v-5.4l-4.5-2.7l-4.5,2.7V56.7z"/><path class="sZ4s3xrktP" d="M1044,60.6l-5.5-3.4v-6.5l5.5-3.3l5.5,3.3v6.5L1044,60.6z M1039.5,56.7l4.5,2.7l4.5-2.7v-5.4l-4.5-2.7l-4.5,2.7V56.7z"/><path class="sr53teZzmD" d="M1035,60.6l-5.5-3.4v-6.5l5.5-3.3l5.5,3.3v6.5L1035,60.6z M1030.5,56.7l4.5,2.7l4.5-2.7v-5.4l-4.5-2.7l-4.5,2.7V56.7z"/><path class="uftimXRHl7" d="M1026,60.6l-5.5-3.4v-6.5l5.5-3.3l5.5,3.3v6.5L1026,60.6z M1021.5,56.7l4.5,2.7l4.5-2.7v-5.4l-4.5-2.7l-4.5,2.7V56.7z"/><path class="sjbwRYM8Pu" d="M1017,60.6l-5.5-3.4v-6.5l5.5-3.3l5.5,3.3v6.5L1017,60.6z M1012.5,56.7l4.5,2.7l4.5-2.7v-5.4l-4.5-2.7l-4.5,2.7V56.7z"/><path class="vADA5CCI7R" d="M1008,60.6l-5.5-3.4v-6.5l5.5-3.3l5.5,3.3v6.5L1008,60.6z M1003.5,56.7l4.5,2.7l4.5-2.7v-5.4l-4.5-2.7l-4.5,2.7V56.7z"/></g><g id="nweuQJRyXk" class="gNK3In2M1h"><path class="s_CoOJD9iB" d="M1183,68.6l-5.5-3.4v-6.5l5.5-3.3l5.5,3.3v6.5L1183,68.6z M1178.5,64.7l4.5,2.7l4.5-2.7v-5.4l-4.5-2.7l-4.5,2.7V64.7z"/><path class="s_CoOJD9iB" d="M1174,68.6l-5.5-3.4v-6.5l5.5-3.3l5.5,3.3v6.5L1174,68.6z M1169.5,64.7l4.5,2.7l4.5-2.7v-5.4l-4.5-2.7l-4.5,2.7V64.7z"/><path class="s_CoOJD9iB" d="M1165,68.6l-5.5-3.4v-6.5l5.5-3.3l5.5,3.3v6.5L1165,68.6z M1160.5,64.7l4.5,2.7l4.5-2.7v-5.4l-4.5-2.7l-4.5,2.7V64.7z"/><path class="s_CoOJD9iB" d="M1156,68.6l-5.5-3.4v-6.5l5.5-3.3l5.5,3.3v6.5L1156,68.6z M1151.5,64.7l4.5,2.7l4.5-2.7v-5.4l-4.5-2.7l-4.5,2.7V64.7z"/><path class="s_CoOJD9iB" d="M1147,68.6l-5.5-3.4v-6.5l5.5-3.3l5.5,3.3v6.5L1147,68.6z M1142.5,64.7l4.5,2.7l4.5-2.7v-5.4l-4.5-2.7l-4.5,2.7V64.7z"/><path class="s_CoOJD9iB" d="M1138,68.6l-5.5-3.4v-6.5l5.5-3.3l5.5,3.3v6.5L1138,68.6z M1133.5,64.7l4.5,2.7l4.5-2.7v-5.4l-4.5-2.7l-4.5,2.7V64.7z"/><path class="s_CoOJD9iB" d="M1129,68.6l-5.5-3.4v-6.5l5.5-3.3l5.5,3.3v6.5L1129,68.6z M1124.5,64.7l4.5,2.7l4.5-2.7v-5.4l-4.5-2.7l-4.5,2.7V64.7z"/><path class="s_CoOJD9iB" d="M1120,68.6l-5.5-3.4v-6.5l5.5-3.3l5.5,3.3v6.5L1120,68.6z M1115.5,64.7l4.5,2.7l4.5-2.7v-5.4l-4.5-2.7l-4.5,2.7V64.7z"/><path class="s_CoOJD9iB" d="M1111,68.6l-5.5-3.4v-6.5l5.5-3.3l5.5,3.3v6.5L1111,68.6z M1106.5,64.7l4.5,2.7l4.5-2.7v-5.4l-4.5-2.7l-4.5,2.7V64.7z"/><path class="s_CoOJD9iB" d="M1102,68.6l-5.5-3.4v-6.5l5.5-3.3l5.5,3.3v6.5L1102,68.6z M1097.5,64.7l4.5,2.7l4.5-2.7v-5.4l-4.5-2.7l-4.5,2.7V64.7z"/><path class="s_CoOJD9iB" d="M1093,68.6l-5.5-3.4v-6.5l5.5-3.3l5.5,3.3v6.5L1093,68.6z M1088.5,64.7l4.5,2.7l4.5-2.7v-5.4l-4.5-2.7l-4.5,2.7V64.7z"/><path class="s_CoOJD9iB" d="M1084,68.6l-5.5-3.4v-6.5l5.5-3.3l5.5,3.3v6.5L1084,68.6z M1079.5,64.7l4.5,2.7l4.5-2.7v-5.4l-4.5-2.7l-4.5,2.7V64.7z"/><path class="s_CoOJD9iB" d="M1075,68.6l-5.5-3.4v-6.5l5.5-3.3l5.5,3.3v6.5L1075,68.6z M1070.5,64.7l4.5,2.7l4.5-2.7v-5.4l-4.5-2.7l-4.5,2.7V64.7z"/><path class="s_CoOJD9iB" d="M1066,68.6l-5.5-3.4v-6.5l5.5-3.3l5.5,3.3v6.5L1066,68.6z M1061.5,64.7l4.5,2.7l4.5-2.7v-5.4l-4.5-2.7l-4.5,2.7V64.7z"/><path class="s_CoOJD9iB" d="M1057,68.6l-5.5-3.4v-6.5l5.5-3.3l5.5,3.3v6.5L1057,68.6z M1052.5,64.7l4.5,2.7l4.5-2.7v-5.4l-4.5-2.7l-4.5,2.7V64.7z"/><path class="s_CoOJD9iB" d="M1048,68.6l-5.5-3.4v-6.5l5.5-3.3l5.5,3.3v6.5L1048,68.6z M1043.5,64.7l4.5,2.7l4.5-2.7v-5.4l-4.5-2.7l-4.5,2.7V64.7z"/><path class="s_CoOJD9iB" d="M1039,68.6l-5.5-3.4v-6.5l5.5-3.3l5.5,3.3v6.5L1039,68.6z M1034.5,64.7l4.5,2.7l4.5-2.7v-5.4l-4.5-2.7l-4.5,2.7V64.7z"/><path class="s_CoOJD9iB" d="M1030,68.6l-5.5-3.4v-6.5l5.5-3.3l5.5,3.3v6.5L1030,68.6z M1025.5,64.7l4.5,2.7l4.5-2.7v-5.4l-4.5-2.7l-4.5,2.7V64.7z"/><path class="s_CoOJD9iB" d="M1021,68.6l-5.5-3.4v-6.5l5.5-3.3l5.5,3.3v6.5L1021,68.6z M1016.5,64.7l4.5,2.7l4.5-2.7v-5.4l-4.5-2.7l-4.5,2.7V64.7z"/><path class="s_CoOJD9iB" d="M1012,68.6l-5.5-3.4v-6.5l5.5-3.3l5.5,3.3v6.5L1012,68.6z M1007.5,64.7l4.5,2.7l4.5-2.7v-5.4l-4.5-2.7l-4.5,2.7V64.7z"/><path class="s_CoOJD9iB" d="M1003,68.6l-5.5-3.4v-6.5l5.5-3.3l5.5,3.3v6.5L1003,68.6z M998.5,64.7l4.5,2.7l4.5-2.7v-5.4l-4.5-2.7l-4.5,2.7V64.7z"/><path class="s_CoOJD9iB" d="M994,68.6l-5.5-3.4v-6.5l5.5-3.3l5.5,3.3v6.5L994,68.6z M989.5,64.7l4.5,2.7l4.5-2.7v-5.4l-4.5-2.7l-4.5,2.7V64.7z"/></g></g></g><g id="iIr49FpsS_" class="fpbFLRO1og"><g id="crAq1hbs6E"><g id="xZQZwzUJ_c" class="tsyjm8ilyw"><path class="s_CoOJD9iB" d="M678,12.6l-5.5-3.4V2.7l5.5-3.3l5.5,3.3v6.5L678,12.6z M673.5,8.7l4.5,2.7l4.5-2.7V3.3L678,0.6l-4.5,2.7V8.7z"/><path class="s_CoOJD9iB" d="M687,12.6l-5.5-3.4V2.7l5.5-3.3l5.5,3.3v6.5L687,12.6z M682.5,8.7l4.5,2.7l4.5-2.7V3.3L687,0.6l-4.5,2.7V8.7z"/><path class="s_CoOJD9iB" d="M696,12.6l-5.5-3.4V2.7l5.5-3.3l5.5,3.3v6.5L696,12.6z M691.5,8.7l4.5,2.7l4.5-2.7V3.3L696,0.6l-4.5,2.7V8.7z"/><path class="s_CoOJD9iB" d="M705,12.6l-5.5-3.4V2.7l5.5-3.3l5.5,3.3v6.5L705,12.6z M700.5,8.7l4.5,2.7l4.5-2.7V3.3L705,0.6l-4.5,2.7V8.7z"/><path class="s_CoOJD9iB" d="M714,12.6l-5.5-3.4V2.7l5.5-3.3l5.5,3.3v6.5L714,12.6z M709.5,8.7l4.5,2.7l4.5-2.7V3.3L714,0.6l-4.5,2.7V8.7z"/><path class="s_CoOJD9iB" d="M723,12.6l-5.5-3.4V2.7l5.5-3.3l5.5,3.3v6.5L723,12.6z M718.5,8.7l4.5,2.7l4.5-2.7V3.3L723,0.6l-4.5,2.7V8.7z"/><path class="s_CoOJD9iB" d="M732,12.6l-5.5-3.4V2.7l5.5-3.3l5.5,3.3v6.5L732,12.6z M727.5,8.7l4.5,2.7l4.5-2.7V3.3L732,0.6l-4.5,2.7V8.7z"/><path class="s_CoOJD9iB" d="M741,12.6l-5.5-3.4V2.7l5.5-3.3l5.5,3.3v6.5L741,12.6z M736.5,8.7l4.5,2.7l4.5-2.7V3.3L741,0.6l-4.5,2.7V8.7z"/><path class="s_CoOJD9iB" d="M750,12.6l-5.5-3.4V2.7l5.5-3.3l5.5,3.3v6.5L750,12.6z M745.5,8.7l4.5,2.7l4.5-2.7V3.3L750,0.6l-4.5,2.7V8.7z"/><path class="s_CoOJD9iB" d="M759,12.6l-5.5-3.4V2.7l5.5-3.3l5.5,3.3v6.5L759,12.6z M754.5,8.7l4.5,2.7l4.5-2.7V3.3L759,0.6l-4.5,2.7V8.7z"/><path class="s_CoOJD9iB" d="M768,12.6l-5.5-3.4V2.7l5.5-3.3l5.5,3.3v6.5L768,12.6z M763.5,8.7l4.5,2.7l4.5-2.7V3.3L768,0.6l-4.5,2.7V8.7z"/><path class="s_CoOJD9iB" d="M777,12.6l-5.5-3.4V2.7l5.5-3.3l5.5,3.3v6.5L777,12.6z M772.5,8.7l4.5,2.7l4.5-2.7V3.3L777,0.6l-4.5,2.7V8.7z"/><path class="s_CoOJD9iB" d="M786,12.6l-5.5-3.4V2.7l5.5-3.3l5.5,3.3v6.5L786,12.6z M781.5,8.7l4.5,2.7l4.5-2.7V3.3L786,0.6l-4.5,2.7V8.7z"/><path class="s_CoOJD9iB" d="M795,12.6l-5.5-3.4V2.7l5.5-3.3l5.5,3.3v6.5L795,12.6z M790.5,8.7l4.5,2.7l4.5-2.7V3.3L795,0.6l-4.5,2.7V8.7z"/><path class="s_CoOJD9iB" d="M804,12.6l-5.5-3.4V2.7l5.5-3.3l5.5,3.3v6.5L804,12.6z M799.5,8.7l4.5,2.7l4.5-2.7V3.3L804,0.6l-4.5,2.7V8.7z"/><path class="s_CoOJD9iB" d="M813,12.6l-5.5-3.4V2.7l5.5-3.3l5.5,3.3v6.5L813,12.6z M808.5,8.7l4.5,2.7l4.5-2.7V3.3L813,0.6l-4.5,2.7V8.7z"/><path class="s_CoOJD9iB" d="M822,12.6l-5.5-3.4V2.7l5.5-3.3l5.5,3.3v6.5L822,12.6z M817.5,8.7l4.5,2.7l4.5-2.7V3.3L822,0.6l-4.5,2.7V8.7z"/><path class="s_CoOJD9iB" d="M831,12.6l-5.5-3.4V2.7l5.5-3.3l5.5,3.3v6.5L831,12.6z M826.5,8.7l4.5,2.7l4.5-2.7V3.3L831,0.6l-4.5,2.7V8.7z"/><path class="sr53teZzmD" d="M840,12.6l-5.5-3.4V2.7l5.5-3.3l5.5,3.3v6.5L840,12.6z M835.5,8.7l4.5,2.7l4.5-2.7V3.3L840,0.6l-4.5,2.7V8.7z"/><path class="uftimXRHl7" d="M849,12.6l-5.5-3.4V2.7l5.5-3.3l5.5,3.3v6.5L849,12.6z M844.5,8.7l4.5,2.7l4.5-2.7V3.3L849,0.6l-4.5,2.7V8.7z"/><path class="sjbwRYM8Pu" d="M858,12.6l-5.5-3.4V2.7l5.5-3.3l5.5,3.3v6.5L858,12.6z M853.5,8.7l4.5,2.7l4.5-2.7V3.3L858,0.6l-4.5,2.7V8.7z"/><path class="vADA5CCI7R" d="M867,12.6l-5.5-3.4V2.7l5.5-3.3l5.5,3.3v6.5L867,12.6z M862.5,8.7l4.5,2.7l4.5-2.7V3.3L867,0.6l-4.5,2.7V8.7z"/></g><g id="iahc27pSBG" class="q4LFtIU9LW"><path class="s_CoOJD9iB" d="M683,20.6l-5.5-3.4v-6.5l5.5-3.3l5.5,3.3v6.5L683,20.6z M678.5,16.7l4.5,2.7l4.5-2.7v-5.4L683,8.6l-4.5,2.7V16.7z"/><path class="s_CoOJD9iB" d="M692,20.6l-5.5-3.4v-6.5l5.5-3.3l5.5,3.3v6.5L692,20.6z M687.5,16.7l4.5,2.7l4.5-2.7v-5.4L692,8.6l-4.5,2.7V16.7z"/><path class="s_CoOJD9iB" d="M701,20.6l-5.5-3.4v-6.5l5.5-3.3l5.5,3.3v6.5L701,20.6z M696.5,16.7l4.5,2.7l4.5-2.7v-5.4L701,8.6l-4.5,2.7V16.7z"/><path class="s_CoOJD9iB" d="M710,20.6l-5.5-3.4v-6.5l5.5-3.3l5.5,3.3v6.5L710,20.6z M705.5,16.7l4.5,2.7l4.5-2.7v-5.4L710,8.6l-4.5,2.7V16.7z"/><path class="s_CoOJD9iB" d="M719,20.6l-5.5-3.4v-6.5l5.5-3.3l5.5,3.3v6.5L719,20.6z M714.5,16.7l4.5,2.7l4.5-2.7v-5.4L719,8.6l-4.5,2.7V16.7z"/><path class="s_CoOJD9iB" d="M728,20.6l-5.5-3.4v-6.5l5.5-3.3l5.5,3.3v6.5L728,20.6z M723.5,16.7l4.5,2.7l4.5-2.7v-5.4L728,8.6l-4.5,2.7V16.7z"/><path class="s_CoOJD9iB" d="M737,20.6l-5.5-3.4v-6.5l5.5-3.3l5.5,3.3v6.5L737,20.6z M732.5,16.7l4.5,2.7l4.5-2.7v-5.4L737,8.6l-4.5,2.7V16.7z"/><path class="s_CoOJD9iB" d="M746,20.6l-5.5-3.4v-6.5l5.5-3.3l5.5,3.3v6.5L746,20.6z M741.5,16.7l4.5,2.7l4.5-2.7v-5.4L746,8.6l-4.5,2.7V16.7z"/><path class="s_CoOJD9iB" d="M755,20.6l-5.5-3.4v-6.5l5.5-3.3l5.5,3.3v6.5L755,20.6z M750.5,16.7l4.5,2.7l4.5-2.7v-5.4L755,8.6l-4.5,2.7V16.7z"/><path class="s_CoOJD9iB" d="M764,20.6l-5.5-3.4v-6.5l5.5-3.3l5.5,3.3v6.5L764,20.6z M759.5,16.7l4.5,2.7l4.5-2.7v-5.4L764,8.6l-4.5,2.7V16.7z"/><path class="s_CoOJD9iB" d="M773,20.6l-5.5-3.4v-6.5l5.5-3.3l5.5,3.3v6.5L773,20.6z M768.5,16.7l4.5,2.7l4.5-2.7v-5.4L773,8.6l-4.5,2.7V16.7z"/><path class="s_CoOJD9iB" d="M782,20.6l-5.5-3.4v-6.5l5.5-3.3l5.5,3.3v6.5L782,20.6z M777.5,16.7l4.5,2.7l4.5-2.7v-5.4L782,8.6l-4.5,2.7V16.7z"/><path class="s_CoOJD9iB" d="M791,20.6l-5.5-3.4v-6.5l5.5-3.3l5.5,3.3v6.5L791,20.6z M786.5,16.7l4.5,2.7l4.5-2.7v-5.4L791,8.6l-4.5,2.7V16.7z"/><path class="s_CoOJD9iB" d="M800,20.6l-5.5-3.4v-6.5l5.5-3.3l5.5,3.3v6.5L800,20.6z M795.5,16.7l4.5,2.7l4.5-2.7v-5.4L800,8.6l-4.5,2.7V16.7z"/><path class="s_CoOJD9iB" d="M809,20.6l-5.5-3.4v-6.5l5.5-3.3l5.5,3.3v6.5L809,20.6z M804.5,16.7l4.5,2.7l4.5-2.7v-5.4L809,8.6l-4.5,2.7V16.7z"/><path class="s_CoOJD9iB" d="M818,20.6l-5.5-3.4v-6.5l5.5-3.3l5.5,3.3v6.5L818,20.6z M813.5,16.7l4.5,2.7l4.5-2.7v-5.4L818,8.6l-4.5,2.7V16.7z"/><path class="s_CoOJD9iB" d="M827,20.6l-5.5-3.4v-6.5l5.5-3.3l5.5,3.3v6.5L827,20.6z M822.5,16.7l4.5,2.7l4.5-2.7v-5.4L827,8.6l-4.5,2.7V16.7z"/><path class="sZ4s3xrktP" d="M836,20.6l-5.5-3.4v-6.5l5.5-3.3l5.5,3.3v6.5L836,20.6z M831.5,16.7l4.5,2.7l4.5-2.7v-5.4L836,8.6l-4.5,2.7V16.7z"/><path class="sr53teZzmD" d="M845,20.6l-5.5-3.4v-6.5l5.5-3.3l5.5,3.3v6.5L845,20.6z M840.5,16.7l4.5,2.7l4.5-2.7v-5.4L845,8.6l-4.5,2.7V16.7z"/><path class="uftimXRHl7" d="M854,20.6l-5.5-3.4v-6.5l5.5-3.3l5.5,3.3v6.5L854,20.6z M849.5,16.7l4.5,2.7l4.5-2.7v-5.4L854,8.6l-4.5,2.7V16.7z"/><path class="sjbwRYM8Pu" d="M863,20.6l-5.5-3.4v-6.5l5.5-3.3l5.5,3.3v6.5L863,20.6z M858.5,16.7l4.5,2.7l4.5-2.7v-5.4L863,8.6l-4.5,2.7V16.7z"/><path class="vADA5CCI7R" d="M872,20.6l-5.5-3.4v-6.5l5.5-3.3l5.5,3.3v6.5L872,20.6z M867.5,16.7l4.5,2.7l4.5-2.7v-5.4L872,8.6l-4.5,2.7V16.7z"/></g><g id="gByrmwMmZq" class="gjckiVl-U3"><path class="s_CoOJD9iB" d="M688,28.6l-5.5-3.4v-6.5l5.5-3.3l5.5,3.3v6.5L688,28.6z M683.5,24.7l4.5,2.7l4.5-2.7v-5.4l-4.5-2.7l-4.5,2.7V24.7z"/><path class="s_CoOJD9iB" d="M697,28.6l-5.5-3.4v-6.5l5.5-3.3l5.5,3.3v6.5L697,28.6z M692.5,24.7l4.5,2.7l4.5-2.7v-5.4l-4.5-2.7l-4.5,2.7V24.7z"/><path class="s_CoOJD9iB" d="M706,28.6l-5.5-3.4v-6.5l5.5-3.3l5.5,3.3v6.5L706,28.6z M701.5,24.7l4.5,2.7l4.5-2.7v-5.4l-4.5-2.7l-4.5,2.7V24.7z"/><path class="s_CoOJD9iB" d="M715,28.6l-5.5-3.4v-6.5l5.5-3.3l5.5,3.3v6.5L715,28.6z M710.5,24.7l4.5,2.7l4.5-2.7v-5.4l-4.5-2.7l-4.5,2.7V24.7z"/><path class="s_CoOJD9iB" d="M724,28.6l-5.5-3.4v-6.5l5.5-3.3l5.5,3.3v6.5L724,28.6z M719.5,24.7l4.5,2.7l4.5-2.7v-5.4l-4.5-2.7l-4.5,2.7V24.7z"/><path class="s_CoOJD9iB" d="M733,28.6l-5.5-3.4v-6.5l5.5-3.3l5.5,3.3v6.5L733,28.6z M728.5,24.7l4.5,2.7l4.5-2.7v-5.4l-4.5-2.7l-4.5,2.7V24.7z"/><path class="s_CoOJD9iB" d="M742,28.6l-5.5-3.4v-6.5l5.5-3.3l5.5,3.3v6.5L742,28.6z M737.5,24.7l4.5,2.7l4.5-2.7v-5.4l-4.5-2.7l-4.5,2.7V24.7z"/><path class="s_CoOJD9iB" d="M751,28.6l-5.5-3.4v-6.5l5.5-3.3l5.5,3.3v6.5L751,28.6z M746.5,24.7l4.5,2.7l4.5-2.7v-5.4l-4.5-2.7l-4.5,2.7V24.7z"/><path class="s_CoOJD9iB" d="M760,28.6l-5.5-3.4v-6.5l5.5-3.3l5.5,3.3v6.5L760,28.6z M755.5,24.7l4.5,2.7l4.5-2.7v-5.4l-4.5-2.7l-4.5,2.7V24.7z"/><path class="s_CoOJD9iB" d="M769,28.6l-5.5-3.4v-6.5l5.5-3.3l5.5,3.3v6.5L769,28.6z M764.5,24.7l4.5,2.7l4.5-2.7v-5.4l-4.5-2.7l-4.5,2.7V24.7z"/><path class="s_CoOJD9iB" d="M778,28.6l-5.5-3.4v-6.5l5.5-3.3l5.5,3.3v6.5L778,28.6z M773.5,24.7l4.5,2.7l4.5-2.7v-5.4l-4.5-2.7l-4.5,2.7V24.7z"/><path class="s_CoOJD9iB" d="M787,28.6l-5.5-3.4v-6.5l5.5-3.3l5.5,3.3v6.5L787,28.6z M782.5,24.7l4.5,2.7l4.5-2.7v-5.4l-4.5-2.7l-4.5,2.7V24.7z"/><path class="s_CoOJD9iB" d="M796,28.6l-5.5-3.4v-6.5l5.5-3.3l5.5,3.3v6.5L796,28.6z M791.5,24.7l4.5,2.7l4.5-2.7v-5.4l-4.5-2.7l-4.5,2.7V24.7z"/><path class="s_CoOJD9iB" d="M805,28.6l-5.5-3.4v-6.5l5.5-3.3l5.5,3.3v6.5L805,28.6z M800.5,24.7l4.5,2.7l4.5-2.7v-5.4l-4.5-2.7l-4.5,2.7V24.7z"/><path class="s_CoOJD9iB" d="M814,28.6l-5.5-3.4v-6.5l5.5-3.3l5.5,3.3v6.5L814,28.6z M809.5,24.7l4.5,2.7l4.5-2.7v-5.4l-4.5-2.7l-4.5,2.7V24.7z"/><path class="s_CoOJD9iB" d="M823,28.6l-5.5-3.4v-6.5l5.5-3.3l5.5,3.3v6.5L823,28.6z M818.5,24.7l4.5,2.7l4.5-2.7v-5.4l-4.5-2.7l-4.5,2.7V24.7z"/><path class="s_CoOJD9iB" d="M832,28.6l-5.5-3.4v-6.5l5.5-3.3l5.5,3.3v6.5L832,28.6z M827.5,24.7l4.5,2.7l4.5-2.7v-5.4l-4.5-2.7l-4.5,2.7V24.7z"/><path class="yGMSPzGAE5" d="M841,28.6l-5.5-3.4v-6.5l5.5-3.3l5.5,3.3v6.5L841,28.6z M836.5,24.7l4.5,2.7l4.5-2.7v-5.4l-4.5-2.7l-4.5,2.7V24.7z"/><path class="sr53teZzmD" d="M850,28.6l-5.5-3.4v-6.5l5.5-3.3l5.5,3.3v6.5L850,28.6z M845.5,24.7l4.5,2.7l4.5-2.7v-5.4l-4.5-2.7l-4.5,2.7V24.7z"/><path class="uftimXRHl7" d="M859,28.6l-5.5-3.4v-6.5l5.5-3.3l5.5,3.3v6.5L859,28.6z M854.5,24.7l4.5,2.7l4.5-2.7v-5.4l-4.5-2.7l-4.5,2.7V24.7z"/><path class="sjbwRYM8Pu" d="M868,28.6l-5.5-3.4v-6.5l5.5-3.3l5.5,3.3v6.5L868,28.6z M863.5,24.7l4.5,2.7l4.5-2.7v-5.4l-4.5-2.7l-4.5,2.7V24.7z"/><path class="vADA5CCI7R" d="M877,28.6l-5.5-3.4v-6.5l5.5-3.3l5.5,3.3v6.5L877,28.6z M872.5,24.7l4.5,2.7l4.5-2.7v-5.4l-4.5-2.7l-4.5,2.7V24.7z"/></g><g id="meWBbQW99L" class="hs0sgz00CD"><path class="s_CoOJD9iB" d="M693,36.6l-5.5-3.4v-6.5l5.5-3.3l5.5,3.3v6.5L693,36.6z M688.5,32.7l4.5,2.7l4.5-2.7v-5.4l-4.5-2.7l-4.5,2.7V32.7z"/><path class="s_CoOJD9iB" d="M702,36.6l-5.5-3.4v-6.5l5.5-3.3l5.5,3.3v6.5L702,36.6z M697.5,32.7l4.5,2.7l4.5-2.7v-5.4l-4.5-2.7l-4.5,2.7V32.7z"/><path class="s_CoOJD9iB" d="M711,36.6l-5.5-3.4v-6.5l5.5-3.3l5.5,3.3v6.5L711,36.6z M706.5,32.7l4.5,2.7l4.5-2.7v-5.4l-4.5-2.7l-4.5,2.7V32.7z"/><path class="s_CoOJD9iB" d="M720,36.6l-5.5-3.4v-6.5l5.5-3.3l5.5,3.3v6.5L720,36.6z M715.5,32.7l4.5,2.7l4.5-2.7v-5.4l-4.5-2.7l-4.5,2.7V32.7z"/><path class="s_CoOJD9iB" d="M729,36.6l-5.5-3.4v-6.5l5.5-3.3l5.5,3.3v6.5L729,36.6z M724.5,32.7l4.5,2.7l4.5-2.7v-5.4l-4.5-2.7l-4.5,2.7V32.7z"/><path class="s_CoOJD9iB" d="M738,36.6l-5.5-3.4v-6.5l5.5-3.3l5.5,3.3v6.5L738,36.6z M733.5,32.7l4.5,2.7l4.5-2.7v-5.4l-4.5-2.7l-4.5,2.7V32.7z"/><path class="s_CoOJD9iB" d="M747,36.6l-5.5-3.4v-6.5l5.5-3.3l5.5,3.3v6.5L747,36.6z M742.5,32.7l4.5,2.7l4.5-2.7v-5.4l-4.5-2.7l-4.5,2.7V32.7z"/><path class="s_CoOJD9iB" d="M756,36.6l-5.5-3.4v-6.5l5.5-3.3l5.5,3.3v6.5L756,36.6z M751.5,32.7l4.5,2.7l4.5-2.7v-5.4l-4.5-2.7l-4.5,2.7V32.7z"/><path class="s_CoOJD9iB" d="M765,36.6l-5.5-3.4v-6.5l5.5-3.3l5.5,3.3v6.5L765,36.6z M760.5,32.7l4.5,2.7l4.5-2.7v-5.4l-4.5-2.7l-4.5,2.7V32.7z"/><path class="s_CoOJD9iB" d="M774,36.6l-5.5-3.4v-6.5l5.5-3.3l5.5,3.3v6.5L774,36.6z M769.5,32.7l4.5,2.7l4.5-2.7v-5.4l-4.5-2.7l-4.5,2.7V32.7z"/><path class="s_CoOJD9iB" d="M783,36.6l-5.5-3.4v-6.5l5.5-3.3l5.5,3.3v6.5L783,36.6z M778.5,32.7l4.5,2.7l4.5-2.7v-5.4l-4.5-2.7l-4.5,2.7V32.7z"/><path class="s_CoOJD9iB" d="M792,36.6l-5.5-3.4v-6.5l5.5-3.3l5.5,3.3v6.5L792,36.6z M787.5,32.7l4.5,2.7l4.5-2.7v-5.4l-4.5-2.7l-4.5,2.7V32.7z"/><path class="s_CoOJD9iB" d="M801,36.6l-5.5-3.4v-6.5l5.5-3.3l5.5,3.3v6.5L801,36.6z M796.5,32.7l4.5,2.7l4.5-2.7v-5.4l-4.5-2.7l-4.5,2.7V32.7z"/><path class="s_CoOJD9iB" d="M810,36.6l-5.5-3.4v-6.5l5.5-3.3l5.5,3.3v6.5L810,36.6z M805.5,32.7l4.5,2.7l4.5-2.7v-5.4l-4.5-2.7l-4.5,2.7V32.7z"/><path class="s_CoOJD9iB" d="M819,36.6l-5.5-3.4v-6.5l5.5-3.3l5.5,3.3v6.5L819,36.6z M814.5,32.7l4.5,2.7l4.5-2.7v-5.4l-4.5-2.7l-4.5,2.7V32.7z"/><path class="s_CoOJD9iB" d="M828,36.6l-5.5-3.4v-6.5l5.5-3.3l5.5,3.3v6.5L828,36.6z M823.5,32.7l4.5,2.7l4.5-2.7v-5.4l-4.5-2.7l-4.5,2.7V32.7z"/><path class="s_CoOJD9iB" d="M837,36.6l-5.5-3.4v-6.5l5.5-3.3l5.5,3.3v6.5L837,36.6z M832.5,32.7l4.5,2.7l4.5-2.7v-5.4l-4.5-2.7l-4.5,2.7V32.7z"/><path class="sZ4s3xrktP" d="M846,36.6l-5.5-3.4v-6.5l5.5-3.3l5.5,3.3v6.5L846,36.6z M841.5,32.7l4.5,2.7l4.5-2.7v-5.4l-4.5-2.7l-4.5,2.7V32.7z"/><path class="sr53teZzmD" d="M855,36.6l-5.5-3.4v-6.5l5.5-3.3l5.5,3.3v6.5L855,36.6z M850.5,32.7l4.5,2.7l4.5-2.7v-5.4l-4.5-2.7l-4.5,2.7V32.7z"/><path class="uftimXRHl7" d="M864,36.6l-5.5-3.4v-6.5l5.5-3.3l5.5,3.3v6.5L864,36.6z M859.5,32.7l4.5,2.7l4.5-2.7v-5.4l-4.5-2.7l-4.5,2.7V32.7z"/><path class="sjbwRYM8Pu" d="M873,36.6l-5.5-3.4v-6.5l5.5-3.3l5.5,3.3v6.5L873,36.6z M868.5,32.7l4.5,2.7l4.5-2.7v-5.4l-4.5-2.7l-4.5,2.7V32.7z"/><path class="vADA5CCI7R" d="M882,36.6l-5.5-3.4v-6.5l5.5-3.3l5.5,3.3v6.5L882,36.6z M877.5,32.7l4.5,2.7l4.5-2.7v-5.4l-4.5-2.7l-4.5,2.7V32.7z"/></g><g id="uAd9LayNSf" class="hlKrWlCYS2"><path class="s_CoOJD9iB" d="M697,44.6l-5.5-3.4v-6.5l5.5-3.3l5.5,3.3v6.5L697,44.6z M692.5,40.7l4.5,2.7l4.5-2.7v-5.4l-4.5-2.7l-4.5,2.7V40.7z"/><path class="s_CoOJD9iB" d="M706,44.6l-5.5-3.4v-6.5l5.5-3.3l5.5,3.3v6.5L706,44.6z M701.5,40.7l4.5,2.7l4.5-2.7v-5.4l-4.5-2.7l-4.5,2.7V40.7z"/><path class="s_CoOJD9iB" d="M715,44.6l-5.5-3.4v-6.5l5.5-3.3l5.5,3.3v6.5L715,44.6z M710.5,40.7l4.5,2.7l4.5-2.7v-5.4l-4.5-2.7l-4.5,2.7V40.7z"/><path class="s_CoOJD9iB" d="M724,44.6l-5.5-3.4v-6.5l5.5-3.3l5.5,3.3v6.5L724,44.6z M719.5,40.7l4.5,2.7l4.5-2.7v-5.4l-4.5-2.7l-4.5,2.7V40.7z"/><path class="s_CoOJD9iB" d="M733,44.6l-5.5-3.4v-6.5l5.5-3.3l5.5,3.3v6.5L733,44.6z M728.5,40.7l4.5,2.7l4.5-2.7v-5.4l-4.5-2.7l-4.5,2.7V40.7z"/><path class="s_CoOJD9iB" d="M742,44.6l-5.5-3.4v-6.5l5.5-3.3l5.5,3.3v6.5L742,44.6z M737.5,40.7l4.5,2.7l4.5-2.7v-5.4l-4.5-2.7l-4.5,2.7V40.7z"/><path class="s_CoOJD9iB" d="M751,44.6l-5.5-3.4v-6.5l5.5-3.3l5.5,3.3v6.5L751,44.6z M746.5,40.7l4.5,2.7l4.5-2.7v-5.4l-4.5-2.7l-4.5,2.7V40.7z"/><path class="s_CoOJD9iB" d="M760,44.6l-5.5-3.4v-6.5l5.5-3.3l5.5,3.3v6.5L760,44.6z M755.5,40.7l4.5,2.7l4.5-2.7v-5.4l-4.5-2.7l-4.5,2.7V40.7z"/><path class="s_CoOJD9iB" d="M769,44.6l-5.5-3.4v-6.5l5.5-3.3l5.5,3.3v6.5L769,44.6z M764.5,40.7l4.5,2.7l4.5-2.7v-5.4l-4.5-2.7l-4.5,2.7V40.7z"/><path class="s_CoOJD9iB" d="M778,44.6l-5.5-3.4v-6.5l5.5-3.3l5.5,3.3v6.5L778,44.6z M773.5,40.7l4.5,2.7l4.5-2.7v-5.4l-4.5-2.7l-4.5,2.7V40.7z"/><path class="s_CoOJD9iB" d="M787,44.6l-5.5-3.4v-6.5l5.5-3.3l5.5,3.3v6.5L787,44.6z M782.5,40.7l4.5,2.7l4.5-2.7v-5.4l-4.5-2.7l-4.5,2.7V40.7z"/><path class="s_CoOJD9iB" d="M796,44.6l-5.5-3.4v-6.5l5.5-3.3l5.5,3.3v6.5L796,44.6z M791.5,40.7l4.5,2.7l4.5-2.7v-5.4l-4.5-2.7l-4.5,2.7V40.7z"/><path class="s_CoOJD9iB" d="M805,44.6l-5.5-3.4v-6.5l5.5-3.3l5.5,3.3v6.5L805,44.6z M800.5,40.7l4.5,2.7l4.5-2.7v-5.4l-4.5-2.7l-4.5,2.7V40.7z"/><path class="s_CoOJD9iB" d="M814,44.6l-5.5-3.4v-6.5l5.5-3.3l5.5,3.3v6.5L814,44.6z M809.5,40.7l4.5,2.7l4.5-2.7v-5.4l-4.5-2.7l-4.5,2.7V40.7z"/><path class="s_CoOJD9iB" d="M823,44.6l-5.5-3.4v-6.5l5.5-3.3l5.5,3.3v6.5L823,44.6z M818.5,40.7l4.5,2.7l4.5-2.7v-5.4l-4.5-2.7l-4.5,2.7V40.7z"/><path class="s_CoOJD9iB" d="M832,44.6l-5.5-3.4v-6.5l5.5-3.3l5.5,3.3v6.5L832,44.6z M827.5,40.7l4.5,2.7l4.5-2.7v-5.4l-4.5-2.7l-4.5,2.7V40.7z"/><path class="s_CoOJD9iB" d="M841,44.6l-5.5-3.4v-6.5l5.5-3.3l5.5,3.3v6.5L841,44.6z M836.5,40.7l4.5,2.7l4.5-2.7v-5.4l-4.5-2.7l-4.5,2.7V40.7z"/><path class="sZ4s3xrktP" d="M850,44.6l-5.5-3.4v-6.5l5.5-3.3l5.5,3.3v6.5L850,44.6z M845.5,40.7l4.5,2.7l4.5-2.7v-5.4l-4.5-2.7l-4.5,2.7V40.7z"/><path class="sr53teZzmD" d="M859,44.6l-5.5-3.4v-6.5l5.5-3.3l5.5,3.3v6.5L859,44.6z M854.5,40.7l4.5,2.7l4.5-2.7v-5.4l-4.5-2.7l-4.5,2.7V40.7z"/><path class="uftimXRHl7" d="M868,44.6l-5.5-3.4v-6.5l5.5-3.3l5.5,3.3v6.5L868,44.6z M863.5,40.7l4.5,2.7l4.5-2.7v-5.4l-4.5-2.7l-4.5,2.7V40.7z"/><path class="sjbwRYM8Pu" d="M877,44.6l-5.5-3.4v-6.5l5.5-3.3l5.5,3.3v6.5L877,44.6z M872.5,40.7l4.5,2.7l4.5-2.7v-5.4l-4.5-2.7l-4.5,2.7V40.7z"/><path class="vADA5CCI7R" d="M886,44.6l-5.5-3.4v-6.5l5.5-3.3l5.5,3.3v6.5L886,44.6z M881.5,40.7l4.5,2.7l4.5-2.7v-5.4l-4.5-2.7l-4.5,2.7V40.7z"/></g><g id="jDbvReOkys" class="wFm77Il-fb"><path class="s_CoOJD9iB" d="M711,52.6l-5.5-3.4v-6.5l5.5-3.3l5.5,3.3v6.5L711,52.6z M706.5,48.7l4.5,2.7l4.5-2.7v-5.4l-4.5-2.7l-4.5,2.7V48.7z"/><path class="s_CoOJD9iB" d="M720,52.6l-5.5-3.4v-6.5l5.5-3.3l5.5,3.3v6.5L720,52.6z M715.5,48.7l4.5,2.7l4.5-2.7v-5.4l-4.5-2.7l-4.5,2.7V48.7z"/><path class="s_CoOJD9iB" d="M729,52.6l-5.5-3.4v-6.5l5.5-3.3l5.5,3.3v6.5L729,52.6z M724.5,48.7l4.5,2.7l4.5-2.7v-5.4l-4.5-2.7l-4.5,2.7V48.7z"/><path class="s_CoOJD9iB" d="M738,52.6l-5.5-3.4v-6.5l5.5-3.3l5.5,3.3v6.5L738,52.6z M733.5,48.7l4.5,2.7l4.5-2.7v-5.4l-4.5-2.7l-4.5,2.7V48.7z"/><path class="s_CoOJD9iB" d="M747,52.6l-5.5-3.4v-6.5l5.5-3.3l5.5,3.3v6.5L747,52.6z M742.5,48.7l4.5,2.7l4.5-2.7v-5.4l-4.5-2.7l-4.5,2.7V48.7z"/><path class="s_CoOJD9iB" d="M756,52.6l-5.5-3.4v-6.5l5.5-3.3l5.5,3.3v6.5L756,52.6z M751.5,48.7l4.5,2.7l4.5-2.7v-5.4l-4.5-2.7l-4.5,2.7V48.7z"/><path class="s_CoOJD9iB" d="M765,52.6l-5.5-3.4v-6.5l5.5-3.3l5.5,3.3v6.5L765,52.6z M760.5,48.7l4.5,2.7l4.5-2.7v-5.4l-4.5-2.7l-4.5,2.7V48.7z"/><path class="s_CoOJD9iB" d="M774,52.6l-5.5-3.4v-6.5l5.5-3.3l5.5,3.3v6.5L774,52.6z M769.5,48.7l4.5,2.7l4.5-2.7v-5.4l-4.5-2.7l-4.5,2.7V48.7z"/><path class="s_CoOJD9iB" d="M783,52.6l-5.5-3.4v-6.5l5.5-3.3l5.5,3.3v6.5L783,52.6z M778.5,48.7l4.5,2.7l4.5-2.7v-5.4l-4.5-2.7l-4.5,2.7V48.7z"/><path class="s_CoOJD9iB" d="M792,52.6l-5.5-3.4v-6.5l5.5-3.3l5.5,3.3v6.5L792,52.6z M787.5,48.7l4.5,2.7l4.5-2.7v-5.4l-4.5-2.7l-4.5,2.7V48.7z"/><path class="s_CoOJD9iB" d="M801,52.6l-5.5-3.4v-6.5l5.5-3.3l5.5,3.3v6.5L801,52.6z M796.5,48.7l4.5,2.7l4.5-2.7v-5.4l-4.5-2.7l-4.5,2.7V48.7z"/><path class="s_CoOJD9iB" d="M810,52.6l-5.5-3.4v-6.5l5.5-3.3l5.5,3.3v6.5L810,52.6z M805.5,48.7l4.5,2.7l4.5-2.7v-5.4l-4.5-2.7l-4.5,2.7V48.7z"/><path class="s_CoOJD9iB" d="M819,52.6l-5.5-3.4v-6.5l5.5-3.3l5.5,3.3v6.5L819,52.6z M814.5,48.7l4.5,2.7l4.5-2.7v-5.4l-4.5-2.7l-4.5,2.7V48.7z"/><path class="s_CoOJD9iB" d="M828,52.6l-5.5-3.4v-6.5l5.5-3.3l5.5,3.3v6.5L828,52.6z M823.5,48.7l4.5,2.7l4.5-2.7v-5.4l-4.5-2.7l-4.5,2.7V48.7z"/><path class="s_CoOJD9iB" d="M837,52.6l-5.5-3.4v-6.5l5.5-3.3l5.5,3.3v6.5L837,52.6z M832.5,48.7l4.5,2.7l4.5-2.7v-5.4l-4.5-2.7l-4.5,2.7V48.7z"/><path class="s_CoOJD9iB" d="M846,52.6l-5.5-3.4v-6.5l5.5-3.3l5.5,3.3v6.5L846,52.6z M841.5,48.7l4.5,2.7l4.5-2.7v-5.4l-4.5-2.7l-4.5,2.7V48.7z"/><path class="s_CoOJD9iB" d="M855,52.6l-5.5-3.4v-6.5l5.5-3.3l5.5,3.3v6.5L855,52.6z M850.5,48.7l4.5,2.7l4.5-2.7v-5.4l-4.5-2.7l-4.5,2.7V48.7z"/><path class="sZ4s3xrktP" d="M864,52.6l-5.5-3.4v-6.5l5.5-3.3l5.5,3.3v6.5L864,52.6z M859.5,48.7l4.5,2.7l4.5-2.7v-5.4l-4.5-2.7l-4.5,2.7V48.7z"/><path class="sr53teZzmD" d="M873,52.6l-5.5-3.4v-6.5l5.5-3.3l5.5,3.3v6.5L873,52.6z M868.5,48.7l4.5,2.7l4.5-2.7v-5.4l-4.5-2.7l-4.5,2.7V48.7z"/><path class="uftimXRHl7" d="M882,52.6l-5.5-3.4v-6.5l5.5-3.3l5.5,3.3v6.5L882,52.6z M877.5,48.7l4.5,2.7l4.5-2.7v-5.4l-4.5-2.7l-4.5,2.7V48.7z"/><path class="sjbwRYM8Pu" d="M891,52.6l-5.5-3.4v-6.5l5.5-3.3l5.5,3.3v6.5L891,52.6z M886.5,48.7l4.5,2.7l4.5-2.7v-5.4l-4.5-2.7l-4.5,2.7V48.7z"/><path class="vADA5CCI7R" d="M900,52.6l-5.5-3.4v-6.5l5.5-3.3l5.5,3.3v6.5L900,52.6z M895.5,48.7l4.5,2.7l4.5-2.7v-5.4l-4.5-2.7l-4.5,2.7V48.7z"/></g><g id="c_F7KmEJFh" class="ucT5DBQNtx"><path class="s_CoOJD9iB" d="M724,60.6l-5.5-3.4v-6.5l5.5-3.3l5.5,3.3v6.5L724,60.6z M719.5,56.7l4.5,2.7l4.5-2.7v-5.4l-4.5-2.7l-4.5,2.7V56.7z"/><path class="s_CoOJD9iB" d="M733,60.6l-5.5-3.4v-6.5l5.5-3.3l5.5,3.3v6.5L733,60.6z M728.5,56.7l4.5,2.7l4.5-2.7v-5.4l-4.5-2.7l-4.5,2.7V56.7z"/><path class="s_CoOJD9iB" d="M742,60.6l-5.5-3.4v-6.5l5.5-3.3l5.5,3.3v6.5L742,60.6z M737.5,56.7l4.5,2.7l4.5-2.7v-5.4l-4.5-2.7l-4.5,2.7V56.7z"/><path class="s_CoOJD9iB" d="M751,60.6l-5.5-3.4v-6.5l5.5-3.3l5.5,3.3v6.5L751,60.6z M746.5,56.7l4.5,2.7l4.5-2.7v-5.4l-4.5-2.7l-4.5,2.7V56.7z"/><path class="s_CoOJD9iB" d="M760,60.6l-5.5-3.4v-6.5l5.5-3.3l5.5,3.3v6.5L760,60.6z M755.5,56.7l4.5,2.7l4.5-2.7v-5.4l-4.5-2.7l-4.5,2.7V56.7z"/><path class="s_CoOJD9iB" d="M769,60.6l-5.5-3.4v-6.5l5.5-3.3l5.5,3.3v6.5L769,60.6z M764.5,56.7l4.5,2.7l4.5-2.7v-5.4l-4.5-2.7l-4.5,2.7V56.7z"/><path class="s_CoOJD9iB" d="M778,60.6l-5.5-3.4v-6.5l5.5-3.3l5.5,3.3v6.5L778,60.6z M773.5,56.7l4.5,2.7l4.5-2.7v-5.4l-4.5-2.7l-4.5,2.7V56.7z"/><path class="s_CoOJD9iB" d="M787,60.6l-5.5-3.4v-6.5l5.5-3.3l5.5,3.3v6.5L787,60.6z M782.5,56.7l4.5,2.7l4.5-2.7v-5.4l-4.5-2.7l-4.5,2.7V56.7z"/><path class="s_CoOJD9iB" d="M796,60.6l-5.5-3.4v-6.5l5.5-3.3l5.5,3.3v6.5L796,60.6z M791.5,56.7l4.5,2.7l4.5-2.7v-5.4l-4.5-2.7l-4.5,2.7V56.7z"/><path class="s_CoOJD9iB" d="M805,60.6l-5.5-3.4v-6.5l5.5-3.3l5.5,3.3v6.5L805,60.6z M800.5,56.7l4.5,2.7l4.5-2.7v-5.4l-4.5-2.7l-4.5,2.7V56.7z"/><path class="s_CoOJD9iB" d="M814,60.6l-5.5-3.4v-6.5l5.5-3.3l5.5,3.3v6.5L814,60.6z M809.5,56.7l4.5,2.7l4.5-2.7v-5.4l-4.5-2.7l-4.5,2.7V56.7z"/><path class="s_CoOJD9iB" d="M823,60.6l-5.5-3.4v-6.5l5.5-3.3l5.5,3.3v6.5L823,60.6z M818.5,56.7l4.5,2.7l4.5-2.7v-5.4l-4.5-2.7l-4.5,2.7V56.7z"/><path class="s_CoOJD9iB" d="M832,60.6l-5.5-3.4v-6.5l5.5-3.3l5.5,3.3v6.5L832,60.6z M827.5,56.7l4.5,2.7l4.5-2.7v-5.4l-4.5-2.7l-4.5,2.7V56.7z"/><path class="s_CoOJD9iB" d="M841,60.6l-5.5-3.4v-6.5l5.5-3.3l5.5,3.3v6.5L841,60.6z M836.5,56.7l4.5,2.7l4.5-2.7v-5.4l-4.5-2.7l-4.5,2.7V56.7z"/><path class="s_CoOJD9iB" d="M850,60.6l-5.5-3.4v-6.5l5.5-3.3l5.5,3.3v6.5L850,60.6z M845.5,56.7l4.5,2.7l4.5-2.7v-5.4l-4.5-2.7l-4.5,2.7V56.7z"/><path class="s_CoOJD9iB" d="M859,60.6l-5.5-3.4v-6.5l5.5-3.3l5.5,3.3v6.5L859,60.6z M854.5,56.7l4.5,2.7l4.5-2.7v-5.4l-4.5-2.7l-4.5,2.7V56.7z"/><path class="s_CoOJD9iB" d="M868,60.6l-5.5-3.4v-6.5l5.5-3.3l5.5,3.3v6.5L868,60.6z M863.5,56.7l4.5,2.7l4.5-2.7v-5.4l-4.5-2.7l-4.5,2.7V56.7z"/><path class="sZ4s3xrktP" d="M877,60.6l-5.5-3.4v-6.5l5.5-3.3l5.5,3.3v6.5L877,60.6z M872.5,56.7l4.5,2.7l4.5-2.7v-5.4l-4.5-2.7l-4.5,2.7V56.7z"/><path class="sr53teZzmD" d="M886,60.6l-5.5-3.4v-6.5l5.5-3.3l5.5,3.3v6.5L886,60.6z M881.5,56.7l4.5,2.7l4.5-2.7v-5.4l-4.5-2.7l-4.5,2.7V56.7z"/><path class="uftimXRHl7" d="M895,60.6l-5.5-3.4v-6.5l5.5-3.3l5.5,3.3v6.5L895,60.6z M890.5,56.7l4.5,2.7l4.5-2.7v-5.4l-4.5-2.7l-4.5,2.7V56.7z"/><path class="sjbwRYM8Pu" d="M904,60.6l-5.5-3.4v-6.5l5.5-3.3l5.5,3.3v6.5L904,60.6z M899.5,56.7l4.5,2.7l4.5-2.7v-5.4l-4.5-2.7l-4.5,2.7V56.7z"/><path class="vADA5CCI7R" d="M913,60.6l-5.5-3.4v-6.5l5.5-3.3l5.5,3.3v6.5L913,60.6z M908.5,56.7l4.5,2.7l4.5-2.7v-5.4l-4.5-2.7l-4.5,2.7V56.7z"/></g><g id="c9u_FqjfmQ" class="gNK3In2M1h"><path class="s_CoOJD9iB" d="M738,68.6l-5.5-3.4v-6.5l5.5-3.3l5.5,3.3v6.5L738,68.6z M733.5,64.7l4.5,2.7l4.5-2.7v-5.4l-4.5-2.7l-4.5,2.7V64.7z"/><path class="s_CoOJD9iB" d="M747,68.6l-5.5-3.4v-6.5l5.5-3.3l5.5,3.3v6.5L747,68.6z M742.5,64.7l4.5,2.7l4.5-2.7v-5.4l-4.5-2.7l-4.5,2.7V64.7z"/><path class="s_CoOJD9iB" d="M756,68.6l-5.5-3.4v-6.5l5.5-3.3l5.5,3.3v6.5L756,68.6z M751.5,64.7l4.5,2.7l4.5-2.7v-5.4l-4.5-2.7l-4.5,2.7V64.7z"/><path class="s_CoOJD9iB" d="M765,68.6l-5.5-3.4v-6.5l5.5-3.3l5.5,3.3v6.5L765,68.6z M760.5,64.7l4.5,2.7l4.5-2.7v-5.4l-4.5-2.7l-4.5,2.7V64.7z"/><path class="s_CoOJD9iB" d="M774,68.6l-5.5-3.4v-6.5l5.5-3.3l5.5,3.3v6.5L774,68.6z M769.5,64.7l4.5,2.7l4.5-2.7v-5.4l-4.5-2.7l-4.5,2.7V64.7z"/><path class="s_CoOJD9iB" d="M783,68.6l-5.5-3.4v-6.5l5.5-3.3l5.5,3.3v6.5L783,68.6z M778.5,64.7l4.5,2.7l4.5-2.7v-5.4l-4.5-2.7l-4.5,2.7V64.7z"/><path class="s_CoOJD9iB" d="M792,68.6l-5.5-3.4v-6.5l5.5-3.3l5.5,3.3v6.5L792,68.6z M787.5,64.7l4.5,2.7l4.5-2.7v-5.4l-4.5-2.7l-4.5,2.7V64.7z"/><path class="s_CoOJD9iB" d="M801,68.6l-5.5-3.4v-6.5l5.5-3.3l5.5,3.3v6.5L801,68.6z M796.5,64.7l4.5,2.7l4.5-2.7v-5.4l-4.5-2.7l-4.5,2.7V64.7z"/><path class="s_CoOJD9iB" d="M810,68.6l-5.5-3.4v-6.5l5.5-3.3l5.5,3.3v6.5L810,68.6z M805.5,64.7l4.5,2.7l4.5-2.7v-5.4l-4.5-2.7l-4.5,2.7V64.7z"/><path class="s_CoOJD9iB" d="M819,68.6l-5.5-3.4v-6.5l5.5-3.3l5.5,3.3v6.5L819,68.6z M814.5,64.7l4.5,2.7l4.5-2.7v-5.4l-4.5-2.7l-4.5,2.7V64.7z"/><path class="s_CoOJD9iB" d="M828,68.6l-5.5-3.4v-6.5l5.5-3.3l5.5,3.3v6.5L828,68.6z M823.5,64.7l4.5,2.7l4.5-2.7v-5.4l-4.5-2.7l-4.5,2.7V64.7z"/><path class="s_CoOJD9iB" d="M837,68.6l-5.5-3.4v-6.5l5.5-3.3l5.5,3.3v6.5L837,68.6z M832.5,64.7l4.5,2.7l4.5-2.7v-5.4l-4.5-2.7l-4.5,2.7V64.7z"/><path class="s_CoOJD9iB" d="M846,68.6l-5.5-3.4v-6.5l5.5-3.3l5.5,3.3v6.5L846,68.6z M841.5,64.7l4.5,2.7l4.5-2.7v-5.4l-4.5-2.7l-4.5,2.7V64.7z"/><path class="s_CoOJD9iB" d="M855,68.6l-5.5-3.4v-6.5l5.5-3.3l5.5,3.3v6.5L855,68.6z M850.5,64.7l4.5,2.7l4.5-2.7v-5.4l-4.5-2.7l-4.5,2.7V64.7z"/><path class="s_CoOJD9iB" d="M864,68.6l-5.5-3.4v-6.5l5.5-3.3l5.5,3.3v6.5L864,68.6z M859.5,64.7l4.5,2.7l4.5-2.7v-5.4l-4.5-2.7l-4.5,2.7V64.7z"/><path class="s_CoOJD9iB" d="M873,68.6l-5.5-3.4v-6.5l5.5-3.3l5.5,3.3v6.5L873,68.6z M868.5,64.7l4.5,2.7l4.5-2.7v-5.4l-4.5-2.7l-4.5,2.7V64.7z"/><path class="s_CoOJD9iB" d="M882,68.6l-5.5-3.4v-6.5l5.5-3.3l5.5,3.3v6.5L882,68.6z M877.5,64.7l4.5,2.7l4.5-2.7v-5.4l-4.5-2.7l-4.5,2.7V64.7z"/><path class="s_CoOJD9iB" d="M891,68.6l-5.5-3.4v-6.5l5.5-3.3l5.5,3.3v6.5L891,68.6z M886.5,64.7l4.5,2.7l4.5-2.7v-5.4l-4.5-2.7l-4.5,2.7V64.7z"/><path class="s_CoOJD9iB" d="M900,68.6l-5.5-3.4v-6.5l5.5-3.3l5.5,3.3v6.5L900,68.6z M895.5,64.7l4.5,2.7l4.5-2.7v-5.4l-4.5-2.7l-4.5,2.7V64.7z"/><path class="s_CoOJD9iB" d="M909,68.6l-5.5-3.4v-6.5l5.5-3.3l5.5,3.3v6.5L909,68.6z M904.5,64.7l4.5,2.7l4.5-2.7v-5.4l-4.5-2.7l-4.5,2.7V64.7z"/><path class="s_CoOJD9iB" d="M918,68.6l-5.5-3.4v-6.5l5.5-3.3l5.5,3.3v6.5L918,68.6z M913.5,64.7l4.5,2.7l4.5-2.7v-5.4l-4.5-2.7l-4.5,2.7V64.7z"/><path class="s_CoOJD9iB" d="M927,68.6l-5.5-3.4v-6.5l5.5-3.3l5.5,3.3v6.5L927,68.6z M922.5,64.7l4.5,2.7l4.5-2.7v-5.4l-4.5-2.7l-4.5,2.7V64.7z"/></g></g></g></g><linearGradient id="vfVG22rheD" gradientUnits="userSpaceOnUse" x1="2669" y1="-2041.0085" x2="2943.2197" y2="-2041.0085" gradientTransform="matrix(1 0 0 -1 -1689 -2006)"><stop offset="0" style="stop-color:var(--theme-groups-0);"/><stop offset="0.7" style="stop-color:var(--theme-groups-0);stop-opacity: 0"/><stop offset="0.705" style="stop-color:var(--theme-groups-0);"/></linearGradient><path class="p0g7nvb5RO" d="M1156.2,71H980v-4h176.2c24.7,0,39.4-0.6,54.7-13.5c23.2-19.6,41.3-54.1,41.5-54.4l3.5,1.8c-0.7,1.4-18.6,35.5-42.5,55.7C1197.1,70.3,1181.9,71,1156.2,71z"/><style>.vFvRiEb9UU { opacity: 0.15; fill-rule: evenodd; clip-rule: evenodd; fill: url(#fgeShZpuRu); enable-background: new;}.opxS0IvQLJ { opacity: 0.2; fill-rule: evenodd; clip-rule: evenodd; fill: url(#jHSsQMc0Ey); enable-background: new;}.k9SWSt7uIQ { opacity: 0.7;}.fqKFLCXjIJ { opacity: 0.7; fill: var(--theme-groups-0); enable-background: new;}.e5MvEGTjKf { opacity: 0.55; fill-rule: evenodd; clip-rule: evenodd; fill: var(--theme-groups-0); enable-background: new;}.skXmB4PbqA { opacity: 0.6; fill-rule: evenodd; clip-rule: evenodd; fill: url(#j-NmD5jyj5); enable-background: new;}.xU5pKviHJ3 { opacity: 0.16; fill-rule: evenodd; clip-rule: evenodd; fill: url(#igTEjzHBEK); enable-background: new;}.fwzZgy0cvg { opacity: 0.75; fill: var(--theme-groups-0); enable-background: new;}.fY6GznJ0dg { opacity: 0.5; fill: var(--theme-groups-0); enable-background: new;}.bCSX9KyJ1g { fill: url(#sS7GYloDw3);}.yDm7yBfB2- { opacity: 0.6; fill-rule: evenodd; clip-rule: evenodd; fill: url(#g897kZIpoQ); enable-background: new;}.kvPJuXtXoE { opacity: 0.16; fill-rule: evenodd; clip-rule: evenodd; fill: url(#z9BoqrJxF5); enable-background: new;}.mCGZv01pFI { fill: url(#qeRfsXRDjK);}.wVEmxm3XKo { fill: var(--theme-groups-0);}.zVTVY4MO7x { fill: url(#nIH6Ksqqxr);}.lStJkRUWqq { opacity: 0.36; fill-rule: evenodd; clip-rule: evenodd; fill: url(#sQ-YQy0_lX); enable-background: new;}.iz6YX5bokO { fill-rule: evenodd; clip-rule: evenodd; fill: url(#voGzxKSndS);}.wpCDIirYR7 { opacity: 0.55; fill: url(#z7qFLmZeaC); enable-background: new;}.fPrqrQGC48 { fill-rule: evenodd; clip-rule: evenodd;}.oxvGW-2nY3 { opacity: 0.4; fill-rule: evenodd; clip-rule: evenodd; fill: url(#gHNetOj5HC); enable-background: new;}.lxqIrBmQLe { fill-rule: evenodd; clip-rule: evenodd; fill: url(#yrGXx7DyAM);}.i_nkC5RCjj { fill-rule: evenodd; clip-rule: evenodd; fill: #ffffff;}.qF2NJ-19f7 { opacity: 0.4; fill-rule: evenodd; clip-rule: evenodd; fill: url(#mrA2t0FaF5); enable-background: new;}.soAvYOGqin { fill-rule: evenodd; clip-rule: evenodd; fill: url(#jEApk_mmU8);}.fpbFLRO1og { opacity: 0.4;}.tsyjm8ilyw { opacity: 0.22;}.s_CoOJD9iB { fill: var(--theme-groups-0);}.sr53teZzmD { opacity: 0.6; fill: var(--theme-groups-0); enable-background: new;}.uftimXRHl7 { opacity: 0.5; fill: var(--theme-groups-0); enable-background: new;}.sjbwRYM8Pu { opacity: 0.4; fill: var(--theme-groups-0); enable-background: new;}.vADA5CCI7R { opacity: 0.3; fill: var(--theme-groups-0); enable-background: new;}.q4LFtIU9LW { opacity: 0.2;}.sZ4s3xrktP { opacity: 0.7; fill: var(--theme-groups-0); enable-background: new;}.gjckiVl-U3 { opacity: 0.18;}.yGMSPzGAE5 { opacity: 0.79; fill: var(--theme-groups-0); enable-background: new;}.hs0sgz00CD { opacity: 0.15;}.hlKrWlCYS2 { opacity: 0.12;}.wFm77Il-fb { opacity: 0.1;}.ucT5DBQNtx { }.gNK3In2M1h { }.p0g7nvb5RO { fill: url(#vfVG22rheD);}</style></svg>