<svg version="1.1" id="kMtfcCYBHB" xmlns="http://www.w3.org/2000/svg" xmlns:xlink="http://www.w3.org/1999/xlink" x="0px" y="0px" viewBox="0 0 1920 78" xml:space="preserve"><g id="wYA3L2VQXA"><linearGradient id="iTxaBdGslt" gradientUnits="userSpaceOnUse" x1="1314" y1="-2923" x2="1314" y2="-2847" gradientTransform="matrix(1 0 0 -1 -352 -2847)"><stop offset="0" style="stop-color:var(--theme-groups-0);"/><stop offset="1" style="stop-color:var(--theme-groups-0);stop-opacity: 0"/></linearGradient><linearGradient id="okYitBpgPj" gradientUnits="userSpaceOnUse" x1="1314" y1="-2909" x2="1314" y2="-2847" gradientTransform="matrix(1 0 0 -1 -352 -2847)"><stop offset="0" style="stop-color:var(--theme-groups-0);"/><stop offset="1" style="stop-color:var(--theme-groups-0);stop-opacity: 0"/></linearGradient><path id="y6r0cQVPdl" class="yxdLZ52r9u" d="M931,76H705l-9-9h-75l-28-21V0h738v46.5L1302,67h-74l-8,9H993l-7-6h-48L931,76z"/><path id="o0ri9G8w0O" class="f9l9_TWKya" d="M931,62H705l-9-9h-75l-28-21V0h738v32.5L1302,53h-74l-8,9H993l-7-6h-48L931,62z"/><path id="f8lmVBCCeb" class="nRpkIMmKpj" d="M1320,0v21l-16,12h-37l-18,20"/><path id="hL7Fmd7j7G" class="nRpkIMmKpj" d="M605,0v21l15.9,12h36.7l17.9,20"/></g><g transform="translate(-352 -7)"><path id="eSMB62Yk_e" class="u7yQm3D723" d="M1288,81l3-3h46l3,3H1288z"/></g><g transform="translate(-352 -7)"><path class="y-r6ddkdcA" d="M1288,81l3-3h46l3,3H1288z"/></g><g id="tbp0pa1G30"><rect id="ppdoatoAOX" x="1229" y="73" class="pDgzegrxKC" width="19" height="3"/><rect id="eOH-yQzgf7" x="1254" y="73" class="dIc6VHu6Vb" width="19" height="3"/><rect id="h6OfeyftOv" x="1279" y="73" class="mlS4euvZcT" width="19" height="3"/></g><g id="l93R_bUXjX"><rect id="q84dhLx-T0" x="676" y="73" class="pDgzegrxKC" width="19" height="3"/><rect id="dvOCsKMvcn" x="651" y="73" class="dIc6VHu6Vb" width="19" height="3"/><rect id="w-9ZkwTP0Y" x="626" y="73" class="mlS4euvZcT" width="19" height="3"/></g><g id="s-x_ql5s2V"><path id="lGDhzNwqQg" class="ndblxsbRYy" d="M1263,44l7-8h7l-7,8H1263z"/><path id="oy5D_AT-Se" class="iAIdxFcKmT" d="M1309,41l-6-5h-7l6,5H1309z"/><path id="pYVl675n7R" class="caFhZXLlcj" d="M1318.1,22.4L1308,30"/><path id="bei-VB8dHo" class="jC49X9Tm5v" d="M1274,33h9"/><path id="piLMBeTmyI" class="cAU7cQ2y6w" d="M1289,33h9"/><path id="oaoSS2K6nK" class="jtjPZQ7BWs" d="M1267,33l-6,6"/><path id="wLmA5aBK3-" class="uF9nGX1dyQ" d="M1259,42l-6,6"/></g><g id="lhM6RKEgmO"><path id="gTGa8hBCIX" class="ndblxsbRYy" d="M661.6,44l-7-8h-7l7,8H661.6z"/><path id="uvBWCTswkW" class="iAIdxFcKmT" d="M615.6,41l6-5h7l-6,5H615.6z"/><path id="dGuurOlXdh" class="caFhZXLlcj" d="M607.7,22.3l9.9,7.7"/><path id="mJbsho802d" class="jC49X9Tm5v" d="M650,33h-9"/><path id="egCBdJLMQb" class="cAU7cQ2y6w" d="M635,33h-9"/><path id="s133Euz1uJ" class="jtjPZQ7BWs" d="M658.6,35l6,6"/><path id="AKc8RUCPAp" class="uF9nGX1dyQ" d="M667.6,44l6,6"/></g><g id="kAvMs8LuHu"><g id="qaMGmZ1b1B"><path id="rEm9c0yhs_" class="ic3O0XyFlv" d="M1533.6,48h6l6-8h-6L1533.6,48z"/><path id="jLY8QVsEP2" class="aONdSYL5Oo" d="M1543.6,48h6l6-8h-6L1543.6,48z"/><path id="cwibJFxUku" class="gLWjQNZjS-" d="M1553.6,48h6l6-8h-6L1553.6,48z"/><path id="wKN6g6rgk2" class="eSJ3S9HHh4" d="M1563.6,48h6l6-8h-6L1563.6,48z"/><path id="uypq8yeF0C" class="wI4e9TcqIr" d="M1344.6,43l-3,5h188l6-8h-134l-1,3H1344.6z"/><linearGradient id="xWAadKH8vv" gradientUnits="userSpaceOnUse" x1="1693.6" y1="-2891" x2="1887.6" y2="-2891" gradientTransform="matrix(1 0 0 -1 -352 -2847)"><stop offset="0" style="stop-color:var(--theme-groups-2);"/><stop offset="1" style="stop-color:var(--theme-groups-0);"/></linearGradient></g><g id="d9igN4vYof"><g id="nBFcAwc4gg"><g id="m8QEAJf8hU"><g id="rACFdcpmPM"><path id="xHz4kZZast" class="ic3O0XyFlv" d="M390.4,48h-6l-6-8h6L390.4,48z"/><path id="juyZJop3e7" class="aONdSYL5Oo" d="M380.4,48h-6l-6-8h6L380.4,48z"/><path id="y2qhZedC5f" class="gLWjQNZjS-" d="M370.4,48h-6l-6-8h6L370.4,48z"/><path id="pUv9xk-PWH" class="eSJ3S9HHh4" d="M360.4,48h-6l-6-8h6L360.4,48z"/><path id="ujXSYe2K5M" class="hJ6BSjwk8N" d="M579.4,43l3,5h-188l-6-8h134l1,3H579.4z"/><linearGradient id="upbX2stvle" gradientUnits="userSpaceOnUse" x1="740.4" y1="-2891" x2="934.4" y2="-2891" gradientTransform="matrix(1 0 0 -1 -352 -2847)"><stop offset="0" style="stop-color:var(--theme-groups-0);"/><stop offset="1" style="stop-color:var(--theme-groups-2);"/></linearGradient></g><linearGradient id="lvvyT5sA_W" gradientUnits="userSpaceOnUse" x1="937.4" y1="-2893" x2="659.4" y2="-2893" gradientTransform="matrix(1 0 0 -1 -352 -2847)"><stop offset="0" style="stop-color:var(--theme-groups-2);"/><stop offset="1" style="stop-color:var(--theme-groups-0);"/></linearGradient><path id="uPmUR51_0i" class="sGWLNUQeEP" d="M585.4,57h-256l-15-22h-7"/></g><g id="pBM5lvprUf"><g id="wQ7gcgKKfW" class="bNzxbSxRrd"><linearGradient id="AAM_AfkuLA" gradientUnits="userSpaceOnUse" x1="479.4" y1="-2878.5" x2="671.4" y2="-2878.5" gradientTransform="matrix(1 0 0 -1 -352 -2847)"><stop offset="0" style="stop-color:var(--theme-groups-0);"/><stop offset="1" style="stop-color:var(--theme-groups-2);stop-opacity: 0"/></linearGradient><linearGradient id="gOhGzmFLiY" gradientUnits="userSpaceOnUse" x1="692.4" y1="-2883.5" x2="500.4" y2="-2883.5" gradientTransform="matrix(1 0 0 -1 -352 -2847)"><stop offset="0" style="stop-color:var(--theme-groups-2);stop-opacity: 0"/><stop offset="1" style="stop-color:var(--theme-groups-0);"/></linearGradient><path id="w_MdCbtLYx" class="qf3NFWMIOi" d="M260.4,29h56l3,5h-188l-4-5"/><path id="mOkZ7SUYCv" class="yB8202xH2e" d="M148.4,34l4,5h188l-3-5H148.4z"/></g></g><g id="qJbyaz6XYK"><linearGradient id="j_vXZHyxDp" gradientUnits="userSpaceOnUse" x1="352.4" y1="-2875" x2="922.4" y2="-2875" gradientTransform="matrix(1 0 0 -1 -352 -2847)"><stop offset="0" style="stop-color:var(--theme-groups-0);stop-opacity: 0.651"/><stop offset="0.474" style="stop-color:var(--theme-groups-0);"/><stop offset="0.479" style="stop-color:var(--theme-groups-0);"/><stop offset="1" style="stop-color:var(--theme-groups-0);stop-opacity: 0.651"/></linearGradient><linearGradient id="hV_kNzcoUi" gradientUnits="userSpaceOnUse" x1="351.4" y1="-2870" x2="918.4" y2="-2870" gradientTransform="matrix(1 0 0 -1 -352 -2847)"><stop offset="0" style="stop-color:var(--theme-groups-0);stop-opacity: 0.302"/><stop offset="0.474" style="stop-color:var(--theme-groups-0);"/><stop offset="0.5" style="stop-color:var(--theme-groups-0);"/><stop offset="1" style="stop-color:var(--theme-groups-0);stop-opacity: 0.651"/></linearGradient><path id="koGmwOA2Su" class="s0uHWOc1XN" d="M570.4,28H0.4"/><path id="yGJoD8jIr7" class="tKyZdYW7-3" d="M566.4,23h-567"/></g></g><g id="gHyWncKVvD"><g id="wcp09cB8vV"><g id="bMI_-PwD52" class="bNzxbSxRrd"><linearGradient id="tALp7dPDys" gradientUnits="userSpaceOnUse" x1="2148.6001" y1="-2878.5" x2="1956.6" y2="-2878.5" gradientTransform="matrix(1 0 0 -1 -352 -2847)"><stop offset="0" style="stop-color:var(--theme-groups-0);"/><stop offset="1" style="stop-color:var(--theme-groups-2);stop-opacity: 0"/></linearGradient><linearGradient id="x-zFHhyT82" gradientUnits="userSpaceOnUse" x1="2127.6001" y1="-2883.5" x2="1935.6" y2="-2883.5" gradientTransform="matrix(1 0 0 -1 -352 -2847)"><stop offset="0" style="stop-color:var(--theme-groups-0);"/><stop offset="1" style="stop-color:var(--theme-groups-2);stop-opacity: 0"/></linearGradient><path id="tqnJ2fRKu-" class="peG3qd1Zqi" d="M1663.6,29h-56l-3,5h188l4-5"/><path id="nu4Ko9mGlT" class="eZqElbzj0h" d="M1642.6,34h-56l-3,5h188l4-5"/></g></g><g id="g0EVVMSWsD"><linearGradient id="jndpTR6L3Z" gradientUnits="userSpaceOnUse" x1="1705.6" y1="-2874" x2="2271.6001" y2="-2874" gradientTransform="matrix(1 0 0 -1 -352 -2847)"><stop offset="0" style="stop-color:var(--theme-groups-0);stop-opacity: 0.651"/><stop offset="0.521" style="stop-color:var(--theme-groups-0);"/><stop offset="0.526" style="stop-color:var(--theme-groups-0);"/><stop offset="1" style="stop-color:var(--theme-groups-0);stop-opacity: 0.651"/></linearGradient><linearGradient id="dviVYayTSn" gradientUnits="userSpaceOnUse" x1="1709.6" y1="-2869" x2="2271.6001" y2="-2869" gradientTransform="matrix(1 0 0 -1 -352 -2847)"><stop offset="0" style="stop-color:var(--theme-groups-0);stop-opacity: 0.302"/><stop offset="0.474" style="stop-color:var(--theme-groups-0);"/><stop offset="0.5" style="stop-color:var(--theme-groups-0);"/><stop offset="1" style="stop-color:var(--theme-groups-0);stop-opacity: 0.651"/></linearGradient><path id="jQo5xcQo33" class="vCWjIQWMRI" d="M1353.6,27h566"/><path id="dmZ5Eg1A2z" class="krNtPB84wM" d="M1357.6,22h562"/></g></g><g id="p3sCirzwgc"><rect id="ujUTNp693k" x="1421" y="17" class="mJOT8nbfBl" width="7" height="3"/><rect id="dhaDRcqTu9" x="1409" y="17" class="oyHZ25K5ro" width="7" height="3"/><rect id="tibSa2Zg_u" x="1397" y="17" class="yL0_7LlGAi" width="7" height="3"/></g><g id="aLPBCOoklf"><rect id="pOKZfuOd7E" x="496" y="17" class="mJOT8nbfBl" width="7" height="3"/><rect id="qXIZL9_86_" x="508" y="17" class="oyHZ25K5ro" width="7" height="3"/><rect id="cUH5oGUs11" x="520" y="17" class="yL0_7LlGAi" width="7" height="3"/></g></g><linearGradient id="khcZERaXkE" gradientUnits="userSpaceOnUse" x1="1690.6" y1="-2893" x2="1968.6" y2="-2893" gradientTransform="matrix(1 0 0 -1 -352 -2847)"><stop offset="0" style="stop-color:var(--theme-groups-2);"/><stop offset="1" style="stop-color:var(--theme-groups-0);"/></linearGradient><path id="kV_lxljEI2" class="hJ0tg1zGTA" d="M1338.6,57h256l15-22h7"/></g><linearGradient id="ogSEfOIQwE" gradientUnits="userSpaceOnUse" x1="1314" y1="-2922.0376" x2="1314" y2="-2846.9624" gradientTransform="matrix(1 0 0 -1 -352 -2847)"><stop offset="0" style="stop-color:var(--theme-groups-1);"/><stop offset="1" style="stop-color:var(--theme-groups-1);stop-opacity: 0"/></linearGradient><linearGradient id="vgoKeUWspS" gradientUnits="userSpaceOnUse" x1="1283" y1="-2907.1052" x2="945.9843" y2="-2907.1052" gradientTransform="matrix(1 0 0 -1 -352 -2847)"><stop offset="0" style="stop-color:var(--theme-groups-0);"/><stop offset="0.7881" style="stop-color:var(--theme-groups-1);"/><stop offset="1" style="stop-color:var(--theme-groups-1);stop-opacity: 0"/></linearGradient><linearGradient id="hyMkcZk3cc" gradientUnits="userSpaceOnUse" x1="1345" y1="-2907.3467" x2="1681.9879" y2="-2907.3467" gradientTransform="matrix(1 0 0 -1 -352 -2847)"><stop offset="0" style="stop-color:var(--theme-groups-0);"/><stop offset="0.789" style="stop-color:var(--theme-groups-1);"/><stop offset="0.982" style="stop-color:var(--theme-groups-1);stop-opacity: 0"/></linearGradient><path id="hc9ZTdHbkr" class="zIy2pC00mf" d="M931,75H705l-9-9h-75l-27-21V0h736v45.5L1302,66h-74l-8,9H993l-7-6h-48L931,75z"/><path id="eqtcvEmYxe" class="iJdSskwAUr" d="M931,75H705l-9-9h-75l-27-21"/><path id="mqP8zrt6lp" class="hPb8NYyzcr" d="M769,74l3,3h46l3-3H769z"/><path id="zlL6c3oRL5" class="gRlxBibORB" d="M993,75h227l8-9.1l74,0.1l28-20.5"/><path id="dHINII2Tm6" class="hPb8NYyzcr" d="M1109,74l3,3h46l3-3H1109z"/><style>.yxdLZ52r9u { opacity: 0.73; fill-rule: evenodd; clip-rule: evenodd; fill: url(#iTxaBdGslt); enable-background: new;}.f9l9_TWKya { opacity: 0.27; fill-rule: evenodd; clip-rule: evenodd; fill: url(#okYitBpgPj); enable-background: new;}.nRpkIMmKpj { opacity: 0.24; fill: none; stroke: var(--theme-groups-1); stroke-width: 2; enable-background: new;}.zIy2pC00mf { opacity: 0.66; fill: none; stroke: url(#ogSEfOIQwE); stroke-width: 2; enable-background: new;}.iJdSskwAUr { opacity: 0.77; fill: none; stroke: url(#vgoKeUWspS); stroke-width: 2; enable-background: new;}.hPb8NYyzcr { fill: var(--theme-groups-1);}.u7yQm3D723 { fill: none;}.y-r6ddkdcA { opacity: 0.75; fill: var(--theme-groups-1); enable-background: new;}.gRlxBibORB { fill: none; stroke: url(#hyMkcZk3cc); stroke-width: 2;}.pDgzegrxKC { opacity: 0.7; fill: var(--theme-groups-1); enable-background: new;}.dIc6VHu6Vb { opacity: 0.3; fill: var(--theme-groups-1); enable-background: new;}.mlS4euvZcT { opacity: 0.1; fill: var(--theme-groups-1); enable-background: new;}.ndblxsbRYy { opacity: 0.18; fill-rule: evenodd; clip-rule: evenodd; fill: var(--theme-groups-1); enable-background: new;}.iAIdxFcKmT { opacity: 0.1; fill-rule: evenodd; clip-rule: evenodd; fill: var(--theme-groups-1); enable-background: new;}.caFhZXLlcj { opacity: 0.22; fill: none; stroke: var(--theme-groups-1); stroke-width: 2; enable-background: new;}.jC49X9Tm5v { opacity: 0.6; fill: none; stroke: var(--theme-groups-1); stroke-width: 2; enable-background: new;}.cAU7cQ2y6w { opacity: 0.32; fill: none; stroke: var(--theme-groups-1); stroke-width: 2; enable-background: new;}.jtjPZQ7BWs { opacity: 0.64; fill: none; stroke: var(--theme-groups-1); stroke-width: 2; enable-background: new;}.uF9nGX1dyQ { opacity: 0.46; fill: none; stroke: var(--theme-groups-1); stroke-width: 2; enable-background: new;}.ic3O0XyFlv { fill-rule: evenodd; clip-rule: evenodd; fill: var(--theme-groups-0);}.aONdSYL5Oo { opacity: 0.7; fill-rule: evenodd; clip-rule: evenodd; fill: var(--theme-groups-0); enable-background: new;}.gLWjQNZjS- { opacity: 0.5; fill-rule: evenodd; clip-rule: evenodd; fill: var(--theme-groups-0); enable-background: new;}.eSJ3S9HHh4 { opacity: 0.3; fill-rule: evenodd; clip-rule: evenodd; fill: var(--theme-groups-0); enable-background: new;}.wI4e9TcqIr { fill-rule: evenodd; clip-rule: evenodd; fill: url(#xWAadKH8vv);}.hJ0tg1zGTA { opacity: 0.7; fill: none; stroke: url(#khcZERaXkE); enable-background: new;}.hJ6BSjwk8N { fill-rule: evenodd; clip-rule: evenodd; fill: url(#upbX2stvle);}.sGWLNUQeEP { opacity: 0.7; fill: none; stroke: url(#lvvyT5sA_W); enable-background: new;}.bNzxbSxRrd { opacity: 0.7;}.qf3NFWMIOi { fill-rule: evenodd; clip-rule: evenodd; fill: url(#AAM_AfkuLA);}.yB8202xH2e { opacity: 0.5; fill-rule: evenodd; clip-rule: evenodd; fill: url(#gOhGzmFLiY); enable-background: new;}.s0uHWOc1XN { opacity: 0.8; fill: none; stroke: url(#j_vXZHyxDp); enable-background: new;}.tKyZdYW7-3 { fill: none; stroke: url(#hV_kNzcoUi); stroke-dasharray: 4, 2;}.peG3qd1Zqi { fill-rule: evenodd; clip-rule: evenodd; fill: url(#tALp7dPDys);}.eZqElbzj0h { opacity: 0.5; fill-rule: evenodd; clip-rule: evenodd; fill: url(#x-zFHhyT82); enable-background: new;}.vCWjIQWMRI { opacity: 0.8; fill: none; stroke: url(#jndpTR6L3Z); enable-background: new;}.krNtPB84wM { fill: none; stroke: url(#dviVYayTSn); stroke-dasharray: 4, 2;}.mJOT8nbfBl { fill: var(--theme-groups-3);}.oyHZ25K5ro { opacity: 0.4; fill: var(--theme-groups-3); enable-background: new;}.yL0_7LlGAi { opacity: 0.2; fill: var(--theme-groups-3); enable-background: new;}</style></svg>