<svg version="1.1" id="pCDugcVxZ0" xmlns="http://www.w3.org/2000/svg" xmlns:xlink="http://www.w3.org/1999/xlink" x="0px"
    y="0px" viewBox="0 0 1920 71.5" style="enable-background: new 0 0 1920 71.5" xml:space="preserve">
    <linearGradient id="h-4uKNY56o" gradientUnits="userSpaceOnUse" x1="990.85" y1="5185.7998" x2="990.85" y2="5115.7998"
        gradientTransform="matrix(1 0 0 1 -32 -5116)">
        <stop offset="0" style="stop-color:var(--theme-groups-2);" />
        <stop offset="4.000000e-03" style="stop-color:var(--theme-groups-2);stop-opacity: 0.5" />
        <stop offset="0.504" style="stop-color:var(--theme-groups-2);stop-opacity: 0.4" />
        <stop offset="0.991" style="stop-color:var(--theme-groups-2);stop-opacity: 0.1" />
    </linearGradient>
    <linearGradient id="iytF4rGsnl" gradientUnits="userSpaceOnUse" x1="990.9497" y1="5185.1309" x2="990.9497"
        y2="5115.6177" gradientTransform="matrix(1 0 0 1 -32 -5116)">
        <stop offset="0" style="stop-color:var(--theme-groups-2);stop-opacity: 0.4" />
        <stop offset="1" style="stop-color:var(--theme-groups-2);stop-opacity: 7e-2" />
    </linearGradient>
    <path id="orDpBYXmfO" class="wjNQKHyNjR"
        d="M675.6,69.8c-10.3,0-15.1-2-21-9.9S629.1,0,629.1,0L967-0.2l321.6,0.4c0,0-19.2,51.7-25.1,59.6s-10.8,10-20,10" />
    <path class="rQ7zlRVHcB"
        d="M1243,70H675c-9.9,0-14.9-2.5-20.8-10.4c-5.9-7.9-24.5-58-25.3-60.2l1.9-0.7c0.2,0.5,19.3,52,25.1,59.6c5.5,7.4,10,9.6,19.2,9.6h568c9.2,0,13.7-2.2,19.2-9.6c5.7-7.7,24.8-58.8,25-59.3l1.9,0.7c-0.8,2.1-19.3,51.9-25.2,59.9C1257.9,67.5,1252.9,70,1243,70z" />
    <g>
        <path id="uz1HBJne1p" class="pLzX6IKY0m" style="fill:var(--theme-pageBackground)" d="M784,67h36" />
        <rect x="784" y="67" class="d5qj5kLmCe" width="36" height="3" style="fill:var(--theme-groups-5);" />
    </g>
    <g id="lYjtwSkl59">
        <g id="o6IfQBW9dh">
            <linearGradient id="uKy3N0zO6Z" gradientUnits="userSpaceOnUse" x1="684" y1="5156.5" x2="914" y2="5156.5"
                gradientTransform="matrix(1 0 0 1 -32 -5116)">
                <stop offset="0" style="stop-color:var(--theme-groups-2);" />
                <stop offset="0.547" style="stop-color:var(--theme-groups-2);stop-opacity: 0.5" />
                <stop offset="1" style="stop-color:var(--theme-groups-2);stop-opacity: 0" />
            </linearGradient>
            <path id="u5zdzto_m8" class="exvscsphvc"
                d="M698,31l7,10h177l-1,5H762l-4,4h-40l-4-4h-49l-7-11h-4l-2-4H698z" />
            <rect id="npLay5pzHL" x="666" y="44" class="uCvztVySFD" width="8" height="2"
                style="fill:var(--theme-groups-5);" />
            <rect id="hcbLnsp4Vb" x="677" y="44" class="w6XBX_Is5e" width="8" height="2"
                style="fill:var(--theme-groups-5);" />
            <rect id="l7mhWj10Pn" x="688" y="44" class="i0WPpA5ExD" width="8" height="2"
                style="fill:var(--theme-groups-5);" />
            <g id="skxTnU6gN_" class="cwRZISSAga">
                <linearGradient id="fAquhg_j__" gradientUnits="userSpaceOnUse" x1="737" y1="35" x2="763" y2="35">
                    <stop offset="0" style="stop-color:var(--theme-groups-2);" />
                    <stop offset="1" style="stop-color:var(--theme-groups-2);stop-opacity: 0.2" />
                </linearGradient>
                <linearGradient id="vmJOM3qsYJ" gradientUnits="userSpaceOnUse" x1="702" y1="33" x2="740" y2="33">
                    <stop offset="0" style="stop-color:var(--theme-groups-2);" />
                    <stop offset="1" style="stop-color:var(--theme-groups-2);stop-opacity: 0.2" />
                </linearGradient>
                <path id="rCigWYT9ku" class="m9W_7T3V7n" d="M737,33l3,4h21l2-4H737z" />
                <path id="uJn83eLdoq" class="lt09OwrrZC" d="M702,29l6,8h32l-3-4h-25l-3-4H702z" />
            </g>
        </g>
        <g id="dDKINzgnxy">
            <linearGradient id="ydceC9w06M" gradientUnits="userSpaceOnUse" x1="780.8889" y1="5156.5" x2="1010.8889"
                y2="5156.5" gradientTransform="matrix(-1 0 0 1 2045.7777 -5116)">
                <stop offset="0" style="stop-color:var(--theme-groups-2);" />
                <stop offset="0.547" style="stop-color:var(--theme-groups-2);stop-opacity: 0.5" />
                <stop offset="1" style="stop-color:var(--theme-groups-2);stop-opacity: 0" />
            </linearGradient>
            <path id="mYFCkaIMBG" class="yIaH4fpANI"
                d="M1264.9,31l-2,4h-4l-7,11h-49l-4,4h-40l-4-4h-119l-1-5h177l7-10H1264.9z" />
            <rect id="rlTwHzOYye" x="1242.9" y="44" class="uCvztVySFD" width="8" height="2"
                style="fill:var(--theme-groups-5);" />
            <rect id="lUZJaV-8sp" x="1231.9" y="44" class="w6XBX_Is5e" width="8" height="2"
                style="fill:var(--theme-groups-5);" />
            <rect id="sC0LQvBgSi" x="1220.9" y="44" class="i0WPpA5ExD" width="8" height="2"
                style="fill:var(--theme-groups-5);" />
            <g id="ehkCF2yh0O" class="cwRZISSAga">
                <linearGradient id="yE0stZoS-9" gradientUnits="userSpaceOnUse" x1="833.8889" y1="35" x2="859.8889"
                    y2="35" gradientTransform="matrix(-1 0 0 1 2013.7777 0)">
                    <stop offset="0" style="stop-color:var(--theme-groups-2);" />
                    <stop offset="1" style="stop-color:var(--theme-groups-2);stop-opacity: 0.2" />
                </linearGradient>
                <linearGradient id="s09iJgcu1b" gradientUnits="userSpaceOnUse" x1="798.8889" y1="33" x2="836.8889"
                    y2="33" gradientTransform="matrix(-1 0 0 1 2013.7777 0)">
                    <stop offset="0" style="stop-color:var(--theme-groups-2);" />
                    <stop offset="1" style="stop-color:var(--theme-groups-2);stop-opacity: 0.2" />
                </linearGradient>
                <path id="lvPKOkR4Pw" class="hbIkYn03LG" d="M1153.9,33l2,4h21l3-4H1153.9z" />
                <path id="mhUTaWhvg0" class="wEhyD9tnSz" d="M1207.9,29l-3,4h-25l-3,4h32l6-8H1207.9z" />
            </g>
        </g>
    </g>
    <g id="iXTtHVBNgo">
        <g id="rt_sMrUptq">
            <g id="oSQgxJMI8q">
                <path id="ksvXKLec8i" class="xk_PXr1gUM" d="M432,39h-6l-6-8h6L432,39z"
                    style="fill:var(--theme-groups-2);" />
                <path id="hyjeltKkNB" class="ggXkP3z7Pm" d="M422,39h-6l-6-8h6L422,39z"
                    style="fill:var(--theme-groups-2);" />
                <path id="uIXpMo0_0G" class="yXm0NxyZJB" d="M412,39h-6l-6-8h6L412,39z"
                    style="fill:var(--theme-groups-2);" />
                <path id="ydjuJYnb6U" class="mne-ugfidm" d="M402,39h-6l-6-8h6L402,39z"
                    style="fill:var(--theme-groups-2);" />
                <path id="kYy5Fpxq-7" class="yCSf7LDCkB" d="M621,34l3,5H436l-6-8h134l1,3H621z" />
                <linearGradient id="pEV4MW6DgP" gradientUnits="userSpaceOnUse" x1="462" y1="5151" x2="656" y2="5151"
                    gradientTransform="matrix(1 0 0 1 -32 -5116)">
                    <stop offset="0" style="stop-color:var(--theme-groups-2);stop-opacity: 0.7" />
                    <stop offset="1" style="stop-color:var(--theme-groups-2);" />
                </linearGradient>
            </g>
            <polygon class="eYn6JOCUxH"
                points="627,48.5 370.7,48.5 355.7,26.5 349,26.5 349,25.5 356.3,25.5 371.3,47.5 627,47.5 "
                style="fill:var(--theme-groups-2);" />
        </g>
        <g id="s5aXUw89WN">
            <g id="k8kHAmnlok" class="up3NWWoUb3">
                <linearGradient id="ewcEPdJnh_" gradientUnits="userSpaceOnUse" x1="126" y1="5138.5" x2="318" y2="5138.5"
                    gradientTransform="matrix(1 0 0 1 -32 -5116)">
                    <stop offset="0" style="stop-color:var(--theme-groups-2);" />
                    <stop offset="1" style="stop-color:var(--theme-groups-2);stop-opacity: 0" />
                </linearGradient>
                <linearGradient id="yzn82ELxoj" gradientUnits="userSpaceOnUse" x1="147" y1="5143.5" x2="339" y2="5143.5"
                    gradientTransform="matrix(1 0 0 1 -32 -5116)">
                    <stop offset="0" style="stop-color:var(--theme-groups-2);" />
                    <stop offset="1" style="stop-color:var(--theme-groups-2); stop-opacity: 0" />
                </linearGradient>
                <path id="v4B64db0wz" class="ga18R4VW5n" d="M227,20h56l3,5H98l-4-5H227z" />
                <path id="cr63HFmdVg" class="cPnu1xzQJZ" d="M248,25h56l3,5H119l-4-5H248z" />
            </g>
        </g>
        <g id="fV4IT8V_MG">
            <linearGradient id="cRa3ddkWUv" gradientUnits="userSpaceOnUse" x1="-13" y1="5135" x2="599" y2="5135"
                gradientTransform="matrix(1 0 0 1 -32 -5116)">
                <stop offset="0" style="stop-color:var(--theme-groups-0);stop-opacity: 0.651" />
                <stop offset="0.474" style="stop-color:var(--theme-groups-2);" />
                <stop offset="1" style="stop-color:var(--theme-groups-0);stop-opacity: 0.651" />
            </linearGradient>
            <linearGradient id="oqH2p5vtdG" gradientUnits="userSpaceOnUse" x1="-15.001" y1="5130" x2="595" y2="5130"
                gradientTransform="matrix(1 0 0 1 -32 -5116)">
                <stop offset="0" style="stop-color:var(--theme-groups-2);stop-opacity: 0.302" />
                <stop offset="0.474" style="stop-color:var(--theme-groups-2);" />
                <stop offset="1" style="stop-color:var(--theme-groups-2);stop-opacity: 0.651" />
            </linearGradient>
            <rect x="-45" y="18.5" class="qN9GDMclpF" width="612" height="1" />
            <path class="tI4Ci7op-k"
                d="M563,14.5h-4v-1h4V14.5z M557,14.5h-4v-1h4V14.5z M551,14.5h-4v-1h4V14.5z M545,14.5h-4v-1h4V14.5z M539,14.5h-4v-1h4V14.5z M533,14.5h-4v-1h4V14.5z M527,14.5h-4v-1h4V14.5z M521,14.5h-4v-1h4V14.5z M515,14.5h-4v-1h4V14.5z M509,14.5h-4v-1h4V14.5z M503,14.5h-4v-1h4V14.5z M497,14.5h-4v-1h4V14.5z M491,14.5h-4v-1h4V14.5z M485,14.5h-4v-1h4V14.5z M479,14.5h-4v-1h4V14.5z M473,14.5h-4v-1h4V14.5z M467,14.5h-4v-1h4V14.5z M461,14.5h-4v-1h4V14.5z M455,14.5h-4v-1h4V14.5z M449,14.5h-4v-1h4V14.5z M443,14.5h-4v-1h4V14.5z M437,14.5h-4v-1h4V14.5z M431,14.5h-4v-1h4V14.5z M425,14.5h-4v-1h4V14.5z M419,14.5h-4v-1h4V14.5z M413,14.5h-4v-1h4V14.5z M407,14.5h-4v-1h4V14.5z M401,14.5h-4v-1h4V14.5z M395,14.5h-4v-1h4V14.5z M389,14.5h-4v-1h4V14.5z M383,14.5h-4v-1h4V14.5z M377,14.5h-4v-1h4V14.5z M371,14.5h-4v-1h4V14.5z M365,14.5h-4v-1h4V14.5z M359,14.5h-4v-1h4V14.5z M353,14.5h-4v-1h4V14.5z M347,14.5h-4v-1h4V14.5z M341,14.5h-4v-1h4V14.5z M335,14.5h-4v-1h4V14.5z M329,14.5h-4v-1h4V14.5z M323,14.5h-4v-1h4V14.5z M317,14.5h-4v-1h4V14.5z M311,14.5h-4v-1h4V14.5z M305,14.5h-4v-1h4V14.5z M299,14.5h-4v-1h4V14.5z M293,14.5h-4v-1h4V14.5z M287,14.5h-4v-1h4V14.5z M281,14.5h-4v-1h4V14.5z M275,14.5h-4v-1h4V14.5z M269,14.5h-4v-1h4V14.5z M263,14.5h-4v-1h4V14.5z M257,14.5h-4v-1h4V14.5z M251,14.5h-4v-1h4V14.5z M245,14.5h-4v-1h4V14.5z M239,14.5h-4v-1h4V14.5z M233,14.5h-4v-1h4V14.5z M227,14.5h-4v-1h4V14.5z M221,14.5h-4v-1h4V14.5z M215,14.5h-4v-1h4V14.5z M209,14.5h-4v-1h4V14.5z M203,14.5h-4v-1h4V14.5z M197,14.5h-4v-1h4V14.5z M191,14.5h-4v-1h4V14.5z M185,14.5h-4v-1h4V14.5z M179,14.5h-4v-1h4V14.5z M173,14.5h-4v-1h4V14.5z M167,14.5h-4v-1h4V14.5z M161,14.5h-4v-1h4V14.5z M155,14.5h-4v-1h4V14.5z M149,14.5h-4v-1h4V14.5z M143,14.5h-4v-1h4V14.5z M137,14.5h-4v-1h4V14.5z M131,14.5h-4v-1h4V14.5z M125,14.5h-4v-1h4V14.5z M119,14.5h-4v-1h4V14.5z M113,14.5h-4v-1h4V14.5z M107,14.5h-4v-1h4V14.5z M101,14.5h-4v-1h4V14.5z M95,14.5h-4v-1h4V14.5z M89,14.5h-4v-1h4V14.5z M83,14.5h-4v-1h4V14.5z M77,14.5h-4v-1h4V14.5z M71,14.5h-4v-1h4V14.5z M65,14.5h-4v-1h4V14.5z M59,14.5h-4v-1h4V14.5z M53,14.5h-4v-1h4V14.5z M47,14.5h-4v-1h4V14.5z M41,14.5h-4v-1h4V14.5z M35,14.5h-4v-1h4V14.5z M29,14.5h-4v-1h4V14.5z M23,14.5h-4v-1h4V14.5z M17,14.5h-4v-1h4V14.5z M11,14.5H7v-1h4V14.5z M5,14.5H1v-1h4V14.5z M-1,14.5h-4v-1h4V14.5z M-7,14.5h-4v-1h4V14.5z M-13,14.5h-4v-1h4V14.5z M-19,14.5h-4v-1h4V14.5z M-25,14.5h-4v-1h4V14.5z M-31,14.5h-4v-1h4V14.5z M-37,14.5h-4v-1h4V14.5z M-43,14.5h-4v-1h4V14.5z" />
        </g>
    </g>
    <g id="luPD1pR_Zz">
        <g id="eU6hstfOO2">
            <g id="hZrEp8AUVs">
                <path id="hd4E8jstr7" class="xk_PXr1gUM" d="M1491.2,31h6l-6,8h-6L1491.2,31z"
                    style="fill:var(--theme-groups-2);" />
                <path id="lKOsZAFFK0" class="ggXkP3z7Pm" d="M1501.2,31h6l-6,8h-6L1501.2,31z"
                    style="fill:var(--theme-groups-2);" />
                <path id="lnARW2nYCP" class="yXm0NxyZJB" d="M1511.2,31h6l-6,8h-6L1511.2,31z"
                    style="fill:var(--theme-groups-2);" />
                <path id="cHUyo2QjU4" class="mne-ugfidm" d="M1521.2,31h6l-6,8h-6L1521.2,31z"
                    style="fill:var(--theme-groups-2);" />
                <path id="kcDh8JSK0m" class="swVeK7FZw7" d="M1352.2,34l1-3h134l-6,8h-188l3-5H1352.2z" />
                <linearGradient id="llhfX2GbjO" gradientUnits="userSpaceOnUse" x1="754.8" y1="5151" x2="948.8" y2="5151"
                    gradientTransform="matrix(-1 0 0 1 2242 -5116)">
                    <stop offset="0" style="stop-color:var(--theme-groups-2);stop-opacity: 0.7" />
                    <stop offset="1" style="stop-color:var(--theme-groups-2);" />
                </linearGradient>
            </g>
            <polygon class="eYn6JOCUxH"
                points="1546.5,48.5 1290.2,48.5 1290.2,47.5 1545.9,47.5 1560.9,25.5 1568.2,25.5 1568.2,26.5 1561.5,26.5 "
                style="fill:var(--theme-groups-2);" />
        </g>
        <g id="rqva10bFvx">
            <g id="liKp1hpnV0" class="up3NWWoUb3">
                <linearGradient id="j-hkP1NrGY" gradientUnits="userSpaceOnUse" x1="418.8" y1="5138.5" x2="610.8"
                    y2="5138.5" gradientTransform="matrix(-1 0 0 1 2242 -5116)">
                    <stop offset="0" style="stop-color:var(--theme-groups-2);" />
                    <stop offset="1" style="stop-color:var(--theme-groups-2);stop-opacity: 0" />
                </linearGradient>
                <linearGradient id="u7VtglhBXx" gradientUnits="userSpaceOnUse" x1="439.8" y1="5143.5" x2="631.8"
                    y2="5143.5" gradientTransform="matrix(-1 0 0 1 2242 -5116)">
                    <stop offset="0" style="stop-color:var(--theme-groups-2);" />
                    <stop offset="1" style="stop-color:var(--theme-groups-2);stop-opacity: 0" />
                </linearGradient>
                <path id="lKj3u35rgM" class="gJMqCxUgWJ" d="M1823.2,20l-4,5h-188l3-5h56H1823.2z" />
                <path id="A5oRsBmNEP" class="nnYDA-EinR" d="M1802.2,25l-4,5h-188l3-5h56H1802.2z" />
            </g>
        </g>
        <g id="ocJf9sXO5Q">
            <linearGradient id="ywthLPLuUo" gradientUnits="userSpaceOnUse" x1="279.7998" y1="5135" x2="891.7998"
                y2="5135" gradientTransform="matrix(-1 0 0 1 2242 -5116)">
                <stop offset="0" style="stop-color:var(--theme-groups-2);stop-opacity: 0.4" />
                <stop offset="0.474" style="stop-color:var(--theme-groups-2);stop-opacity: 0.7" />
                <stop offset="0.9973" style="stop-color:var(--theme-groups-2);stop-opacity: 0.2" />
            </linearGradient>
            <linearGradient id="v4XDcfmb5R" gradientUnits="userSpaceOnUse" x1="275.7998" y1="5130" x2="885.8008"
                y2="5130" gradientTransform="matrix(-1 0 0 1 2242 -5116)">
                <stop offset="0" style="stop-color:var(--theme-groups-2);stop-opacity: 0.302" />
                <stop offset="0.474" style="stop-color:var(--theme-groups-2);" />
                <stop offset="1" style="stop-color:var(--theme-groups-2);stop-opacity: 0.651" />
            </linearGradient>
            <rect x="1350.2" y="18.5" class="pPsOL1nFkm" width="612" height="1" />
            <path class="mOZJrnq20o"
                d="M1966.2,14.5h-4v-1h4V14.5z M1960.2,14.5h-4v-1h4V14.5z M1954.2,14.5h-4v-1h4V14.5z M1948.2,14.5h-4v-1h4V14.5z M1942.2,14.5h-4v-1h4V14.5z M1936.2,14.5h-4v-1h4V14.5z M1930.2,14.5h-4v-1h4V14.5z M1924.2,14.5h-4v-1h4V14.5z M1918.2,14.5h-4v-1h4V14.5z M1912.2,14.5h-4v-1h4V14.5z M1906.2,14.5h-4v-1h4V14.5z M1900.2,14.5h-4v-1h4V14.5z M1894.2,14.5h-4v-1h4V14.5z M1888.2,14.5h-4v-1h4V14.5z M1882.2,14.5h-4v-1h4V14.5z M1876.2,14.5h-4v-1h4V14.5z M1870.2,14.5h-4v-1h4V14.5z M1864.2,14.5h-4v-1h4V14.5z M1858.2,14.5h-4v-1h4V14.5z M1852.2,14.5h-4v-1h4V14.5z M1846.2,14.5h-4v-1h4V14.5z M1840.2,14.5h-4v-1h4V14.5z M1834.2,14.5h-4v-1h4V14.5z M1828.2,14.5h-4v-1h4V14.5z M1822.2,14.5h-4v-1h4V14.5z M1816.2,14.5h-4v-1h4V14.5z M1810.2,14.5h-4v-1h4V14.5z M1804.2,14.5h-4v-1h4V14.5z M1798.2,14.5h-4v-1h4V14.5z M1792.2,14.5h-4v-1h4V14.5z M1786.2,14.5h-4v-1h4V14.5z M1780.2,14.5h-4v-1h4V14.5z M1774.2,14.5h-4v-1h4V14.5z M1768.2,14.5h-4v-1h4V14.5z M1762.2,14.5h-4v-1h4V14.5z M1756.2,14.5h-4v-1h4V14.5z M1750.2,14.5h-4v-1h4V14.5z M1744.2,14.5h-4v-1h4V14.5z M1738.2,14.5h-4v-1h4V14.5z M1732.2,14.5h-4v-1h4V14.5z M1726.2,14.5h-4v-1h4V14.5z M1720.2,14.5h-4v-1h4V14.5z M1714.2,14.5h-4v-1h4V14.5z M1708.2,14.5h-4v-1h4V14.5z M1702.2,14.5h-4v-1h4V14.5z M1696.2,14.5h-4v-1h4V14.5z M1690.2,14.5h-4v-1h4V14.5z M1684.2,14.5h-4v-1h4V14.5z M1678.2,14.5h-4v-1h4V14.5z M1672.2,14.5h-4v-1h4V14.5z M1666.2,14.5h-4v-1h4V14.5z M1660.2,14.5h-4v-1h4V14.5z M1654.2,14.5h-4v-1h4V14.5z M1648.2,14.5h-4v-1h4V14.5z M1642.2,14.5h-4v-1h4V14.5z M1636.2,14.5h-4v-1h4V14.5z M1630.2,14.5h-4v-1h4V14.5z M1624.2,14.5h-4v-1h4V14.5z M1618.2,14.5h-4v-1h4V14.5z M1612.2,14.5h-4v-1h4V14.5z M1606.2,14.5h-4v-1h4V14.5z M1600.2,14.5h-4v-1h4V14.5z M1594.2,14.5h-4v-1h4V14.5z M1588.2,14.5h-4v-1h4V14.5z M1582.2,14.5h-4v-1h4V14.5z M1576.2,14.5h-4v-1h4V14.5z M1570.2,14.5h-4v-1h4V14.5z M1564.2,14.5h-4v-1h4V14.5z M1558.2,14.5h-4v-1h4V14.5z M1552.2,14.5h-4v-1h4V14.5z M1546.2,14.5h-4v-1h4V14.5z M1540.2,14.5h-4v-1h4V14.5z M1534.2,14.5h-4v-1h4V14.5z M1528.2,14.5h-4v-1h4V14.5z M1522.2,14.5h-4v-1h4V14.5z M1516.2,14.5h-4v-1h4V14.5z M1510.2,14.5h-4v-1h4V14.5z M1504.2,14.5h-4v-1h4V14.5z M1498.2,14.5h-4v-1h4V14.5z M1492.2,14.5h-4v-1h4V14.5z M1486.2,14.5h-4v-1h4V14.5z M1480.2,14.5h-4v-1h4V14.5z M1474.2,14.5h-4v-1h4V14.5z M1468.2,14.5h-4v-1h4V14.5z M1462.2,14.5h-4v-1h4V14.5z M1456.2,14.5h-4v-1h4V14.5z M1450.2,14.5h-4v-1h4V14.5z M1444.2,14.5h-4v-1h4V14.5z M1438.2,14.5h-4v-1h4V14.5z M1432.2,14.5h-4v-1h4V14.5z M1426.2,14.5h-4v-1h4V14.5z M1420.2,14.5h-4v-1h4V14.5z M1414.2,14.5h-4v-1h4V14.5z M1408.2,14.5h-4v-1h4V14.5z M1402.2,14.5h-4v-1h4V14.5z M1396.2,14.5h-4v-1h4V14.5z M1390.2,14.5h-4v-1h4V14.5z M1384.2,14.5h-4v-1h4V14.5z M1378.2,14.5h-4v-1h4V14.5z M1372.2,14.5h-4v-1h4V14.5z M1366.2,14.5h-4v-1h4V14.5z M1360.2,14.5h-4v-1h4V14.5z" />
        </g>
    </g>
    <rect x="1100" y="67" class="d5qj5kLmCe" width="36" height="3" style="fill:var(--theme-groups-5);" />
    <style>
        .wjNQKHyNjR {
            opacity: 0.8;
            fill-rule: evenodd;
            clip-rule: evenodd;
            fill: url(#h-4uKNY56o);
            enable-background: new;
        }

        .rQ7zlRVHcB {
            fill: url(#iytF4rGsnl);
        }

        .exvscsphvc {
            opacity: 0.5;
            fill-rule: evenodd;
            clip-rule: evenodd;
            fill: url(#uKy3N0zO6Z);
            enable-background: new;
        }

        .uCvztVySFD {
            opacity: 0.7;
            enable-background: new;
        }

        .w6XBX_Is5e {
            opacity: 0.4;
            enable-background: new;
        }

        .i0WPpA5ExD {
            opacity: 0.2;
            enable-background: new;
        }

        .cwRZISSAga {
            opacity: 0.49;
        }

        .m9W_7T3V7n {
            opacity: 0.4;
            fill-rule: evenodd;
            clip-rule: evenodd;
            fill: url(#fAquhg_j__);
            enable-background: new;
        }

        .lt09OwrrZC {
            opacity: 0.7;
            fill-rule: evenodd;
            clip-rule: evenodd;
            fill: url(#vmJOM3qsYJ);
            enable-background: new;
        }

        .yIaH4fpANI {
            opacity: 0.5;
            fill-rule: evenodd;
            clip-rule: evenodd;
            fill: url(#ydceC9w06M);
            enable-background: new;
        }

        .hbIkYn03LG {
            opacity: 0.4;
            fill-rule: evenodd;
            clip-rule: evenodd;
            fill: url(#yE0stZoS-9);
            enable-background: new;
        }

        .wEhyD9tnSz {
            opacity: 0.7;
            fill-rule: evenodd;
            clip-rule: evenodd;
            fill: url(#s09iJgcu1b);
            enable-background: new;
        }

        .st14 {
            opacity: 0.7;
            fill-rule: evenodd;
            clip-rule: evenodd;
            fill: url(#形状_1649-2_2_);
            enable-background: new;
        }

        .st15 {
            opacity: 0.7;
            fill-rule: evenodd;
            clip-rule: evenodd;
            fill: url(#形状_1649-2_5_);
            enable-background: new;
        }

        .st16 {
            opacity: 0.7;
            fill-rule: evenodd;
            clip-rule: evenodd;
            fill: url(#形状_1649-2_6_);
            enable-background: new;
        }

        .xk_PXr1gUM {
            opacity: 0.7;
            fill-rule: evenodd;
            clip-rule: evenodd;
            enable-background: new;
        }

        .ggXkP3z7Pm {
            opacity: 0.5;
            fill-rule: evenodd;
            clip-rule: evenodd;
            enable-background: new;
        }

        .yXm0NxyZJB {
            opacity: 0.4;
            fill-rule: evenodd;
            clip-rule: evenodd;
            enable-background: new;
        }

        .mne-ugfidm {
            opacity: 0.2;
            fill-rule: evenodd;
            clip-rule: evenodd;
            enable-background: new;
        }

        .yCSf7LDCkB {
            fill-rule: evenodd;
            clip-rule: evenodd;
            fill: url(#pEV4MW6DgP);
        }

        .eYn6JOCUxH {}

        .up3NWWoUb3 {
            opacity: 0.7;
        }

        .ga18R4VW5n {
            opacity: 0.66;
            fill-rule: evenodd;
            clip-rule: evenodd;
            fill: url(#ewcEPdJnh_);
            enable-background: new;
        }

        .cPnu1xzQJZ {
            opacity: 0.66;
            fill-rule: evenodd;
            clip-rule: evenodd;
            fill: url(#yzn82ELxoj);
            enable-background: new;
        }

        .qN9GDMclpF {
            opacity: 0.7;
            fill: url(#cRa3ddkWUv);
            enable-background: new;
        }

        .tI4Ci7op-k {
            opacity: 0.5;
            fill: url(#oqH2p5vtdG);
            enable-background: new;
        }

        .swVeK7FZw7 {
            fill-rule: evenodd;
            clip-rule: evenodd;
            fill: url(#llhfX2GbjO);
        }

        .gJMqCxUgWJ {
            opacity: 0.66;
            fill-rule: evenodd;
            clip-rule: evenodd;
            fill: url(#j-hkP1NrGY);
            enable-background: new;
        }

        .nnYDA-EinR {
            opacity: 0.66;
            fill-rule: evenodd;
            clip-rule: evenodd;
            fill: url(#u7VtglhBXx);
            enable-background: new;
        }

        .pPsOL1nFkm {
            fill: url(#ywthLPLuUo);
            enable-background: new;
        }

        .mOZJrnq20o {
            opacity: 0.5;
            fill: url(#v4XDcfmb5R);
            enable-background: new;
        }
    </style>
</svg>