<svg id="j8uSttRPg7" xmlns="http://www.w3.org/2000/svg" xmlns:xlink="http://www.w3.org/1999/xlink" viewBox="0 0 3840 185.31" x="0px" y="0px" xml:space="preserve"><defs><linearGradient id="sOpEzywQTa" x1="1923.36" y1="-70" x2="1923.36" y2="108.73" gradientTransform="matrix(1, 0, 0, -1, 0, 114.31)" gradientUnits="userSpaceOnUse"><stop offset="0" style="stop-color:var(--theme-groups-0);"/><stop offset="1" style="stop-color:var(--theme-groups-0);stop-opacity:0;"/></linearGradient><linearGradient id="fx6lbNuINK" x1="1920.13" y1="184.31" x2="1920.13" y2="1" gradientUnits="userSpaceOnUse"><stop offset="0" style="stop-color:var(--theme-groups-1);"/><stop offset="1" style="stop-color:var(--theme-groups-1);stop-opacity:0;"/></linearGradient><linearGradient id="gsVHe7C0Uy" x1="689.78" y1="-43" x2="689.78" y2="106" xlink:href="#sOpEzywQTa"/><linearGradient id="ofD7Bmu7NO" x1="1381" y1="91.31" x2="2" y2="91.31" xlink:href="#fx6lbNuINK"/><linearGradient id="lWnjGpkmok" x1="1281.1" y1="-0.05" x2="1281.1" y2="52" gradientTransform="matrix(1, 0, 0, -1, 0, 114.31)" gradientUnits="userSpaceOnUse"><stop offset="0" style="stop-color:var(--theme-groups-1);"/><stop offset="1" style="stop-color:var(--theme-groups-1);stop-opacity:0.3;"/></linearGradient><linearGradient id="uLKmtXxExO" x1="3153" y1="-43" x2="3153" y2="106" xlink:href="#sOpEzywQTa"/><linearGradient id="emH3Y34EN7" x1="2466" y1="91.31" x2="3837.01" y2="91.31" xlink:href="#fx6lbNuINK"/><linearGradient id="utdEEVOg_m" x1="2565.9" y1="-0.05" x2="2565.9" xlink:href="#lWnjGpkmok"/><linearGradient id="v0h5v-0X-r" x1="1442.9" y1="166.31" x2="1442.9" y2="34.31" gradientUnits="userSpaceOnUse"><stop offset="0" style="stop-color:var(--theme-groups-0);stop-opacity:0.2;"/><stop offset="0" style="stop-color:var(--theme-groups-0);"/><stop offset="0.5" style="stop-color:var(--theme-groups-0);"/><stop offset="0.5" style="stop-color:var(--theme-groups-0);"/><stop offset="1" style="stop-color:var(--theme-groups-0);stop-opacity:0.2;"/></linearGradient><linearGradient id="zNthcjVPkn" x1="1441.52" y1="166.31" x2="1441.52" y2="34.31" gradientUnits="userSpaceOnUse"><stop offset="0" style="stop-color:var(--theme-groups-0);stop-opacity:0;"/><stop offset="0.5" style="stop-color:var(--theme-groups-0);"/><stop offset="0.5" style="stop-color:var(--theme-groups-0);"/><stop offset="1" style="stop-color:var(--theme-groups-0);stop-opacity:0;"/></linearGradient><linearGradient id="mVH5_A65CM" x1="1403" y1="94.31" x2="1403" y2="164.31" gradientTransform="translate(405.16 -865.4) rotate(39.64)" gradientUnits="userSpaceOnUse"><stop offset="0" style="stop-color:var(--theme-groups-0);stop-opacity:0.3;"/><stop offset="0.5" style="stop-color:var(--theme-groups-0);"/><stop offset="0.5" style="stop-color:var(--theme-groups-0);"/><stop offset="1" style="stop-color:var(--theme-groups-0);stop-opacity:0;"/></linearGradient><linearGradient id="dGoUCMnUEw" x1="2399.89" y1="166.75" x2="2399.89" y2="34.81" xlink:href="#v0h5v-0X-r"/><linearGradient id="s_bpx4_YF5" x1="2401.27" y1="166.75" x2="2401.27" y2="34.81" gradientUnits="userSpaceOnUse"><stop offset="0" style="stop-color:var(--theme-groups-0);stop-opacity:0;"/><stop offset="0.5" style="stop-color:var(--theme-groups-0);"/><stop offset="0.5" style="stop-color:var(--theme-groups-0);"/><stop offset="1" style="stop-color:var(--theme-groups-0);stop-opacity:0;"/></linearGradient><linearGradient id="d6YXDV2Q8r" x1="2439.85" y1="164.75" x2="2439.85" y2="94.78" gradientTransform="translate(981.51 -1830.58) rotate(50.31)" gradientUnits="userSpaceOnUse"><stop offset="0" style="stop-color:var(--theme-groups-0);stop-opacity:0;"/><stop offset="0" style="stop-color:var(--theme-groups-0);stop-opacity:0.3;"/><stop offset="0.5" style="stop-color:var(--theme-groups-0);"/><stop offset="0.5" style="stop-color:var(--theme-groups-0);"/><stop offset="1" style="stop-color:var(--theme-groups-0);stop-opacity:0;"/></linearGradient></defs><path id="hG0Hu4PYSX" d="M1255.28,5.58H2591.45L2474.22,152.39a84.87,84.87,0,0,1-66.34,31.92H2060.51l-17.44-14.58h-236.4L1793,184.31H1432.57a66,66,0,0,1-51.1-24.24Z" style="fill:url(#sOpEzywQTa);fill-rule:evenodd;opacity:0.15;isolation: isolate"/><path id="uWgRYrXAM6" d="M1810,176.12h230l6,4.19-6,4.2H1810l-6-4.2Z" style="fill:var(--theme-groups-1);fill-rule:evenodd;"/><path d="M2401.55,185.31H2059.66l-18.95-14.58H1807.13l-12.67,14.58H1443.87c-42.55,0-56.31-16.67-64.54-26.63l-.52-.63C1343.09,114.89,1274.72,33,1254.61,9l-6.14-7.35L1250,.36l6.14,7.35c20.1,24.05,88.48,105.9,124.2,149.06l.52.64c21.39,25.9,47.44,25.9,63,25.9h349.67l12.67-14.58h235.18l19,14.58h341.21c10.69,0,47.2-2,68.42-28.06C2510.3,105.76,2589.43,6,2590.23,5l1.56,1.24c-.79,1-79.93,100.82-120.26,150.31C2449.74,183.23,2412.46,185.31,2401.55,185.31Z" style="fill:url(#fx6lbNuINK);"/><g id="ygJrlw_1dC" style="opacity:0.5;"><path id="AUWZg3qQky" d="M1256.59,8.31C1299,59.72,1379.27,157,1379,157.31c-81.85,0-92.24-12.8-115.58-42-18-22.54-47.7-59.53-53.91-67.38S1188.16,27.31,1164,27.31H1l-.44-19Z" style="fill:url(#gsVHe7C0Uy);fill-rule:evenodd;opacity:0.2;isolation: isolate"/><path d="M1380,157.31c-80.1,0-93.85-13-117.31-42.28-5.74-7.17-12-14.86-18-22.29-12.06-14.81-24.52-30.12-33.7-42.39-17.26-23.08-42.71-23-57.93-23H1a1,1,0,0,1,0-2H1153c15.6,0,41.67,0,59.53,23.84,9.15,12.24,21.61,27.53,33.65,42.32,6,7.44,12.31,15.13,18,22.31,23.64,29.54,36.4,41.53,115.75,41.53a1,1,0,0,1,0,2Z" style="fill:url(#ofD7Bmu7NO);opacity:0.5;isolation: isolate"/><path id="scU3xOszxy" d="M1277,62.31h-34l4.21,4h34Zm12,16h-34l4.21,4h34Zm26,32h-34l4.21,4h34Zm-12-16h-34l4.21,4h34Z" style="fill:url(#lWnjGpkmok);fill-rule:evenodd;opacity:0.5;isolation: isolate"/></g><g id="dsX2-k7ZJ5" style="opacity:0.5;"><path id="gz9lk90RAZ" d="M2590.41,8.31C2548,59.72,2467.73,157,2468,157.31c81.85,0,92.24-12.8,115.58-42,18-22.54,47.7-59.53,53.91-67.38s21.35-20.64,45.56-20.64H3838l-.56-19Z" style="fill:url(#uLKmtXxExO);fill-rule:evenodd;opacity:0.2;isolation: isolate"/><path d="M2467,157.31a1,1,0,0,1,0-2c79.35,0,92.11-12,115.75-41.53,5.74-7.18,12-14.87,18.05-22.31,12-14.79,24.5-30.08,33.65-42.32,17.86-23.88,44-23.84,59.53-23.84H3838a1,1,0,0,1,0,2H2694c-15.2,0-40.67,0-57.93,23-9.18,12.27-21.64,27.58-33.7,42.39-6,7.43-12.3,15.12-18,22.29C2560.85,144.35,2547.1,157.31,2467,157.31Z" style="fill:url(#emH3Y34EN7);opacity:0.5;isolation: isolate"/><path id="w2N7oqMyL9" d="M2570,62.31h34l-4.21,4h-34Zm-12,16h34l-4.21,4h-34Zm-26,32h34l-4.21,4h-34Zm12-16h34l-4.21,4h-34Z" style="fill:url(#utdEEVOg_m);fill-rule:evenodd;opacity:0.5;isolation: isolate"/></g><g id="iwHBL1j5pL"><polygon points="1572.6 167.31 1451.54 167.31 1451.24 166.96 1383.54 87.31 1353.51 87.31 1313.21 34.92 1314.79 33.7 1354.49 85.31 1384.46 85.31 1384.76 85.67 1452.46 165.31 1572.6 165.31 1572.6 167.31" style="fill:url(#v0h5v-0X-r);opacity:0.2;isolation: isolate"/><polygon points="1572.6 168.31 1451.08 168.31 1383.08 88.31 1353.04 88.31 1310.44 35.57 1313.56 33.05 1354.96 84.31 1384.92 84.31 1452.92 164.31 1572.6 164.31 1572.6 168.31" style="fill:url(#zNthcjVPkn);opacity:0.2;isolation: isolate"/><rect x="1402" y="83.86" width="2" height="90.91" transform="translate(240.16 924.88) rotate(-39.64)" style="fill:var(--theme-groups-0);opacity:0.2;isolation: isolate"/><rect x="1401" y="83.86" width="4" height="90.91" transform="translate(240.16 924.88) rotate(-39.64)" style="fill:url(#mVH5_A65CM);opacity:0.2;isolation: isolate"/></g><g id="inJiEvlIMa"><polygon points="2391.24 167.75 2269.99 167.75 2269.99 165.75 2390.32 165.75 2458.43 85.79 2488.44 85.79 2528.21 34.2 2529.79 35.42 2489.42 87.79 2459.35 87.79 2391.24 167.75" style="fill:url(#dGoUCMnUEw);opacity:0.2;isolation: isolate"/><polygon points="2391.7 168.75 2269.99 168.75 2269.99 164.75 2389.86 164.75 2457.97 84.79 2487.98 84.79 2529.45 33.55 2532.55 36.07 2489.88 88.79 2459.81 88.79 2391.7 168.75" style="fill:url(#s_bpx4_YF5);opacity:0.2;isolation: isolate"/><rect x="2394.39" y="128.77" width="90.94" height="2" transform="translate(781.79 1924.36) rotate(-50.31)" style="fill:var(--theme-groups-0);opacity:0.2;isolation: isolate"/><rect x="2394.39" y="127.77" width="90.94" height="4" transform="translate(781.79 1924.36) rotate(-50.31)" style="fill:url(#d6YXDV2Q8r);opacity:0.2;isolation: isolate"/></g><style/></svg>