<svg id="y_M6Ixvhli" xmlns="http://www.w3.org/2000/svg" xmlns:xlink="http://www.w3.org/1999/xlink" viewBox="0 0 1920 80" x="0px" y="0px" xml:space="preserve"><defs><linearGradient id="ysqfs4nWKq" x1="2387.02" y1="-449.36" x2="2387.02" y2="-377.78" gradientTransform="matrix(1, 0, 0, -1, -1193, -372.11)" gradientUnits="userSpaceOnUse"><stop offset="0" style="stop-color:var(--theme-groups-1);"/><stop offset="0" style="stop-color:var(--theme-groups-1);"/><stop offset="1" style="stop-color:var(--theme-groups-1);stop-opacity:0;"/></linearGradient><linearGradient id="nzi8lbvE9i" x1="1637.31" y1="-446.6" x2="3113" y2="-446.6" gradientTransform="matrix(1, 0, 0, -1, -1193, -372.11)" gradientUnits="userSpaceOnUse"><stop offset="0" style="stop-color:var(--theme-groups-1);stop-opacity:0;"/><stop offset="0.5" style="stop-color:var(--theme-groups-1);"/><stop offset="0.5" style="stop-color:var(--theme-groups-1);"/><stop offset="1" style="stop-color:var(--theme-groups-1);stop-opacity:0;"/></linearGradient><linearGradient id="qiDbc171BP" x1="264.6" y1="-0.11" x2="264.6" y2="73.3" gradientTransform="matrix(1, 0, 0, -1, 0, 79.89)" gradientUnits="userSpaceOnUse"><stop offset="0" style="stop-color:var(--theme-groups-1);"/><stop offset="1" style="stop-color:var(--theme-groups-1);stop-opacity:0;"/></linearGradient><linearGradient id="tI0BwOK-PK" x1="1196" y1="-413.65" x2="1719.19" y2="-413.65" gradientTransform="matrix(1, 0, 0, -1, -1193, -372.11)" gradientUnits="userSpaceOnUse"><stop offset="0" style="stop-color:var(--theme-groups-1);stop-opacity:0;"/><stop offset="0.58" style="stop-color:var(--theme-groups-1);"/><stop offset="0.59" style="stop-color:var(--theme-groups-1);"/><stop offset="1" style="stop-color:var(--theme-groups-1);stop-opacity:0;"/></linearGradient><linearGradient id="oWJJp8VBNl" x1="1195" y1="-411.4" x2="1718.19" y2="-411.4" gradientTransform="matrix(1, 0, 0, -1, -1193, -372.11)" gradientUnits="userSpaceOnUse"><stop offset="0" style="stop-color:var(--theme-groups-1);stop-opacity:0;"/><stop offset="0.58" style="stop-color:var(--theme-groups-1);"/><stop offset="1" style="stop-color:var(--theme-groups-1);stop-opacity:0;"/></linearGradient><linearGradient id="oVY1rcCwvg" x1="1213.97" y1="-410.9" x2="1707.19" y2="-410.9" xlink:href="#oWJJp8VBNl"/><linearGradient id="vTXJfWzXGi" x1="1202.98" y1="-410.9" x2="1696.23" y2="-410.9" xlink:href="#oWJJp8VBNl"/><linearGradient id="vKWc588CNk" x1="1193" y1="-410.9" x2="1686.22" y2="-410.9" xlink:href="#oWJJp8VBNl"/></defs><path id="tlf08hgpRC" d="M1920,5.67V77.25H468c33.55-8.7,58.14-37,58.14-70.66" style="fill:url(#ysqfs4nWKq);fill-rule:evenodd;opacity:0.2;isolation: isolate"/><path id="nmsguriANE" d="M444.31,72.66H1920v3.67H444.31V72.66Z" style="fill:url(#nzi8lbvE9i);fill-rule:evenodd;"/><g id="xi7chM7L7J"><path id="e4iL8hsgRk" d="M3,6.59H526.19A73.41,73.41,0,0,1,452.78,80H3V6.59Z" style="fill:url(#qiDbc171BP);opacity:0.6;isolation: isolate"/><path id="e76imQH1NK" d="M526.18,4.75h0c0,40.55-35.76,71.58-79.88,71.58H3" style="fill:none;stroke:url(#tI0BwOK-PK);stroke-width:4;"/><path d="M445.3,76.58H2v-6H445.3c43.11,0,76.88-30.13,76.88-68.58h6C528.18,43.82,491.77,76.58,445.3,76.58Z" style="fill:url(#oWJJp8VBNl);opacity:0.8;isolation: isolate"/><path d="M434.32,75.58H21v-4H434.32C478,71.58,512.2,41,512.2,2h4C516.2,43.26,480.23,75.58,434.32,75.58Z" style="fill:url(#oVY1rcCwvg);opacity:0.6;isolation: isolate"/><path d="M423.34,75.58H10v-4H423.34C467,71.58,501.21,41,501.21,2h4C505.21,43.26,469.25,75.58,423.34,75.58Z" style="fill:url(#vTXJfWzXGi);opacity:0.4;isolation: isolate"/><path d="M413.35,75.58H0v-4H413.35C457,71.58,491.23,41,491.23,2h4C495.23,43.26,459.26,75.58,413.35,75.58Z" style="fill:url(#vKWc588CNk);opacity:0.2;isolation: isolate"/></g><g id="nNsv9SurFi" style="opacity:0.2;"><path id="fmgfB7fBq4" data-name=" 3" d="M328.49,25.86c6.61,0,12,4.93,12,11s-5.37,11-12,11-12-4.93-12-11S321.87,25.86,328.49,25.86Z" style="fill:var(--theme-groups-1);fill-rule:evenodd;opacity:0.3;isolation: isolate"/><path id="nO3ihTqWaz" data-name=" 2" d="M255.6,58.89c4.41,0,8,3.29,8,7.35s-3.58,7.34-8,7.34-8-3.29-8-7.34S251.19,58.89,255.6,58.89Z" style="fill:var(--theme-groups-1);fill-rule:evenodd;opacity:0.2;isolation: isolate"/><path id="jUNt4VXQXj" data-name=" 1" d="M181.72,23.11c6.61,0,12,4.93,12,11s-5.37,11-12,11-12-4.93-12-11S175.1,23.11,181.72,23.11Z" style="fill:var(--theme-groups-1);fill-rule:evenodd;opacity:0.1;isolation: isolate"/></g><g id="s5n8A2XKZb" style="opacity:0.5;"><path id="rFS_ZCmB-r" data-name=" 3-2" d="M444.31,13.93c6.61,0,12,4.93,12,11s-5.37,11-12,11-12-4.93-12-11S437.69,13.93,444.31,13.93Z" style="fill:var(--theme-groups-1);fill-rule:evenodd;opacity:0.3;isolation: isolate"/><path id="fM73VBNIZn" data-name=" 2-2" d="M371.42,47c4.41,0,8,3.28,8,7.34s-3.58,7.34-8,7.34-8-3.29-8-7.34S367,47,371.42,47Z" style="fill:var(--theme-groups-1);fill-rule:evenodd;opacity:0.2;isolation: isolate"/><path id="cy_txk5p7L" data-name=" 1-2" d="M297.54,11.18c6.61,0,12,4.93,12,11s-5.37,11-12,11-12-4.93-12-11S290.92,11.18,297.54,11.18Z" style="fill:var(--theme-groups-1);fill-rule:evenodd;opacity:0.1;isolation: isolate"/></g><style/></svg>