<svg version="1.1" id="uxZv8TQ7Ur" xmlns="http://www.w3.org/2000/svg" xmlns:xlink="http://www.w3.org/1999/xlink" x="0px" y="0px" viewBox="0 0 1920 80" xml:space="preserve"><linearGradient id="hGwYpBodGk" gradientUnits="userSpaceOnUse" x1="959.0822" y1="-4.2069" x2="957.9209" y2="81.7248"><stop offset="0" style="stop-color:var(--theme-groups-0);stop-opacity: 0"/><stop offset="1" style="stop-color:var(--theme-groups-0);"/></linearGradient><linearGradient id="bjKH52foEt" gradientUnits="userSpaceOnUse" x1="1920.2549" y1="32.4588" x2="1288.2788" y2="44.4331"><stop offset="0" style="stop-color:var(--theme-groups-0);stop-opacity: 0"/><stop offset="1" style="stop-color:var(--theme-groups-0);"/></linearGradient><linearGradient id="sDhnmq4Kv2" gradientUnits="userSpaceOnUse" x1="1911.7765" y1="37.9479" x2="1279.8005" y2="49.9222"><stop offset="0" style="stop-color:var(--theme-groups-0);stop-opacity: 0"/><stop offset="1" style="stop-color:var(--theme-groups-0);"/></linearGradient><linearGradient id="rS3lQKOree" gradientUnits="userSpaceOnUse" x1="959.0762" y1="-4.6003" x2="957.8995" y2="82.4748"><stop offset="0" style="stop-color:var(--theme-groups-0);stop-opacity: 0"/><stop offset="1" style="stop-color:var(--theme-groups-0);"/></linearGradient><path class="dmQ5vyxyDY" d="M1148.6,79.2H767.6c-50.5-3.5-84.1-22.3-108-58.7c-3-4.5-10.9-15.6-13.4-20.4l625.8,0c-4.9,7.7-13.7,19.9-18.6,27C1229.6,60.7,1187.5,78.5,1148.6,79.2z"/><path class="xEcIqXR0sp" d="M1289.1,67.3c0,0,9.4-5.1,16.8-11c7.4-5.9,15.9-15.8,19.7-20.1c8-9.1,17.5-16.5,64.1-16.5c46.5,0,530.4,0,530.4,0"/><path class="nBRUaSrGX_" d="M1280.6,72.8c0,0,9.4-5.1,16.8-11c7.4-5.9,15.9-15.8,19.7-20.1c8-9.1,17.5-16.5,64.1-16.5s530.4,0,530.4,0"/><path style="fill: none; stroke: url(#rS3lQKOree); stroke-width: 1.5; stroke-miterlimit: 10" d="M1271.9,0c-4.9,7.7-13.7,19.9-18.6,27c-23.7,33.7-65.7,51.5-104.6,52.2H767.6c-50.5-3.5-84.1-22.3-108-58.7c-3-4.5-10.9-15.6-13.4-20.4"/><g class="lGtmt3Px8n"><linearGradient id="mP7OiN7xRO" gradientUnits="userSpaceOnUse" x1="-3.365130e-11" y1="43.4992" x2="631.2998" y2="43.4992"><stop offset="0" style="stop-color:var(--theme-groups-0);stop-opacity: 0"/><stop offset="1" style="stop-color:var(--theme-groups-0);"/></linearGradient><linearGradient id="vbhKwLNVAw" gradientUnits="userSpaceOnUse" x1="8.4783" y1="48.9883" x2="639.778" y2="48.9883"><stop offset="0" style="stop-color:var(--theme-groups-0);stop-opacity: 0"/><stop offset="1" style="stop-color:var(--theme-groups-0);"/></linearGradient><path class="kIHYJx4j8q" d="M0,19.8c0,0,483.9,0,530.4,0c46.5,0,56.1,7.3,64.1,16.5c3.8,4.3,12.3,14.3,19.7,20.1c7.4,5.9,16.8,11,16.8,11"/><path class="zgGDVYo69B" d="M8.5,25.2c0,0,483.9,0,530.4,0s56.1,7.3,64.1,16.5c3.8,4.3,12.3,14.3,19.7,20.1c7.4,5.9,16.8,11,16.8,11"/></g><style>.dmQ5vyxyDY { fill: url(#hGwYpBodGk); fill-opacity: 0.5;}.xEcIqXR0sp { opacity: 0.6; fill: none; stroke: url(#bjKH52foEt); stroke-width: 1.5; stroke-miterlimit: 10;}.nBRUaSrGX_ { opacity: 0.6; fill: none; stroke: url(#sDhnmq4Kv2); stroke-width: 1.5; stroke-miterlimit: 10;}.lGtmt3Px8n { opacity: 0.6;}.kIHYJx4j8q { fill: none; stroke: url(#mP7OiN7xRO); stroke-width: 1.5; stroke-miterlimit: 10;}.zgGDVYo69B { fill: none; stroke: url(#vbhKwLNVAw); stroke-width: 1.5; stroke-miterlimit: 10;}</style></svg>