<svg version="1.1" id="ycp-l_Tj6p" xmlns="http://www.w3.org/2000/svg" xmlns:xlink="http://www.w3.org/1999/xlink" x="0px" y="0px" viewBox="0 0 1920 80" xml:space="preserve"><linearGradient id="opCBV339zj" gradientUnits="userSpaceOnUse" x1="1320.2682" y1="29.8504" x2="1234.1248" y2="83.9977" gradientTransform="matrix(-1 0 0 1 2539.3 0)"><stop offset="0" style="stop-color:var(--theme-groups-1);stop-opacity: 0"/><stop offset="0.1881" style="stop-color:var(--theme-groups-1);stop-opacity: 0"/><stop offset="1" style="stop-color:var(--theme-groups-1);"/></linearGradient><linearGradient id="tsRXpI4DWm" gradientUnits="userSpaceOnUse" x1="1355.3864" y1="14.2018" x2="1285.5527" y2="58.0973" gradientTransform="matrix(-1 0 0 1 2539.3 0)"><stop offset="0" style="stop-color:var(--theme-groups-1);stop-opacity: 0"/><stop offset="0.1881" style="stop-color:var(--theme-groups-1);stop-opacity: 0"/><stop offset="1" style="stop-color:var(--theme-groups-1);"/></linearGradient><linearGradient id="lNn_3WTBIh" gradientUnits="userSpaceOnUse" x1="702.8971" y1="29.8504" x2="616.7537" y2="83.9977"><stop offset="0" style="stop-color:var(--theme-groups-1);stop-opacity: 0"/><stop offset="0.1881" style="stop-color:var(--theme-groups-1);stop-opacity: 0"/><stop offset="1" style="stop-color:var(--theme-groups-1);"/></linearGradient><linearGradient id="qRZzk1iVLy" gradientUnits="userSpaceOnUse" x1="738.0153" y1="14.2018" x2="668.1816" y2="58.0973"><stop offset="0" style="stop-color:var(--theme-groups-1);stop-opacity: 0"/><stop offset="0.1881" style="stop-color:var(--theme-groups-1);stop-opacity: 0"/><stop offset="1" style="stop-color:var(--theme-groups-1);"/></linearGradient><linearGradient id="lT0mSzND8t" gradientUnits="userSpaceOnUse" x1="959.0023" y1="-0.417" x2="958.5969" y2="74.5783"><stop offset="0" style="stop-color:var(--theme-groups-0);stop-opacity: 0.4"/><stop offset="1" style="stop-color:var(--theme-groups-0);"/></linearGradient><linearGradient id="l3jnBGhl0v" gradientUnits="userSpaceOnUse" x1="958.9862" y1="-0.363" x2="958.9862" y2="80.0101"><stop offset="0" style="stop-color:var(--theme-groups-1);stop-opacity: 0"/><stop offset="1" style="stop-color:var(--theme-groups-1);"/></linearGradient><linearGradient id="jKXKlKsrhA" gradientUnits="userSpaceOnUse" x1="1920.3608" y1="49.0652" x2="1288.2391" y2="34.9507" gradientTransform="matrix(1 0 0 -1 0 80)"><stop offset="0" style="stop-color:var(--theme-groups-0);stop-opacity: 0"/><stop offset="1" style="stop-color:var(--theme-groups-0);"/></linearGradient><linearGradient id="vflELY3ZLA" gradientUnits="userSpaceOnUse" x1="1911.8608" y1="43.465" x2="1279.7391" y2="29.3507" gradientTransform="matrix(1 0 0 -1 0 80)"><stop offset="0" style="stop-color:var(--theme-groups-0);stop-opacity: 0"/><stop offset="1" style="stop-color:var(--theme-groups-0);"/></linearGradient><path class="pxTke8xjX3" d="M1204.2,0L1341,0c-3,4.5-6.4,9.1-8.1,11.7c-38,46-76.1,68.1-165.8,68.2c-11.7,0-37.9,0.1-37.9,0.1L1204.2,0z"/><path class="yyATgqSXtd" d="M1145.7,0l130.9,0c-2.9,4.3-6.1,8.7-7.7,11.2C1244.4,48,1210,67,1158.4,70.6L1145.7,0z"/><path class="xkQY_sNWE2" d="M792.6,80c0,0-26.2-0.1-37.9-0.1C665,79.8,627,57.8,589,11.7c-1.7-2.6-5-7.2-8.1-11.7h136.8L792.6,80z"/><path class="zwzLnUaYRI" d="M763.5,70.6c-51.6-3.6-86-22.6-110.4-59.4c-1.6-2.5-4.8-6.9-7.7-11.2h130.9L763.5,70.6z"/><path class="ilwz2iZzpF" d="M1123.9,80H792.6c-43.9-3.5-73.1-22.6-93.9-59.4C696.1,16.1,689.2,4.9,687,0h544c-4.3,7.8-11.9,20.1-16.2,27.3C1194.2,61.4,1157.7,79.3,1123.9,80z"/><path class="a6Dym0Ig3k" d="M1231,0c-4.3,7.7-11.9,19.9-16.2,27c-20.6,33.8-57.1,51.6-90.9,52.2H792.6c-43.9-3.5-73.1-22.4-93.9-58.9C696.1,16,689.2,4.9,687,0"/><path class="i72MIQzJie" d="M1289.1,68c0,0,9.4-5.2,16.8-11.1s15.9-16,19.7-20.3c8-9.2,17.5-16.6,64.1-16.6c46.5,0,530.4,0,530.4,0"/><path class="ySmj5muEXX" d="M1280.6,73.6c0,0,9.4-5.2,16.8-11.1s15.9-16,19.7-20.3c8-9.2,17.5-16.6,64.1-16.6s530.4,0,530.4,0"/><g class="o7FtwrKC3o"><linearGradient id="uQ_AkfNKac" gradientUnits="userSpaceOnUse" x1="0" y1="36.0469" x2="631.363" y2="36.0469" gradientTransform="matrix(1 0 0 -1 0 80)"><stop offset="0" style="stop-color:var(--theme-groups-0);stop-opacity: 0"/><stop offset="1" style="stop-color:var(--theme-groups-0);"/></linearGradient><linearGradient id="Au6c3TSBVC" gradientUnits="userSpaceOnUse" x1="8.5" y1="30.5469" x2="639.863" y2="30.5469" gradientTransform="matrix(1 0 0 -1 0 80)"><stop offset="0" style="stop-color:var(--theme-groups-0);stop-opacity: 0"/><stop offset="1" style="stop-color:var(--theme-groups-0);"/></linearGradient><path class="h5DYzygGAL" d="M0,20c0,0,483.9,0,530.4,0s56.1,7.4,64.1,16.6c3.8,4.3,12.3,14.4,19.7,20.3S631,68,631,68"/><path class="kuuMBjP2kP" d="M8.5,25.5c0,0,483.9,0,530.4,0S595,32.9,603,42.1c3.8,4.3,12.3,14.4,19.7,20.3s16.8,11.1,16.8,11.1"/></g><rect x="763.2" y="25.5" class="dhlBuj3Hpm" width="4.8" height="5.1"/><rect x="780.7" y="53.2" class="bx7b0-FZEU" width="3.4" height="3.5"/><rect x="817.9" y="45" class="cOvJ7hekdx" width="3.4" height="3.5"/><rect x="799.1" y="16.1" class="xOjgVxRj88" width="3.4" height="3.5"/><rect x="831.9" y="6.3" class="b3_A6vcsyk" width="3.4" height="3.5"/><rect x="850.7" y="26.3" class="AoUCHTTlJU" width="3.4" height="3.5"/><rect x="863.2" y="47.8" class="bx7b0-FZEU" width="3.4" height="3.5"/><rect x="854" y="71" class="j2aVLOcu1S" width="3.4" height="3.5"/><rect x="888" y="38.2" class="oo1bW_mS7f" width="3.4" height="3.5"/><rect x="872.4" y="17.9" class="dhlBuj3Hpm" width="3.4" height="3.5"/><rect x="889.7" y="6.3" class="qKyAVhrrKF" width="3.4" height="3.5"/><rect x="901.5" y="12.6" class="b3_A6vcsyk" width="3.4" height="3.5"/><rect x="952.1" y="28" class="mbyoe6sQ63" width="3.4" height="3.5"/><rect x="922.3" y="65.5" class="bx7b0-FZEU" width="3.4" height="3.5"/><rect x="881.9" y="58.1" class="bx7b0-FZEU" width="3.4" height="3.5"/><rect x="960.2" y="64.7" class="iOM40MCrCn" width="3.4" height="3.5"/><rect x="987.7" y="59.1" class="bx7b0-FZEU" width="3.4" height="3.5"/><rect x="987.7" y="6.3" class="exvSVMV9rJ" width="3.4" height="3.5"/><rect x="1012.3" y="28.8" class="p90Ig2dXsR" width="3.4" height="3.5"/><rect x="1048" y="36.5" class="zR23CJIrXV" width="3.4" height="3.5"/><rect x="1044.6" y="14.4" class="wkgJEZ5Cdm" width="3.4" height="3.5"/><rect x="1048" y="23.7" class="d5cqkIB7R5" width="3.4" height="3.5"/><rect x="1064.7" y="30.6" class="kdUt-H7E7q" width="3.4" height="3.5"/><rect x="1100.2" y="40" class="f4wdaUPGm0" width="3.4" height="3.5"/><rect x="1131.2" y="8" class="mIOzUO4oTk" width="3.4" height="3.5"/><rect x="1163.8" y="14.4" class="luaS_Z-vM2" width="3.4" height="3.5"/><rect x="1143" y="46" class="j2aVLOcu1S" width="3.4" height="3.5"/><rect x="1114" y="65.5" class="bx7b0-FZEU" width="3.4" height="3.5"/><rect x="1054.5" y="68.8" class="f4wdaUPGm0" width="3.4" height="3.5"/><rect x="1023.7" y="70.6" class="bx7b0-FZEU" width="3.4" height="3.5"/><style>.pxTke8xjX3 { opacity: 0.4; fill: url(#opCBV339zj); fill-opacity: 0.5;}.yyATgqSXtd { opacity: 0.4; fill: url(#tsRXpI4DWm); fill-opacity: 0.5;}.xkQY_sNWE2 { opacity: 0.4; fill: url(#lNn_3WTBIh); fill-opacity: 0.5;}.zwzLnUaYRI { opacity: 0.4; fill: url(#qRZzk1iVLy); fill-opacity: 0.5;}.ilwz2iZzpF { fill: url(#lT0mSzND8t); fill-opacity: 0.5;}.a6Dym0Ig3k { opacity: 0.8; fill: none; stroke: url(#l3jnBGhl0v); stroke-width: 1.4931; stroke-miterlimit: 10;}.i72MIQzJie { opacity: 0.6; fill: none; stroke: url(#jKXKlKsrhA); stroke-width: 1.5; stroke-miterlimit: 10; enable-background: new;}.ySmj5muEXX { opacity: 0.6; fill: none; stroke: url(#vflELY3ZLA); stroke-width: 1.5; stroke-miterlimit: 10; enable-background: new;}.o7FtwrKC3o { opacity: 0.6;}.h5DYzygGAL { fill: none; stroke: url(#uQ_AkfNKac); stroke-width: 1.5; stroke-miterlimit: 10;}.kuuMBjP2kP { fill: none; stroke: url(#Au6c3TSBVC); stroke-width: 1.5; stroke-miterlimit: 10;}.dhlBuj3Hpm { opacity: 0.6; fill: var(--theme-groups-0); enable-background: new;}.bx7b0-FZEU { fill: var(--theme-groups-0);}.cOvJ7hekdx { opacity: 0.12; fill: var(--theme-groups-0); enable-background: new;}.xOjgVxRj88 { opacity: 0.36; fill: var(--theme-groups-0); enable-background: new;}.b3_A6vcsyk { opacity: 0.78; fill: var(--theme-groups-0); enable-background: new;}.AoUCHTTlJU { opacity: 0.48; fill: var(--theme-groups-0); enable-background: new;}.j2aVLOcu1S { opacity: 0.2; fill: var(--theme-groups-0); enable-background: new;}.oo1bW_mS7f { opacity: 0.61; fill: var(--theme-groups-0); enable-background: new;}.qKyAVhrrKF { opacity: 0.44; fill: var(--theme-groups-0); enable-background: new;}.mbyoe6sQ63 { opacity: 0.18; fill: var(--theme-groups-0); enable-background: new;}.iOM40MCrCn { opacity: 0.23; fill: var(--theme-groups-0); enable-background: new;}.exvSVMV9rJ { opacity: 0.67; fill: var(--theme-groups-0); enable-background: new;}.p90Ig2dXsR { opacity: 0.63; fill: var(--theme-groups-0); enable-background: new;}.zR23CJIrXV { opacity: 0.19; fill: var(--theme-groups-0); enable-background: new;}.wkgJEZ5Cdm { opacity: 0.37; fill: var(--theme-groups-0); enable-background: new;}.d5cqkIB7R5 { opacity: 0.85; fill: var(--theme-groups-0); enable-background: new;}.kdUt-H7E7q { opacity: 0.21; fill: var(--theme-groups-0); enable-background: new;}.f4wdaUPGm0 { opacity: 0.3; fill: var(--theme-groups-0); enable-background: new;}.mIOzUO4oTk { opacity: 0.49; fill: var(--theme-groups-0); enable-background: new;}.luaS_Z-vM2 { opacity: 0.31; fill: var(--theme-groups-0); enable-background: new;}</style></svg>