<svg id="xW72U1ZLZL" xmlns="http://www.w3.org/2000/svg" xmlns:xlink="http://www.w3.org/1999/xlink" viewBox="0 0 1920 80" x="0px" y="0px" xml:space="preserve"><defs><linearGradient id="nCnWYltE5B" x1="1497.97" y1="-1280.11" x2="1223.97" y2="-1280.11" gradientTransform="matrix(1, 0, 0, -1, -1192.94, -1247.11)" gradientUnits="userSpaceOnUse"><stop offset="0" style="stop-color:var(--theme-groups-1);"/><stop offset="0" style="stop-color:var(--theme-groups-1);"/><stop offset="1" style="stop-color:var(--theme-groups-0);stop-opacity:0.5;"/></linearGradient><linearGradient id="tUo6AkFvA3" x1="1986.97" y1="-1287.11" x2="1342.97" y2="-1287.11" gradientTransform="matrix(1, 0, 0, -1, -1192.94, -1247.11)" gradientUnits="userSpaceOnUse"><stop offset="0" style="stop-color:var(--theme-groups-1);"/><stop offset="0" style="stop-color:var(--theme-groups-1);"/><stop offset="1" style="stop-color:var(--theme-groups-0);"/></linearGradient><linearGradient id="cwXEJhjzDS" x1="2807.93" y1="-1280.11" x2="3081.91" y2="-1280.11" xlink:href="#nCnWYltE5B"/><linearGradient id="zPcVFkmYML" x1="2318.97" y1="-1287.11" x2="2962.92" y2="-1287.11" xlink:href="#tUo6AkFvA3"/><linearGradient id="nm2xtTZblH" x1="1995.97" y1="-1287.11" x2="2309.97" y2="-1287.11" gradientTransform="matrix(1, 0, 0, -1, -1192.94, -1247.11)" gradientUnits="userSpaceOnUse"><stop offset="0" style="stop-color:var(--theme-groups-0);stop-opacity:0;"/><stop offset="0.5" style="stop-color:var(--theme-groups-0);"/><stop offset="0.5" style="stop-color:var(--theme-groups-0);"/><stop offset="1" style="stop-color:var(--theme-groups-0);stop-opacity:0;"/></linearGradient></defs><g id="bloMQeYxdC"><path id="ype0LDH7X4" d="M9,38H5L0,33l5-5H9L4,33Zm2.71-2H9.13L6,32.83l3.17-3.17h2.54L8.5,32.83Z" style="fill:var(--theme-groups-0);fill-rule:evenodd;opacity:0.3;isolation: isolate"/><path id="eGRZwn2Ido" d="M25,38H21l-5-5,5-5h4l-5,5Zm2.71-2H25.13L22,32.83l3.17-3.17h2.54L24.5,32.83Z" style="fill:var(--theme-groups-0);fill-rule:evenodd;opacity:0.5;isolation: isolate"/><path id="n1EeGmhuIj" d="M678,46h20v2H678V46Zm24,0h20v2H702V46Zm24,0h20v2H726V46Zm24,0h20v2H750V46Zm24,0h20v2H774V46Z" style="fill:var(--theme-groups-1);fill-rule:evenodd;"/><path id="mjcFML9zPn" d="M307,32h2v2h-2V32Zm4,0h2v2h-2V32Zm4,0h2v2h-2V32Zm4,0h2v2h-2V32Zm4,0h2v2h-2V32Z" style="fill:var(--theme-groups-1);fill-rule:evenodd;"/><path id="fjhejiFYrg" d="M728,38l-4,4H583l-6,6H489l-6-6-4-4H368l-4,4H312l-4-4H188l-4,4H154l-4-4V36H701l4-4h89v6Z" style="fill:url(#tUo6AkFvA3);fill-rule:evenodd;"/><path id="np3llLz8pm" d="M582,46h20v2H582V46Zm24,0h20v2H606V46Zm24,0h20v2H630V46Zm24,0h20v2H654V46Z" style="fill:var(--theme-groups-0);fill-rule:evenodd;opacity:0.5;isolation: isolate"/><path id="w6FLSTru1X" d="M794,22h4V58h-4V22Z" style="fill:var(--theme-groups-1);fill-rule:evenodd;"/><rect x="31.03" y="32" width="274" height="2" style="fill:url(#nCnWYltE5B);"/><polygon points="331.39 32.77 325.67 28 297.03 28 297.03 26 326.39 26 332.67 31.23 331.39 32.77" style="fill:var(--theme-groups-1);"/></g><g id="stG5ZQJBep"><path id="lIXcnSGg8w" d="M1911,38h4l5-5-5-5h-4l5,5Zm-2.71-2h2.53l3.18-3.17-3.18-3.17h-2.53l3.17,3.17Z" style="fill:var(--theme-groups-0);fill-rule:evenodd;opacity:0.3;isolation: isolate"/><path id="nkSjf-N35m" d="M1895,38h4l5-5-5-5h-4l5,5Zm-2.71-2h2.54l3.17-3.17-3.17-3.17h-2.54l3.17,3.17Z" style="fill:var(--theme-groups-0);fill-rule:evenodd;opacity:0.5;isolation: isolate"/><path id="vCnYHQ5Iwj" d="M1242,46h-20v2h20V46Zm-24,0h-20v2h20V46Zm-24,0h-20v2h20V46Zm-24,0h-20v2h20V46Zm-24,0h-20v2h20V46Z" style="fill:var(--theme-groups-1);fill-rule:evenodd;"/><path id="n7vr0nqPii" d="M1613,32h-2v2h2V32Zm-4,0h-2v2h2V32Zm-4,0h-2v2h2V32Zm-4,0h-2v2h2V32Zm-4,0h-2v2h2V32Z" style="fill:var(--theme-groups-1);fill-rule:evenodd;"/><path id="qiFsgb7zrI" d="M1192,38l4,4h141l6,6h88l6-6,4-4h111l4,4h52l4-4h120l4,4h30l4-4V36H1219l-4-4h-89v6Z" style="fill:url(#zPcVFkmYML);fill-rule:evenodd;"/><path id="oEtZBFXEob" d="M1338,46h-20v2h20V46Zm-24,0h-20v2h20V46Zm-24,0h-20v2h20V46Zm-24,0h-20v2h20V46Z" style="fill:var(--theme-groups-0);fill-rule:evenodd;opacity:0.5;isolation: isolate"/><path id="yn0FbNBoY3" d="M1126,22h-4V58h4V22Z" style="fill:var(--theme-groups-1);fill-rule:evenodd;"/><rect x="1614.99" y="32" width="273.98" height="2" style="fill:url(#cwXEJhjzDS);"/><polygon points="1588.63 32.77 1587.35 31.23 1593.63 26 1622.99 26 1622.99 28 1594.35 28 1588.63 32.77" style="fill:var(--theme-groups-1);"/></g><path id="hgXqYK0v1k" d="M803,22h314V58H803V22Z" style="fill:url(#nm2xtTZblH);fill-rule:evenodd;opacity:0.2;isolation: isolate"/><style/></svg>