<svg version="1.1" id="eoH4okq8bF" xmlns="http://www.w3.org/2000/svg" xmlns:xlink="http://www.w3.org/1999/xlink" x="0px" y="0px" viewBox="0 0 1920 77.5" style="enable-background: new 0 0 1920 77.5" xml:space="preserve"><g id="b5DJNSjOi0"><linearGradient id="f9GVYGtcmj" gradientUnits="userSpaceOnUse" x1="883.0002" y1="-261.0383" x2="1158" y2="-261.0383" gradientTransform="matrix(1 0 0 -1 -217 -226)"><stop offset="0.295" style="stop-color:var(--theme-groups-0);"/><stop offset="0.3" style="stop-color:var(--theme-groups-0);stop-opacity: 0"/><stop offset="1" style="stop-color:var(--theme-groups-0);"/></linearGradient><linearGradient id="zcDd2Uj97M" gradientUnits="userSpaceOnUse" x1="1197" y1="-261.0088" x2="1471.2196" y2="-261.0088" gradientTransform="matrix(1 0 0 -1 -217 -226)"><stop offset="0" style="stop-color:var(--theme-groups-0);"/><stop offset="0.7" style="stop-color:var(--theme-groups-0);stop-opacity: 0"/><stop offset="0.705" style="stop-color:var(--theme-groups-0);"/></linearGradient><path class="y2ps76r2eR" d="M941,71H764c-25.6,0-40.9-0.7-57.3-14.5C682.9,36.4,665,2.4,664.2,0.9l3.5-1.8c0.2,0.3,18.3,34.8,41.5,54.4C724.6,66.4,739.3,67,764,67h177V71z"/><path class="nOtHvNygOl" d="M1156.2,71H980v-4h176.2c24.7,0,39.4-0.6,54.7-13.5c23.2-19.6,41.3-54.1,41.5-54.4l3.5,1.8c-0.7,1.4-18.6,35.5-42.5,55.7C1197.2,70.3,1181.9,71,1156.2,71z"/><g class="hEZKKWfE2_"><linearGradient id="eIGVjgnaDT" gradientUnits="userSpaceOnUse" x1="1177" y1="-295" x2="1177" y2="-226" gradientTransform="matrix(1 0 0 -1 -217 -226)"><stop offset="0" style="stop-color:var(--theme-groups-0);"/><stop offset="1" style="stop-color:var(--theme-groups-0);stop-opacity: 0.2"/></linearGradient><linearGradient id="n5UGoJ9qjJ" gradientUnits="userSpaceOnUse" x1="1176.9976" y1="-295" x2="1176.9976" y2="-226" gradientTransform="matrix(1 0 0 -1 -217 -226)"><stop offset="0" style="stop-color:var(--theme-groups-0);"/><stop offset="1" style="stop-color:var(--theme-groups-0);stop-opacity: 0"/></linearGradient><path id="b9ELdT2Ul7" class="p8zKqQLKZo" d="M1254,0c0,0-17.9,34.6-43.1,54.7c-13.6,10.8-33.1,14.3-54.3,14.3H764c-25.8,0-40.4-0.9-56-14c-23.8-20.1-42-55-42-55H1254z"/><path class="yPBND7nZir" d="M1156.5,70H764c-25.4,0-40.5-0.7-56.6-14.2c-23.7-20-42.1-55-42.2-55.3L664.4-1h591.3l-0.8,1.5c-0.2,0.3-18.3,35.1-43.4,55C1199.2,65.3,1181.2,70,1156.5,70z M667.7,1c3.7,6.8,20.3,35.8,41,53.2C724.2,67.4,739.1,68,764,68h392.5c24.2,0,41.8-4.6,53.7-14.1c21.9-17.4,38.4-46.1,42.1-52.9H667.7z"/></g><g id="hyn_PluE47"><path class="xdIhA4C1oA" d="M1156.5,72v-4c42.7,0,61.7-18.3,75.8-38.2l0.6-0.8h206v4h-204C1220.3,53.4,1200.5,72,1156.5,72z"/><path class="q7PZgY1RFT" d="M1159.5,76.5v-1c1.7,0,3.4,0,5-0.1l0,1C1162.9,76.5,1161.2,76.5,1159.5,76.5z M1169.6,76.2l-0.1-1c1.7-0.1,3.3-0.3,5-0.5l0.1,1C1172.9,75.9,1171.2,76,1169.6,76.2z M1179.5,75l-0.2-1c1.6-0.3,3.3-0.6,4.9-0.9l0.2,1C1182.8,74.4,1181.2,74.7,1179.5,75z M1189.3,72.9l-0.3-1c1.6-0.4,3.2-0.9,4.8-1.4l0.3,0.9C1192.6,72,1191,72.5,1189.3,72.9z M1198.9,69.8l-0.4-0.9c1.5-0.6,3.1-1.3,4.5-2l0.4,0.9C1202,68.4,1200.4,69.1,1198.9,69.8z M1207.9,65.4l-0.5-0.9c1.4-0.8,2.9-1.7,4.2-2.6l0.6,0.8C1210.8,63.7,1209.4,64.6,1207.9,65.4z M1216.3,59.9l-0.6-0.8c1.3-1,2.6-2,3.9-3.1l0.7,0.8C1218.9,57.8,1217.6,58.9,1216.3,59.9z M1223.9,53.3l-0.7-0.7c1.2-1.1,2.3-2.3,3.5-3.6l0.7,0.7C1226.3,50.9,1225.1,52.1,1223.9,53.3z M1230.8,45.9l-0.8-0.6c1-1.2,2.1-2.5,3.1-3.9l0.8,0.6C1232.9,43.4,1231.8,44.7,1230.8,45.9z M1236.9,38l-0.8-0.6l0.6-0.9h4.4v1h-3.9L1236.9,38z M1920,37.5h-3.9v-1h3.9V37.5z M1911.1,37.5h-5v-1h5V37.5z M1901.1,37.5h-5v-1h5V37.5z M1891.1,37.5h-5v-1h5V37.5z M1881.1,37.5h-5v-1h5V37.5z M1871.1,37.5h-5v-1h5V37.5z M1861.1,37.5h-5v-1h5V37.5z M1851.1,37.5h-5v-1h5V37.5z M1841.1,37.5h-5v-1h5V37.5z M1831.1,37.5h-5v-1h5V37.5z M1821.1,37.5h-5v-1h5V37.5z M1811.1,37.5h-5v-1h5V37.5z M1801.1,37.5h-5v-1h5V37.5z M1791.1,37.5h-5v-1h5V37.5z M1781.1,37.5h-5v-1h5V37.5z M1771.1,37.5h-5v-1h5V37.5z M1761.1,37.5h-5v-1h5V37.5z M1751.1,37.5h-5v-1h5V37.5z M1741.1,37.5h-5v-1h5V37.5z M1731.1,37.5h-5v-1h5V37.5z M1721.1,37.5h-5v-1h5V37.5z M1711.1,37.5h-5v-1h5V37.5z M1701.1,37.5h-5v-1h5V37.5z M1691.1,37.5h-5v-1h5V37.5z M1681.1,37.5h-5v-1h5V37.5z M1671.1,37.5h-5v-1h5V37.5z M1661.1,37.5h-5v-1h5V37.5z M1651.1,37.5h-5v-1h5V37.5z M1641.1,37.5h-5v-1h5V37.5z M1631.1,37.5h-5v-1h5V37.5z M1621.1,37.5h-5v-1h5V37.5z M1611.1,37.5h-5v-1h5V37.5z M1601.1,37.5h-5v-1h5V37.5z M1591.1,37.5h-5v-1h5V37.5z M1581.1,37.5h-5v-1h5V37.5z M1571.1,37.5h-5v-1h5V37.5z M1561.1,37.5h-5v-1h5V37.5z M1551.1,37.5h-5v-1h5V37.5z M1541.1,37.5h-5v-1h5V37.5z M1531.1,37.5h-5v-1h5V37.5z M1521.1,37.5h-5v-1h5V37.5z M1511.1,37.5h-5v-1h5V37.5z M1501.1,37.5h-5v-1h5V37.5z M1491.1,37.5h-5v-1h5V37.5z M1481.1,37.5h-5v-1h5V37.5z M1471.1,37.5h-5v-1h5V37.5z M1461.1,37.5h-5v-1h5V37.5z M1451.1,37.5h-5v-1h5V37.5z M1441.1,37.5h-5v-1h5V37.5z M1431.1,37.5h-5v-1h5V37.5z M1421.1,37.5h-5v-1h5V37.5z M1411.1,37.5h-5v-1h5V37.5z M1401.1,37.5h-5v-1h5V37.5z M1391.1,37.5h-5v-1h5V37.5z M1381.1,37.5h-5v-1h5V37.5z M1371.1,37.5h-5v-1h5V37.5z M1361.1,37.5h-5v-1h5V37.5z M1351.1,37.5h-5v-1h5V37.5z M1341.1,37.5h-5v-1h5V37.5z M1331.1,37.5h-5v-1h5V37.5z M1321.1,37.5h-5v-1h5V37.5z M1311.1,37.5h-5v-1h5V37.5z M1301.1,37.5h-5v-1h5V37.5z M1291.1,37.5h-5v-1h5V37.5z M1281.1,37.5h-5v-1h5V37.5z M1271.1,37.5h-5v-1h5V37.5z M1261.1,37.5h-5v-1h5V37.5z M1251.1,37.5h-5v-1h5V37.5z"/><path class="vjRDPcX5mB" d="M1254.9-0.5c-0.2,0.3-18.3,35.1-43.4,55c-12.3,9.8-30.3,14.5-55,15.5H764c-25.4-1-40.5-1.7-56.6-15.2c-23.7-20-42.1-55-42.2-55.3 M667.7,0c3.7,6.8,20.3,35.8,41,53.2C724.2,66.4,739.1,67,764,67h392.5c24.2,0,41.8-4.6,53.7-14.1c21.9-17.4,38.4-46.1,42.1-52.9H667.7z"/><path id="vFrNgoQnA1" class="sI6zpkPzDj" d="M1410,53v-2"/><path id="kLQhGCe4vE" class="tjUk6pCjlm" d="M1920,50v-8h-171l7,7L1920,50z"/><path id="hPfz1m9fnC" class="tWdvX6hkTI" d="M1233,32h687V0h-667L1233,32z"/><path class="znJXGfNMEK" d="M1692,32c-0.6,0-1-0.4-1-1v-7h-423.6l3.3,3.3c0.4,0.4,0.4,1,0,1.4s-1,0.4-1.4,0l-6.7-6.7H1693v9C1693,31.6,1692.6,32,1692,32z"/><linearGradient id="zBKcbHd0Rm" gradientUnits="userSpaceOnUse" x1="1177.0007" y1="-295.0065" x2="1177.0007" y2="-226.453" gradientTransform="matrix(1 0 0 -1 -217 -226)"><stop offset="0" style="stop-color:var(--theme-groups-0);"/><stop offset="1" style="stop-color:var(--theme-groups-0);stop-opacity: 0"/></linearGradient><linearGradient id="kQzb9dy4i4" gradientUnits="userSpaceOnUse" x1="1966" y1="-272" x2="2137" y2="-272" gradientTransform="matrix(1 0 0 -1 -217 -226)"><stop offset="0" style="stop-color:var(--theme-groups-1);"/><stop offset="1" style="stop-color:var(--theme-groups-1);stop-opacity: 0"/></linearGradient><linearGradient id="edmb_EvAAL" gradientUnits="userSpaceOnUse" x1="1450" y1="-242" x2="2137" y2="-242" gradientTransform="matrix(1 0 0 -1 -217 -226)"><stop offset="0" style="stop-color:var(--theme-groups-0);"/><stop offset="1" style="stop-color:var(--theme-groups-0);stop-opacity: 0"/></linearGradient><rect id="t5kZytThwb" x="1154" y="68" class="eA_ooUkxLW" width="4" height="4"/><g id="fRn8H9Cren" class="gsbMKjzbcg"><path class="znJXGfNMEK" d="M1736,61c-0.2,0-0.5-0.1-0.7-0.3l-8.7-7.7H1590c-0.6,0-1-0.4-1-1s0.4-1,1-1h137.4l9.3,8.3c0.4,0.4,0.5,1,0.1,1.4C1736.5,60.9,1736.3,61,1736,61z"/><path class="t2G5391FjI" d="M1735.4,47H1407c-0.6,0-1-0.4-1-1s0.4-1,1-1h327.6l7.7-6.8c0.4-0.4,1-0.3,1.4,0.1c0.4,0.4,0.3,1-0.1,1.4L1735.4,47z"/><rect id="wL5WSBhSRR" x="1499" y="51" class="zTMXZI_FD9" width="87" height="2"/><rect id="iPh_ZjKmE3" x="1429" y="51" class="zTMXZI_FD9" width="67" height="2"/></g></g><g id="qZoSsBg2l2"><path class="xdIhA4C1oA" d="M763.5,72c-44,0-63.8-18.6-78.5-39H481v-4h206l0.6,0.8C701.8,49.7,720.7,68,763.5,68V72z"/><path class="zBkqNDNfi0" d="M760.5,76.5c-1.7,0-3.4,0-5-0.1l0-1c1.6,0.1,3.3,0.1,5,0.1V76.5z M750.4,76.2c-1.7-0.1-3.4-0.3-5-0.5l0.1-1c1.6,0.2,3.3,0.3,5,0.5L750.4,76.2z M740.5,75c-1.7-0.3-3.3-0.6-4.9-0.9l0.2-1c1.6,0.3,3.2,0.6,4.9,0.9L740.5,75z M730.7,72.9c-1.6-0.4-3.2-0.9-4.8-1.4l0.3-0.9c1.6,0.5,3.2,1,4.8,1.4L730.7,72.9z M721.1,69.8c-1.6-0.6-3.1-1.3-4.6-2l0.4-0.9c1.5,0.7,3,1.4,4.5,2L721.1,69.8z M712.1,65.4c-1.4-0.8-2.9-1.7-4.3-2.6l0.6-0.8c1.4,0.9,2.8,1.8,4.2,2.6L712.1,65.4z M703.7,59.9c-1.3-1-2.6-2.1-3.9-3.2l0.7-0.8c1.3,1.1,2.6,2.1,3.9,3.1L703.7,59.9z M696.1,53.3c-1.2-1.1-2.4-2.3-3.5-3.6l0.7-0.7c1.1,1.2,2.3,2.4,3.5,3.6L696.1,53.3z M689.2,45.9c-1-1.2-2.1-2.5-3.1-3.9l0.8-0.6c1,1.3,2.1,2.7,3.1,3.9L689.2,45.9z M683.1,38l-0.4-0.5h-3.9v-1h4.4l0.6,0.9L683.1,38z M673.9,37.5h-5v-1h5V37.5z M663.9,37.5h-5v-1h5V37.5z M653.9,37.5h-5v-1h5V37.5z M643.9,37.5h-5v-1h5V37.5z M633.9,37.5h-5v-1h5V37.5z M623.9,37.5h-5v-1h5V37.5z M613.9,37.5h-5v-1h5V37.5z M603.9,37.5h-5v-1h5V37.5z M593.9,37.5h-5v-1h5V37.5z M583.9,37.5h-5v-1h5V37.5z M573.9,37.5h-5v-1h5V37.5z M563.9,37.5h-5v-1h5V37.5z M553.9,37.5h-5v-1h5V37.5z M543.9,37.5h-5v-1h5V37.5z M533.9,37.5h-5v-1h5V37.5z M523.9,37.5h-5v-1h5V37.5z M513.9,37.5h-5v-1h5V37.5z M503.9,37.5h-5v-1h5V37.5z M493.9,37.5h-5v-1h5V37.5z M483.9,37.5h-5v-1h5V37.5z M473.9,37.5h-5v-1h5V37.5z M463.9,37.5h-5v-1h5V37.5z M453.9,37.5h-5v-1h5V37.5z M443.9,37.5h-5v-1h5V37.5z M433.9,37.5h-5v-1h5V37.5z M423.9,37.5h-5v-1h5V37.5z M413.9,37.5h-5v-1h5V37.5z M403.9,37.5h-5v-1h5V37.5z M393.9,37.5h-5v-1h5V37.5z M383.9,37.5h-5v-1h5V37.5z M373.9,37.5h-5v-1h5V37.5z M363.9,37.5h-5v-1h5V37.5z M353.9,37.5h-5v-1h5V37.5z M343.9,37.5h-5v-1h5V37.5z M333.9,37.5h-5v-1h5V37.5z M323.9,37.5h-5v-1h5V37.5z M313.9,37.5h-5v-1h5V37.5z M303.9,37.5h-5v-1h5V37.5z M293.9,37.5h-5v-1h5V37.5z M283.9,37.5h-5v-1h5V37.5z M273.9,37.5h-5v-1h5V37.5z M263.9,37.5h-5v-1h5V37.5z M253.9,37.5h-5v-1h5V37.5z M243.9,37.5h-5v-1h5V37.5z M233.9,37.5h-5v-1h5V37.5z M223.9,37.5h-5v-1h5V37.5z M213.9,37.5h-5v-1h5V37.5z M203.9,37.5h-5v-1h5V37.5z M193.9,37.5h-5v-1h5V37.5z M183.9,37.5h-5v-1h5V37.5z M173.9,37.5h-5v-1h5V37.5z M163.9,37.5h-5v-1h5V37.5z M153.9,37.5h-5v-1h5V37.5z M143.9,37.5h-5v-1h5V37.5z M133.9,37.5h-5v-1h5V37.5z M123.9,37.5h-5v-1h5V37.5z M113.9,37.5h-5v-1h5V37.5z M103.9,37.5h-5v-1h5V37.5z M93.9,37.5h-5v-1h5V37.5z M83.9,37.5h-5v-1h5V37.5z M73.9,37.5h-5v-1h5V37.5z M63.9,37.5h-5v-1h5V37.5z M53.9,37.5h-5v-1h5V37.5z M43.9,37.5h-5v-1h5V37.5z M33.9,37.5h-5v-1h5V37.5z M23.9,37.5h-5v-1h5V37.5z M13.9,37.5h-5v-1h5V37.5z M3.9,37.5H0v-1h3.9V37.5z"/><path id="uhtW90gumi" class="sI6zpkPzDj" d="M510,51L510,51z"/><path id="h8MTm4r0Rt" class="moayWiLdqj" d="M-1,50v-8h172l-7,7L-1,50z"/><path id="wMYt1rnmM8" class="wM4PEH_FsZ" d="M688,32H0V0h667L688,32z"/><path class="znJXGfNMEK" d="M228,32c-0.6,0-1-0.4-1-1v-9h430.4l-6.7,6.7c-0.4,0.4-1,0.4-1.4,0s-0.4-1,0-1.4l3.3-3.3H229v7C229,31.6,228.6,32,228,32z"/><rect id="b6Bb-_mr1N" x="762" y="68" class="eA_ooUkxLW" width="4" height="4"/><g id="qZiWWlspkO" class="gsbMKjzbcg"><path class="znJXGfNMEK" d="M184,61c-0.3,0-0.6-0.1-0.7-0.3c-0.4-0.4-0.3-1,0.1-1.4l9.3-8.3H330c0.6,0,1,0.4,1,1s-0.4,1-1,1H193.4l-8.7,7.7C184.5,60.9,184.2,61,184,61z"/><path class="t2G5391FjI" d="M513,47H184.6l-8.3-7.2c-0.4-0.4-0.5-1-0.1-1.4c0.4-0.4,1-0.5,1.4-0.1l7.7,6.8H513c0.6,0,1,0.4,1,1S513.6,47,513,47z"/><rect id="duTpeyk5TI" x="334" y="51" class="zTMXZI_FD9" width="87" height="2"/><rect id="eU5vk7QeTq" x="424" y="51" class="zTMXZI_FD9" width="67" height="2"/></g><linearGradient id="a-U7CQfVGO" gradientUnits="userSpaceOnUse" x1="216" y1="-272" x2="388" y2="-272" gradientTransform="matrix(1 0 0 -1 -217 -226)"><stop offset="0" style="stop-color:var(--theme-groups-1);stop-opacity: 0"/><stop offset="1" style="stop-color:var(--theme-groups-1);"/></linearGradient><linearGradient id="eHbLcLe-4u" gradientUnits="userSpaceOnUse" x1="217" y1="-242" x2="905" y2="-242" gradientTransform="matrix(1 0 0 -1 -217 -226)"><stop offset="0" style="stop-color:var(--theme-groups-0);stop-opacity: 0"/><stop offset="1" style="stop-color:var(--theme-groups-0);"/></linearGradient></g></g><g id="xSNCnLXXpP"><linearGradient id="dTydwpWlv5" gradientUnits="userSpaceOnUse" x1="851.5" y1="-290" x2="851.5" y2="-266" gradientTransform="matrix(1 0 0 -1 -217 -226)"><stop offset="0" style="stop-color:var(--theme-groups-3);stop-opacity: 0.102"/><stop offset="1" style="stop-color:var(--theme-groups-3);"/></linearGradient><linearGradient id="uSzHMdwhiE" gradientUnits="userSpaceOnUse" x1="853.5" y1="-286" x2="853.5" y2="-262" gradientTransform="matrix(1 0 0 -1 -217 -226)"><stop offset="0" style="stop-color:var(--theme-groups-3);stop-opacity: 0.102"/><stop offset="1" style="stop-color:var(--theme-groups-3);"/></linearGradient><linearGradient id="cZ8406V9Hm" gradientUnits="userSpaceOnUse" x1="853.5349" y1="-286" x2="853.5349" y2="-262" gradientTransform="matrix(1 0 0 -1 -217 -226)"><stop offset="0" style="stop-color:var(--theme-groups-0);stop-opacity: 0"/><stop offset="1" style="stop-color:var(--theme-groups-0);"/></linearGradient><path id="eQ97ObWtug" class="f7H_vzI0gE" d="M703,64h-15l-12-13l-86,1l10,12h-13l-21-24h114L703,64z"/><path id="tHkbuLtZO4" class="tN2FFA8CZL" d="M705,60h-15l-12-13h-87l11,13h-13l-21-24h114L705,60z"/><path class="h-vM6zxH7h" d="M706.2,60.5h-15.4l-12-12h-85.7l10,12h-14.3l-21.9-25h115.3L706.2,60.5z M691.2,59.5h12.6l-22-23H569.1l20.1,23h11.7l-10-12h88.3L691.2,59.5z"/><path id="j2dbYo9Hgn" class="eIuN9DIxUT" d="M673,40l3,3h-16l-3-3H673z"/></g><g id="otjKRou6hO"><linearGradient id="p8Xf_Ohj6U" gradientUnits="userSpaceOnUse" x1="1503.5" y1="-290" x2="1503.5" y2="-266" gradientTransform="matrix(1 0 0 -1 -217 -226)"><stop offset="0" style="stop-color:var(--theme-groups-3);stop-opacity: 0.102"/><stop offset="1" style="stop-color:var(--theme-groups-3);"/></linearGradient><linearGradient id="gC8sdYy7r-" gradientUnits="userSpaceOnUse" x1="1501.5" y1="-286" x2="1501.5" y2="-262" gradientTransform="matrix(1 0 0 -1 -217 -226)"><stop offset="0" style="stop-color:var(--theme-groups-3);stop-opacity: 0.102"/><stop offset="1" style="stop-color:var(--theme-groups-3);"/></linearGradient><linearGradient id="zoFeC0CMQQ" gradientUnits="userSpaceOnUse" x1="1501.4648" y1="-286" x2="1501.4648" y2="-262" gradientTransform="matrix(1 0 0 -1 -217 -226)"><stop offset="0" style="stop-color:var(--theme-groups-0);stop-opacity: 0"/><stop offset="1" style="stop-color:var(--theme-groups-0);"/></linearGradient><path id="A4z3-JnHNS" class="x7pLZ2ehlU" d="M1218,64h15l12-13l86,1l-10,12h13l21-24h-114L1218,64z"/><path id="txJ8I6fynr" class="pEJP-pa-Ac" d="M1216,60h15l12-13h87l-11,13h13l21-24h-114L1216,60z"/><path class="A826uD0D6-" d="M1332.2,60.5h-14.3l10-12h-85.7l-12,12h-15.4l24-25h115.3L1332.2,60.5z M1320.1,59.5h11.7l20.1-23h-112.7l-22,23h12.6l12-12h88.3L1320.1,59.5z"/><path id="i5xl1NIcq6" class="eIuN9DIxUT" d="M1248,40l-3,3h16l3-3H1248z"/></g><g id="iSLxsnQ0Ev"><g id="wZNiFAhese" class="ktItO1aix8"><path class="ggTpsq2eE9" d="M678,12.6l-5.5-3.4V2.7l5.5-3.3l5.5,3.3v6.6L678,12.6z M673.5,8.7l4.5,2.7l4.5-2.7V3.3L678,0.6l-4.5,2.7V8.7z"/><path class="ggTpsq2eE9" d="M687,12.6l-5.5-3.4V2.7l5.5-3.3l5.5,3.3v6.6L687,12.6z M682.5,8.7l4.5,2.7l4.5-2.7V3.3L687,0.6l-4.5,2.7V8.7z"/><path class="ggTpsq2eE9" d="M696,12.6l-5.5-3.4V2.7l5.5-3.3l5.5,3.3v6.6L696,12.6z M691.5,8.7l4.5,2.7l4.5-2.7V3.3L696,0.6l-4.5,2.7V8.7z"/><path class="ggTpsq2eE9" d="M705,12.6l-5.5-3.4V2.7l5.5-3.3l5.5,3.3v6.6L705,12.6z M700.5,8.7l4.5,2.7l4.5-2.7V3.3L705,0.6l-4.5,2.7V8.7z"/><path class="ggTpsq2eE9" d="M714,12.6l-5.5-3.4V2.7l5.5-3.3l5.5,3.3v6.6L714,12.6z M709.5,8.7l4.5,2.7l4.5-2.7V3.3L714,0.6l-4.5,2.7V8.7z"/><path class="ggTpsq2eE9" d="M723,12.6l-5.5-3.4V2.7l5.5-3.3l5.5,3.3v6.6L723,12.6z M718.5,8.7l4.5,2.7l4.5-2.7V3.3L723,0.6l-4.5,2.7V8.7z"/><path class="ggTpsq2eE9" d="M732,12.6l-5.5-3.4V2.7l5.5-3.3l5.5,3.3v6.6L732,12.6z M727.5,8.7l4.5,2.7l4.5-2.7V3.3L732,0.6l-4.5,2.7V8.7z"/><path class="ggTpsq2eE9" d="M741,12.6l-5.5-3.4V2.7l5.5-3.3l5.5,3.3v6.6L741,12.6z M736.5,8.7l4.5,2.7l4.5-2.7V3.3L741,0.6l-4.5,2.7V8.7z"/><path class="ggTpsq2eE9" d="M750,12.6l-5.5-3.4V2.7l5.5-3.3l5.5,3.3v6.6L750,12.6z M745.5,8.7l4.5,2.7l4.5-2.7V3.3L750,0.6l-4.5,2.7V8.7z"/><path class="ggTpsq2eE9" d="M759,12.6l-5.5-3.4V2.7l5.5-3.3l5.5,3.3v6.6L759,12.6z M754.5,8.7l4.5,2.7l4.5-2.7V3.3L759,0.6l-4.5,2.7V8.7z"/><path class="ggTpsq2eE9" d="M768,12.6l-5.5-3.4V2.7l5.5-3.3l5.5,3.3v6.6L768,12.6z M763.5,8.7l4.5,2.7l4.5-2.7V3.3L768,0.6l-4.5,2.7V8.7z"/><path class="ggTpsq2eE9" d="M777,12.6l-5.5-3.4V2.7l5.5-3.3l5.5,3.3v6.6L777,12.6z M772.5,8.7l4.5,2.7l4.5-2.7V3.3L777,0.6l-4.5,2.7V8.7z"/><path class="ggTpsq2eE9" d="M786,12.6l-5.5-3.4V2.7l5.5-3.3l5.5,3.3v6.6L786,12.6z M781.5,8.7l4.5,2.7l4.5-2.7V3.3L786,0.6l-4.5,2.7V8.7z"/><path class="ggTpsq2eE9" d="M795,12.6l-5.5-3.4V2.7l5.5-3.3l5.5,3.3v6.6L795,12.6z M790.5,8.7l4.5,2.7l4.5-2.7V3.3L795,0.6l-4.5,2.7V8.7z"/><path class="ggTpsq2eE9" d="M804,12.6l-5.5-3.4V2.7l5.5-3.3l5.5,3.3v6.6L804,12.6z M799.5,8.7l4.5,2.7l4.5-2.7V3.3L804,0.6l-4.5,2.7V8.7z"/><path class="ggTpsq2eE9" d="M813,12.6l-5.5-3.4V2.7l5.5-3.3l5.5,3.3v6.6L813,12.6z M808.5,8.7l4.5,2.7l4.5-2.7V3.3L813,0.6l-4.5,2.7V8.7z"/><path class="ggTpsq2eE9" d="M822,12.6l-5.5-3.4V2.7l5.5-3.3l5.5,3.3v6.6L822,12.6z M817.5,8.7l4.5,2.7l4.5-2.7V3.3L822,0.6l-4.5,2.7V8.7z"/><path class="ggTpsq2eE9" d="M831,12.6l-5.5-3.4V2.7l5.5-3.3l5.5,3.3v6.6L831,12.6z M826.5,8.7l4.5,2.7l4.5-2.7V3.3L831,0.6l-4.5,2.7V8.7z"/><path class="cIyywkS6w3" d="M840,12.6l-5.5-3.4V2.7l5.5-3.3l5.5,3.3v6.6L840,12.6z M835.5,8.7l4.5,2.7l4.5-2.7V3.3L840,0.6l-4.5,2.7V8.7z"/><path class="poIjgDdQ-R" d="M849,12.6l-5.5-3.4V2.7l5.5-3.3l5.5,3.3v6.6L849,12.6z M844.5,8.7l4.5,2.7l4.5-2.7V3.3L849,0.6l-4.5,2.7V8.7z"/><path class="eAII3lEhOe" d="M858,12.6l-5.5-3.4V2.7l5.5-3.3l5.5,3.3v6.6L858,12.6z M853.5,8.7l4.5,2.7l4.5-2.7V3.3L858,0.6l-4.5,2.7V8.7z"/><path class="qdmEGCQ67U" d="M867,12.6l-5.5-3.4V2.7l5.5-3.3l5.5,3.3v6.6L867,12.6z M862.5,8.7l4.5,2.7l4.5-2.7V3.3L867,0.6l-4.5,2.7V8.7z"/></g><g id="i-XiDrai2z" class="eFaM1CISN6"><path class="ggTpsq2eE9" d="M683,20.6l-5.5-3.4v-6.6l5.5-3.3l5.5,3.3v6.6L683,20.6z M678.5,16.7l4.5,2.7l4.5-2.7v-5.4L683,8.6l-4.5,2.7V16.7z"/><path class="ggTpsq2eE9" d="M692,20.6l-5.5-3.4v-6.6l5.5-3.3l5.5,3.3v6.6L692,20.6z M687.5,16.7l4.5,2.7l4.5-2.7v-5.4L692,8.6l-4.5,2.7V16.7z"/><path class="ggTpsq2eE9" d="M701,20.6l-5.5-3.4v-6.6l5.5-3.3l5.5,3.3v6.6L701,20.6z M696.5,16.7l4.5,2.7l4.5-2.7v-5.4L701,8.6l-4.5,2.7V16.7z"/><path class="ggTpsq2eE9" d="M710,20.6l-5.5-3.4v-6.6l5.5-3.3l5.5,3.3v6.6L710,20.6z M705.5,16.7l4.5,2.7l4.5-2.7v-5.4L710,8.6l-4.5,2.7V16.7z"/><path class="ggTpsq2eE9" d="M719,20.6l-5.5-3.4v-6.6l5.5-3.3l5.5,3.3v6.6L719,20.6z M714.5,16.7l4.5,2.7l4.5-2.7v-5.4L719,8.6l-4.5,2.7V16.7z"/><path class="ggTpsq2eE9" d="M728,20.6l-5.5-3.4v-6.6l5.5-3.3l5.5,3.3v6.6L728,20.6z M723.5,16.7l4.5,2.7l4.5-2.7v-5.4L728,8.6l-4.5,2.7V16.7z"/><path class="ggTpsq2eE9" d="M737,20.6l-5.5-3.4v-6.6l5.5-3.3l5.5,3.3v6.6L737,20.6z M732.5,16.7l4.5,2.7l4.5-2.7v-5.4L737,8.6l-4.5,2.7V16.7z"/><path class="ggTpsq2eE9" d="M746,20.6l-5.5-3.4v-6.6l5.5-3.3l5.5,3.3v6.6L746,20.6z M741.5,16.7l4.5,2.7l4.5-2.7v-5.4L746,8.6l-4.5,2.7V16.7z"/><path class="ggTpsq2eE9" d="M755,20.6l-5.5-3.4v-6.6l5.5-3.3l5.5,3.3v6.6L755,20.6z M750.5,16.7l4.5,2.7l4.5-2.7v-5.4L755,8.6l-4.5,2.7V16.7z"/><path class="ggTpsq2eE9" d="M764,20.6l-5.5-3.4v-6.6l5.5-3.3l5.5,3.3v6.6L764,20.6z M759.5,16.7l4.5,2.7l4.5-2.7v-5.4L764,8.6l-4.5,2.7V16.7z"/><path class="ggTpsq2eE9" d="M773,20.6l-5.5-3.4v-6.6l5.5-3.3l5.5,3.3v6.6L773,20.6z M768.5,16.7l4.5,2.7l4.5-2.7v-5.4L773,8.6l-4.5,2.7V16.7z"/><path class="ggTpsq2eE9" d="M782,20.6l-5.5-3.4v-6.6l5.5-3.3l5.5,3.3v6.6L782,20.6z M777.5,16.7l4.5,2.7l4.5-2.7v-5.4L782,8.6l-4.5,2.7V16.7z"/><path class="ggTpsq2eE9" d="M791,20.6l-5.5-3.4v-6.6l5.5-3.3l5.5,3.3v6.6L791,20.6z M786.5,16.7l4.5,2.7l4.5-2.7v-5.4L791,8.6l-4.5,2.7V16.7z"/><path class="ggTpsq2eE9" d="M800,20.6l-5.5-3.4v-6.6l5.5-3.3l5.5,3.3v6.6L800,20.6z M795.5,16.7l4.5,2.7l4.5-2.7v-5.4L800,8.6l-4.5,2.7V16.7z"/><path class="ggTpsq2eE9" d="M809,20.6l-5.5-3.4v-6.6l5.5-3.3l5.5,3.3v6.6L809,20.6z M804.5,16.7l4.5,2.7l4.5-2.7v-5.4L809,8.6l-4.5,2.7V16.7z"/><path class="ggTpsq2eE9" d="M818,20.6l-5.5-3.4v-6.6l5.5-3.3l5.5,3.3v6.6L818,20.6z M813.5,16.7l4.5,2.7l4.5-2.7v-5.4L818,8.6l-4.5,2.7V16.7z"/><path class="ggTpsq2eE9" d="M827,20.6l-5.5-3.4v-6.6l5.5-3.3l5.5,3.3v6.6L827,20.6z M822.5,16.7l4.5,2.7l4.5-2.7v-5.4L827,8.6l-4.5,2.7V16.7z"/><path class="gosnQ9F70K" d="M836,20.6l-5.5-3.4v-6.6l5.5-3.3l5.5,3.3v6.6L836,20.6z M831.5,16.7l4.5,2.7l4.5-2.7v-5.4L836,8.6l-4.5,2.7V16.7z"/><path class="cIyywkS6w3" d="M845,20.6l-5.5-3.4v-6.6l5.5-3.3l5.5,3.3v6.6L845,20.6z M840.5,16.7l4.5,2.7l4.5-2.7v-5.4L845,8.6l-4.5,2.7V16.7z"/><path class="poIjgDdQ-R" d="M854,20.6l-5.5-3.4v-6.6l5.5-3.3l5.5,3.3v6.6L854,20.6z M849.5,16.7l4.5,2.7l4.5-2.7v-5.4L854,8.6l-4.5,2.7V16.7z"/><path class="eAII3lEhOe" d="M863,20.6l-5.5-3.4v-6.6l5.5-3.3l5.5,3.3v6.6L863,20.6z M858.5,16.7l4.5,2.7l4.5-2.7v-5.4L863,8.6l-4.5,2.7V16.7z"/><path class="qdmEGCQ67U" d="M872,20.6l-5.5-3.4v-6.6l5.5-3.3l5.5,3.3v6.6L872,20.6z M867.5,16.7l4.5,2.7l4.5-2.7v-5.4L872,8.6l-4.5,2.7V16.7z"/></g><g id="v4i5i2VSxh" class="o5v8Um3U_h"><path class="ggTpsq2eE9" d="M688,28.6l-5.5-3.4v-6.6l5.5-3.3l5.5,3.3v6.6L688,28.6z M683.5,24.7l4.5,2.7l4.5-2.7v-5.4l-4.5-2.7l-4.5,2.7V24.7z"/><path class="ggTpsq2eE9" d="M697,28.6l-5.5-3.4v-6.6l5.5-3.3l5.5,3.3v6.6L697,28.6z M692.5,24.7l4.5,2.7l4.5-2.7v-5.4l-4.5-2.7l-4.5,2.7V24.7z"/><path class="ggTpsq2eE9" d="M706,28.6l-5.5-3.4v-6.6l5.5-3.3l5.5,3.3v6.6L706,28.6z M701.5,24.7l4.5,2.7l4.5-2.7v-5.4l-4.5-2.7l-4.5,2.7V24.7z"/><path class="ggTpsq2eE9" d="M715,28.6l-5.5-3.4v-6.6l5.5-3.3l5.5,3.3v6.6L715,28.6z M710.5,24.7l4.5,2.7l4.5-2.7v-5.4l-4.5-2.7l-4.5,2.7V24.7z"/><path class="ggTpsq2eE9" d="M724,28.6l-5.5-3.4v-6.6l5.5-3.3l5.5,3.3v6.6L724,28.6z M719.5,24.7l4.5,2.7l4.5-2.7v-5.4l-4.5-2.7l-4.5,2.7V24.7z"/><path class="ggTpsq2eE9" d="M733,28.6l-5.5-3.4v-6.6l5.5-3.3l5.5,3.3v6.6L733,28.6z M728.5,24.7l4.5,2.7l4.5-2.7v-5.4l-4.5-2.7l-4.5,2.7V24.7z"/><path class="ggTpsq2eE9" d="M742,28.6l-5.5-3.4v-6.6l5.5-3.3l5.5,3.3v6.6L742,28.6z M737.5,24.7l4.5,2.7l4.5-2.7v-5.4l-4.5-2.7l-4.5,2.7V24.7z"/><path class="ggTpsq2eE9" d="M751,28.6l-5.5-3.4v-6.6l5.5-3.3l5.5,3.3v6.6L751,28.6z M746.5,24.7l4.5,2.7l4.5-2.7v-5.4l-4.5-2.7l-4.5,2.7V24.7z"/><path class="ggTpsq2eE9" d="M760,28.6l-5.5-3.4v-6.6l5.5-3.3l5.5,3.3v6.6L760,28.6z M755.5,24.7l4.5,2.7l4.5-2.7v-5.4l-4.5-2.7l-4.5,2.7V24.7z"/><path class="ggTpsq2eE9" d="M769,28.6l-5.5-3.4v-6.6l5.5-3.3l5.5,3.3v6.6L769,28.6z M764.5,24.7l4.5,2.7l4.5-2.7v-5.4l-4.5-2.7l-4.5,2.7V24.7z"/><path class="ggTpsq2eE9" d="M778,28.6l-5.5-3.4v-6.6l5.5-3.3l5.5,3.3v6.6L778,28.6z M773.5,24.7l4.5,2.7l4.5-2.7v-5.4l-4.5-2.7l-4.5,2.7V24.7z"/><path class="ggTpsq2eE9" d="M787,28.6l-5.5-3.4v-6.6l5.5-3.3l5.5,3.3v6.6L787,28.6z M782.5,24.7l4.5,2.7l4.5-2.7v-5.4l-4.5-2.7l-4.5,2.7V24.7z"/><path class="ggTpsq2eE9" d="M796,28.6l-5.5-3.4v-6.6l5.5-3.3l5.5,3.3v6.6L796,28.6z M791.5,24.7l4.5,2.7l4.5-2.7v-5.4l-4.5-2.7l-4.5,2.7V24.7z"/><path class="ggTpsq2eE9" d="M805,28.6l-5.5-3.4v-6.6l5.5-3.3l5.5,3.3v6.6L805,28.6z M800.5,24.7l4.5,2.7l4.5-2.7v-5.4l-4.5-2.7l-4.5,2.7V24.7z"/><path class="ggTpsq2eE9" d="M814,28.6l-5.5-3.4v-6.6l5.5-3.3l5.5,3.3v6.6L814,28.6z M809.5,24.7l4.5,2.7l4.5-2.7v-5.4l-4.5-2.7l-4.5,2.7V24.7z"/><path class="ggTpsq2eE9" d="M823,28.6l-5.5-3.4v-6.6l5.5-3.3l5.5,3.3v6.6L823,28.6z M818.5,24.7l4.5,2.7l4.5-2.7v-5.4l-4.5-2.7l-4.5,2.7V24.7z"/><path class="ggTpsq2eE9" d="M832,28.6l-5.5-3.4v-6.6l5.5-3.3l5.5,3.3v6.6L832,28.6z M827.5,24.7l4.5,2.7l4.5-2.7v-5.4l-4.5-2.7l-4.5,2.7V24.7z"/><path class="kR8XX0AD8p" d="M841,28.6l-5.5-3.4v-6.6l5.5-3.3l5.5,3.3v6.6L841,28.6z M836.5,24.7l4.5,2.7l4.5-2.7v-5.4l-4.5-2.7l-4.5,2.7V24.7z"/><path class="cIyywkS6w3" d="M850,28.6l-5.5-3.4v-6.6l5.5-3.3l5.5,3.3v6.6L850,28.6z M845.5,24.7l4.5,2.7l4.5-2.7v-5.4l-4.5-2.7l-4.5,2.7V24.7z"/><path class="poIjgDdQ-R" d="M859,28.6l-5.5-3.4v-6.6l5.5-3.3l5.5,3.3v6.6L859,28.6z M854.5,24.7l4.5,2.7l4.5-2.7v-5.4l-4.5-2.7l-4.5,2.7V24.7z"/><path class="eAII3lEhOe" d="M868,28.6l-5.5-3.4v-6.6l5.5-3.3l5.5,3.3v6.6L868,28.6z M863.5,24.7l4.5,2.7l4.5-2.7v-5.4l-4.5-2.7l-4.5,2.7V24.7z"/><path class="qdmEGCQ67U" d="M877,28.6l-5.5-3.4v-6.6l5.5-3.3l5.5,3.3v6.6L877,28.6z M872.5,24.7l4.5,2.7l4.5-2.7v-5.4l-4.5-2.7l-4.5,2.7V24.7z"/></g><g id="ySTxFvyMhf" class="aZVwqaMrTe"><path class="ggTpsq2eE9" d="M693,36.6l-5.5-3.4v-6.6l5.5-3.3l5.5,3.3v6.6L693,36.6z M688.5,32.7l4.5,2.7l4.5-2.7v-5.4l-4.5-2.7l-4.5,2.7V32.7z"/><path class="ggTpsq2eE9" d="M702,36.6l-5.5-3.4v-6.6l5.5-3.3l5.5,3.3v6.6L702,36.6z M697.5,32.7l4.5,2.7l4.5-2.7v-5.4l-4.5-2.7l-4.5,2.7V32.7z"/><path class="ggTpsq2eE9" d="M711,36.6l-5.5-3.4v-6.6l5.5-3.3l5.5,3.3v6.6L711,36.6z M706.5,32.7l4.5,2.7l4.5-2.7v-5.4l-4.5-2.7l-4.5,2.7V32.7z"/><path class="ggTpsq2eE9" d="M720,36.6l-5.5-3.4v-6.6l5.5-3.3l5.5,3.3v6.6L720,36.6z M715.5,32.7l4.5,2.7l4.5-2.7v-5.4l-4.5-2.7l-4.5,2.7V32.7z"/><path class="ggTpsq2eE9" d="M729,36.6l-5.5-3.4v-6.6l5.5-3.3l5.5,3.3v6.6L729,36.6z M724.5,32.7l4.5,2.7l4.5-2.7v-5.4l-4.5-2.7l-4.5,2.7V32.7z"/><path class="ggTpsq2eE9" d="M738,36.6l-5.5-3.4v-6.6l5.5-3.3l5.5,3.3v6.6L738,36.6z M733.5,32.7l4.5,2.7l4.5-2.7v-5.4l-4.5-2.7l-4.5,2.7V32.7z"/><path class="ggTpsq2eE9" d="M747,36.6l-5.5-3.4v-6.6l5.5-3.3l5.5,3.3v6.6L747,36.6z M742.5,32.7l4.5,2.7l4.5-2.7v-5.4l-4.5-2.7l-4.5,2.7V32.7z"/><path class="ggTpsq2eE9" d="M756,36.6l-5.5-3.4v-6.6l5.5-3.3l5.5,3.3v6.6L756,36.6z M751.5,32.7l4.5,2.7l4.5-2.7v-5.4l-4.5-2.7l-4.5,2.7V32.7z"/><path class="ggTpsq2eE9" d="M765,36.6l-5.5-3.4v-6.6l5.5-3.3l5.5,3.3v6.6L765,36.6z M760.5,32.7l4.5,2.7l4.5-2.7v-5.4l-4.5-2.7l-4.5,2.7V32.7z"/><path class="ggTpsq2eE9" d="M774,36.6l-5.5-3.4v-6.6l5.5-3.3l5.5,3.3v6.6L774,36.6z M769.5,32.7l4.5,2.7l4.5-2.7v-5.4l-4.5-2.7l-4.5,2.7V32.7z"/><path class="ggTpsq2eE9" d="M783,36.6l-5.5-3.4v-6.6l5.5-3.3l5.5,3.3v6.6L783,36.6z M778.5,32.7l4.5,2.7l4.5-2.7v-5.4l-4.5-2.7l-4.5,2.7V32.7z"/><path class="ggTpsq2eE9" d="M792,36.6l-5.5-3.4v-6.6l5.5-3.3l5.5,3.3v6.6L792,36.6z M787.5,32.7l4.5,2.7l4.5-2.7v-5.4l-4.5-2.7l-4.5,2.7V32.7z"/><path class="ggTpsq2eE9" d="M801,36.6l-5.5-3.4v-6.6l5.5-3.3l5.5,3.3v6.6L801,36.6z M796.5,32.7l4.5,2.7l4.5-2.7v-5.4l-4.5-2.7l-4.5,2.7V32.7z"/><path class="ggTpsq2eE9" d="M810,36.6l-5.5-3.4v-6.6l5.5-3.3l5.5,3.3v6.6L810,36.6z M805.5,32.7l4.5,2.7l4.5-2.7v-5.4l-4.5-2.7l-4.5,2.7V32.7z"/><path class="ggTpsq2eE9" d="M819,36.6l-5.5-3.4v-6.6l5.5-3.3l5.5,3.3v6.6L819,36.6z M814.5,32.7l4.5,2.7l4.5-2.7v-5.4l-4.5-2.7l-4.5,2.7V32.7z"/><path class="ggTpsq2eE9" d="M828,36.6l-5.5-3.4v-6.6l5.5-3.3l5.5,3.3v6.6L828,36.6z M823.5,32.7l4.5,2.7l4.5-2.7v-5.4l-4.5-2.7l-4.5,2.7V32.7z"/><path class="ggTpsq2eE9" d="M837,36.6l-5.5-3.4v-6.6l5.5-3.3l5.5,3.3v6.6L837,36.6z M832.5,32.7l4.5,2.7l4.5-2.7v-5.4l-4.5-2.7l-4.5,2.7V32.7z"/><path class="gosnQ9F70K" d="M846,36.6l-5.5-3.4v-6.6l5.5-3.3l5.5,3.3v6.6L846,36.6z M841.5,32.7l4.5,2.7l4.5-2.7v-5.4l-4.5-2.7l-4.5,2.7V32.7z"/><path class="cIyywkS6w3" d="M855,36.6l-5.5-3.4v-6.6l5.5-3.3l5.5,3.3v6.6L855,36.6z M850.5,32.7l4.5,2.7l4.5-2.7v-5.4l-4.5-2.7l-4.5,2.7V32.7z"/><path class="poIjgDdQ-R" d="M864,36.6l-5.5-3.4v-6.6l5.5-3.3l5.5,3.3v6.6L864,36.6z M859.5,32.7l4.5,2.7l4.5-2.7v-5.4l-4.5-2.7l-4.5,2.7V32.7z"/><path class="eAII3lEhOe" d="M873,36.6l-5.5-3.4v-6.6l5.5-3.3l5.5,3.3v6.6L873,36.6z M868.5,32.7l4.5,2.7l4.5-2.7v-5.4l-4.5-2.7l-4.5,2.7V32.7z"/><path class="qdmEGCQ67U" d="M882,36.6l-5.5-3.4v-6.6l5.5-3.3l5.5,3.3v6.6L882,36.6z M877.5,32.7l4.5,2.7l4.5-2.7v-5.4l-4.5-2.7l-4.5,2.7V32.7z"/></g><g id="tqyCQ7BXoU" class="s4JeSovOqa"><path class="ggTpsq2eE9" d="M697,44.6l-5.5-3.4v-6.6l5.5-3.3l5.5,3.3v6.6L697,44.6z M692.5,40.7l4.5,2.7l4.5-2.7v-5.4l-4.5-2.7l-4.5,2.7V40.7z"/><path class="ggTpsq2eE9" d="M706,44.6l-5.5-3.4v-6.6l5.5-3.3l5.5,3.3v6.6L706,44.6z M701.5,40.7l4.5,2.7l4.5-2.7v-5.4l-4.5-2.7l-4.5,2.7V40.7z"/><path class="ggTpsq2eE9" d="M715,44.6l-5.5-3.4v-6.6l5.5-3.3l5.5,3.3v6.6L715,44.6z M710.5,40.7l4.5,2.7l4.5-2.7v-5.4l-4.5-2.7l-4.5,2.7V40.7z"/><path class="ggTpsq2eE9" d="M724,44.6l-5.5-3.4v-6.6l5.5-3.3l5.5,3.3v6.6L724,44.6z M719.5,40.7l4.5,2.7l4.5-2.7v-5.4l-4.5-2.7l-4.5,2.7V40.7z"/><path class="ggTpsq2eE9" d="M733,44.6l-5.5-3.4v-6.6l5.5-3.3l5.5,3.3v6.6L733,44.6z M728.5,40.7l4.5,2.7l4.5-2.7v-5.4l-4.5-2.7l-4.5,2.7V40.7z"/><path class="ggTpsq2eE9" d="M742,44.6l-5.5-3.4v-6.6l5.5-3.3l5.5,3.3v6.6L742,44.6z M737.5,40.7l4.5,2.7l4.5-2.7v-5.4l-4.5-2.7l-4.5,2.7V40.7z"/><path class="ggTpsq2eE9" d="M751,44.6l-5.5-3.4v-6.6l5.5-3.3l5.5,3.3v6.6L751,44.6z M746.5,40.7l4.5,2.7l4.5-2.7v-5.4l-4.5-2.7l-4.5,2.7V40.7z"/><path class="ggTpsq2eE9" d="M760,44.6l-5.5-3.4v-6.6l5.5-3.3l5.5,3.3v6.6L760,44.6z M755.5,40.7l4.5,2.7l4.5-2.7v-5.4l-4.5-2.7l-4.5,2.7V40.7z"/><path class="ggTpsq2eE9" d="M769,44.6l-5.5-3.4v-6.6l5.5-3.3l5.5,3.3v6.6L769,44.6z M764.5,40.7l4.5,2.7l4.5-2.7v-5.4l-4.5-2.7l-4.5,2.7V40.7z"/><path class="ggTpsq2eE9" d="M778,44.6l-5.5-3.4v-6.6l5.5-3.3l5.5,3.3v6.6L778,44.6z M773.5,40.7l4.5,2.7l4.5-2.7v-5.4l-4.5-2.7l-4.5,2.7V40.7z"/><path class="ggTpsq2eE9" d="M787,44.6l-5.5-3.4v-6.6l5.5-3.3l5.5,3.3v6.6L787,44.6z M782.5,40.7l4.5,2.7l4.5-2.7v-5.4l-4.5-2.7l-4.5,2.7V40.7z"/><path class="ggTpsq2eE9" d="M796,44.6l-5.5-3.4v-6.6l5.5-3.3l5.5,3.3v6.6L796,44.6z M791.5,40.7l4.5,2.7l4.5-2.7v-5.4l-4.5-2.7l-4.5,2.7V40.7z"/><path class="ggTpsq2eE9" d="M805,44.6l-5.5-3.4v-6.6l5.5-3.3l5.5,3.3v6.6L805,44.6z M800.5,40.7l4.5,2.7l4.5-2.7v-5.4l-4.5-2.7l-4.5,2.7V40.7z"/><path class="ggTpsq2eE9" d="M814,44.6l-5.5-3.4v-6.6l5.5-3.3l5.5,3.3v6.6L814,44.6z M809.5,40.7l4.5,2.7l4.5-2.7v-5.4l-4.5-2.7l-4.5,2.7V40.7z"/><path class="ggTpsq2eE9" d="M823,44.6l-5.5-3.4v-6.6l5.5-3.3l5.5,3.3v6.6L823,44.6z M818.5,40.7l4.5,2.7l4.5-2.7v-5.4l-4.5-2.7l-4.5,2.7V40.7z"/><path class="ggTpsq2eE9" d="M832,44.6l-5.5-3.4v-6.6l5.5-3.3l5.5,3.3v6.6L832,44.6z M827.5,40.7l4.5,2.7l4.5-2.7v-5.4l-4.5-2.7l-4.5,2.7V40.7z"/><path class="ggTpsq2eE9" d="M841,44.6l-5.5-3.4v-6.6l5.5-3.3l5.5,3.3v6.6L841,44.6z M836.5,40.7l4.5,2.7l4.5-2.7v-5.4l-4.5-2.7l-4.5,2.7V40.7z"/><path class="gosnQ9F70K" d="M850,44.6l-5.5-3.4v-6.6l5.5-3.3l5.5,3.3v6.6L850,44.6z M845.5,40.7l4.5,2.7l4.5-2.7v-5.4l-4.5-2.7l-4.5,2.7V40.7z"/><path class="cIyywkS6w3" d="M859,44.6l-5.5-3.4v-6.6l5.5-3.3l5.5,3.3v6.6L859,44.6z M854.5,40.7l4.5,2.7l4.5-2.7v-5.4l-4.5-2.7l-4.5,2.7V40.7z"/><path class="poIjgDdQ-R" d="M868,44.6l-5.5-3.4v-6.6l5.5-3.3l5.5,3.3v6.6L868,44.6z M863.5,40.7l4.5,2.7l4.5-2.7v-5.4l-4.5-2.7l-4.5,2.7V40.7z"/><path class="eAII3lEhOe" d="M877,44.6l-5.5-3.4v-6.6l5.5-3.3l5.5,3.3v6.6L877,44.6z M872.5,40.7l4.5,2.7l4.5-2.7v-5.4l-4.5-2.7l-4.5,2.7V40.7z"/><path class="qdmEGCQ67U" d="M886,44.6l-5.5-3.4v-6.6l5.5-3.3l5.5,3.3v6.6L886,44.6z M881.5,40.7l4.5,2.7l4.5-2.7v-5.4l-4.5-2.7l-4.5,2.7V40.7z"/></g><g id="wRKXCvDSSu" class="o0Eqmyp0xp"><path class="ggTpsq2eE9" d="M711,52.6l-5.5-3.4v-6.6l5.5-3.3l5.5,3.3v6.6L711,52.6z M706.5,48.7l4.5,2.7l4.5-2.7v-5.4l-4.5-2.7l-4.5,2.7V48.7z"/><path class="ggTpsq2eE9" d="M720,52.6l-5.5-3.4v-6.6l5.5-3.3l5.5,3.3v6.6L720,52.6z M715.5,48.7l4.5,2.7l4.5-2.7v-5.4l-4.5-2.7l-4.5,2.7V48.7z"/><path class="ggTpsq2eE9" d="M729,52.6l-5.5-3.4v-6.6l5.5-3.3l5.5,3.3v6.6L729,52.6z M724.5,48.7l4.5,2.7l4.5-2.7v-5.4l-4.5-2.7l-4.5,2.7V48.7z"/><path class="ggTpsq2eE9" d="M738,52.6l-5.5-3.4v-6.6l5.5-3.3l5.5,3.3v6.6L738,52.6z M733.5,48.7l4.5,2.7l4.5-2.7v-5.4l-4.5-2.7l-4.5,2.7V48.7z"/><path class="ggTpsq2eE9" d="M747,52.6l-5.5-3.4v-6.6l5.5-3.3l5.5,3.3v6.6L747,52.6z M742.5,48.7l4.5,2.7l4.5-2.7v-5.4l-4.5-2.7l-4.5,2.7V48.7z"/><path class="ggTpsq2eE9" d="M756,52.6l-5.5-3.4v-6.6l5.5-3.3l5.5,3.3v6.6L756,52.6z M751.5,48.7l4.5,2.7l4.5-2.7v-5.4l-4.5-2.7l-4.5,2.7V48.7z"/><path class="ggTpsq2eE9" d="M765,52.6l-5.5-3.4v-6.6l5.5-3.3l5.5,3.3v6.6L765,52.6z M760.5,48.7l4.5,2.7l4.5-2.7v-5.4l-4.5-2.7l-4.5,2.7V48.7z"/><path class="ggTpsq2eE9" d="M774,52.6l-5.5-3.4v-6.6l5.5-3.3l5.5,3.3v6.6L774,52.6z M769.5,48.7l4.5,2.7l4.5-2.7v-5.4l-4.5-2.7l-4.5,2.7V48.7z"/><path class="ggTpsq2eE9" d="M783,52.6l-5.5-3.4v-6.6l5.5-3.3l5.5,3.3v6.6L783,52.6z M778.5,48.7l4.5,2.7l4.5-2.7v-5.4l-4.5-2.7l-4.5,2.7V48.7z"/><path class="ggTpsq2eE9" d="M792,52.6l-5.5-3.4v-6.6l5.5-3.3l5.5,3.3v6.6L792,52.6z M787.5,48.7l4.5,2.7l4.5-2.7v-5.4l-4.5-2.7l-4.5,2.7V48.7z"/><path class="ggTpsq2eE9" d="M801,52.6l-5.5-3.4v-6.6l5.5-3.3l5.5,3.3v6.6L801,52.6z M796.5,48.7l4.5,2.7l4.5-2.7v-5.4l-4.5-2.7l-4.5,2.7V48.7z"/><path class="ggTpsq2eE9" d="M810,52.6l-5.5-3.4v-6.6l5.5-3.3l5.5,3.3v6.6L810,52.6z M805.5,48.7l4.5,2.7l4.5-2.7v-5.4l-4.5-2.7l-4.5,2.7V48.7z"/><path class="ggTpsq2eE9" d="M819,52.6l-5.5-3.4v-6.6l5.5-3.3l5.5,3.3v6.6L819,52.6z M814.5,48.7l4.5,2.7l4.5-2.7v-5.4l-4.5-2.7l-4.5,2.7V48.7z"/><path class="ggTpsq2eE9" d="M828,52.6l-5.5-3.4v-6.6l5.5-3.3l5.5,3.3v6.6L828,52.6z M823.5,48.7l4.5,2.7l4.5-2.7v-5.4l-4.5-2.7l-4.5,2.7V48.7z"/><path class="ggTpsq2eE9" d="M837,52.6l-5.5-3.4v-6.6l5.5-3.3l5.5,3.3v6.6L837,52.6z M832.5,48.7l4.5,2.7l4.5-2.7v-5.4l-4.5-2.7l-4.5,2.7V48.7z"/><path class="ggTpsq2eE9" d="M846,52.6l-5.5-3.4v-6.6l5.5-3.3l5.5,3.3v6.6L846,52.6z M841.5,48.7l4.5,2.7l4.5-2.7v-5.4l-4.5-2.7l-4.5,2.7V48.7z"/><path class="ggTpsq2eE9" d="M855,52.6l-5.5-3.4v-6.6l5.5-3.3l5.5,3.3v6.6L855,52.6z M850.5,48.7l4.5,2.7l4.5-2.7v-5.4l-4.5-2.7l-4.5,2.7V48.7z"/><path class="gosnQ9F70K" d="M864,52.6l-5.5-3.4v-6.6l5.5-3.3l5.5,3.3v6.6L864,52.6z M859.5,48.7l4.5,2.7l4.5-2.7v-5.4l-4.5-2.7l-4.5,2.7V48.7z"/><path class="cIyywkS6w3" d="M873,52.6l-5.5-3.4v-6.6l5.5-3.3l5.5,3.3v6.6L873,52.6z M868.5,48.7l4.5,2.7l4.5-2.7v-5.4l-4.5-2.7l-4.5,2.7V48.7z"/><path class="poIjgDdQ-R" d="M882,52.6l-5.5-3.4v-6.6l5.5-3.3l5.5,3.3v6.6L882,52.6z M877.5,48.7l4.5,2.7l4.5-2.7v-5.4l-4.5-2.7l-4.5,2.7V48.7z"/><path class="eAII3lEhOe" d="M891,52.6l-5.5-3.4v-6.6l5.5-3.3l5.5,3.3v6.6L891,52.6z M886.5,48.7l4.5,2.7l4.5-2.7v-5.4l-4.5-2.7l-4.5,2.7V48.7z"/><path class="qdmEGCQ67U" d="M900,52.6l-5.5-3.4v-6.6l5.5-3.3l5.5,3.3v6.6L900,52.6z M895.5,48.7l4.5,2.7l4.5-2.7v-5.4l-4.5-2.7l-4.5,2.7V48.7z"/></g><g id="bCdmLM9DUA" class="sr2cJehLc4"><path class="ggTpsq2eE9" d="M724,60.6l-5.5-3.4v-6.6l5.5-3.3l5.5,3.3v6.6L724,60.6z M719.5,56.7l4.5,2.7l4.5-2.7v-5.4l-4.5-2.7l-4.5,2.7V56.7z"/><path class="ggTpsq2eE9" d="M733,60.6l-5.5-3.4v-6.6l5.5-3.3l5.5,3.3v6.6L733,60.6z M728.5,56.7l4.5,2.7l4.5-2.7v-5.4l-4.5-2.7l-4.5,2.7V56.7z"/><path class="ggTpsq2eE9" d="M742,60.6l-5.5-3.4v-6.6l5.5-3.3l5.5,3.3v6.6L742,60.6z M737.5,56.7l4.5,2.7l4.5-2.7v-5.4l-4.5-2.7l-4.5,2.7V56.7z"/><path class="ggTpsq2eE9" d="M751,60.6l-5.5-3.4v-6.6l5.5-3.3l5.5,3.3v6.6L751,60.6z M746.5,56.7l4.5,2.7l4.5-2.7v-5.4l-4.5-2.7l-4.5,2.7V56.7z"/><path class="ggTpsq2eE9" d="M760,60.6l-5.5-3.4v-6.6l5.5-3.3l5.5,3.3v6.6L760,60.6z M755.5,56.7l4.5,2.7l4.5-2.7v-5.4l-4.5-2.7l-4.5,2.7V56.7z"/><path class="ggTpsq2eE9" d="M769,60.6l-5.5-3.4v-6.6l5.5-3.3l5.5,3.3v6.6L769,60.6z M764.5,56.7l4.5,2.7l4.5-2.7v-5.4l-4.5-2.7l-4.5,2.7V56.7z"/><path class="ggTpsq2eE9" d="M778,60.6l-5.5-3.4v-6.6l5.5-3.3l5.5,3.3v6.6L778,60.6z M773.5,56.7l4.5,2.7l4.5-2.7v-5.4l-4.5-2.7l-4.5,2.7V56.7z"/><path class="ggTpsq2eE9" d="M787,60.6l-5.5-3.4v-6.6l5.5-3.3l5.5,3.3v6.6L787,60.6z M782.5,56.7l4.5,2.7l4.5-2.7v-5.4l-4.5-2.7l-4.5,2.7V56.7z"/><path class="ggTpsq2eE9" d="M796,60.6l-5.5-3.4v-6.6l5.5-3.3l5.5,3.3v6.6L796,60.6z M791.5,56.7l4.5,2.7l4.5-2.7v-5.4l-4.5-2.7l-4.5,2.7V56.7z"/><path class="ggTpsq2eE9" d="M805,60.6l-5.5-3.4v-6.6l5.5-3.3l5.5,3.3v6.6L805,60.6z M800.5,56.7l4.5,2.7l4.5-2.7v-5.4l-4.5-2.7l-4.5,2.7V56.7z"/><path class="ggTpsq2eE9" d="M814,60.6l-5.5-3.4v-6.6l5.5-3.3l5.5,3.3v6.6L814,60.6z M809.5,56.7l4.5,2.7l4.5-2.7v-5.4l-4.5-2.7l-4.5,2.7V56.7z"/><path class="ggTpsq2eE9" d="M823,60.6l-5.5-3.4v-6.6l5.5-3.3l5.5,3.3v6.6L823,60.6z M818.5,56.7l4.5,2.7l4.5-2.7v-5.4l-4.5-2.7l-4.5,2.7V56.7z"/><path class="ggTpsq2eE9" d="M832,60.6l-5.5-3.4v-6.6l5.5-3.3l5.5,3.3v6.6L832,60.6z M827.5,56.7l4.5,2.7l4.5-2.7v-5.4l-4.5-2.7l-4.5,2.7V56.7z"/><path class="ggTpsq2eE9" d="M841,60.6l-5.5-3.4v-6.6l5.5-3.3l5.5,3.3v6.6L841,60.6z M836.5,56.7l4.5,2.7l4.5-2.7v-5.4l-4.5-2.7l-4.5,2.7V56.7z"/><path class="ggTpsq2eE9" d="M850,60.6l-5.5-3.4v-6.6l5.5-3.3l5.5,3.3v6.6L850,60.6z M845.5,56.7l4.5,2.7l4.5-2.7v-5.4l-4.5-2.7l-4.5,2.7V56.7z"/><path class="ggTpsq2eE9" d="M859,60.6l-5.5-3.4v-6.6l5.5-3.3l5.5,3.3v6.6L859,60.6z M854.5,56.7l4.5,2.7l4.5-2.7v-5.4l-4.5-2.7l-4.5,2.7V56.7z"/><path class="ggTpsq2eE9" d="M868,60.6l-5.5-3.4v-6.6l5.5-3.3l5.5,3.3v6.6L868,60.6z M863.5,56.7l4.5,2.7l4.5-2.7v-5.4l-4.5-2.7l-4.5,2.7V56.7z"/><path class="gosnQ9F70K" d="M877,60.6l-5.5-3.4v-6.6l5.5-3.3l5.5,3.3v6.6L877,60.6z M872.5,56.7l4.5,2.7l4.5-2.7v-5.4l-4.5-2.7l-4.5,2.7V56.7z"/><path class="cIyywkS6w3" d="M886,60.6l-5.5-3.4v-6.6l5.5-3.3l5.5,3.3v6.6L886,60.6z M881.5,56.7l4.5,2.7l4.5-2.7v-5.4l-4.5-2.7l-4.5,2.7V56.7z"/><path class="poIjgDdQ-R" d="M895,60.6l-5.5-3.4v-6.6l5.5-3.3l5.5,3.3v6.6L895,60.6z M890.5,56.7l4.5,2.7l4.5-2.7v-5.4l-4.5-2.7l-4.5,2.7V56.7z"/><path class="eAII3lEhOe" d="M904,60.6l-5.5-3.4v-6.6l5.5-3.3l5.5,3.3v6.6L904,60.6z M899.5,56.7l4.5,2.7l4.5-2.7v-5.4l-4.5-2.7l-4.5,2.7V56.7z"/><path class="qdmEGCQ67U" d="M913,60.6l-5.5-3.4v-6.6l5.5-3.3l5.5,3.3v6.6L913,60.6z M908.5,56.7l4.5,2.7l4.5-2.7v-5.4l-4.5-2.7l-4.5,2.7V56.7z"/></g><g id="fEgcM4HRSE" class="u1hRWL9vZ4"><path class="ggTpsq2eE9" d="M738,68.6l-5.5-3.4v-6.6l5.5-3.3l5.5,3.3v6.6L738,68.6z M733.5,64.7l4.5,2.7l4.5-2.7v-5.4l-4.5-2.7l-4.5,2.7V64.7z"/><path class="ggTpsq2eE9" d="M747,68.6l-5.5-3.4v-6.6l5.5-3.3l5.5,3.3v6.6L747,68.6z M742.5,64.7l4.5,2.7l4.5-2.7v-5.4l-4.5-2.7l-4.5,2.7V64.7z"/><path class="ggTpsq2eE9" d="M756,68.6l-5.5-3.4v-6.6l5.5-3.3l5.5,3.3v6.6L756,68.6z M751.5,64.7l4.5,2.7l4.5-2.7v-5.4l-4.5-2.7l-4.5,2.7V64.7z"/><path class="ggTpsq2eE9" d="M765,68.6l-5.5-3.4v-6.6l5.5-3.3l5.5,3.3v6.6L765,68.6z M760.5,64.7l4.5,2.7l4.5-2.7v-5.4l-4.5-2.7l-4.5,2.7V64.7z"/><path class="ggTpsq2eE9" d="M774,68.6l-5.5-3.4v-6.6l5.5-3.3l5.5,3.3v6.6L774,68.6z M769.5,64.7l4.5,2.7l4.5-2.7v-5.4l-4.5-2.7l-4.5,2.7V64.7z"/><path class="ggTpsq2eE9" d="M783,68.6l-5.5-3.4v-6.6l5.5-3.3l5.5,3.3v6.6L783,68.6z M778.5,64.7l4.5,2.7l4.5-2.7v-5.4l-4.5-2.7l-4.5,2.7V64.7z"/><path class="ggTpsq2eE9" d="M792,68.6l-5.5-3.4v-6.6l5.5-3.3l5.5,3.3v6.6L792,68.6z M787.5,64.7l4.5,2.7l4.5-2.7v-5.4l-4.5-2.7l-4.5,2.7V64.7z"/><path class="ggTpsq2eE9" d="M801,68.6l-5.5-3.4v-6.6l5.5-3.3l5.5,3.3v6.6L801,68.6z M796.5,64.7l4.5,2.7l4.5-2.7v-5.4l-4.5-2.7l-4.5,2.7V64.7z"/><path class="ggTpsq2eE9" d="M810,68.6l-5.5-3.4v-6.6l5.5-3.3l5.5,3.3v6.6L810,68.6z M805.5,64.7l4.5,2.7l4.5-2.7v-5.4l-4.5-2.7l-4.5,2.7V64.7z"/><path class="ggTpsq2eE9" d="M819,68.6l-5.5-3.4v-6.6l5.5-3.3l5.5,3.3v6.6L819,68.6z M814.5,64.7l4.5,2.7l4.5-2.7v-5.4l-4.5-2.7l-4.5,2.7V64.7z"/><path class="ggTpsq2eE9" d="M828,68.6l-5.5-3.4v-6.6l5.5-3.3l5.5,3.3v6.6L828,68.6z M823.5,64.7l4.5,2.7l4.5-2.7v-5.4l-4.5-2.7l-4.5,2.7V64.7z"/><path class="ggTpsq2eE9" d="M837,68.6l-5.5-3.4v-6.6l5.5-3.3l5.5,3.3v6.6L837,68.6z M832.5,64.7l4.5,2.7l4.5-2.7v-5.4l-4.5-2.7l-4.5,2.7V64.7z"/><path class="ggTpsq2eE9" d="M846,68.6l-5.5-3.4v-6.6l5.5-3.3l5.5,3.3v6.6L846,68.6z M841.5,64.7l4.5,2.7l4.5-2.7v-5.4l-4.5-2.7l-4.5,2.7V64.7z"/><path class="ggTpsq2eE9" d="M855,68.6l-5.5-3.4v-6.6l5.5-3.3l5.5,3.3v6.6L855,68.6z M850.5,64.7l4.5,2.7l4.5-2.7v-5.4l-4.5-2.7l-4.5,2.7V64.7z"/><path class="ggTpsq2eE9" d="M864,68.6l-5.5-3.4v-6.6l5.5-3.3l5.5,3.3v6.6L864,68.6z M859.5,64.7l4.5,2.7l4.5-2.7v-5.4l-4.5-2.7l-4.5,2.7V64.7z"/><path class="ggTpsq2eE9" d="M873,68.6l-5.5-3.4v-6.6l5.5-3.3l5.5,3.3v6.6L873,68.6z M868.5,64.7l4.5,2.7l4.5-2.7v-5.4l-4.5-2.7l-4.5,2.7V64.7z"/><path class="ggTpsq2eE9" d="M882,68.6l-5.5-3.4v-6.6l5.5-3.3l5.5,3.3v6.6L882,68.6z M877.5,64.7l4.5,2.7l4.5-2.7v-5.4l-4.5-2.7l-4.5,2.7V64.7z"/><path class="ggTpsq2eE9" d="M891,68.6l-5.5-3.4v-6.6l5.5-3.3l5.5,3.3v6.6L891,68.6z M886.5,64.7l4.5,2.7l4.5-2.7v-5.4l-4.5-2.7l-4.5,2.7V64.7z"/><path class="ggTpsq2eE9" d="M900,68.6l-5.5-3.4v-6.6l5.5-3.3l5.5,3.3v6.6L900,68.6z M895.5,64.7l4.5,2.7l4.5-2.7v-5.4l-4.5-2.7l-4.5,2.7V64.7z"/><path class="ggTpsq2eE9" d="M909,68.6l-5.5-3.4v-6.6l5.5-3.3l5.5,3.3v6.6L909,68.6z M904.5,64.7l4.5,2.7l4.5-2.7v-5.4l-4.5-2.7l-4.5,2.7V64.7z"/><path class="ggTpsq2eE9" d="M918,68.6l-5.5-3.4v-6.6l5.5-3.3l5.5,3.3v6.6L918,68.6z M913.5,64.7l4.5,2.7l4.5-2.7v-5.4l-4.5-2.7l-4.5,2.7V64.7z"/><path class="ggTpsq2eE9" d="M927,68.6l-5.5-3.4v-6.6l5.5-3.3l5.5,3.3v6.6L927,68.6z M922.5,64.7l4.5,2.7l4.5-2.7v-5.4l-4.5-2.7l-4.5,2.7V64.7z"/></g></g><g id="qHbNAxBrPv"><g id="nkzMqb8BpW" class="ktItO1aix8"><path class="ggTpsq2eE9" d="M1243,12.6l-5.5-3.4V2.7l5.5-3.3l5.5,3.3v6.6L1243,12.6z M1238.5,8.7l4.5,2.7l4.5-2.7V3.3l-4.5-2.7l-4.5,2.7V8.7z"/><path class="ggTpsq2eE9" d="M1234,12.6l-5.5-3.4V2.7l5.5-3.3l5.5,3.3v6.6L1234,12.6z M1229.5,8.7l4.5,2.7l4.5-2.7V3.3l-4.5-2.7l-4.5,2.7V8.7z"/><path class="ggTpsq2eE9" d="M1225,12.6l-5.5-3.4V2.7l5.5-3.3l5.5,3.3v6.6L1225,12.6z M1220.5,8.7l4.5,2.7l4.5-2.7V3.3l-4.5-2.7l-4.5,2.7V8.7z"/><path class="ggTpsq2eE9" d="M1216,12.6l-5.5-3.4V2.7l5.5-3.3l5.5,3.3v6.6L1216,12.6z M1211.5,8.7l4.5,2.7l4.5-2.7V3.3l-4.5-2.7l-4.5,2.7V8.7z"/><path class="ggTpsq2eE9" d="M1207,12.6l-5.5-3.4V2.7l5.5-3.3l5.5,3.3v6.6L1207,12.6z M1202.5,8.7l4.5,2.7l4.5-2.7V3.3l-4.5-2.7l-4.5,2.7V8.7z"/><path class="ggTpsq2eE9" d="M1198,12.6l-5.5-3.4V2.7l5.5-3.3l5.5,3.3v6.6L1198,12.6z M1193.5,8.7l4.5,2.7l4.5-2.7V3.3l-4.5-2.7l-4.5,2.7V8.7z"/><path class="ggTpsq2eE9" d="M1189,12.6l-5.5-3.4V2.7l5.5-3.3l5.5,3.3v6.6L1189,12.6z M1184.5,8.7l4.5,2.7l4.5-2.7V3.3l-4.5-2.7l-4.5,2.7V8.7z"/><path class="ggTpsq2eE9" d="M1180,12.6l-5.5-3.4V2.7l5.5-3.3l5.5,3.3v6.6L1180,12.6z M1175.5,8.7l4.5,2.7l4.5-2.7V3.3l-4.5-2.7l-4.5,2.7V8.7z"/><path class="ggTpsq2eE9" d="M1171,12.6l-5.5-3.4V2.7l5.5-3.3l5.5,3.3v6.6L1171,12.6z M1166.5,8.7l4.5,2.7l4.5-2.7V3.3l-4.5-2.7l-4.5,2.7V8.7z"/><path class="ggTpsq2eE9" d="M1162,12.6l-5.5-3.4V2.7l5.5-3.3l5.5,3.3v6.6L1162,12.6z M1157.5,8.7l4.5,2.7l4.5-2.7V3.3l-4.5-2.7l-4.5,2.7V8.7z"/><path class="ggTpsq2eE9" d="M1153,12.6l-5.5-3.4V2.7l5.5-3.3l5.5,3.3v6.6L1153,12.6z M1148.5,8.7l4.5,2.7l4.5-2.7V3.3l-4.5-2.7l-4.5,2.7V8.7z"/><path class="ggTpsq2eE9" d="M1144,12.6l-5.5-3.4V2.7l5.5-3.3l5.5,3.3v6.6L1144,12.6z M1139.5,8.7l4.5,2.7l4.5-2.7V3.3l-4.5-2.7l-4.5,2.7V8.7z"/><path class="ggTpsq2eE9" d="M1135,12.6l-5.5-3.4V2.7l5.5-3.3l5.5,3.3v6.6L1135,12.6z M1130.5,8.7l4.5,2.7l4.5-2.7V3.3l-4.5-2.7l-4.5,2.7V8.7z"/><path class="ggTpsq2eE9" d="M1126,12.6l-5.5-3.4V2.7l5.5-3.3l5.5,3.3v6.6L1126,12.6z M1121.5,8.7l4.5,2.7l4.5-2.7V3.3l-4.5-2.7l-4.5,2.7V8.7z"/><path class="ggTpsq2eE9" d="M1117,12.6l-5.5-3.4V2.7l5.5-3.3l5.5,3.3v6.6L1117,12.6z M1112.5,8.7l4.5,2.7l4.5-2.7V3.3l-4.5-2.7l-4.5,2.7V8.7z"/><path class="ggTpsq2eE9" d="M1108,12.6l-5.5-3.4V2.7l5.5-3.3l5.5,3.3v6.6L1108,12.6z M1103.5,8.7l4.5,2.7l4.5-2.7V3.3l-4.5-2.7l-4.5,2.7V8.7z"/><path class="ggTpsq2eE9" d="M1099,12.6l-5.5-3.4V2.7l5.5-3.3l5.5,3.3v6.6L1099,12.6z M1094.5,8.7l4.5,2.7l4.5-2.7V3.3l-4.5-2.7l-4.5,2.7V8.7z"/><path class="ggTpsq2eE9" d="M1090,12.6l-5.5-3.4V2.7l5.5-3.3l5.5,3.3v6.6L1090,12.6z M1085.5,8.7l4.5,2.7l4.5-2.7V3.3l-4.5-2.7l-4.5,2.7V8.7z"/><path class="cIyywkS6w3" d="M1081,12.6l-5.5-3.4V2.7l5.5-3.3l5.5,3.3v6.6L1081,12.6z M1076.5,8.7l4.5,2.7l4.5-2.7V3.3l-4.5-2.7l-4.5,2.7V8.7z"/><path class="poIjgDdQ-R" d="M1072,12.6l-5.5-3.4V2.7l5.5-3.3l5.5,3.3v6.6L1072,12.6z M1067.5,8.7l4.5,2.7l4.5-2.7V3.3l-4.5-2.7l-4.5,2.7V8.7z"/><path class="eAII3lEhOe" d="M1063,12.6l-5.5-3.4V2.7l5.5-3.3l5.5,3.3v6.6L1063,12.6z M1058.5,8.7l4.5,2.7l4.5-2.7V3.3l-4.5-2.7l-4.5,2.7V8.7z"/><path class="qdmEGCQ67U" d="M1054,12.6l-5.5-3.4V2.7l5.5-3.3l5.5,3.3v6.6L1054,12.6z M1049.5,8.7l4.5,2.7l4.5-2.7V3.3l-4.5-2.7l-4.5,2.7V8.7z"/></g><g id="cZ7EnntrPC" class="eFaM1CISN6"><path class="ggTpsq2eE9" d="M1238,20.6l-5.5-3.4v-6.6l5.5-3.3l5.5,3.3v6.6L1238,20.6z M1233.5,16.7l4.5,2.7l4.5-2.7v-5.4l-4.5-2.7l-4.5,2.7V16.7z"/><path class="ggTpsq2eE9" d="M1229,20.6l-5.5-3.4v-6.6l5.5-3.3l5.5,3.3v6.6L1229,20.6z M1224.5,16.7l4.5,2.7l4.5-2.7v-5.4l-4.5-2.7l-4.5,2.7V16.7z"/><path class="ggTpsq2eE9" d="M1220,20.6l-5.5-3.4v-6.6l5.5-3.3l5.5,3.3v6.6L1220,20.6z M1215.5,16.7l4.5,2.7l4.5-2.7v-5.4l-4.5-2.7l-4.5,2.7V16.7z"/><path class="ggTpsq2eE9" d="M1211,20.6l-5.5-3.4v-6.6l5.5-3.3l5.5,3.3v6.6L1211,20.6z M1206.5,16.7l4.5,2.7l4.5-2.7v-5.4l-4.5-2.7l-4.5,2.7V16.7z"/><path class="ggTpsq2eE9" d="M1202,20.6l-5.5-3.4v-6.6l5.5-3.3l5.5,3.3v6.6L1202,20.6z M1197.5,16.7l4.5,2.7l4.5-2.7v-5.4l-4.5-2.7l-4.5,2.7V16.7z"/><path class="ggTpsq2eE9" d="M1193,20.6l-5.5-3.4v-6.6l5.5-3.3l5.5,3.3v6.6L1193,20.6z M1188.5,16.7l4.5,2.7l4.5-2.7v-5.4l-4.5-2.7l-4.5,2.7V16.7z"/><path class="ggTpsq2eE9" d="M1184,20.6l-5.5-3.4v-6.6l5.5-3.3l5.5,3.3v6.6L1184,20.6z M1179.5,16.7l4.5,2.7l4.5-2.7v-5.4l-4.5-2.7l-4.5,2.7V16.7z"/><path class="ggTpsq2eE9" d="M1175,20.6l-5.5-3.4v-6.6l5.5-3.3l5.5,3.3v6.6L1175,20.6z M1170.5,16.7l4.5,2.7l4.5-2.7v-5.4l-4.5-2.7l-4.5,2.7V16.7z"/><path class="ggTpsq2eE9" d="M1166,20.6l-5.5-3.4v-6.6l5.5-3.3l5.5,3.3v6.6L1166,20.6z M1161.5,16.7l4.5,2.7l4.5-2.7v-5.4l-4.5-2.7l-4.5,2.7V16.7z"/><path class="ggTpsq2eE9" d="M1157,20.6l-5.5-3.4v-6.6l5.5-3.3l5.5,3.3v6.6L1157,20.6z M1152.5,16.7l4.5,2.7l4.5-2.7v-5.4l-4.5-2.7l-4.5,2.7V16.7z"/><path class="ggTpsq2eE9" d="M1148,20.6l-5.5-3.4v-6.6l5.5-3.3l5.5,3.3v6.6L1148,20.6z M1143.5,16.7l4.5,2.7l4.5-2.7v-5.4l-4.5-2.7l-4.5,2.7V16.7z"/><path class="ggTpsq2eE9" d="M1139,20.6l-5.5-3.4v-6.6l5.5-3.3l5.5,3.3v6.6L1139,20.6z M1134.5,16.7l4.5,2.7l4.5-2.7v-5.4l-4.5-2.7l-4.5,2.7V16.7z"/><path class="ggTpsq2eE9" d="M1130,20.6l-5.5-3.4v-6.6l5.5-3.3l5.5,3.3v6.6L1130,20.6z M1125.5,16.7l4.5,2.7l4.5-2.7v-5.4l-4.5-2.7l-4.5,2.7V16.7z"/><path class="ggTpsq2eE9" d="M1121,20.6l-5.5-3.4v-6.6l5.5-3.3l5.5,3.3v6.6L1121,20.6z M1116.5,16.7l4.5,2.7l4.5-2.7v-5.4l-4.5-2.7l-4.5,2.7V16.7z"/><path class="ggTpsq2eE9" d="M1112,20.6l-5.5-3.4v-6.6l5.5-3.3l5.5,3.3v6.6L1112,20.6z M1107.5,16.7l4.5,2.7l4.5-2.7v-5.4l-4.5-2.7l-4.5,2.7V16.7z"/><path class="ggTpsq2eE9" d="M1103,20.6l-5.5-3.4v-6.6l5.5-3.3l5.5,3.3v6.6L1103,20.6z M1098.5,16.7l4.5,2.7l4.5-2.7v-5.4l-4.5-2.7l-4.5,2.7V16.7z"/><path class="ggTpsq2eE9" d="M1094,20.6l-5.5-3.4v-6.6l5.5-3.3l5.5,3.3v6.6L1094,20.6z M1089.5,16.7l4.5,2.7l4.5-2.7v-5.4l-4.5-2.7l-4.5,2.7V16.7z"/><path class="gosnQ9F70K" d="M1085,20.6l-5.5-3.4v-6.6l5.5-3.3l5.5,3.3v6.6L1085,20.6z M1080.5,16.7l4.5,2.7l4.5-2.7v-5.4l-4.5-2.7l-4.5,2.7V16.7z"/><path class="cIyywkS6w3" d="M1076,20.6l-5.5-3.4v-6.6l5.5-3.3l5.5,3.3v6.6L1076,20.6z M1071.5,16.7l4.5,2.7l4.5-2.7v-5.4l-4.5-2.7l-4.5,2.7V16.7z"/><path class="poIjgDdQ-R" d="M1067,20.6l-5.5-3.4v-6.6l5.5-3.3l5.5,3.3v6.6L1067,20.6z M1062.5,16.7l4.5,2.7l4.5-2.7v-5.4l-4.5-2.7l-4.5,2.7V16.7z"/><path class="eAII3lEhOe" d="M1058,20.6l-5.5-3.4v-6.6l5.5-3.3l5.5,3.3v6.6L1058,20.6z M1053.5,16.7l4.5,2.7l4.5-2.7v-5.4l-4.5-2.7l-4.5,2.7V16.7z"/><path class="qdmEGCQ67U" d="M1049,20.6l-5.5-3.4v-6.6l5.5-3.3l5.5,3.3v6.6L1049,20.6z M1044.5,16.7l4.5,2.7l4.5-2.7v-5.4l-4.5-2.7l-4.5,2.7V16.7z"/></g><g id="k5rkHOV9HG" class="o5v8Um3U_h"><path class="ggTpsq2eE9" d="M1233,28.6l-5.5-3.4v-6.6l5.5-3.3l5.5,3.3v6.6L1233,28.6z M1228.5,24.7l4.5,2.7l4.5-2.7v-5.4l-4.5-2.7l-4.5,2.7V24.7z"/><path class="ggTpsq2eE9" d="M1224,28.6l-5.5-3.4v-6.6l5.5-3.3l5.5,3.3v6.6L1224,28.6z M1219.5,24.7l4.5,2.7l4.5-2.7v-5.4l-4.5-2.7l-4.5,2.7V24.7z"/><path class="ggTpsq2eE9" d="M1215,28.6l-5.5-3.4v-6.6l5.5-3.3l5.5,3.3v6.6L1215,28.6z M1210.5,24.7l4.5,2.7l4.5-2.7v-5.4l-4.5-2.7l-4.5,2.7V24.7z"/><path class="ggTpsq2eE9" d="M1206,28.6l-5.5-3.4v-6.6l5.5-3.3l5.5,3.3v6.6L1206,28.6z M1201.5,24.7l4.5,2.7l4.5-2.7v-5.4l-4.5-2.7l-4.5,2.7V24.7z"/><path class="ggTpsq2eE9" d="M1197,28.6l-5.5-3.4v-6.6l5.5-3.3l5.5,3.3v6.6L1197,28.6z M1192.5,24.7l4.5,2.7l4.5-2.7v-5.4l-4.5-2.7l-4.5,2.7V24.7z"/><path class="ggTpsq2eE9" d="M1188,28.6l-5.5-3.4v-6.6l5.5-3.3l5.5,3.3v6.6L1188,28.6z M1183.5,24.7l4.5,2.7l4.5-2.7v-5.4l-4.5-2.7l-4.5,2.7V24.7z"/><path class="ggTpsq2eE9" d="M1179,28.6l-5.5-3.4v-6.6l5.5-3.3l5.5,3.3v6.6L1179,28.6z M1174.5,24.7l4.5,2.7l4.5-2.7v-5.4l-4.5-2.7l-4.5,2.7V24.7z"/><path class="ggTpsq2eE9" d="M1170,28.6l-5.5-3.4v-6.6l5.5-3.3l5.5,3.3v6.6L1170,28.6z M1165.5,24.7l4.5,2.7l4.5-2.7v-5.4l-4.5-2.7l-4.5,2.7V24.7z"/><path class="ggTpsq2eE9" d="M1161,28.6l-5.5-3.4v-6.6l5.5-3.3l5.5,3.3v6.6L1161,28.6z M1156.5,24.7l4.5,2.7l4.5-2.7v-5.4l-4.5-2.7l-4.5,2.7V24.7z"/><path class="ggTpsq2eE9" d="M1152,28.6l-5.5-3.4v-6.6l5.5-3.3l5.5,3.3v6.6L1152,28.6z M1147.5,24.7l4.5,2.7l4.5-2.7v-5.4l-4.5-2.7l-4.5,2.7V24.7z"/><path class="ggTpsq2eE9" d="M1143,28.6l-5.5-3.4v-6.6l5.5-3.3l5.5,3.3v6.6L1143,28.6z M1138.5,24.7l4.5,2.7l4.5-2.7v-5.4l-4.5-2.7l-4.5,2.7V24.7z"/><path class="ggTpsq2eE9" d="M1134,28.6l-5.5-3.4v-6.6l5.5-3.3l5.5,3.3v6.6L1134,28.6z M1129.5,24.7l4.5,2.7l4.5-2.7v-5.4l-4.5-2.7l-4.5,2.7V24.7z"/><path class="ggTpsq2eE9" d="M1125,28.6l-5.5-3.4v-6.6l5.5-3.3l5.5,3.3v6.6L1125,28.6z M1120.5,24.7l4.5,2.7l4.5-2.7v-5.4l-4.5-2.7l-4.5,2.7V24.7z"/><path class="ggTpsq2eE9" d="M1116,28.6l-5.5-3.4v-6.6l5.5-3.3l5.5,3.3v6.6L1116,28.6z M1111.5,24.7l4.5,2.7l4.5-2.7v-5.4l-4.5-2.7l-4.5,2.7V24.7z"/><path class="ggTpsq2eE9" d="M1107,28.6l-5.5-3.4v-6.6l5.5-3.3l5.5,3.3v6.6L1107,28.6z M1102.5,24.7l4.5,2.7l4.5-2.7v-5.4l-4.5-2.7l-4.5,2.7V24.7z"/><path class="ggTpsq2eE9" d="M1098,28.6l-5.5-3.4v-6.6l5.5-3.3l5.5,3.3v6.6L1098,28.6z M1093.5,24.7l4.5,2.7l4.5-2.7v-5.4l-4.5-2.7l-4.5,2.7V24.7z"/><path class="ggTpsq2eE9" d="M1089,28.6l-5.5-3.4v-6.6l5.5-3.3l5.5,3.3v6.6L1089,28.6z M1084.5,24.7l4.5,2.7l4.5-2.7v-5.4l-4.5-2.7l-4.5,2.7V24.7z"/><path class="kR8XX0AD8p" d="M1080,28.6l-5.5-3.4v-6.6l5.5-3.3l5.5,3.3v6.6L1080,28.6z M1075.5,24.7l4.5,2.7l4.5-2.7v-5.4l-4.5-2.7l-4.5,2.7V24.7z"/><path class="cIyywkS6w3" d="M1071,28.6l-5.5-3.4v-6.6l5.5-3.3l5.5,3.3v6.6L1071,28.6z M1066.5,24.7l4.5,2.7l4.5-2.7v-5.4l-4.5-2.7l-4.5,2.7V24.7z"/><path class="poIjgDdQ-R" d="M1062,28.6l-5.5-3.4v-6.6l5.5-3.3l5.5,3.3v6.6L1062,28.6z M1057.5,24.7l4.5,2.7l4.5-2.7v-5.4l-4.5-2.7l-4.5,2.7V24.7z"/><path class="eAII3lEhOe" d="M1053,28.6l-5.5-3.4v-6.6l5.5-3.3l5.5,3.3v6.6L1053,28.6z M1048.5,24.7l4.5,2.7l4.5-2.7v-5.4l-4.5-2.7l-4.5,2.7V24.7z"/><path class="qdmEGCQ67U" d="M1044,28.6l-5.5-3.4v-6.6l5.5-3.3l5.5,3.3v6.6L1044,28.6z M1039.5,24.7l4.5,2.7l4.5-2.7v-5.4l-4.5-2.7l-4.5,2.7V24.7z"/></g><g id="gFykoumJlr" class="aZVwqaMrTe"><path class="ggTpsq2eE9" d="M1228,36.6l-5.5-3.4v-6.6l5.5-3.3l5.5,3.3v6.6L1228,36.6z M1223.5,32.7l4.5,2.7l4.5-2.7v-5.4l-4.5-2.7l-4.5,2.7V32.7z"/><path class="ggTpsq2eE9" d="M1219,36.6l-5.5-3.4v-6.6l5.5-3.3l5.5,3.3v6.6L1219,36.6z M1214.5,32.7l4.5,2.7l4.5-2.7v-5.4l-4.5-2.7l-4.5,2.7V32.7z"/><path class="ggTpsq2eE9" d="M1210,36.6l-5.5-3.4v-6.6l5.5-3.3l5.5,3.3v6.6L1210,36.6z M1205.5,32.7l4.5,2.7l4.5-2.7v-5.4l-4.5-2.7l-4.5,2.7V32.7z"/><path class="ggTpsq2eE9" d="M1201,36.6l-5.5-3.4v-6.6l5.5-3.3l5.5,3.3v6.6L1201,36.6z M1196.5,32.7l4.5,2.7l4.5-2.7v-5.4l-4.5-2.7l-4.5,2.7V32.7z"/><path class="ggTpsq2eE9" d="M1192,36.6l-5.5-3.4v-6.6l5.5-3.3l5.5,3.3v6.6L1192,36.6z M1187.5,32.7l4.5,2.7l4.5-2.7v-5.4l-4.5-2.7l-4.5,2.7V32.7z"/><path class="ggTpsq2eE9" d="M1183,36.6l-5.5-3.4v-6.6l5.5-3.3l5.5,3.3v6.6L1183,36.6z M1178.5,32.7l4.5,2.7l4.5-2.7v-5.4l-4.5-2.7l-4.5,2.7V32.7z"/><path class="ggTpsq2eE9" d="M1174,36.6l-5.5-3.4v-6.6l5.5-3.3l5.5,3.3v6.6L1174,36.6z M1169.5,32.7l4.5,2.7l4.5-2.7v-5.4l-4.5-2.7l-4.5,2.7V32.7z"/><path class="ggTpsq2eE9" d="M1165,36.6l-5.5-3.4v-6.6l5.5-3.3l5.5,3.3v6.6L1165,36.6z M1160.5,32.7l4.5,2.7l4.5-2.7v-5.4l-4.5-2.7l-4.5,2.7V32.7z"/><path class="ggTpsq2eE9" d="M1156,36.6l-5.5-3.4v-6.6l5.5-3.3l5.5,3.3v6.6L1156,36.6z M1151.5,32.7l4.5,2.7l4.5-2.7v-5.4l-4.5-2.7l-4.5,2.7V32.7z"/><path class="ggTpsq2eE9" d="M1147,36.6l-5.5-3.4v-6.6l5.5-3.3l5.5,3.3v6.6L1147,36.6z M1142.5,32.7l4.5,2.7l4.5-2.7v-5.4l-4.5-2.7l-4.5,2.7V32.7z"/><path class="ggTpsq2eE9" d="M1138,36.6l-5.5-3.4v-6.6l5.5-3.3l5.5,3.3v6.6L1138,36.6z M1133.5,32.7l4.5,2.7l4.5-2.7v-5.4l-4.5-2.7l-4.5,2.7V32.7z"/><path class="ggTpsq2eE9" d="M1129,36.6l-5.5-3.4v-6.6l5.5-3.3l5.5,3.3v6.6L1129,36.6z M1124.5,32.7l4.5,2.7l4.5-2.7v-5.4l-4.5-2.7l-4.5,2.7V32.7z"/><path class="ggTpsq2eE9" d="M1120,36.6l-5.5-3.4v-6.6l5.5-3.3l5.5,3.3v6.6L1120,36.6z M1115.5,32.7l4.5,2.7l4.5-2.7v-5.4l-4.5-2.7l-4.5,2.7V32.7z"/><path class="ggTpsq2eE9" d="M1111,36.6l-5.5-3.4v-6.6l5.5-3.3l5.5,3.3v6.6L1111,36.6z M1106.5,32.7l4.5,2.7l4.5-2.7v-5.4l-4.5-2.7l-4.5,2.7V32.7z"/><path class="ggTpsq2eE9" d="M1102,36.6l-5.5-3.4v-6.6l5.5-3.3l5.5,3.3v6.6L1102,36.6z M1097.5,32.7l4.5,2.7l4.5-2.7v-5.4l-4.5-2.7l-4.5,2.7V32.7z"/><path class="ggTpsq2eE9" d="M1093,36.6l-5.5-3.4v-6.6l5.5-3.3l5.5,3.3v6.6L1093,36.6z M1088.5,32.7l4.5,2.7l4.5-2.7v-5.4l-4.5-2.7l-4.5,2.7V32.7z"/><path class="ggTpsq2eE9" d="M1084,36.6l-5.5-3.4v-6.6l5.5-3.3l5.5,3.3v6.6L1084,36.6z M1079.5,32.7l4.5,2.7l4.5-2.7v-5.4l-4.5-2.7l-4.5,2.7V32.7z"/><path class="gosnQ9F70K" d="M1075,36.6l-5.5-3.4v-6.6l5.5-3.3l5.5,3.3v6.6L1075,36.6z M1070.5,32.7l4.5,2.7l4.5-2.7v-5.4l-4.5-2.7l-4.5,2.7V32.7z"/><path class="cIyywkS6w3" d="M1066,36.6l-5.5-3.4v-6.6l5.5-3.3l5.5,3.3v6.6L1066,36.6z M1061.5,32.7l4.5,2.7l4.5-2.7v-5.4l-4.5-2.7l-4.5,2.7V32.7z"/><path class="poIjgDdQ-R" d="M1057,36.6l-5.5-3.4v-6.6l5.5-3.3l5.5,3.3v6.6L1057,36.6z M1052.5,32.7l4.5,2.7l4.5-2.7v-5.4l-4.5-2.7l-4.5,2.7V32.7z"/><path class="eAII3lEhOe" d="M1048,36.6l-5.5-3.4v-6.6l5.5-3.3l5.5,3.3v6.6L1048,36.6z M1043.5,32.7l4.5,2.7l4.5-2.7v-5.4l-4.5-2.7l-4.5,2.7V32.7z"/><path class="qdmEGCQ67U" d="M1039,36.6l-5.5-3.4v-6.6l5.5-3.3l5.5,3.3v6.6L1039,36.6z M1034.5,32.7l4.5,2.7l4.5-2.7v-5.4l-4.5-2.7l-4.5,2.7V32.7z"/></g><g id="yxqKUPf2AX" class="s4JeSovOqa"><path class="ggTpsq2eE9" d="M1224,44.6l-5.5-3.4v-6.6l5.5-3.3l5.5,3.3v6.6L1224,44.6z M1219.5,40.7l4.5,2.7l4.5-2.7v-5.4l-4.5-2.7l-4.5,2.7V40.7z"/><path class="ggTpsq2eE9" d="M1215,44.6l-5.5-3.4v-6.6l5.5-3.3l5.5,3.3v6.6L1215,44.6z M1210.5,40.7l4.5,2.7l4.5-2.7v-5.4l-4.5-2.7l-4.5,2.7V40.7z"/><path class="ggTpsq2eE9" d="M1206,44.6l-5.5-3.4v-6.6l5.5-3.3l5.5,3.3v6.6L1206,44.6z M1201.5,40.7l4.5,2.7l4.5-2.7v-5.4l-4.5-2.7l-4.5,2.7V40.7z"/><path class="ggTpsq2eE9" d="M1197,44.6l-5.5-3.4v-6.6l5.5-3.3l5.5,3.3v6.6L1197,44.6z M1192.5,40.7l4.5,2.7l4.5-2.7v-5.4l-4.5-2.7l-4.5,2.7V40.7z"/><path class="ggTpsq2eE9" d="M1188,44.6l-5.5-3.4v-6.6l5.5-3.3l5.5,3.3v6.6L1188,44.6z M1183.5,40.7l4.5,2.7l4.5-2.7v-5.4l-4.5-2.7l-4.5,2.7V40.7z"/><path class="ggTpsq2eE9" d="M1179,44.6l-5.5-3.4v-6.6l5.5-3.3l5.5,3.3v6.6L1179,44.6z M1174.5,40.7l4.5,2.7l4.5-2.7v-5.4l-4.5-2.7l-4.5,2.7V40.7z"/><path class="ggTpsq2eE9" d="M1170,44.6l-5.5-3.4v-6.6l5.5-3.3l5.5,3.3v6.6L1170,44.6z M1165.5,40.7l4.5,2.7l4.5-2.7v-5.4l-4.5-2.7l-4.5,2.7V40.7z"/><path class="ggTpsq2eE9" d="M1161,44.6l-5.5-3.4v-6.6l5.5-3.3l5.5,3.3v6.6L1161,44.6z M1156.5,40.7l4.5,2.7l4.5-2.7v-5.4l-4.5-2.7l-4.5,2.7V40.7z"/><path class="ggTpsq2eE9" d="M1152,44.6l-5.5-3.4v-6.6l5.5-3.3l5.5,3.3v6.6L1152,44.6z M1147.5,40.7l4.5,2.7l4.5-2.7v-5.4l-4.5-2.7l-4.5,2.7V40.7z"/><path class="ggTpsq2eE9" d="M1143,44.6l-5.5-3.4v-6.6l5.5-3.3l5.5,3.3v6.6L1143,44.6z M1138.5,40.7l4.5,2.7l4.5-2.7v-5.4l-4.5-2.7l-4.5,2.7V40.7z"/><path class="ggTpsq2eE9" d="M1134,44.6l-5.5-3.4v-6.6l5.5-3.3l5.5,3.3v6.6L1134,44.6z M1129.5,40.7l4.5,2.7l4.5-2.7v-5.4l-4.5-2.7l-4.5,2.7V40.7z"/><path class="ggTpsq2eE9" d="M1125,44.6l-5.5-3.4v-6.6l5.5-3.3l5.5,3.3v6.6L1125,44.6z M1120.5,40.7l4.5,2.7l4.5-2.7v-5.4l-4.5-2.7l-4.5,2.7V40.7z"/><path class="ggTpsq2eE9" d="M1116,44.6l-5.5-3.4v-6.6l5.5-3.3l5.5,3.3v6.6L1116,44.6z M1111.5,40.7l4.5,2.7l4.5-2.7v-5.4l-4.5-2.7l-4.5,2.7V40.7z"/><path class="ggTpsq2eE9" d="M1107,44.6l-5.5-3.4v-6.6l5.5-3.3l5.5,3.3v6.6L1107,44.6z M1102.5,40.7l4.5,2.7l4.5-2.7v-5.4l-4.5-2.7l-4.5,2.7V40.7z"/><path class="ggTpsq2eE9" d="M1098,44.6l-5.5-3.4v-6.6l5.5-3.3l5.5,3.3v6.6L1098,44.6z M1093.5,40.7l4.5,2.7l4.5-2.7v-5.4l-4.5-2.7l-4.5,2.7V40.7z"/><path class="ggTpsq2eE9" d="M1089,44.6l-5.5-3.4v-6.6l5.5-3.3l5.5,3.3v6.6L1089,44.6z M1084.5,40.7l4.5,2.7l4.5-2.7v-5.4l-4.5-2.7l-4.5,2.7V40.7z"/><path class="ggTpsq2eE9" d="M1080,44.6l-5.5-3.4v-6.6l5.5-3.3l5.5,3.3v6.6L1080,44.6z M1075.5,40.7l4.5,2.7l4.5-2.7v-5.4l-4.5-2.7l-4.5,2.7V40.7z"/><path class="gosnQ9F70K" d="M1071,44.6l-5.5-3.4v-6.6l5.5-3.3l5.5,3.3v6.6L1071,44.6z M1066.5,40.7l4.5,2.7l4.5-2.7v-5.4l-4.5-2.7l-4.5,2.7V40.7z"/><path class="cIyywkS6w3" d="M1062,44.6l-5.5-3.4v-6.6l5.5-3.3l5.5,3.3v6.6L1062,44.6z M1057.5,40.7l4.5,2.7l4.5-2.7v-5.4l-4.5-2.7l-4.5,2.7V40.7z"/><path class="poIjgDdQ-R" d="M1053,44.6l-5.5-3.4v-6.6l5.5-3.3l5.5,3.3v6.6L1053,44.6z M1048.5,40.7l4.5,2.7l4.5-2.7v-5.4l-4.5-2.7l-4.5,2.7V40.7z"/><path class="eAII3lEhOe" d="M1044,44.6l-5.5-3.4v-6.6l5.5-3.3l5.5,3.3v6.6L1044,44.6z M1039.5,40.7l4.5,2.7l4.5-2.7v-5.4l-4.5-2.7l-4.5,2.7V40.7z"/><path class="qdmEGCQ67U" d="M1035,44.6l-5.5-3.4v-6.6l5.5-3.3l5.5,3.3v6.6L1035,44.6z M1030.5,40.7l4.5,2.7l4.5-2.7v-5.4l-4.5-2.7l-4.5,2.7V40.7z"/></g><g id="vsahmuSH7X" class="o0Eqmyp0xp"><path class="ggTpsq2eE9" d="M1210,52.6l-5.5-3.4v-6.6l5.5-3.3l5.5,3.3v6.6L1210,52.6z M1205.5,48.7l4.5,2.7l4.5-2.7v-5.4l-4.5-2.7l-4.5,2.7V48.7z"/><path class="ggTpsq2eE9" d="M1201,52.6l-5.5-3.4v-6.6l5.5-3.3l5.5,3.3v6.6L1201,52.6z M1196.5,48.7l4.5,2.7l4.5-2.7v-5.4l-4.5-2.7l-4.5,2.7V48.7z"/><path class="ggTpsq2eE9" d="M1192,52.6l-5.5-3.4v-6.6l5.5-3.3l5.5,3.3v6.6L1192,52.6z M1187.5,48.7l4.5,2.7l4.5-2.7v-5.4l-4.5-2.7l-4.5,2.7V48.7z"/><path class="ggTpsq2eE9" d="M1183,52.6l-5.5-3.4v-6.6l5.5-3.3l5.5,3.3v6.6L1183,52.6z M1178.5,48.7l4.5,2.7l4.5-2.7v-5.4l-4.5-2.7l-4.5,2.7V48.7z"/><path class="ggTpsq2eE9" d="M1174,52.6l-5.5-3.4v-6.6l5.5-3.3l5.5,3.3v6.6L1174,52.6z M1169.5,48.7l4.5,2.7l4.5-2.7v-5.4l-4.5-2.7l-4.5,2.7V48.7z"/><path class="ggTpsq2eE9" d="M1165,52.6l-5.5-3.4v-6.6l5.5-3.3l5.5,3.3v6.6L1165,52.6z M1160.5,48.7l4.5,2.7l4.5-2.7v-5.4l-4.5-2.7l-4.5,2.7V48.7z"/><path class="ggTpsq2eE9" d="M1156,52.6l-5.5-3.4v-6.6l5.5-3.3l5.5,3.3v6.6L1156,52.6z M1151.5,48.7l4.5,2.7l4.5-2.7v-5.4l-4.5-2.7l-4.5,2.7V48.7z"/><path class="ggTpsq2eE9" d="M1147,52.6l-5.5-3.4v-6.6l5.5-3.3l5.5,3.3v6.6L1147,52.6z M1142.5,48.7l4.5,2.7l4.5-2.7v-5.4l-4.5-2.7l-4.5,2.7V48.7z"/><path class="ggTpsq2eE9" d="M1138,52.6l-5.5-3.4v-6.6l5.5-3.3l5.5,3.3v6.6L1138,52.6z M1133.5,48.7l4.5,2.7l4.5-2.7v-5.4l-4.5-2.7l-4.5,2.7V48.7z"/><path class="ggTpsq2eE9" d="M1129,52.6l-5.5-3.4v-6.6l5.5-3.3l5.5,3.3v6.6L1129,52.6z M1124.5,48.7l4.5,2.7l4.5-2.7v-5.4l-4.5-2.7l-4.5,2.7V48.7z"/><path class="ggTpsq2eE9" d="M1120,52.6l-5.5-3.4v-6.6l5.5-3.3l5.5,3.3v6.6L1120,52.6z M1115.5,48.7l4.5,2.7l4.5-2.7v-5.4l-4.5-2.7l-4.5,2.7V48.7z"/><path class="ggTpsq2eE9" d="M1111,52.6l-5.5-3.4v-6.6l5.5-3.3l5.5,3.3v6.6L1111,52.6z M1106.5,48.7l4.5,2.7l4.5-2.7v-5.4l-4.5-2.7l-4.5,2.7V48.7z"/><path class="ggTpsq2eE9" d="M1102,52.6l-5.5-3.4v-6.6l5.5-3.3l5.5,3.3v6.6L1102,52.6z M1097.5,48.7l4.5,2.7l4.5-2.7v-5.4l-4.5-2.7l-4.5,2.7V48.7z"/><path class="ggTpsq2eE9" d="M1093,52.6l-5.5-3.4v-6.6l5.5-3.3l5.5,3.3v6.6L1093,52.6z M1088.5,48.7l4.5,2.7l4.5-2.7v-5.4l-4.5-2.7l-4.5,2.7V48.7z"/><path class="ggTpsq2eE9" d="M1084,52.6l-5.5-3.4v-6.6l5.5-3.3l5.5,3.3v6.6L1084,52.6z M1079.5,48.7l4.5,2.7l4.5-2.7v-5.4l-4.5-2.7l-4.5,2.7V48.7z"/><path class="ggTpsq2eE9" d="M1075,52.6l-5.5-3.4v-6.6l5.5-3.3l5.5,3.3v6.6L1075,52.6z M1070.5,48.7l4.5,2.7l4.5-2.7v-5.4l-4.5-2.7l-4.5,2.7V48.7z"/><path class="ggTpsq2eE9" d="M1066,52.6l-5.5-3.4v-6.6l5.5-3.3l5.5,3.3v6.6L1066,52.6z M1061.5,48.7l4.5,2.7l4.5-2.7v-5.4l-4.5-2.7l-4.5,2.7V48.7z"/><path class="gosnQ9F70K" d="M1057,52.6l-5.5-3.4v-6.6l5.5-3.3l5.5,3.3v6.6L1057,52.6z M1052.5,48.7l4.5,2.7l4.5-2.7v-5.4l-4.5-2.7l-4.5,2.7V48.7z"/><path class="cIyywkS6w3" d="M1048,52.6l-5.5-3.4v-6.6l5.5-3.3l5.5,3.3v6.6L1048,52.6z M1043.5,48.7l4.5,2.7l4.5-2.7v-5.4l-4.5-2.7l-4.5,2.7V48.7z"/><path class="poIjgDdQ-R" d="M1039,52.6l-5.5-3.4v-6.6l5.5-3.3l5.5,3.3v6.6L1039,52.6z M1034.5,48.7l4.5,2.7l4.5-2.7v-5.4l-4.5-2.7l-4.5,2.7V48.7z"/><path class="eAII3lEhOe" d="M1030,52.6l-5.5-3.4v-6.6l5.5-3.3l5.5,3.3v6.6L1030,52.6z M1025.5,48.7l4.5,2.7l4.5-2.7v-5.4l-4.5-2.7l-4.5,2.7V48.7z"/><path class="qdmEGCQ67U" d="M1021,52.6l-5.5-3.4v-6.6l5.5-3.3l5.5,3.3v6.6L1021,52.6z M1016.5,48.7l4.5,2.7l4.5-2.7v-5.4l-4.5-2.7l-4.5,2.7V48.7z"/></g><g id="k1NxjqV0_e" class="sr2cJehLc4"><path class="ggTpsq2eE9" d="M1197,60.6l-5.5-3.4v-6.6l5.5-3.3l5.5,3.3v6.6L1197,60.6z M1192.5,56.7l4.5,2.7l4.5-2.7v-5.4l-4.5-2.7l-4.5,2.7V56.7z"/><path class="ggTpsq2eE9" d="M1188,60.6l-5.5-3.4v-6.6l5.5-3.3l5.5,3.3v6.6L1188,60.6z M1183.5,56.7l4.5,2.7l4.5-2.7v-5.4l-4.5-2.7l-4.5,2.7V56.7z"/><path class="ggTpsq2eE9" d="M1179,60.6l-5.5-3.4v-6.6l5.5-3.3l5.5,3.3v6.6L1179,60.6z M1174.5,56.7l4.5,2.7l4.5-2.7v-5.4l-4.5-2.7l-4.5,2.7V56.7z"/><path class="ggTpsq2eE9" d="M1170,60.6l-5.5-3.4v-6.6l5.5-3.3l5.5,3.3v6.6L1170,60.6z M1165.5,56.7l4.5,2.7l4.5-2.7v-5.4l-4.5-2.7l-4.5,2.7V56.7z"/><path class="ggTpsq2eE9" d="M1161,60.6l-5.5-3.4v-6.6l5.5-3.3l5.5,3.3v6.6L1161,60.6z M1156.5,56.7l4.5,2.7l4.5-2.7v-5.4l-4.5-2.7l-4.5,2.7V56.7z"/><path class="ggTpsq2eE9" d="M1152,60.6l-5.5-3.4v-6.6l5.5-3.3l5.5,3.3v6.6L1152,60.6z M1147.5,56.7l4.5,2.7l4.5-2.7v-5.4l-4.5-2.7l-4.5,2.7V56.7z"/><path class="ggTpsq2eE9" d="M1143,60.6l-5.5-3.4v-6.6l5.5-3.3l5.5,3.3v6.6L1143,60.6z M1138.5,56.7l4.5,2.7l4.5-2.7v-5.4l-4.5-2.7l-4.5,2.7V56.7z"/><path class="ggTpsq2eE9" d="M1134,60.6l-5.5-3.4v-6.6l5.5-3.3l5.5,3.3v6.6L1134,60.6z M1129.5,56.7l4.5,2.7l4.5-2.7v-5.4l-4.5-2.7l-4.5,2.7V56.7z"/><path class="ggTpsq2eE9" d="M1125,60.6l-5.5-3.4v-6.6l5.5-3.3l5.5,3.3v6.6L1125,60.6z M1120.5,56.7l4.5,2.7l4.5-2.7v-5.4l-4.5-2.7l-4.5,2.7V56.7z"/><path class="ggTpsq2eE9" d="M1116,60.6l-5.5-3.4v-6.6l5.5-3.3l5.5,3.3v6.6L1116,60.6z M1111.5,56.7l4.5,2.7l4.5-2.7v-5.4l-4.5-2.7l-4.5,2.7V56.7z"/><path class="ggTpsq2eE9" d="M1107,60.6l-5.5-3.4v-6.6l5.5-3.3l5.5,3.3v6.6L1107,60.6z M1102.5,56.7l4.5,2.7l4.5-2.7v-5.4l-4.5-2.7l-4.5,2.7V56.7z"/><path class="ggTpsq2eE9" d="M1098,60.6l-5.5-3.4v-6.6l5.5-3.3l5.5,3.3v6.6L1098,60.6z M1093.5,56.7l4.5,2.7l4.5-2.7v-5.4l-4.5-2.7l-4.5,2.7V56.7z"/><path class="ggTpsq2eE9" d="M1089,60.6l-5.5-3.4v-6.6l5.5-3.3l5.5,3.3v6.6L1089,60.6z M1084.5,56.7l4.5,2.7l4.5-2.7v-5.4l-4.5-2.7l-4.5,2.7V56.7z"/><path class="ggTpsq2eE9" d="M1080,60.6l-5.5-3.4v-6.6l5.5-3.3l5.5,3.3v6.6L1080,60.6z M1075.5,56.7l4.5,2.7l4.5-2.7v-5.4l-4.5-2.7l-4.5,2.7V56.7z"/><path class="ggTpsq2eE9" d="M1071,60.6l-5.5-3.4v-6.6l5.5-3.3l5.5,3.3v6.6L1071,60.6z M1066.5,56.7l4.5,2.7l4.5-2.7v-5.4l-4.5-2.7l-4.5,2.7V56.7z"/><path class="ggTpsq2eE9" d="M1062,60.6l-5.5-3.4v-6.6l5.5-3.3l5.5,3.3v6.6L1062,60.6z M1057.5,56.7l4.5,2.7l4.5-2.7v-5.4l-4.5-2.7l-4.5,2.7V56.7z"/><path class="ggTpsq2eE9" d="M1053,60.6l-5.5-3.4v-6.6l5.5-3.3l5.5,3.3v6.6L1053,60.6z M1048.5,56.7l4.5,2.7l4.5-2.7v-5.4l-4.5-2.7l-4.5,2.7V56.7z"/><path class="gosnQ9F70K" d="M1044,60.6l-5.5-3.4v-6.6l5.5-3.3l5.5,3.3v6.6L1044,60.6z M1039.5,56.7l4.5,2.7l4.5-2.7v-5.4l-4.5-2.7l-4.5,2.7V56.7z"/><path class="cIyywkS6w3" d="M1035,60.6l-5.5-3.4v-6.6l5.5-3.3l5.5,3.3v6.6L1035,60.6z M1030.5,56.7l4.5,2.7l4.5-2.7v-5.4l-4.5-2.7l-4.5,2.7V56.7z"/><path class="poIjgDdQ-R" d="M1026,60.6l-5.5-3.4v-6.6l5.5-3.3l5.5,3.3v6.6L1026,60.6z M1021.5,56.7l4.5,2.7l4.5-2.7v-5.4l-4.5-2.7l-4.5,2.7V56.7z"/><path class="eAII3lEhOe" d="M1017,60.6l-5.5-3.4v-6.6l5.5-3.3l5.5,3.3v6.6L1017,60.6z M1012.5,56.7l4.5,2.7l4.5-2.7v-5.4l-4.5-2.7l-4.5,2.7V56.7z"/><path class="qdmEGCQ67U" d="M1008,60.6l-5.5-3.4v-6.6l5.5-3.3l5.5,3.3v6.6L1008,60.6z M1003.5,56.7l4.5,2.7l4.5-2.7v-5.4l-4.5-2.7l-4.5,2.7V56.7z"/></g><g id="sUY0fjEfUP" class="u1hRWL9vZ4"><path class="ggTpsq2eE9" d="M1183,68.6l-5.5-3.4v-6.6l5.5-3.3l5.5,3.3v6.6L1183,68.6z M1178.5,64.7l4.5,2.7l4.5-2.7v-5.4l-4.5-2.7l-4.5,2.7V64.7z"/><path class="ggTpsq2eE9" d="M1174,68.6l-5.5-3.4v-6.6l5.5-3.3l5.5,3.3v6.6L1174,68.6z M1169.5,64.7l4.5,2.7l4.5-2.7v-5.4l-4.5-2.7l-4.5,2.7V64.7z"/><path class="ggTpsq2eE9" d="M1165,68.6l-5.5-3.4v-6.6l5.5-3.3l5.5,3.3v6.6L1165,68.6z M1160.5,64.7l4.5,2.7l4.5-2.7v-5.4l-4.5-2.7l-4.5,2.7V64.7z"/><path class="ggTpsq2eE9" d="M1156,68.6l-5.5-3.4v-6.6l5.5-3.3l5.5,3.3v6.6L1156,68.6z M1151.5,64.7l4.5,2.7l4.5-2.7v-5.4l-4.5-2.7l-4.5,2.7V64.7z"/><path class="ggTpsq2eE9" d="M1147,68.6l-5.5-3.4v-6.6l5.5-3.3l5.5,3.3v6.6L1147,68.6z M1142.5,64.7l4.5,2.7l4.5-2.7v-5.4l-4.5-2.7l-4.5,2.7V64.7z"/><path class="ggTpsq2eE9" d="M1138,68.6l-5.5-3.4v-6.6l5.5-3.3l5.5,3.3v6.6L1138,68.6z M1133.5,64.7l4.5,2.7l4.5-2.7v-5.4l-4.5-2.7l-4.5,2.7V64.7z"/><path class="ggTpsq2eE9" d="M1129,68.6l-5.5-3.4v-6.6l5.5-3.3l5.5,3.3v6.6L1129,68.6z M1124.5,64.7l4.5,2.7l4.5-2.7v-5.4l-4.5-2.7l-4.5,2.7V64.7z"/><path class="ggTpsq2eE9" d="M1120,68.6l-5.5-3.4v-6.6l5.5-3.3l5.5,3.3v6.6L1120,68.6z M1115.5,64.7l4.5,2.7l4.5-2.7v-5.4l-4.5-2.7l-4.5,2.7V64.7z"/><path class="ggTpsq2eE9" d="M1111,68.6l-5.5-3.4v-6.6l5.5-3.3l5.5,3.3v6.6L1111,68.6z M1106.5,64.7l4.5,2.7l4.5-2.7v-5.4l-4.5-2.7l-4.5,2.7V64.7z"/><path class="ggTpsq2eE9" d="M1102,68.6l-5.5-3.4v-6.6l5.5-3.3l5.5,3.3v6.6L1102,68.6z M1097.5,64.7l4.5,2.7l4.5-2.7v-5.4l-4.5-2.7l-4.5,2.7V64.7z"/><path class="ggTpsq2eE9" d="M1093,68.6l-5.5-3.4v-6.6l5.5-3.3l5.5,3.3v6.6L1093,68.6z M1088.5,64.7l4.5,2.7l4.5-2.7v-5.4l-4.5-2.7l-4.5,2.7V64.7z"/><path class="ggTpsq2eE9" d="M1084,68.6l-5.5-3.4v-6.6l5.5-3.3l5.5,3.3v6.6L1084,68.6z M1079.5,64.7l4.5,2.7l4.5-2.7v-5.4l-4.5-2.7l-4.5,2.7V64.7z"/><path class="ggTpsq2eE9" d="M1075,68.6l-5.5-3.4v-6.6l5.5-3.3l5.5,3.3v6.6L1075,68.6z M1070.5,64.7l4.5,2.7l4.5-2.7v-5.4l-4.5-2.7l-4.5,2.7V64.7z"/><path class="ggTpsq2eE9" d="M1066,68.6l-5.5-3.4v-6.6l5.5-3.3l5.5,3.3v6.6L1066,68.6z M1061.5,64.7l4.5,2.7l4.5-2.7v-5.4l-4.5-2.7l-4.5,2.7V64.7z"/><path class="ggTpsq2eE9" d="M1057,68.6l-5.5-3.4v-6.6l5.5-3.3l5.5,3.3v6.6L1057,68.6z M1052.5,64.7l4.5,2.7l4.5-2.7v-5.4l-4.5-2.7l-4.5,2.7V64.7z"/><path class="ggTpsq2eE9" d="M1048,68.6l-5.5-3.4v-6.6l5.5-3.3l5.5,3.3v6.6L1048,68.6z M1043.5,64.7l4.5,2.7l4.5-2.7v-5.4l-4.5-2.7l-4.5,2.7V64.7z"/><path class="ggTpsq2eE9" d="M1039,68.6l-5.5-3.4v-6.6l5.5-3.3l5.5,3.3v6.6L1039,68.6z M1034.5,64.7l4.5,2.7l4.5-2.7v-5.4l-4.5-2.7l-4.5,2.7V64.7z"/><path class="ggTpsq2eE9" d="M1030,68.6l-5.5-3.4v-6.6l5.5-3.3l5.5,3.3v6.6L1030,68.6z M1025.5,64.7l4.5,2.7l4.5-2.7v-5.4l-4.5-2.7l-4.5,2.7V64.7z"/><path class="ggTpsq2eE9" d="M1021,68.6l-5.5-3.4v-6.6l5.5-3.3l5.5,3.3v6.6L1021,68.6z M1016.5,64.7l4.5,2.7l4.5-2.7v-5.4l-4.5-2.7l-4.5,2.7V64.7z"/><path class="ggTpsq2eE9" d="M1012,68.6l-5.5-3.4v-6.6l5.5-3.3l5.5,3.3v6.6L1012,68.6z M1007.5,64.7l4.5,2.7l4.5-2.7v-5.4l-4.5-2.7l-4.5,2.7V64.7z"/><path class="ggTpsq2eE9" d="M1003,68.6l-5.5-3.4v-6.6l5.5-3.3l5.5,3.3v6.6L1003,68.6z M998.5,64.7l4.5,2.7l4.5-2.7v-5.4l-4.5-2.7l-4.5,2.7V64.7z"/><path class="ggTpsq2eE9" d="M994,68.6l-5.5-3.4v-6.6l5.5-3.3l5.5,3.3v6.6L994,68.6z M989.5,64.7l4.5,2.7l4.5-2.7v-5.4l-4.5-2.7l-4.5,2.7V64.7z"/></g></g><style>.y2ps76r2eR { fill: url(#f9GVYGtcmj);}.nOtHvNygOl { fill: url(#zcDd2Uj97M);}.hEZKKWfE2_ { opacity: 0.32; enable-background: new;}.p8zKqQLKZo { fill-rule: evenodd; clip-rule: evenodd; fill: url(#eIGVjgnaDT);}.yPBND7nZir { fill: url(#n5UGoJ9qjJ);}.xdIhA4C1oA { opacity: 0.8; fill: var(--theme-groups-0); enable-background: new;}.q7PZgY1RFT { opacity: 0.45; fill: var(--theme-groups-0); enable-background: new;}.vjRDPcX5mB { opacity: 0.32; fill: url(#zBKcbHd0Rm); enable-background: new;}.eA_ooUkxLW { fill: var(--theme-groups-0);}.gsbMKjzbcg { opacity: 0.7;}.znJXGfNMEK { opacity: 0.5; fill: var(--theme-groups-0); enable-background: new;}.zTMXZI_FD9 { opacity: 0.55; fill: var(--theme-groups-0); enable-background: new;}.t2G5391FjI { opacity: 0.7; fill: var(--theme-groups-0); enable-background: new;}.sI6zpkPzDj { opacity: 0.55; fill-rule: evenodd; clip-rule: evenodd; fill: var(--theme-groups-0); enable-background: new;}.tjUk6pCjlm { opacity: 0.6; fill-rule: evenodd; clip-rule: evenodd; fill: url(#kQzb9dy4i4); enable-background: new;}.tWdvX6hkTI { opacity: 0.16; fill-rule: evenodd; clip-rule: evenodd; fill: url(#edmb_EvAAL); enable-background: new;}.zBkqNDNfi0 { opacity: 0.35; fill: var(--theme-groups-0); enable-background: new;}.moayWiLdqj { opacity: 0.6; fill-rule: evenodd; clip-rule: evenodd; fill: url(#a-U7CQfVGO); enable-background: new;}.wM4PEH_FsZ { opacity: 0.16; fill-rule: evenodd; clip-rule: evenodd; fill: url(#eHbLcLe-4u); enable-background: new;}.f7H_vzI0gE { opacity: 0.36; fill-rule: evenodd; clip-rule: evenodd; fill: url(#dTydwpWlv5); enable-background: new;}.tN2FFA8CZL { fill-rule: evenodd; clip-rule: evenodd; fill: url(#uSzHMdwhiE);}.h-vM6zxH7h { opacity: 0.55; fill: url(#cZ8406V9Hm); enable-background: new;}.eIuN9DIxUT { fill-rule: evenodd; clip-rule: evenodd;}.x7pLZ2ehlU { opacity: 0.36; fill-rule: evenodd; clip-rule: evenodd; fill: url(#p8Xf_Ohj6U); enable-background: new;}.pEJP-pa-Ac { fill-rule: evenodd; clip-rule: evenodd; fill: url(#gC8sdYy7r-);}.A826uD0D6- { opacity: 0.55; fill: url(#zoFeC0CMQQ); enable-background: new;}.ktItO1aix8 { opacity: 0.22;}.ggTpsq2eE9 { fill: var(--theme-groups-3);}.cIyywkS6w3 { opacity: 0.6; fill: var(--theme-groups-3); enable-background: new;}.poIjgDdQ-R { opacity: 0.5; fill: var(--theme-groups-3); enable-background: new;}.eAII3lEhOe { opacity: 0.4; fill: var(--theme-groups-3); enable-background: new;}.qdmEGCQ67U { opacity: 0.3; fill: var(--theme-groups-3); enable-background: new;}.eFaM1CISN6 { opacity: 0.2;}.gosnQ9F70K { opacity: 0.7; fill: var(--theme-groups-3); enable-background: new;}.o5v8Um3U_h { opacity: 0.18;}.kR8XX0AD8p { opacity: 0.79; fill: var(--theme-groups-3); enable-background: new;}.aZVwqaMrTe { opacity: 0.15;}.s4JeSovOqa { opacity: 0.12;}.o0Eqmyp0xp { opacity: 0.1;}.sr2cJehLc4 { }.u1hRWL9vZ4 { }</style></svg>