<svg id="ykcUOM20Za" xmlns="http://www.w3.org/2000/svg" xmlns:xlink="http://www.w3.org/1999/xlink" viewBox="0 0 1878 87" x="0px" y="0px" xml:space="preserve"><defs><linearGradient id="hJhb49YCmx" x1="1057" y1="-1379" x2="1057" y2="-1297" gradientTransform="matrix(1, 0, 0, -1, -118, -1297)" gradientUnits="userSpaceOnUse"><stop offset="0" style="stop-color:var(--theme-groups-0);"/><stop offset="1" style="stop-color:var(--theme-groups-0);stop-opacity:0;"/></linearGradient><linearGradient id="fkWeEdjcg_" x1="856" y1="-1375" x2="1257" y2="-1375" gradientTransform="matrix(1, 0, 0, -1, -118, -1297)" gradientUnits="userSpaceOnUse"><stop offset="0" style="stop-color:var(--theme-groups-1);stop-opacity:0;"/><stop offset="0.5" style="stop-color:var(--theme-groups-1);"/><stop offset="0.5" style="stop-color:var(--theme-groups-1);"/><stop offset="1" style="stop-color:var(--theme-groups-1);stop-opacity:0;"/></linearGradient><linearGradient id="wyuqEriZps" y1="-1382.5" y2="-1382.5" xlink:href="#fkWeEdjcg_"/><linearGradient id="dCcbkC8Ohw" x1="888" y1="-1378.5" x2="855" y2="-1378.5" gradientTransform="matrix(1, 0, 0, -1, -118, -1297)" gradientUnits="userSpaceOnUse"><stop offset="0" style="stop-color:var(--theme-groups-0);"/><stop offset="1" style="stop-color:var(--theme-groups-0);stop-opacity:0.3;"/></linearGradient><linearGradient id="jyB1eNyVX8" x1="1223" y1="-1378.5" x2="1256" y2="-1378.5" gradientTransform="matrix(1, 0, 0, -1, -118, -1297)" gradientUnits="userSpaceOnUse"><stop offset="0" style="stop-color:var(--theme-groups-0);"/><stop offset="0.99" style="stop-color:var(--theme-groups-0);stop-opacity:0.3;"/><stop offset="1" style="stop-color:var(--theme-groups-0);"/></linearGradient><linearGradient id="wBOB0QcvIN" x1="652.5" y1="-1361" x2="652.5" y2="-1345" gradientTransform="matrix(1, 0, 0, -1, -118, -1297)" gradientUnits="userSpaceOnUse"><stop offset="0" style="stop-color:var(--theme-groups-0);"/><stop offset="0" style="stop-color:var(--theme-groups-0);"/><stop offset="1" style="stop-color:var(--theme-groups-0);stop-opacity:0;"/></linearGradient><linearGradient id="kjugXRQ0Bl" x1="815.01" y1="-1331.09" x2="590" y2="-1331.09" gradientTransform="matrix(1, 0, 0, -1, -118, -1297)" gradientUnits="userSpaceOnUse"><stop offset="0" style="stop-color:var(--theme-groups-0);"/><stop offset="1" style="stop-color:var(--theme-groups-0);stop-opacity:0;"/></linearGradient><linearGradient id="luXpkXrpwk" x1="1462.3" y1="-1361.47" x2="1462.3" y2="-1345.28" xlink:href="#wBOB0QcvIN"/><linearGradient id="d0GoY6X9mR" x1="1299.7" y1="-1331.22" x2="1524.68" y2="-1331.22" xlink:href="#kjugXRQ0Bl"/><linearGradient id="oulrJJukmI" x1="1058.5" y1="-1376.05" x2="1058.5" y2="-1320.84" gradientTransform="matrix(1, 0, 0, -1, -118, -1297)" gradientUnits="userSpaceOnUse"><stop offset="0" style="stop-color:var(--theme-groups-1);"/><stop offset="0" style="stop-color:var(--theme-groups-1);"/><stop offset="1" style="stop-color:var(--theme-groups-1);stop-opacity:0;"/></linearGradient><linearGradient id="b_Wl1Wn0p2" y1="-1376.06" y2="-1320.84" xlink:href="#oulrJJukmI"/><linearGradient id="dupuUpfo5F" x1="341.91" y1="-1360.02" x2="855.28" y2="-1360.02" gradientTransform="matrix(1, 0, 0, -1, -118, -1297)" gradientUnits="userSpaceOnUse"><stop offset="0" style="stop-color:var(--theme-groups-1);stop-opacity:0;"/><stop offset="0.51" style="stop-color:var(--theme-groups-1);"/><stop offset="0.51" style="stop-color:var(--theme-groups-1);"/><stop offset="1" style="stop-color:var(--theme-groups-1);stop-opacity:0;"/></linearGradient><linearGradient id="xoCBrkNzz7" x1="562.73" y1="-1350" x2="349.99" y2="-1350" xlink:href="#oulrJJukmI"/><linearGradient id="oVh07BUZpA" x1="542.75" y1="-1346.03" x2="527.78" y2="-1346.03" xlink:href="#oulrJJukmI"/><linearGradient id="oJ5S_YuQ0t" x1="547.75" y1="-1346.03" x2="542.75" y2="-1346.03" gradientTransform="matrix(1, 0, 0, -1, -118, -1297)" gradientUnits="userSpaceOnUse"><stop offset="0" style="stop-color:var(--theme-groups-1);"/><stop offset="1" style="stop-color:var(--theme-groups-1);stop-opacity:0;"/></linearGradient><linearGradient id="oLseHBtU4R" x1="1253.01" y1="-1360" x2="1767.42" y2="-1360" xlink:href="#dupuUpfo5F"/><linearGradient id="kmwOCt9uI4" x1="1545.96" y1="-1349.99" x2="1758.99" y2="-1349.99" xlink:href="#oulrJJukmI"/><linearGradient id="lO38op2sFb" x1="1566" y1="-1346.03" x2="1581" y2="-1346.03" xlink:href="#oulrJJukmI"/><linearGradient id="xWsvSV53Eo" x1="1561" y1="-1346.03" x2="1566" y2="-1346.03" xlink:href="#oulrJJukmI"/></defs><g id="fsdqpKG9IS"><path id="yP92rynEcD" d="M0,20,609,82l30-23,70,3,30,17,398-1,25-15,72-5,31,24,613-60V0H0Z" style="fill:url(#hJhb49YCmx);fill-rule:evenodd;opacity:0.25;isolation: isolate"/><path id="ga7Qnx1TEo" d="M738,77h401v2H738V77Z" style="fill:url(#fkWeEdjcg_);fill-rule:evenodd;"/><path id="sf4kDY89NY" d="M738,84h401v3H738V84Z" style="fill:url(#wyuqEriZps);fill-rule:evenodd;opacity:0.3;isolation: isolate"/><path id="sdA7zX9BJX" data-name="矩形 701 拷贝 2" d="M740,79h8l-3,5h-8l3-5Zm11,0h8l-3,5h-8l3-5Zm11,0h8l-3,5h-8l3-5Z" style="fill:url(#dCcbkC8Ohw);fill-rule:evenodd;opacity:0.6;isolation: isolate"/><path id="qzaMl73Nwv" data-name="矩形 701 拷贝 2-2" d="M1135,79h-8l3,5h8l-3-5Zm-11,0h-8l3,5h8l-3-5Zm-11,0h-8l3,5h8l-3-5Z" style="fill:url(#jyB1eNyVX8);fill-rule:evenodd;opacity:0.6;isolation: isolate"/><path id="pst4pgsuYY" data-name="形状 2" d="M745,26l50,52s135.23,2.37,289,0l52-54.16" fill-opacity="0.3" style="fill:url(#oulrJJukmI);fill-rule:evenodd;stroke:url(#b_Wl1Wn0p2);stroke-width:2;opacity:0.5;isolation: isolate"/><g id="h7-IZgowIL" data-name="组 72"><path id="xw9ISA9ZRj" data-name="形状 710" d="M460,48,609,64" style="fill:none;stroke:url(#wBOB0QcvIN);stroke-width:3;opacity:0.5;isolation: isolate"/><path id="c45nm44K-k" data-name="形状 710 拷贝" d="M574.56,60.3,609,64" style="fill:none;stroke:var(--theme-groups-1);stroke-width:3;opacity:0.8;isolation: isolate"/><path id="sUqOwLSxFB" data-name="形状 711" d="M678,43.62,472,32l225-7.44Z" style="fill:url(#kjugXRQ0Bl);fill-rule:evenodd;opacity:0.3;isolation: isolate"/><path id="wFh0MikRFr" data-name="形状 711 拷贝 3" d="M706.36,24.27l5.68-.19L691.86,44.36l-5.19-.29Z" style="fill:var(--theme-groups-0);fill-rule:evenodd;opacity:0.3;isolation: isolate"/><path id="nMeydd5HHd" data-name="形状 711 拷贝 2" d="M704.11,45.06l-7.08-.4L717.68,23.9l7.73-.26Z" style="fill:var(--theme-groups-1);fill-rule:evenodd;opacity:0.6;isolation: isolate"/><path id="AWyUHDkMtl" data-name="形状 711 拷贝" d="M732.08,23.42,743.69,23,719.82,46l-9.61-.6Z" style="fill:var(--theme-groups-3);fill-rule:evenodd;opacity:0.8;isolation: isolate"/></g><g id="uJflLuUVsh" data-name="组 72 拷贝"><path id="om412a-0SR" data-name="形状 710-2" d="M1418.84,48.29,1269.76,64.48" style="fill:none;stroke:url(#luXpkXrpwk);stroke-width:3;opacity:0.5;isolation: isolate"/><path id="jtZ1XVLY_Z" data-name="形状 710 拷贝-2" d="M1303.91,60.77l-34.15,3.71" style="fill:none;stroke:var(--theme-groups-1);stroke-width:3;opacity:0.8;isolation: isolate"/><path id="mltqysIYGy" data-name="形状 711-2" d="M1200.7,43.86l206-11.75-225-7.53Z" style="fill:url(#d0GoY6X9mR);fill-rule:evenodd;opacity:0.3;isolation: isolate"/><path id="zLVvWRutR5" data-name="形状 711 拷贝 3-2" d="M1172.34,24.29l-5.67-.2,20.18,20.52,5.2-.29Z" style="fill:var(--theme-groups-0);fill-rule:evenodd;opacity:0.3;isolation: isolate"/><path id="p8k4egsroD" data-name="形状 711 拷贝 2-2" d="M1174.6,45.32l7.08-.41-20.66-21-7.73-.26Z" style="fill:var(--theme-groups-1);fill-rule:evenodd;opacity:0.6;isolation: isolate"/><path id="vPGiw6wq80" data-name="形状 711 拷贝-2" d="M1146.62,23.42,1135,23l23.88,23.27,9.61-.61Z" style="fill:var(--theme-groups-3);fill-rule:evenodd;opacity:0.8;isolation: isolate"/></g></g><g id="yxWIk6CLNt"><path id="y0329iLecU" d="M224,45,609.53,81l29-22,71.91,4,27,15" style="fill:none;stroke:url(#dupuUpfo5F);stroke-width:2;"/><path id="bJYkzOe2MC" d="M232,44,444.73,62l-12-18Z" style="fill:url(#xoCBrkNzz7);fill-rule:evenodd;opacity:0.3;isolation: isolate"/><path id="jIIQwXMTkw" d="M409.78,48s11.33-.12,13,0,2,3,2,3" style="fill:none;stroke:url(#oVh07BUZpA);stroke-width:2;"/><path id="i72DM9xTx6" d="M424.76,48a21.45,21.45,0,0,1,3,0c1.65.12,2,3,2,3" style="fill:none;stroke:url(#oJ5S_YuQ0t);stroke-width:2;"/></g><g id="cy5n3KMeGF"><path id="fzit1SAALv" d="M1649.91,45,1263.6,81l-29-22-72.06,4-27,15" style="fill:none;stroke:url(#oLseHBtU4R);stroke-width:2;"/><path id="irsh2PywIH" d="M1641,44,1428,62l12-18Z" style="fill:url(#kmwOCt9uI4);fill-rule:evenodd;opacity:0.3;isolation: isolate"/><path id="fyTfwRmVUg" d="M1463,48s-11.35-.12-13,0-2,3-2,3" style="fill:none;stroke:url(#lO38op2sFb);stroke-width:2;"/><path id="lRoWZQxXZE" d="M1448,48a21.45,21.45,0,0,0-3,0c-1.66.11-2,3-2,3" style="fill:none;stroke:url(#xWsvSV53Eo);stroke-width:2;"/></g><style/></svg>