<svg id="ht9BUNeaDS" xmlns="http://www.w3.org/2000/svg" xmlns:xlink="http://www.w3.org/1999/xlink" viewBox="0 0 1920 80" x="0px" y="0px" xml:space="preserve"><path class="zndoV_wr6S" d="M591.3,0l60.5,66.9c3,3.3,7.2,5.2,11.7,5.2h72l5.5,3.3c2.8,1.7,5.9,2.9,9.1,3.6h3.1h412.9l4-0.7c2.5-0.7,5-1.8,7.1-3.3l4.2-2.9h72.4c4.2,0,8.2-1.8,11.1-4.9L1325.6,0H591.3z"/><path class="bQaWZGqzEh" d="M591.3,0l60.5,66.9c3,3.3,7.2,5.2,11.7,5.2h72"/><path class="imhmYtup4g" d="M602.9,0l54.4,60.2c3,3.3,7.2,5.2,11.7,5.2h60.9"/><path class="egn6HXHrWZ" d="M1325.6,0l-60.5,66.9c-3,3.3-7.2,5.2-11.7,5.2h-72"/><path class="lIOuM34AN8" d="M1314,0l-54.4,60.2c-3,3.3-7.2,5.2-11.7,5.2H1187"/><path class="qEwCbNV0jx" d="M674.6,0l60.9,70.9c4.4,5.2,10.9,8.1,17.7,8.1h411.6c6.9,0,13.5-3.1,17.9-8.4L1241.8,0H674.6z"/><path class="mFJ9fw94SE" d="M674.6,0l60.9,70.9c4.4,5.2,10.9,8.1,17.7,8.1h411.6c6.9,0,13.5-3.1,17.9-8.4L1241.8,0H674.6z"/><path class="zVPOGwyRxl" d="M674.6,0l60.9,70.9c4.4,5.2,10.9,8.1,17.7,8.1h411.6c6.9,0,13.5-3.1,17.9-8.4L1242.6-1"/><path class="vezfLt1kdz" d="M632.1,68.6c0,0-13.8-5.2-31.4-27.1c-17.6-21.9-31.3-21.9-78.8-21.9c-47.6,0-521.9,0-521.9,0"/><path class="orwLLfPoSP" d="M0,28.3h507h54.8c17.5,0,34.3,7.1,46.3,19.9c8.4,9,18.4,18.1,25.9,20.4"/><path class="sxYOPSDdzF" d="M597.2,72.1H615l-23.4-26.6c-5.3-6-12.9-9.5-20.9-9.5H564L597.2,72.1z"/><path class="wpWZye7wMC" d="M1282.9,68.6c0,0,13.8-5.2,31.4-27.1s31.3-21.9,78.8-21.9s521.9,0,521.9,0"/><path class="rcUn4Wh113" d="M1915,28.3h-507h-54.8c-17.5,0-34.3,7.1-46.3,19.9c-8.4,9-18.4,18.1-25.9,20.4"/><path class="sxYOPSDdzF" d="M1317.7,72.1H1300l23.4-26.6c5.3-6,12.9-9.5,20.9-9.5h6.7L1317.7,72.1z"/><linearGradient id="e4ZBnS5P17" gradientUnits="userSpaceOnUse" x1="590.9291" y1="36.1323" x2="735.5" y2="36.1323"><stop offset="0" style="stop-color:var(--theme-groups-1);stop-opacity: 0"/><stop offset="1" style="stop-color:var(--theme-groups-1);"/></linearGradient><linearGradient id="ACPSFzOgNk" gradientUnits="userSpaceOnUse" x1="602.5291" y1="32.7824" x2="729.9001" y2="32.7824"><stop offset="0" style="stop-color:var(--theme-groups-1);stop-opacity: 0"/><stop offset="1" style="stop-color:var(--theme-groups-1);"/></linearGradient><linearGradient id="vgP2CC4fJJ" gradientUnits="userSpaceOnUse" x1="1333.0275" y1="14.1864" x2="1189.0184" y2="87.5537"><stop offset="0" style="stop-color:var(--theme-groups-1);stop-opacity: 0"/><stop offset="1" style="stop-color:var(--theme-groups-1);"/></linearGradient><linearGradient id="fAKqjP6JyH" gradientUnits="userSpaceOnUse" x1="1321.0767" y1="14.2475" x2="1192.0736" y2="76.4263"><stop offset="0" style="stop-color:var(--theme-groups-1);stop-opacity: 0"/><stop offset="1" style="stop-color:var(--theme-groups-1);"/></linearGradient><linearGradient id="n_ce2LNnrL" gradientUnits="userSpaceOnUse" x1="958.6396" y1="-4.0416" x2="957.9127" y2="81.7357"><stop offset="0" style="stop-color:var(--theme-groups-1);stop-opacity: 0"/><stop offset="1" style="stop-color:var(--theme-groups-1);"/></linearGradient><linearGradient id="aotDa3w0Ve" gradientUnits="userSpaceOnUse" x1="-6.103516e-05" y1="35.9161" x2="632.2763" y2="35.9161" gradientTransform="matrix(1 0 0 -1 0 80)"><stop offset="0" style="stop-color:var(--theme-groups-2);stop-opacity: 0"/><stop offset="0.5262" style="stop-color:var(--theme-groups-2);"/><stop offset="1" style="stop-color:var(--theme-groups-2);stop-opacity: 0"/></linearGradient><linearGradient id="lJVDqjvsJX" gradientUnits="userSpaceOnUse" x1="0" y1="31.561" x2="634.1466" y2="31.561" gradientTransform="matrix(1 0 0 -1 0 80)"><stop offset="0" style="stop-color:var(--theme-groups-2);stop-opacity: 0"/><stop offset="0.5262" style="stop-color:var(--theme-groups-2);"/><stop offset="1" style="stop-color:var(--theme-groups-2);stop-opacity: 0"/></linearGradient><linearGradient id="rki3mgtgQP" gradientUnits="userSpaceOnUse" x1="0" y1="25.95" x2="305.9" y2="25.95" gradientTransform="matrix(1 0 0 -1 0 80)"><stop offset="0" style="stop-color:var(--theme-groups-0);stop-opacity: 0"/><stop offset="1" style="stop-color:var(--theme-groups-0);"/></linearGradient><linearGradient id="wmyy7F6-O4" gradientUnits="userSpaceOnUse" x1="-0.5" y1="25.95" x2="307.0508" y2="25.95" gradientTransform="matrix(1 0 0 -1 0 80)"><stop offset="0" style="stop-color:var(--theme-groups-0);stop-opacity: 0"/><stop offset="1" style="stop-color:var(--theme-groups-0);"/></linearGradient><linearGradient id="q2rHjX3MAt" gradientUnits="userSpaceOnUse" x1="1282.7238" y1="44.0839" x2="1915.0001" y2="44.0839"><stop offset="0" style="stop-color:var(--theme-groups-2);stop-opacity: 0"/><stop offset="0.5262" style="stop-color:var(--theme-groups-2);"/><stop offset="1" style="stop-color:var(--theme-groups-2);stop-opacity: 0"/></linearGradient><linearGradient id="kDHbu8hzco" gradientUnits="userSpaceOnUse" x1="1280.8533" y1="31.561" x2="1915" y2="31.561" gradientTransform="matrix(1 0 0 -1 0 80)"><stop offset="0" style="stop-color:var(--theme-groups-2);stop-opacity: 0"/><stop offset="0.5262" style="stop-color:var(--theme-groups-2);"/><stop offset="1" style="stop-color:var(--theme-groups-2);stop-opacity: 0"/></linearGradient><linearGradient id="fSZnv17dIU" gradientUnits="userSpaceOnUse" x1="1914.3268" y1="26.0523" x2="1627.4547" y2="25.8306" gradientTransform="matrix(1 0 0 -1 0 80)"><stop offset="0" style="stop-color:var(--theme-groups-0);stop-opacity: 0"/><stop offset="1" style="stop-color:var(--theme-groups-0);"/></linearGradient><linearGradient id="kFX8doWXhd" gradientUnits="userSpaceOnUse" x1="1915.6498" y1="27.1281" x2="1607.8043" y2="24.4743" gradientTransform="matrix(1 0 0 -1 0 80)"><stop offset="0" style="stop-color:var(--theme-groups-0);stop-opacity: 0"/><stop offset="1" style="stop-color:var(--theme-groups-0);"/></linearGradient><polyline class="e67AVe_piT" points="632.1,0 643.1,12.4 658,12.4 692.1,51.9 718.3,51.9 "/><polyline class="pB4PGb45s7" points="1284.8,0 1273.8,12.4 1258.9,12.4 1224.8,51.9 1198.6,51.9 "/><line class="e67AVe_piT" x1="652.2" y1="17.1" x2="681.7" y2="51.9"/><line class="pB4PGb45s7" x1="1264.7" y1="17.1" x2="1235.2" y2="51.9"/><rect x="762" y="26" class="bxv4m6Md06" width="4.7" height="4.7"/><rect x="785.1" y="26.8" class="k2uXgCP2GP" width="4.7" height="4.7"/><rect x="825.1" y="34.3" class="pIRoMtIiX0" width="4.7" height="4.7"/><rect x="832.5" y="13.5" class="jlPuJToJJz" width="4.7" height="4.7"/><rect x="816.5" y="6.9" class="lpo1kpAot2" width="4.7" height="4.7"/><rect x="778.8" y="50.3" class="g-eWbfVImt" width="4.7" height="4.7"/><rect x="763.6" y="57.6" class="bxv4m6Md06" width="4.7" height="4.7"/><rect x="804.1" y="61.6" class="lpo1kpAot2" width="4.7" height="4.7"/><rect x="795.4" y="63.9" class="lpo1kpAot2" width="4.7" height="4.7"/><rect x="821.2" y="46.4" class="AFuoI8B5kP" width="4.7" height="4.7"/><rect x="850.6" y="32.7" class="bxv4m6Md06" width="4.7" height="4.7"/><rect x="860.8" y="53" class="hgcCZEpyky" width="4.7" height="4.7"/><rect x="853.9" y="70.9" class="oTAlhegOQd" width="4.7" height="4.7"/><rect x="878.7" y="37.7" class="gNlPZU_FWt" width="4.7" height="4.7"/><rect x="860.4" y="52.7" class="ysmR5MLuK1" width="4.7" height="4.7"/><rect x="883.4" y="54.3" class="c4owJvH4Q0" width="4.7" height="4.7"/><rect x="871.2" y="19.2" class="rLdN_tveRK" width="4.7" height="4.7"/><rect x="871.8" y="6.2" class="c4owJvH4Q0" width="3.1" height="3.1"/><rect x="888.9" y="9.3" class="ssVS5KSgjP" width="4.6" height="4.6"/><rect x="891.2" y="31.1" class="bxv4m6Md06" width="4.7" height="4.7"/><rect x="902.3" y="3.9" class="qE5jZ7kzv6" width="4.7" height="4.7"/><rect x="906.4" y="17.6" class="jabS_oav_r" width="4.7" height="4.7"/><rect x="917.3" y="46.4" class="bxv4m6Md06" width="4.7" height="4.7"/><rect x="923.6" y="61.2" class="lpo1kpAot2" width="4.7" height="4.7"/><rect x="961.6" y="61.2" class="rntDBnNSEw" width="4.7" height="4.7"/><rect x="969.1" y="42.3" class="sD38u62FJt" width="4.7" height="4.7"/><rect x="936.5" y="28.4" class="c4tqV3yMG5" width="4.7" height="4.7"/><rect x="964.5" y="28.7" class="izYpBBlgnq" width="4.7" height="4.7"/><rect x="965.8" y="10.3" class="bxv4m6Md06" width="4.7" height="4.7"/><rect x="987" y="9.1" class="rntDBnNSEw" width="4.7" height="4.7"/><rect x="1003.1" y="10.6" class="AFuoI8B5kP" width="4.7" height="4.7"/><rect x="996.6" y="30.7" class="e4LU8QNJel" width="4.7" height="4.7"/><rect x="989.9" y="49.3" class="njW_KYbVNw" width="4.7" height="4.7"/><rect x="1035.5" y="36.4" class="cIiYhoVVLD" width="4.7" height="4.7"/><rect x="1043" y="19.4" class="fFjv7tiuVU" width="4.7" height="4.7"/><rect x="1056.9" y="33.4" class="qMQtPiybRk" width="4.7" height="4.7"/><rect x="1051.9" y="66" class="k2uXgCP2GP" width="4.7" height="4.7"/><rect x="1025.5" y="58.7" class="kodOgpeHKa" width="4.7" height="4.7"/><rect x="1020.4" y="68.4" class="zV5KMHmfOq" width="4.7" height="4.7"/><rect x="1074.6" y="45" class="e_oqLZDSqG" width="4.7" height="4.7"/><rect x="1100.8" y="9.2" class="k2uXgCP2GP" width="4.7" height="4.7"/><rect x="1065.4" y="19.4" class="AzRXQi3mVD" width="4.7" height="4.7"/><rect x="1096" y="39.3" class="bxv4m6Md06" width="4.7" height="4.7"/><rect x="1107.7" y="26.8" class="oTAlhegOQd" width="4.7" height="4.7"/><rect x="1141.4" y="19.9" class="lpo1kpAot2" width="4.7" height="4.7"/><rect x="1161.4" y="16" class="bxv4m6Md06" width="4.7" height="4.7"/><rect x="1158" y="46.5" class="oTAlhegOQd" width="4.7" height="4.7"/><rect x="1140.9" y="45.9" class="kodOgpeHKa" width="4.7" height="4.7"/><rect x="1108.3" y="65.4" class="bd58rfqm3Y" width="4.7" height="4.7"/><rect x="1092.2" y="65.4" class="oTAlhegOQd" width="4.7" height="4.7"/><polygon class="sxYOPSDdzF" points="568.2,72.1 585.9,72.1 554.2,36 534.9,36 "/><polygon class="sxYOPSDdzF" points="537.6,72.1 555.3,72.1 523.6,36 504.3,36 "/><polygon class="sxYOPSDdzF" points="505.7,72.1 523.4,72.1 491.7,36 472.4,36 "/><polygon class="sxYOPSDdzF" points="474.4,72.1 492.1,72.1 460.4,36 441.1,36 "/><polygon class="sxYOPSDdzF" points="443.4,72.1 461.1,72.1 429.4,36 410.1,36 "/><polygon class="sxYOPSDdzF" points="412.1,72.1 429.8,72.1 398.1,36 378.8,36 "/><polygon class="sxYOPSDdzF" points="381.5,72.1 399.2,72.1 367.5,36 348.3,36 "/><polygon class="sxYOPSDdzF" points="350.3,72.1 368,72.1 336.3,36 317,36 "/><polygon class="sxYOPSDdzF" points="319.5,72.1 337.2,72.1 305.5,36 286.2,36 "/><polygon class="nKnrQPbm3_" points="305.9,72.1 0,72.1 0,36 272.2,36 "/><polygon class="sxYOPSDdzF" points="1346.8,72.1 1329.1,72.1 1360.8,36 1380.1,36 "/><polygon class="sxYOPSDdzF" points="1377.4,72.1 1359.7,72.1 1391.4,36 1410.7,36 "/><polygon class="sxYOPSDdzF" points="1409.3,72.1 1391.6,72.1 1423.3,36 1442.6,36 "/><polygon class="sxYOPSDdzF" points="1440.6,72.1 1422.9,72.1 1454.6,36 1473.8,36 "/><polygon class="sxYOPSDdzF" points="1471.6,72.1 1453.9,72.1 1485.6,36 1504.9,36 "/><polygon class="sxYOPSDdzF" points="1502.9,72.1 1485.1,72.1 1516.9,36 1536.1,36 "/><polygon class="sxYOPSDdzF" points="1533.5,72.1 1515.7,72.1 1547.4,36 1566.7,36 "/><polygon class="sxYOPSDdzF" points="1564.7,72.1 1547,72.1 1578.7,36 1598,36 "/><polygon class="sxYOPSDdzF" points="1595.5,72.1 1577.8,72.1 1609.5,36 1628.8,36 "/><polygon class="jyi0V6yDIh" points="1609.1,72.1 1915,72.1 1915,36 1642.7,36 "/><style>.zndoV_wr6S { opacity: 0.3; fill: var(--theme-groups-0); enable-background: new;}.bQaWZGqzEh { opacity: 0.7; fill: none; stroke: url(#e4ZBnS5P17); stroke-miterlimit: 10;}.imhmYtup4g { opacity: 0.7; fill: none; stroke: url(#ACPSFzOgNk); stroke-miterlimit: 10;}.e67AVe_piT { opacity: 0.6; fill: none; stroke: var(--theme-groups-0); stroke-linecap: round; stroke-linejoin: round; stroke-miterlimit: 10;}.egn6HXHrWZ { opacity: 0.7; fill: none; stroke: url(#vgP2CC4fJJ); stroke-miterlimit: 10;}.lIOuM34AN8 { opacity: 0.7; fill: none; stroke: url(#fAKqjP6JyH); stroke-miterlimit: 10;}.pB4PGb45s7 { opacity: 0.6; fill: none; stroke: var(--theme-groups-0); stroke-linecap: round; stroke-miterlimit: 10;}.qEwCbNV0jx { enable-background: new;}.mFJ9fw94SE { opacity: 0.7; fill: var(--theme-groups-0); enable-background: new;}.zVPOGwyRxl { fill: none; stroke: url(#n_ce2LNnrL); stroke-width: 2; stroke-miterlimit: 10;}.bxv4m6Md06 { opacity: 0.2; fill: var(--theme-groups-2); fill-opacity: 0.58; enable-background: new;}.k2uXgCP2GP { opacity: 0.54; fill: var(--theme-groups-2); fill-opacity: 0.58; enable-background: new;}.pIRoMtIiX0 { opacity: 0.27; fill: var(--theme-groups-2); fill-opacity: 0.58; enable-background: new;}.jlPuJToJJz { opacity: 0.14; fill: var(--theme-groups-2); fill-opacity: 0.58; enable-background: new;}.lpo1kpAot2 { opacity: 0.6; fill: var(--theme-groups-2); fill-opacity: 0.58; enable-background: new;}.g-eWbfVImt { opacity: 0.22; fill: var(--theme-groups-2); fill-opacity: 0.58; enable-background: new;}.AFuoI8B5kP { opacity: 0.36; fill: var(--theme-groups-2); fill-opacity: 0.58; enable-background: new;}.hgcCZEpyky { opacity: 7e-2; fill: var(--theme-groups-2); fill-opacity: 0.58; enable-background: new;}.oTAlhegOQd { opacity: 0.5; fill: var(--theme-groups-2); fill-opacity: 0.58; enable-background: new;}.gNlPZU_FWt { opacity: 0.59; fill: var(--theme-groups-2); fill-opacity: 0.58; enable-background: new;}.ysmR5MLuK1 { opacity: 0.25; fill: var(--theme-groups-2); fill-opacity: 0.58; enable-background: new;}.c4owJvH4Q0 { opacity: 0.28; fill: var(--theme-groups-2); fill-opacity: 0.58; enable-background: new;}.rLdN_tveRK { opacity: 0.56; fill: var(--theme-groups-2); fill-opacity: 0.58; enable-background: new;}.ssVS5KSgjP { opacity: 0.52; fill: var(--theme-groups-2); fill-opacity: 0.58; enable-background: new;}.qE5jZ7kzv6 { opacity: 0.34; fill: var(--theme-groups-2); fill-opacity: 0.58; enable-background: new;}.jabS_oav_r { opacity: 0.61; fill: var(--theme-groups-2); fill-opacity: 0.58; enable-background: new;}.rntDBnNSEw { opacity: 0.24; fill: var(--theme-groups-2); fill-opacity: 0.58; enable-background: new;}.sD38u62FJt { opacity: 0.57; fill: var(--theme-groups-2); fill-opacity: 0.58; enable-background: new;}.c4tqV3yMG5 { opacity: 0.44; fill: var(--theme-groups-2); fill-opacity: 0.58; enable-background: new;}.izYpBBlgnq { opacity: 0.45; fill: var(--theme-groups-2); fill-opacity: 0.58; enable-background: new;}.e4LU8QNJel { opacity: 0.72; fill: var(--theme-groups-2); fill-opacity: 0.58; enable-background: new;}.njW_KYbVNw { opacity: 0.4; fill: var(--theme-groups-2); fill-opacity: 0.58; enable-background: new;}.cIiYhoVVLD { opacity: 0.55; fill: var(--theme-groups-2); fill-opacity: 0.58; enable-background: new;}.fFjv7tiuVU { opacity: 0.26; fill: var(--theme-groups-2); fill-opacity: 0.58; enable-background: new;}.qMQtPiybRk { opacity: 0.64; fill: var(--theme-groups-2); fill-opacity: 0.58; enable-background: new;}.kodOgpeHKa { opacity: 0.74; fill: var(--theme-groups-2); fill-opacity: 0.58; enable-background: new;}.zV5KMHmfOq { opacity: 0.19; fill: var(--theme-groups-2); fill-opacity: 0.58; enable-background: new;}.e_oqLZDSqG { opacity: 0.58; fill: var(--theme-groups-2); fill-opacity: 0.58; enable-background: new;}.AzRXQi3mVD { opacity: 0.11; fill: var(--theme-groups-2); fill-opacity: 0.58; enable-background: new;}.bd58rfqm3Y { opacity: 0.68; fill: var(--theme-groups-2); fill-opacity: 0.58; enable-background: new;}.vezfLt1kdz { opacity: 0.3; fill: none; stroke: url(#aotDa3w0Ve); stroke-miterlimit: 10;}.orwLLfPoSP { opacity: 0.3; fill: none; stroke: url(#lJVDqjvsJX); stroke-miterlimit: 10;}.sxYOPSDdzF { opacity: 0.4; fill: var(--theme-groups-0); fill-opacity: 0.5; stroke: var(--theme-groups-0); stroke-miterlimit: 10; enable-background: new;}.nKnrQPbm3_ { opacity: 0.4; fill: url(#rki3mgtgQP); fill-opacity: 0.5; stroke: url(#wmyy7F6-O4); stroke-miterlimit: 10; enable-background: new;}.wpWZye7wMC { opacity: 0.3; fill: none; stroke: url(#q2rHjX3MAt); stroke-miterlimit: 10;}.rcUn4Wh113 { opacity: 0.3; fill: none; stroke: url(#kDHbu8hzco); stroke-miterlimit: 10;}.jyi0V6yDIh { opacity: 0.4; fill: url(#fSZnv17dIU); fill-opacity: 0.5; stroke: url(#kFX8doWXhd); stroke-miterlimit: 10; enable-background: new;}</style></svg>