<svg version="1.1" id="p7Ey1D3Tbo" xmlns="http://www.w3.org/2000/svg" xmlns:xlink="http://www.w3.org/1999/xlink" x="0px" y="0px" viewBox="0 0 1920 67.4" style="enable-background: new 0 0 1920 67.4" xml:space="preserve"><linearGradient id="mZV4u6A4eE" gradientUnits="userSpaceOnUse" x1="0" y1="4413.9502" x2="508" y2="4413.9502" gradientTransform="matrix(1 0 0 1 0 -4381)"><stop offset="0" style="stop-color:var(--theme-groups-1);stop-opacity: 0"/><stop offset="1" style="stop-color:var(--theme-groups-1);stop-opacity: 0.651"/></linearGradient><linearGradient id="lGEJGOq6UU" gradientUnits="userSpaceOnUse" x1="1.697341e-02" y1="4414.25" x2="507.847" y2="4414.25" gradientTransform="matrix(1 0 0 1 0 -4381)"><stop offset="0" style="stop-color:var(--theme-groups-1);stop-opacity: 0.1"/><stop offset="0.5083" style="stop-color:var(--theme-groups-1);"/><stop offset="1" style="stop-color:var(--theme-groups-1);stop-opacity: 0"/></linearGradient><linearGradient id="obk6LGkQfh" gradientUnits="userSpaceOnUse" x1="466.9708" y1="4446.938" x2="466.9708" y2="4424.0938" gradientTransform="matrix(1 0 0 1 0 -4381)"><stop offset="0" style="stop-color:var(--theme-groups-1);"/><stop offset="1" style="stop-color:var(--theme-groups-1);stop-opacity: 0.6"/></linearGradient><linearGradient id="iQoh3QL098" gradientUnits="userSpaceOnUse" x1="541" y1="4432.9375" x2="541" y2="4410.0938" gradientTransform="matrix(1 0 0 1 0 -4381)"><stop offset="0" style="stop-color:var(--theme-groups-1);"/><stop offset="1" style="stop-color:var(--theme-groups-1);stop-opacity: 0.502"/></linearGradient><linearGradient id="dUpEu-s9Bb" gradientUnits="userSpaceOnUse" x1="0" y1="4407" x2="574.3" y2="4407" gradientTransform="matrix(1 0 0 1 0 -4381)"><stop offset="0" style="stop-color:var(--theme-groups-1);stop-opacity: 0.302"/><stop offset="1" style="stop-color:var(--theme-groups-1);stop-opacity: 0.851"/></linearGradient><linearGradient id="i_RUZw_zqe" gradientUnits="userSpaceOnUse" x1="0" y1="4044.5" x2="1920" y2="4044.5" gradientTransform="matrix(1 0 0 1 0 -4026)"><stop offset="0" style="stop-color:var(--theme-groups-1);stop-opacity: 0"/><stop offset="0.131" style="stop-color:var(--theme-groups-1);stop-opacity: 0.3"/><stop offset="0.505" style="stop-color:var(--theme-groups-1);"/><stop offset="0.907" style="stop-color:var(--theme-groups-1);stop-opacity: 0.3"/><stop offset="1" style="stop-color:var(--theme-groups-1);stop-opacity: 0"/></linearGradient><path id="mh5pWmoI6V" class="sQupSIex0k" d="M0,0h508l-33,65.9H139l-7.2-6.6H60l-7.2,6.6H0V0z"/><path id="tG3qAkyPZ3" class="kL6fNDfzri" d="M485.9,43.1c-8.6,17.2-11,22.8-11,22.8h-28.2"/><path class="xLP1OUw-V2" d="M548.9,53.4h-28.2v-3H548c1-2.2,3.9-8.6,10.6-22l2.7,1.3c-8.5,16.9-10.9,22.7-10.9,22.7l-0.4,0.9L548.9,53.4L548.9,53.4z"/><path id="fiMDmPZ7-8" class="q_aP5ZTIzo" d="M64,63h65l3,2H61L64,63z" style="fill:var(--theme-groups-1);"/><path id="yuZ6krtd5x" class="sd4382pq_c" d="M0,0v52h549l25.3-52H0z"/><polygon class="dwyZwF7Zek" points="475.6,66.9 138.6,66.9 131.4,60.3 60.4,60.3 53.3,66.9 -1,66.9 -1,0 1,0 1,64.9 52.5,64.9 59.7,58.3 132.2,58.3 139.4,64.9 474.3,64.9 507.1,-0.4 508.9,0.4 "/><g id="wc_Eer723V" class="hZsTp1z9aI"><path id="tHQDHiLYCP" class="eIfAJpk99a" d="M567,26l-2,4h59l2-4H567z" style="fill:var(--theme-groups-1);"/><path id="d4ILh6yEi7" class="eIfAJpk99a" d="M630,26l-2,4h3l2-4H630z" style="fill:var(--theme-groups-1);"/><path id="j756geM6tT" class="eIfAJpk99a" d="M637,26l-2,4h3l2-4H637z" style="fill:var(--theme-groups-1);"/><path id="wEFJkAssd5" class="eIfAJpk99a" d="M644,26l-2,4h3l2-4H644z" style="fill:var(--theme-groups-1);"/><path id="kMXf7Htl88" class="eIfAJpk99a" d="M651,26l-2,4h3l2-4H651z" style="fill:var(--theme-groups-1);"/></g><g id="wi36EoigcV" class="pJjMMzo4Kw"><path id="yXPXhtdpz0" class="eIfAJpk99a" d="M670,26l-2,4h59l2-4H670z" style="fill:var(--theme-groups-1);"/><path id="t_2dxNzNEV" class="eIfAJpk99a" d="M733,26l-2,4h3l2-4H733z" style="fill:var(--theme-groups-1);"/><path id="A3sdJI2iPJ" class="eIfAJpk99a" d="M740,26l-2,4h3l2-4H740z" style="fill:var(--theme-groups-1);"/><path id="tGsxD26K77" class="eIfAJpk99a" d="M747,26l-2,4h3l2-4H747z" style="fill:var(--theme-groups-1);"/><path id="tz2n2D8DR1" class="eIfAJpk99a" d="M754,26l-2,4h3l2-4H754z" style="fill:var(--theme-groups-1);"/></g><rect id="xz7UtIGgLb" class="dnKDCVgDoc" width="1920" height="37"/><style>.sQupSIex0k { opacity: 0.2; fill-rule: evenodd; clip-rule: evenodd; fill: url(#mZV4u6A4eE); enable-background: new;}.dwyZwF7Zek { opacity: 0.53; fill: url(#lGEJGOq6UU); enable-background: new;}.kL6fNDfzri { fill: none; stroke: url(#obk6LGkQfh); stroke-width: 3;}.xLP1OUw-V2 { opacity: 0.4; fill: url(#iQoh3QL098); enable-background: new;}.q_aP5ZTIzo { fill-rule: evenodd; clip-rule: evenodd;}.hZsTp1z9aI { opacity: 0.5;}.eIfAJpk99a { fill-rule: evenodd; clip-rule: evenodd;}.pJjMMzo4Kw { opacity: 0.3;}.sd4382pq_c { opacity: 0.12; fill-rule: evenodd; clip-rule: evenodd; fill: url(#dUpEu-s9Bb); enable-background: new;}.dnKDCVgDoc { opacity: 0.16; fill: url(#i_RUZw_zqe); enable-background: new;}</style></svg>