<svg version="1.1" id="iXC8C-qLWA" xmlns="http://www.w3.org/2000/svg" xmlns:xlink="http://www.w3.org/1999/xlink" x="0px" y="0px" viewBox="0 0 1920 80" xml:space="preserve"><linearGradient id="waFJePjHuc" gradientUnits="userSpaceOnUse" x1="-7.976470e-02" y1="40.6012" x2="388.2986" y2="40.6012"><stop offset="0" style="stop-color:var(--theme-groups-0);stop-opacity: 0"/><stop offset="1" style="stop-color:var(--theme-groups-0);"/></linearGradient><linearGradient id="uHwcW3Yjto" gradientUnits="userSpaceOnUse" x1="944.4892" y1="45.63" x2="372.8511" y2="44.6324"><stop offset="0" style="stop-color:var(--theme-groups-0);stop-opacity: 0"/><stop offset="1" style="stop-color:var(--theme-groups-0);"/></linearGradient><linearGradient id="aMVjJxENUh" gradientUnits="userSpaceOnUse" x1="-7.976470e-02" y1="10.696" x2="388.2986" y2="10.696"><stop offset="0" style="stop-color:var(--theme-groups-0);stop-opacity: 0"/><stop offset="1" style="stop-color:var(--theme-groups-0);"/></linearGradient><linearGradient id="yDBy7x2zi5" gradientUnits="userSpaceOnUse" x1="603.7875" y1="71.0538" x2="-6.177570e-02" y2="67.046"><stop offset="0" style="stop-color:var(--theme-groups-0);stop-opacity: 0"/><stop offset="1" style="stop-color:var(--theme-groups-0);"/></linearGradient><polygon class="gye8BvZ9gC" points="344.8,70.5 -0.1,70.5 -0.1,10.7 388.3,10.7 "/><polygon style="fill: url(#uHwcW3Yjto); fill-opacity: 0.5" points="931.1,64.9 358.6,64.9 387.4,25.3 959.9,25.3 "/><polygon class="cPqsthxNNc" points="394.7,22.3 389.5,22.3 397.9,10.7 403.2,10.7 "/><polygon class="k6n71YX0ZT" points="404.1,22.3 398.9,22.3 407.3,10.7 412.5,10.7 "/><polygon class="bn7hjwvIpR" points="413.5,22.3 408.3,22.3 416.7,10.7 421.9,10.7 "/><polygon class="pyNNKQA3AX" points="422.9,22.3 417.7,22.3 426.1,10.7 431.3,10.7 "/><polygon class="kR41eCNsf7" points="432.3,22.3 427.1,22.3 435.5,10.7 440.7,10.7 "/><polygon class="xlhf3k0wEv" points="441.7,22.3 436.5,22.3 444.9,10.7 450.1,10.7 "/><polygon class="dkw0TEca1S" points="451.1,22.3 445.9,22.3 454.3,10.7 459.5,10.7 "/><polygon class="pCVyuT95sO" points="460.5,22.3 455.3,22.3 463.7,10.7 468.9,10.7 "/><polygon class="fRkDtOhqwh" points="469.9,22.3 464.7,22.3 473.1,10.7 478.3,10.7 "/><line style="fill: none; stroke: url(#aMVjJxENUh); stroke-width: 1.5; stroke-miterlimit: 10" x1="388.3" y1="10.7" x2="-0.1" y2="10.7"/><polyline class="pHyxp8FnIR" points="-0.1,70.5 353.7,70.5 356.6,67.6 603.8,67.6 "/><style>.gye8BvZ9gC { fill: url(#waFJePjHuc); fill-opacity: 0.5;}.st1 { opacity: 0.6; fill: none; stroke: url(#uHwcW3Yjto); stroke-width: 1.5; stroke-miterlimit: 10;}.st2 { opacity: 0.6; fill: none; stroke: url(#aMVjJxENUh); stroke-width: 1.5; stroke-miterlimit: 10;}.st3 { opacity: 0.6;}.pHyxp8FnIR { fill: none; stroke: url(#yDBy7x2zi5); stroke-width: 1.5; stroke-miterlimit: 10;}.cPqsthxNNc { fill: var(--theme-groups-0); fill-opacity: 0.6; stroke: var(--theme-groups-0); stroke-miterlimit: 10;}.k6n71YX0ZT { opacity: 0.9; fill: var(--theme-groups-0); fill-opacity: 0.6; stroke: var(--theme-groups-0); stroke-miterlimit: 10;}.bn7hjwvIpR { opacity: 0.8; fill: var(--theme-groups-0); fill-opacity: 0.6; stroke: var(--theme-groups-0); stroke-miterlimit: 10;}.pyNNKQA3AX { opacity: 0.7; fill: var(--theme-groups-0); fill-opacity: 0.6; stroke: var(--theme-groups-0); stroke-miterlimit: 10;}.kR41eCNsf7 { opacity: 0.6; fill: var(--theme-groups-0); fill-opacity: 0.6; stroke: var(--theme-groups-0); stroke-miterlimit: 10;}.xlhf3k0wEv { opacity: 0.5; fill: var(--theme-groups-0); fill-opacity: 0.6; stroke: var(--theme-groups-0); stroke-miterlimit: 10;}.dkw0TEca1S { opacity: 0.4; fill: var(--theme-groups-0); fill-opacity: 0.6; stroke: var(--theme-groups-0); stroke-miterlimit: 10;}.pCVyuT95sO { opacity: 0.3; fill: var(--theme-groups-0); fill-opacity: 0.6; stroke: var(--theme-groups-0); stroke-miterlimit: 10;}.fRkDtOhqwh { opacity: 0.2; fill: var(--theme-groups-0); fill-opacity: 0.6; stroke: var(--theme-groups-0); stroke-miterlimit: 10;}</style></svg>