<svg id="jVkJTNZd5f" xmlns="http://www.w3.org/2000/svg" xmlns:xlink="http://www.w3.org/1999/xlink" viewBox="0 0 1920 80" x="0px" y="0px" xml:space="preserve"><defs><linearGradient id="azDeDvoLVa" x1="1665" y1="-2190.01" x2="2640" y2="-2190.01" gradientTransform="matrix(1, 0, 0, -1, -1193, -2151.7)" gradientUnits="userSpaceOnUse"><stop offset="0" style="stop-color:var(--theme-groups-0);stop-opacity:0;"/><stop offset="0.5" style="stop-color:var(--theme-groups-0);"/><stop offset="0.5" style="stop-color:var(--theme-groups-0);"/><stop offset="1" style="stop-color:var(--theme-groups-0);stop-opacity:0;"/></linearGradient><linearGradient id="xYe8G2gZDx" x1="1745" y1="-2190.01" x2="2560" y2="-2190.01" gradientTransform="matrix(1, 0, 0, -1, -1193, -2151.7)" gradientUnits="userSpaceOnUse"><stop offset="0" style="stop-color:var(--theme-groups-0);stop-opacity:0;"/><stop offset="0.5" style="stop-color:var(--theme-groups-1);"/><stop offset="0.5" style="stop-color:var(--theme-groups-1);"/><stop offset="1" style="stop-color:var(--theme-groups-0);stop-opacity:0;"/></linearGradient><linearGradient id="yIm3VU72Fk" x1="1214" y1="-2190.2" x2="1664" y2="-2190.2" gradientTransform="matrix(1, 0, 0, -1, -1193, -2151.7)" gradientUnits="userSpaceOnUse"><stop offset="0" style="stop-color:var(--theme-groups-0);"/><stop offset="1" style="stop-color:var(--theme-groups-0);stop-opacity:0;"/></linearGradient><linearGradient id="e-mPEK7rRN" x1="3092" y1="-2190.2" x2="2642" y2="-2190.2" xlink:href="#yIm3VU72Fk"/></defs><path id="mxLDoFIKpV" d="M1447,51.12l-9,7H1238l-9,6H688l-4-5H480l-8-10V27.5l8-10H684l4-5h541l9,6h200l9,7Z" style="fill:url(#azDeDvoLVa);fill-rule:evenodd;opacity:0.3;isolation: isolate"/><path id="uBgpRtXnA_" d="M1367,51.12l-9,7H1158l-9,6H768l-4-5H560l-8-10V27.5l8-10H764l4-5h381l9,6h200l9,7Z" style="fill:url(#xYe8G2gZDx);fill-rule:evenodd;opacity:0.5;isolation: isolate"/><path id="w0UyGN6XtY" d="M1419,32.5h2v2h-2v-2Zm11,0h2v2h-2v-2Zm-11,10h2v2h-2v-2Zm11,0h2v2h-2v-2Z" style="fill:var(--theme-groups-0);fill-rule:evenodd;"/><path id="nj6tAQgHEU" d="M485,32.5h2v2h-2v-2Zm11,0h2v2h-2v-2Zm-11,10h2v2h-2v-2Zm11,0h2v2h-2v-2Z" style="fill:var(--theme-groups-0);fill-rule:evenodd;"/><polygon points="472.78 28.12 471.22 26.88 479.52 16.5 683.52 16.5 687.52 11.5 1229.3 11.5 1238.3 17.5 1438.34 17.5 1447.61 24.71 1446.39 26.29 1437.66 19.5 1237.7 19.5 1228.7 13.5 688.48 13.5 684.48 18.5 480.48 18.5 472.78 28.12" style="fill:var(--theme-groups-1);"/><polygon points="1229.3 65.13 687.52 65.13 683.52 60.13 479.52 60.13 471.22 49.75 472.78 48.5 480.48 58.13 684.48 58.13 688.48 63.13 1228.7 63.13 1237.7 57.13 1437.66 57.13 1446.39 50.34 1447.61 51.91 1438.34 59.13 1238.3 59.13 1229.3 65.13" style="fill:var(--theme-groups-1);"/><g id="qF3Q7bmJwK"><polygon points="605.35 13.85 604.65 13.15 610.79 7 679.79 7 684.65 2.15 685.35 2.85 680.21 8 611.21 8 605.35 13.85" style="fill:var(--theme-groups-0);"/><polygon points="684.65 77.85 679.79 73 610.79 73 604.65 66.85 605.35 66.15 611.21 72 680.21 72 685.35 77.15 684.65 77.85" style="fill:var(--theme-groups-0);"/><polygon points="1312.65 13.85 1306.79 8 1237.79 8 1232.65 2.85 1233.35 2.15 1238.21 7 1307.21 7 1313.35 13.15 1312.65 13.85" style="fill:var(--theme-groups-0);"/><polygon points="1233.35 77.85 1232.65 77.15 1237.79 72 1306.79 72 1312.65 66.15 1313.35 66.85 1307.21 73 1238.21 73 1233.35 77.85" style="fill:var(--theme-groups-0);"/></g><g id="sCgDVgClbM"><path id="qSPTXegGpw" data-name=" 01" d="M693.94,46.69l-2.48-2.5,7.35-7.4-6.65-6.69,2.49-2.5,9.14,9.19Z" style="fill:var(--theme-groups-1);fill-rule:evenodd;opacity:0.8;isolation: isolate"/><path id="g6ATS4bHrT" data-name=" 02" d="M674.05,46.69l-2.48-2.5,7.36-7.4-6.66-6.69,2.49-2.5,9.14,9.19Z" style="fill:var(--theme-groups-1);fill-rule:evenodd;opacity:0.5;isolation: isolate"/><path id="c20Odrb5dl" data-name=" 03" d="M654.17,46.69l-2.49-2.5,7.36-7.4-6.66-6.69,2.49-2.5L664,36.79Z" style="fill:var(--theme-groups-1);fill-rule:evenodd;opacity:0.4;isolation: isolate"/><path id="doI1NB3z_i" data-name=" 04" d="M634.28,46.69l-2.49-2.5,7.36-7.4L632.5,30.1,635,27.6l9.14,9.19Z" style="fill:var(--theme-groups-1);fill-rule:evenodd;opacity:0.3;isolation: isolate"/><path id="v9vKmIO2KA" d="M512,36.5h73v2H510l2-2Zm72,0,2.78-2H623v6H586.56l-2.56-2Z" style="fill:var(--theme-groups-0);fill-rule:evenodd;opacity:0.5;isolation: isolate"/></g><g id="gkyX8ngHN9"><path id="z9S54S1C88" data-name=" 01-2" d="M1222.84,46.69l2.49-2.5-7.36-7.4,6.65-6.69-2.48-2.5L1213,36.79Z" style="fill:var(--theme-groups-1);fill-rule:evenodd;opacity:0.8;isolation: isolate"/><path id="qNrmmCeNyJ" data-name=" 02-2" d="M1242.73,46.69l2.48-2.5-7.36-7.4,6.66-6.69L1242,27.6l-9.14,9.19Z" style="fill:var(--theme-groups-1);fill-rule:evenodd;opacity:0.5;isolation: isolate"/><path id="qWcfws-bvA" data-name=" 03-2" d="M1262.61,46.69l2.49-2.5-7.36-7.4,6.66-6.69-2.49-2.5-9.14,9.19Z" style="fill:var(--theme-groups-1);fill-rule:evenodd;opacity:0.4;isolation: isolate"/><path id="qszQipzV67" data-name=" 04-2" d="M1282.5,46.69l2.49-2.5-7.36-7.4,6.66-6.69-2.49-2.5-9.14,9.19Z" style="fill:var(--theme-groups-1);fill-rule:evenodd;opacity:0.3;isolation: isolate"/><path id="wGKdaaNpPO" d="M1405.19,36.5h-73v2h75l-2-2Zm-72,0-2.78-2h-36.22v6h36.44l2.56-2Z" style="fill:var(--theme-groups-0);fill-rule:evenodd;opacity:0.5;isolation: isolate"/></g><g id="srmsZahIgj"><g id="A8WDVU8qqT"><path id="t4uLp7t5kg" data-name="dian01 拷贝" d="M429,26.5h2v2h-2v-2Zm22,0h2v2h-2v-2Zm-22,23h2v2h-2v-2Zm22,0h2v2h-2v-2Z" style="fill:var(--theme-groups-0);fill-rule:evenodd;"/><path id="aJCNh1pQE6" data-name="矩形 704" d="M433,30.5h16v16H433v-16Z" style="fill:var(--theme-groups-0);fill-rule:evenodd;opacity:0.3;isolation: isolate"/><path id="wgnOeGsb1d" data-name="矩形 705 拷贝 2" d="M436.55,34.76l.65-.71h0l3.22,3.54h0l-.65.7h0l-3.22-3.53Zm5.16,5.65.64-.7h0l3.22,3.53h0l-.64.71h0l-3.22-3.54Zm3.22-6.36.64.71h0l-3.22,3.53h0l-.64-.7h0l3.22-3.54Zm-5.16,5.66.65.7h0L437.2,44h0l-.65-.71h0l3.22-3.53Z" style="fill:var(--theme-groups-0);fill-rule:evenodd;"/></g><g id="vO0Sx0IGkn"><path id="i4tuKgc9kO" data-name="dian01 拷贝-2" d="M386,26.5h2v2h-2v-2Zm22,0h2v2h-2v-2Zm-22,23h2v2h-2v-2Zm22,0h2v2h-2v-2Z" style="fill:var(--theme-groups-0);fill-rule:evenodd;"/><path id="t2cPlv6JK8" data-name="矩形 704-2" d="M390,30.5h16v16H390v-16Z" style="fill:var(--theme-groups-0);fill-rule:evenodd;opacity:0.3;isolation: isolate"/><path id="iWYXqR5fnF" data-name="矩形 705 拷贝 2-2" d="M393.55,34.76l.65-.71h0l3.22,3.54h0l-.65.7h0l-3.22-3.53Zm5.16,5.65.64-.7h0l3.22,3.53h0l-.64.71h0l-3.22-3.54Zm3.22-6.36.64.71h0l-3.22,3.53h0l-.64-.7h0l3.22-3.54Zm-5.16,5.66.65.7h0L394.2,44h0l-.65-.71h0l3.22-3.53Z" style="fill:var(--theme-groups-0);fill-rule:evenodd;"/></g><path id="cT4VS94HUY" d="M5,16.5H484v2H5v-2Zm0,42H484v2H5v-2Z" style="fill:var(--theme-groups-0);fill-rule:evenodd;opacity:0.3;isolation: isolate"/><path id="lqXC0mfhUx" d="M18,16.5H464v2H18v-2Zm0,42H464v2H18v-2Z" style="fill:var(--theme-groups-1);fill-rule:evenodd;opacity:0.5;isolation: isolate"/><path id="zHxceTm9ov" d="M5,16.5H7v2H5v-2Zm0,42H7v2H5v-2Z" style="fill:var(--theme-groups-1);fill-rule:evenodd;"/><path id="xCoyvCA6qI" d="M21,26.5H471v24H21v-24Z" style="fill:url(#yIm3VU72Fk);fill-rule:evenodd;opacity:0.2;isolation: isolate"/><polygon points="15 51.5 9.59 51.5 5 46.91 5 30.15 9.52 24.5 15 24.5 15 26.5 10.48 26.5 7 30.85 7 46.09 10.41 49.5 15 49.5 15 51.5" style="fill:var(--theme-groups-1);"/></g><g id="j8AN_uNK19" data-name="right-deck "><g id="obJm2xgZyy"><path id="oN1c3jsW5P" data-name="dian01 拷贝-3" d="M1491,26.5h-2v2h2v-2Zm-22,0h-2v2h2v-2Zm22,23h-2v2h2v-2Zm-22,0h-2v2h2v-2Z" style="fill:var(--theme-groups-0);fill-rule:evenodd;"/><path id="xyRIECCY21" data-name="矩形 704-3" d="M1487,30.5h-16v16h16v-16Z" style="fill:var(--theme-groups-0);fill-rule:evenodd;opacity:0.3;isolation: isolate"/><path id="eO9ZIejIIK" data-name="矩形 705 拷贝 2-3" d="M1483.45,34.76l-.65-.71h0l-3.22,3.54h0l.65.7h0l3.22-3.53Zm-5.16,5.65-.64-.7h0l-3.22,3.53h0l.64.71h0l3.22-3.54Zm-3.22-6.36-.64.71h0l3.22,3.53h0l.64-.7h0l-3.22-3.54Zm5.16,5.66-.65.7h0L1482.8,44h0l.65-.71h0l-3.22-3.53Z" style="fill:var(--theme-groups-0);fill-rule:evenodd;"/></g><g id="g15RD02MLZ"><path id="rC5dK272g_" data-name="dian01 拷贝-4" d="M1534,26.5h-2v2h2v-2Zm-22,0h-2v2h2v-2Zm22,23h-2v2h2v-2Zm-22,0h-2v2h2v-2Z" style="fill:var(--theme-groups-0);fill-rule:evenodd;"/><path id="fzxFUro3qO" data-name="矩形 704-4" d="M1530,30.5h-16v16h16v-16Z" style="fill:var(--theme-groups-0);fill-rule:evenodd;opacity:0.3;isolation: isolate"/><path id="cIdxZijjJy" data-name="矩形 705 拷贝 2-4" d="M1526.45,34.76l-.65-.71h0l-3.22,3.54h0l.65.7h0l3.22-3.53Zm-5.16,5.65-.64-.7h0l-3.22,3.53h0l.64.71h0l3.22-3.54Zm-3.22-6.36-.64.71h0l3.22,3.53h0l.64-.7h0l-3.22-3.54Zm5.16,5.66-.65.7h0L1525.8,44h0l.65-.71h0l-3.22-3.53Z" style="fill:var(--theme-groups-0);fill-rule:evenodd;"/></g><path id="nCzR_24Bqq" d="M1915,16.5H1436v2h479v-2Zm0,42H1436v2h479v-2Z" style="fill:var(--theme-groups-0);fill-rule:evenodd;opacity:0.3;isolation: isolate"/><path id="oE5lc19kVV" d="M1902,16.5H1456v2h446v-2Zm0,42H1456v2h446v-2Z" style="fill:var(--theme-groups-1);fill-rule:evenodd;opacity:0.5;isolation: isolate"/><path id="cEChiRvci3" d="M1915,16.5h-2v2h2v-2Zm0,42h-2v2h2v-2Z" style="fill:var(--theme-groups-1);fill-rule:evenodd;"/><path id="uy22Jmqq7B" d="M1899,26.5H1449v24h450v-24Z" style="fill:url(#e-mPEK7rRN);fill-rule:evenodd;opacity:0.2;isolation: isolate"/><polygon points="1910.41 51.5 1905 51.5 1905 49.5 1909.59 49.5 1913 46.09 1913 30.85 1909.52 26.5 1905 26.5 1905 24.5 1910.48 24.5 1915 30.15 1915 46.91 1910.41 51.5" style="fill:var(--theme-groups-1);"/></g><style/></svg>