<svg version="1.1" id="yvUBIsR7m_" xmlns="http://www.w3.org/2000/svg" xmlns:xlink="http://www.w3.org/1999/xlink" x="0px" y="0px" viewBox="0 0 440 52" xml:space="preserve"><g><linearGradient id="A0CU9TV7_A" gradientUnits="userSpaceOnUse" x1="412.9632" y1="22.1155" x2="8.3502" y2="23.1945"><stop offset="0" style="stop-color:var(--theme-groups-0);stop-opacity: 0"/><stop offset="1" style="stop-color:var(--theme-groups-0);"/></linearGradient><linearGradient id="e2gE7N39YK" gradientUnits="userSpaceOnUse" x1="419.2738" y1="4.3212" x2="18.3771" y2="0.4848"><stop offset="0" style="stop-color:var(--theme-groups-0);stop-opacity: 0"/><stop offset="1" style="stop-color:var(--theme-groups-1);"/></linearGradient><linearGradient id="j7xnTkBWos" gradientUnits="userSpaceOnUse" x1="419.2321" y1="8.6815" x2="18.3354" y2="4.8451"><stop offset="0" style="stop-color:var(--theme-groups-0);stop-opacity: 0"/><stop offset="1" style="stop-color:var(--theme-groups-1);"/></linearGradient><linearGradient id="xeY64lxE5v" gradientUnits="userSpaceOnUse" x1="406.3002" y1="42.9859" x2="25.0648" y2="42.9859"><stop offset="0" style="stop-color:var(--theme-groups-0);stop-opacity: 0"/><stop offset="1" style="stop-color:var(--theme-groups-1);"/></linearGradient><linearGradient id="oFwggpq3JQ" gradientUnits="userSpaceOnUse" x1="406.3002" y1="49.423" x2="25.0648" y2="49.423"><stop offset="0" style="stop-color:var(--theme-groups-0);stop-opacity: 0"/><stop offset="1" style="stop-color:var(--theme-groups-1);"/></linearGradient><polygon class="upZjtFwPIr" points="407.7,45.3 24.2,45.3 0.1,0 407.7,0 "/><polygon class="lciSLUGPJG" points="18.1,45.3 12.2,45.3 0.1,23.2 0.1,12.3 "/><polygon class="lciSLUGPJG" points="30.1,45.3 24.4,45.3 0.1,0 5.8,0 "/><polygon class="l2GI0aZEL5" points="32.8,30.1 32.8,17.5 41.4,23.8 "/><polygon class="suKZuKRetw" points="407.7,4.7 16,4.7 13.6,0 407.7,0 "/><polygon class="qB1NVEnEJv" points="407.7,9.4 86.3,9.4 83.7,4.7 407.7,4.7 "/><polygon class="eMXuxTkPFM" points="407.7,45.3 38.3,45.3 35.8,40.6 407.7,40.6 "/><polygon class="pbkAAX9VfU" points="386.1,51.8 27.2,51.8 24.7,47.1 386.1,47.1 "/></g><style> .upZjtFwPIr { fill: url(#A0CU9TV7_A); } .lciSLUGPJG { opacity: 0.5; fill: var(--theme-groups-1); enable-background: new; } .l2GI0aZEL5 { fill: var(--theme-groups-1); enable-background: new; } .suKZuKRetw { fill: url(#e2gE7N39YK); fill-opacity: 0.5; } .qB1NVEnEJv { fill: url(#j7xnTkBWos); fill-opacity: 0.5; } .eMXuxTkPFM { fill: url(#xeY64lxE5v); fill-opacity: 0.5; } .pbkAAX9VfU { fill: url(#oFwggpq3JQ); fill-opacity: 0.5; } </style></svg>