<svg id="iEBUTUP9Uu" xmlns="http://www.w3.org/2000/svg" xmlns:xlink="http://www.w3.org/1999/xlink" viewBox="0 0 419.59 51.1" x="0px" y="0px" xml:space="preserve"><defs><linearGradient id="oZ7NEeMY75" x1="2069.66" y1="-985.95" x2="1664.53" y2="-985.95" gradientTransform="matrix(1, 0, 0, -1, -1651, -954.09)" gradientUnits="userSpaceOnUse"><stop offset="0" style="stop-color:var(--theme-groups-1);"/><stop offset="1" style="stop-color:var(--theme-groups-1);stop-opacity:0;"/></linearGradient><linearGradient id="b_GyZFlUUg" x1="2069" y1="-962.11" x2="1674.7" y2="-962.11" xlink:href="#oZ7NEeMY75"/><linearGradient id="mVzO0Rs8r2" x1="1656.39" y1="-985.7" x2="1980.35" y2="-985.7" gradientTransform="matrix(1, 0, 0, -1, -1651, -954.09)" gradientUnits="userSpaceOnUse"><stop offset="0" style="stop-color:var(--theme-groups-0);"/><stop offset="1" style="stop-color:var(--theme-groups-0);stop-opacity:0.3;"/></linearGradient><linearGradient id="yk1RIHA_88" x1="1656.41" y1="-985.7" x2="1980.34" y2="-985.7" xlink:href="#oZ7NEeMY75"/></defs><path d="M15.78,22V20H416.56V22Zm0,4.15V24.11H414.49v2.08Zm54,4.15V28.27H408.26v2.07Zm8.31,4.16V32.42H319V34.5Zm6.23,4.15V36.57H310.66v2.08Zm6.23,4.15V40.73H304.43V42.8ZM96.77,47V44.88H298.2V47Z" style="fill:var(--theme-groups-0);fill-rule:evenodd;opacity:0.3;isolation: isolate"/><path d="M283.66,51.11H113.38c-10.12,0-17.47-5-26.78-11.21A177.91,177.91,0,0,0,67.45,28.27c-14.89-.1-29.38-.05-39,0l-8.54,0a6,6,0,0,1-4.66-2.06C11.6,22.07,12.66,13,12.71,12.61l2,.24c0,.09-1,8.57,2.08,12a4,4,0,0,0,3.16,1.38l8.53,0c9.66,0,24.25-.08,39.24,0h.23l.21.11A179.17,179.17,0,0,1,87.72,38.24c9.37,6.31,16.15,10.87,25.66,10.87H283.66c9.83,0,16-4.64,22.59-9.54,7.16-5.36,14.56-10.89,27.22-11.23h70.64C415,28,417.57,19.07,417.67,18.7l1.93.52c0,.11-3,10.68-15.46,11.12H333.5c-12,.32-19.14,5.66-26.05,10.83S294.16,51.11,283.66,51.11Z" style="fill:url(#oZ7NEeMY75);opacity:0.6;isolation: isolate"/><path d="M155.93,16c-7,0-13.41,0-17.77-.13-4.58,0-7.7-3.6-10.71-7.08S121.57,2,117.37,2H79.2C75,2,71.75,5.13,68.35,8.43c-3.78,3.67-7.69,7.46-13.43,7.46H23.7v-2H54.92c4.92,0,8.38-3.35,12-6.9S74.15,0,79.2,0h38.17c5.11,0,8.4,3.81,11.59,7.49,2.85,3.28,5.53,6.39,9.22,6.39,9.24.21,27.46.12,42.1,0,6,0,11.36,0,15.14,0,4.66,0,6.79-3.23,9-6.65S209.23,0,214.5,0h60.71c6.06,0,10.21,3.93,13.87,7.4,3.22,3.06,6.26,5.94,10.15,5.94,16.69,0,117.75-.44,118.77-.44v2c-1,0-102.08.44-118.77.44-4.69,0-8.17-3.3-11.53-6.48C284.15,5.5,280.47,2,275.21,2H214.5c-4.2,0-6.13,2.93-8.37,6.33s-5,7.55-10.71,7.55c-3.78,0-9.13,0-15.13,0C172.55,16,163.82,16,155.93,16Z" style="fill:url(#b_GyZFlUUg);opacity:0.6;isolation: isolate"/><path d="M5.39,14.19h324V30.34C316.87,30.17,303.58,49,283.66,49H5.39V14.19Z" style="fill:url(#mVzO0Rs8r2);fill-rule:evenodd;"/><path d="M283.66,49.53H4.89V13.69H329.35v1H5.89V48.53H283.66c10.92,0,19.88-5.78,27.79-10.89,6.55-4.23,12.23-7.9,17.91-7.8l0,1c-5.38-.09-10.93,3.5-17.35,7.64C304,43.66,294.88,49.53,283.66,49.53Z" style="fill:url(#yk1RIHA_88);"/><path d="M0,13.62H2v36H0v-36Z" style="fill:var(--theme-groups-1);fill-rule:evenodd;"/><style/></svg>