<svg version="1.1" id="wDJZeHBpzw" xmlns="http://www.w3.org/2000/svg" xmlns:xlink="http://www.w3.org/1999/xlink" x="0px" y="0px" viewBox="0 0 592 29" style="enable-background: new 0 0 592 29" xml:space="preserve"><path id="s_8onGVnI6" class="x6STYKhYNL" d="M3,6v16l7-8L3,6z"/><path id="wGg6ZkJ_8C" class="rzCJEDUj7h" d="M0,0l28,28h564V0H0z"/><path id="wdDimaFCF9" class="rL4gLK5RSc" d="M49,15l-2,5h188l6-8H107l-1,3H49z"/><path id="mkl_FDZiLR" class="muLSmOGTJM" d="M74,15l-2,5h188l6-8H132l-1,3H74z"/><linearGradient id="n6NlM_BBLm" gradientUnits="userSpaceOnUse" x1="1320" y1="5292" x2="1912" y2="5292" gradientTransform="matrix(1 0 0 1 -1320 -5278)"><stop offset="0" style="stop-color:var(--theme-groups-0);stop-opacity: 0.1"/><stop offset="0.177" style="stop-color:var(--theme-groups-0);stop-opacity: 0.6"/><stop offset="0.5513" style="stop-color:var(--theme-groups-0);stop-opacity: 0.15"/><stop offset="1" style="stop-color:var(--theme-groups-0);stop-opacity: 5e-2"/></linearGradient><linearGradient id="oi2soN-WXd" gradientUnits="userSpaceOnUse" x1="1336.6" y1="5300.5498" x2="1911" y2="5300.5498" gradientTransform="matrix(1 0 0 1 -1320 -5278)"><stop offset="0" style="stop-color:var(--theme-groups-5);stop-opacity: 0"/><stop offset="1" style="stop-color:var(--theme-groups-5);stop-opacity: 0.15"/></linearGradient><linearGradient id="qgPIC4ExXV" gradientUnits="userSpaceOnUse" x1="1367" y1="5294" x2="1561" y2="5294" gradientTransform="matrix(1 0 0 1 -1320 -5278)"><stop offset="0" style="stop-color:var(--theme-groups-2);stop-opacity: 0"/><stop offset="1" style="stop-color:var(--theme-groups-0);"/></linearGradient><linearGradient id="ymNdxYS5c9" gradientUnits="userSpaceOnUse" x1="1392" y1="5294" x2="1586" y2="5294" gradientTransform="matrix(1 0 0 1 -1320 -5278)"><stop offset="0" style="stop-color:var(--theme-groups-0);stop-opacity: 0"/><stop offset="1" style="stop-color:var(--theme-groups-0);"/></linearGradient><polygon class="sPMY8Al9dv" points="591,28 26.8,28 16.6,17.9 17.4,17.1 27.2,27 591,27 "/><polygon class="gkqeidetvN" points="41,28 26.7,28 16.5,17.9 17.3,17.1 27.1,27 41,27 " style="fill:var(--theme-groups-5);"/><rect id="xPffhHJxjR" x="581" y="26" class="cr5QRG6j5P" width="11" height="3" style="fill:var(--theme-groups-5);"/><style>.x6STYKhYNL { opacity: 0.8; fill-rule: evenodd; clip-rule: evenodd; fill: #ffffff;}.rzCJEDUj7h { fill-rule: evenodd; clip-rule: evenodd; fill: url(#n6NlM_BBLm);}.sPMY8Al9dv { fill: url(#oi2soN-WXd);}.gkqeidetvN {}.rL4gLK5RSc { fill-rule: evenodd; clip-rule: evenodd; fill: url(#qgPIC4ExXV);}.muLSmOGTJM { opacity: 0.4; fill-rule: evenodd; clip-rule: evenodd; fill: url(#ymNdxYS5c9); enable-background: new;}.cr5QRG6j5P {}</style></svg>