<svg id="z3z6Ul6rBY" xmlns="http://www.w3.org/2000/svg" xmlns:xlink="http://www.w3.org/1999/xlink" viewBox="0 0 440 48.5" x="0px" y="0px" xml:space="preserve"><defs><linearGradient id="v08f7ZOWwl" x1="1648" y1="-647" x2="2084" y2="-647" gradientTransform="matrix(1, 0, 0, -1, -1644, -643)" gradientUnits="userSpaceOnUse"><stop offset="0" style="stop-color:var(--theme-groups-0);"/><stop offset="0.98" style="stop-color:var(--theme-groups-0);stop-opacity:0;"/></linearGradient><linearGradient id="vgmwJflUSc" x1="1645" y1="-682" x2="2083.04" y2="-682" gradientTransform="matrix(1, 0, 0, -1, -1644, -643)" gradientUnits="userSpaceOnUse"><stop offset="0.49" style="stop-color:var(--theme-groups-0);"/><stop offset="1" style="stop-color:var(--theme-groups-0);stop-opacity:0.1;"/></linearGradient><linearGradient id="npI_DwcboL" x1="2010" y1="-676.5" x2="1881" y2="-676.5" gradientTransform="matrix(1, 0, 0, -1, -1644, -643)" gradientUnits="userSpaceOnUse"><stop offset="0" style="stop-color:var(--theme-groups-0);"/><stop offset="1" style="stop-color:var(--theme-groups-0);stop-opacity:0;"/></linearGradient><linearGradient id="oWHMkg-Edb" x1="1882" y1="-676.5" x2="2013" y2="-676.5" gradientTransform="matrix(1, 0, 0, -1, -1644, -643)" gradientUnits="userSpaceOnUse"><stop offset="0" style="stop-color:var(--theme-groups-1);"/><stop offset="1" style="stop-color:var(--theme-groups-1);stop-opacity:0;"/></linearGradient></defs><polygon points="440 8 358.63 8 351.63 2 4 2 4 0 352.37 0 359.37 6 440 6 440 8" style="fill:url(#v08f7ZOWwl);opacity:0.8;isolation: isolate"/><polygon points="414.54 48.5 1 48.5 1 46.5 413.46 46.5 424.45 30.02 438.96 29.5 439.04 31.5 425.55 31.98 414.54 48.5" style="fill:url(#vgmwJflUSc);opacity:0.3;isolation: isolate"/><polygon points="278.28 9 0 9 0.67 8 277.72 8 280.57 3.24 281.43 3.76 278.28 9" style="fill:var(--theme-groups-1);"/><polygon points="357 42.5 237.17 42.5 246.7 24.5 369 24.5 369 25.5 247.3 25.5 238.83 41.5 357 41.5 357 42.5" style="fill:url(#oWHMkg-Edb);"/><path id="iHlsCgSKnG" d="M8,35H234.89l12.28-19H293l11,8L294,43H1Z" style="fill:var(--theme-groups-0);fill-rule:evenodd;opacity:0.3;isolation: isolate"/><path id="dR7vq7nt3k" d="M4,3H282l-4,6H0Z" style="fill:var(--theme-groups-0);fill-rule:evenodd;opacity:0.5;isolation: isolate"/><path d="M246,25H366l-9,17H237Z" style="fill:url(#npI_DwcboL);fill-rule:evenodd;opacity:0.2;isolation: isolate"/><path id="vokGrK77-S" data-name="Rectangle 1764 copy" d="M247,25h28l-9,17H238Z" style="fill:var(--theme-groups-0);fill-rule:evenodd;opacity:0.8;isolation: isolate"/><path d="M279,16h4v2h-4V16Z" style="fill:var(--theme-groups-1);fill-rule:evenodd;"/><path id="pIgzCqRHdI" data-name="Rectangle 1764 copy 2" d="M275,25h28l-9,17H266Z" style="fill:var(--theme-groups-0);fill-rule:evenodd;opacity:0.6;isolation: isolate"/><path d="M307,16h4v2h-4V16Z" style="fill:var(--theme-groups-1);fill-rule:evenodd;"/><path id="desWH8sF6j" data-name="Rectangle 1764 copy 3" d="M303,25h28l-9,17H294Z" style="fill:var(--theme-groups-0);fill-rule:evenodd;opacity:0.2;isolation: isolate"/><path d="M335,16h4v2h-4V16Z" style="fill:var(--theme-groups-1);fill-rule:evenodd;"/><path d="M242.24,34h119L357,42H238Z" style="fill:var(--theme-groups-0);fill-rule:evenodd;opacity:0.2;isolation: isolate"/><rect x="259.47" y="30.5" width="25.06" height="1" transform="translate(114.5 254.92) rotate(-61.38)" style="fill:var(--theme-groups-1);"/><rect x="287.47" y="30.5" width="25.06" height="1" transform="translate(129.09 279.5) rotate(-61.38)" style="fill:var(--theme-groups-1);"/><rect x="315.47" y="30.5" width="25.06" height="1" transform="translate(143.68 304.08) rotate(-61.38)" style="fill:var(--theme-groups-1);"/><style/></svg>