<svg version="1.1" id="qOypxNH03_" xmlns="http://www.w3.org/2000/svg" xmlns:xlink="http://www.w3.org/1999/xlink" x="0px" y="0px" viewBox="0 0 417 31.5" xml:space="preserve"><g id="qVo6jd1ln0"><rect x="11.5" y="12.5" class="gmi6GfS7PA" width="405" height="1"/><rect id="j5OGUEuycu" x="274.5" y="12" class="zLYf2I6L1g" width="142" height="2"/><rect id="bOnRPUz-i1" x="12.5" y="12" class="zLYf2I6L1g" width="22" height="2"/><rect id="bC7peC-ts0" x="39.5" y="12" class="zLYf2I6L1g" width="5" height="2"/><linearGradient id="n7JuxzfQel" gradientUnits="userSpaceOnUse" x1="3164" y1="-2171" x2="3569" y2="-2171" gradientTransform="matrix(1 0 0 -1 -3152.5 -2165)"><stop offset="0" style="stop-color:var(--theme-groups-3);"/><stop offset="0.208" style="stop-color:var(--theme-groups-3);"/><stop offset="1" style="stop-color: #ffffff; stop-opacity: 0"/></linearGradient><linearGradient id="rnyfLIeHku" gradientUnits="userSpaceOnUse" x1="3361.5" y1="-2196" x2="3361.5" y2="-2184" gradientTransform="matrix(1 0 0 -1 -3152.5 -2165)"><stop offset="0" style="stop-color:var(--theme-groups-3);stop-opacity: 0.102"/><stop offset="1" style="stop-color:var(--theme-groups-3);"/></linearGradient><linearGradient id="wdTswTy2ZQ" gradientUnits="userSpaceOnUse" x1="3475" y1="-2170" x2="3510" y2="-2170" gradientTransform="matrix(1 0 0 -1 -3152.5 -2165)"><stop offset="0" style="stop-color:var(--theme-groups-1);"/><stop offset="1" style="stop-color:var(--theme-groups-2);"/></linearGradient><linearGradient id="zm4oSqUT5X" gradientUnits="userSpaceOnUse" x1="3517" y1="-2170" x2="3557" y2="-2170" gradientTransform="matrix(1 0 0 -1 -3152.5 -2165)"><stop offset="0" style="stop-color:var(--theme-groups-1);"/><stop offset="1" style="stop-color:var(--theme-groups-2);"/></linearGradient><path id="wAnFOfe7D5" class="gHXTMzAP9c" d="M11.5,12l12-12h393v12H11.5z"/><path id="eN1_yJxxIY" class="AeS_KNvacf" d="M416.5,19H9.5l-8,8v4h415V19z"/><path id="hxVRWibNol" class="q8c9DsHnTH" d="M322.5,9l8-8h27v8H322.5z"/><path id="hL6M7JRztX" class="rzOK3W3HM9" d="M404.5,9l-9-8h-31v8H404.5z"/><path id="nx1xmx4vcg" class="dbXISBhFZs" d="M343.5,4v3h8V4H343.5z"/><path id="m292C-tyuf" class="dbXISBhFZs" d="M370.5,4v3h8V4H370.5z"/><polygon class="gmi6GfS7PA" points="2,31 1,31 1,26.8 9.3,18.5 416.5,18.5 416.5,19.5 9.7,19.5 2,27.2 "/><g id="eC_zEWdwry"><polygon class="fCTXMoHq8g" points="237.7,24.5 7.5,24.5 7.5,23.5 237.3,23.5 241.1,19.6 241.9,20.4 "/><rect id="yjoOr_VtLZ" x="240.5" y="20" class="gmi6GfS7PA" width="2" height="2"/></g></g><style>.gmi6GfS7PA { opacity: 0.47; fill: var(--theme-groups-0); enable-background: new;}.gHXTMzAP9c { fill-rule: evenodd; clip-rule: evenodd; fill: url(#n7JuxzfQel);}.AeS_KNvacf { opacity: 0.5; fill-rule: evenodd; clip-rule: evenodd; fill: url(#rnyfLIeHku); enable-background: new;}.zLYf2I6L1g { fill: var(--theme-groups-0);}.q8c9DsHnTH { opacity: 0.46; fill-rule: evenodd; clip-rule: evenodd; fill: url(#wdTswTy2ZQ); enable-background: new;}.rzOK3W3HM9 { opacity: 0.46; fill-rule: evenodd; clip-rule: evenodd; fill: url(#zm4oSqUT5X); enable-background: new;}.fCTXMoHq8g { opacity: 0.4; fill: var(--theme-groups-0); enable-background: new;}.dbXISBhFZs { fill-rule: evenodd; clip-rule: evenodd; fill: #ffffff;}</style></svg>