<svg id="xdKvu7RpId" xmlns="http://www.w3.org/2000/svg" viewBox="0 0 440.1 29" x="0px" y="0px" xml:space="preserve"><g id="zLrm_LwhLd"><g id="lRG0xBLrHC"><path id="gkcxW_stNR" class="dtFxSeo0LS" d="M440.1,25H17.5L7.5,9h-7"/><path id="mJveTbS404" class="mLNo5cEXD0" d="M39.1,10l9,15h382V10H39.1z"/><path id="e1DDEj_XYA" class="lSIi0qqAhq" d="M35.1,14l9,15h382V14H35.1z"/><path id="ypwUg4dNkA" class="qhek9oEWj3" d="M41.1,0l9,15h382V0H41.1z"/><linearGradient id="aeN19XRyjJ" gradientUnits="userSpaceOnUse" x1="431" y1="-102.5" x2="822" y2="-102.5" gradientTransform="matrix(1 0 0 -1 -391.875 -85)"><stop offset="0" style="stop-color:var(--theme-groups-0);"/><stop offset="1" style="stop-color:var(--theme-groups-0);stop-opacity: 0"/></linearGradient><linearGradient id="cq-z5r1jum" gradientUnits="userSpaceOnUse" x1="427" y1="-106.5" x2="818" y2="-106.5" gradientTransform="matrix(1 0 0 -1 -391.875 -85)"><stop offset="0" style="stop-color:var(--theme-groups-0);"/><stop offset="1" style="stop-color:var(--theme-groups-0);stop-opacity: 0"/></linearGradient><linearGradient id="imX29an_U2" gradientUnits="userSpaceOnUse" x1="433" y1="-92.5" x2="824" y2="-92.5" gradientTransform="matrix(1 0 0 -1 -391.875 -85)"><stop offset="0" style="stop-color:var(--theme-groups-0);"/><stop offset="1" style="stop-color:var(--theme-groups-0);stop-opacity: 0"/></linearGradient><g id="oLCIwnBzo7" class="e4NsBq8mAW"><g id="o9B0DO7yXS"><path id="uGC-MfqoYN" class="lCyyP8Fpwv" d="M32.1,7l9,16h4l-9-16H32.1z"/><path id="ahLBSkit0I" class="lCyyP8Fpwv" d="M41.1,7l9,16h4l-9-16H41.1z"/><path id="hbwupf8NvX" class="lCyyP8Fpwv" d="M50.1,7l9,16h4l-9-16H50.1z"/><path id="p6iQCyhomn" class="lCyyP8Fpwv" d="M59.1,7l9,16h4l-9-16H59.1z"/><path id="wi74qSiRw3" class="lCyyP8Fpwv" d="M68.1,7l9,16h4l-9-16H68.1z"/><path id="rSwFvmLF0h" class="lCyyP8Fpwv" d="M77.1,7l9,16h4l-9-16H77.1z"/></g><g id="prV2U2TPIT"><path id="sykoT2DPJ5" class="lCyyP8Fpwv" d="M86.1,7l9,16h4l-9-16H86.1z"/><path id="oMHWWEJOzC" class="lCyyP8Fpwv" d="M95.1,7l9,16h4l-9-16H95.1z"/><path id="oyJB6MeFqT" class="cDPwHMRsqg" d="M104.1,7l9,16h4l-9-16H104.1z"/><path id="oHHJ5nHxSx" class="q2Hqu3uM7m" d="M113.1,7l9,16h4l-9-16H113.1z"/><path id="gEAyNFcbeF" class="vMV-LkFIZb" d="M122.1,7l9,16h4l-9-16H122.1z"/><path id="y4fhxcEvOI" class="ccuP29b2Lt" d="M131.1,7l9,16h4l-9-16H131.1z"/></g></g></g></g><g id="kSOus4pGqj"><linearGradient id="Azv0EoTmGm" gradientUnits="userSpaceOnUse" x1="0.125" y1="21.4032" x2="22.125" y2="21.4032" gradientTransform="matrix(1 0 0 -1 0 30)"><stop offset="0" style="stop-color:var(--theme-groups-3);"/><stop offset="1" style="stop-color:var(--theme-groups-3);stop-opacity: 0"/></linearGradient><rect id="dGSmTlwOxN" x="0.1" y="0.1" class="sLSSHX5UCC" width="22" height="17"/><rect id="A4BrHJeIY9" x="420.1" y="23.5" class="dH7h7wOkPC" width="20" height="2"/><path id="jrGjuk73vf" class="lkVmr8ndRw" d="M11.1,0.1l12,20h3l-12-20H11.1z"/><path id="rIbUZIJYlS" class="aENWWhQcvg" d="M0.1,4.1v10l4-5L0.1,4.1z"/></g><style>.dtFxSeo0LS { fill: none; stroke:var(--theme-groups-0);}.mLNo5cEXD0 { opacity: 0.68; fill-rule: evenodd; clip-rule: evenodd; fill: url(#aeN19XRyjJ); enable-background: new;}.lSIi0qqAhq { opacity: 0.39; fill-rule: evenodd; clip-rule: evenodd; fill: url(#cq-z5r1jum); enable-background: new;}.qhek9oEWj3 { opacity: 0.64; fill-rule: evenodd; clip-rule: evenodd; fill: url(#imX29an_U2); enable-background: new;}.e4NsBq8mAW { opacity: 0.62;}.lCyyP8Fpwv { opacity: 0.49; fill-rule: evenodd; clip-rule: evenodd; fill:var(--theme-groups-0); enable-background: new;}.cDPwHMRsqg { opacity: 0.4; fill-rule: evenodd; clip-rule: evenodd; fill:var(--theme-groups-0); enable-background: new;}.q2Hqu3uM7m { opacity: 0.3; fill-rule: evenodd; clip-rule: evenodd; fill:var(--theme-groups-0); enable-background: new;}.vMV-LkFIZb { opacity: 0.2; fill-rule: evenodd; clip-rule: evenodd; fill:var(--theme-groups-0); enable-background: new;}.ccuP29b2Lt { opacity: 0.1; fill-rule: evenodd; clip-rule: evenodd; fill:var(--theme-groups-0); enable-background: new;}.sLSSHX5UCC { opacity: 0.25; fill: url(#Azv0EoTmGm); enable-background: new;}.lkVmr8ndRw { fill-rule: evenodd; clip-rule: evenodd; fill:var(--theme-groups-1);}.aENWWhQcvg { fill-rule: evenodd; clip-rule: evenodd; fill:var(--theme-groups-3);}.dH7h7wOkPC { fill:var(--theme-groups-1);}</style></svg>