<svg version="1.1" id="dG0DUIIl40" xmlns="http://www.w3.org/2000/svg" xmlns:xlink="http://www.w3.org/1999/xlink" x="0px" y="0px" viewBox="0 0 417 31.5" xml:space="preserve"><rect x="11.5" y="12.5" class="ljJBjP9Yex" width="405" height="1"/><rect id="lRPLt06i-k" x="274.5" y="12" class="bedUlqnvb4" width="142" height="2"/><rect id="sfl3D1-wIm" x="12.5" y="12" class="rPLqlHRz77" width="22" height="2"/><rect id="bxze5bhbZx" x="39.5" y="12" class="rPLqlHRz77" width="5" height="2"/><rect id="jj8nQHqL6V" x="330.5" y="1" class="lKVmT0pD_a" width="27" height="1"/><rect id="vei-NWShzy" x="364.5" y="1" class="lKVmT0pD_a" width="31" height="1"/><linearGradient id="i3oyEO-bxI" gradientUnits="userSpaceOnUse" x1="268" y1="-391" x2="673" y2="-391" gradientTransform="matrix(1 0 0 -1 -256.5 -385)"><stop offset="0" style="stop-color:var(--theme-groups-2);"/><stop offset="1" style="stop-color:var(--theme-groups-2);stop-opacity: 0"/></linearGradient><linearGradient id="dls4T5otEQ" gradientUnits="userSpaceOnUse" x1="465.5" y1="-416" x2="465.5" y2="-404" gradientTransform="matrix(1 0 0 -1 -256.5 -385)"><stop offset="0" style="stop-color:var(--theme-groups-3);stop-opacity: 0.2"/><stop offset="1" style="stop-color:var(--theme-groups-3);"/></linearGradient><path id="x93FCL89Pr" class="uIa8NsHWBT" d="M11.5,12l12-12h393v12H11.5z"/><path id="qiWtv_M440" class="mf6NTGjPkp" d="M416.5,19H9.5l-8,8v4h415V19z"/><path id="zzm6FwM7uI" class="jTeRytu7jy" d="M322.5,9l8-8h27v8H322.5z"/><path id="qZTWeS_w6W" class="jTeRytu7jy" d="M404.5,9l-9-8h-31v8H404.5z"/><path id="snIvm5POLp" class="exekIFGPlc" d="M343.5,4v3h8V4H343.5z"/><path id="fy69OrPWCs" class="exekIFGPlc" d="M370.5,4v3h8V4H370.5z"/><polygon class="gYPaZd4LHn" points="2,31 1,31 1,26.8 9.3,18.5 416.5,18.5 416.5,19.5 9.7,19.5 2,27.2 "/><g id="mbBoEzyiT8"><polygon class="gYPaZd4LHn" points="237.7,24.5 7.5,24.5 7.5,23.5 237.3,23.5 241.1,19.6 241.9,20.4 "/><rect id="tk0fIl2mUX" x="240.5" y="20" class="iwAeJT14h_" width="2" height="2"/></g><style>.ljJBjP9Yex { opacity: 0.6; fill: var(--theme-groups-0); enable-background: new;}.uIa8NsHWBT { fill-rule: evenodd; clip-rule: evenodd; fill: url(#i3oyEO-bxI);}.mf6NTGjPkp { opacity: 0.4; fill-rule: evenodd; clip-rule: evenodd; fill: url(#dls4T5otEQ); enable-background: new;}.gYPaZd4LHn { fill: var(--theme-groups-3);}.bedUlqnvb4 { opacity: 0.8; fill: var(--theme-groups-0); enable-background: new;}.rPLqlHRz77 { fill: var(--theme-groups-0);}.jTeRytu7jy { opacity: 0.7; fill-rule: evenodd; clip-rule: evenodd; fill: var(--theme-groups-3); enable-background: new;}.lKVmT0pD_a { opacity: 0.4; fill: #ffffff; enable-background: new;}.iwAeJT14h_ { fill: var(--theme-groups-3);}.exekIFGPlc { fill-rule: evenodd; clip-rule: evenodd;}</style></svg>