<svg id="oJPe06IsB5" xmlns="http://www.w3.org/2000/svg" viewBox="0 0 440 52" x="0px" y="0px" xml:space="preserve"><linearGradient id="qpg34jvJpO" gradientUnits="userSpaceOnUse" x1="942" y1="1575.4827" x2="1381.5396" y2="1575.4827" gradientTransform="matrix(1 0 0 1 -942 -1555)"><stop offset="0" style="stop-color:var(--theme-groups-0);"/><stop offset="1" style="stop-color:var(--theme-groups-0);stop-opacity: 0"/></linearGradient><linearGradient id="e7fioiI_Ue" gradientUnits="userSpaceOnUse" x1="942.511" y1="1606.5508" x2="1381.511" y2="1606.5508" gradientTransform="matrix(1 0 0 1 -942 -1555)"><stop offset="0" style="stop-color:var(--theme-groups-1);"/><stop offset="1" style="stop-color:var(--theme-groups-1);stop-opacity: 0"/></linearGradient><path id="k1ekAuTzhd" class="oOPWabb7Fx" d="M28.6,0h410.9l-27.4,41H0L28.6,0z"/><path id="xNTwhMCqDz" class="t_WqviR9dp" d="M22.8,8.2h64.6L64.6,41H0L22.8,8.2z"/><path id="tvtdRvbjmL" class="i5pWXikHRK" d="M87.4,8.2H152L129.3,41H64.6L87.4,8.2z"/><path id="qukuz3Xkp2" class="fEZbGCtTBQ" d="M152,8.2h64.6L193.9,41h-64.6L152,8.2z"/><path id="djFCLCwtG_" class="xRf4_foxM0" d="M216.7,8.2h64.6L258.5,41h-64.6L216.7,8.2z"/><path id="vgOLW7WvZ7" class="f_rw6cRQSB" d="M281.3,8.2h64.6L323.2,41h-64.6L281.3,8.2z"/><path id="nAoQz1CKNh" class="qL4COvvrqm" d="M346,8.2h64.6L387.9,41h-64.6L346,8.2z"/><path id="iZEolvOZUJ" class="wuoV73y1HN" d="M0.5,52.1v-1h439v1H0.5L0.5,52.1z"/><style>.oOPWabb7Fx { opacity: 0.45; fill-rule: evenodd; clip-rule: evenodd; fill: url(#qpg34jvJpO); enable-background: new;}.t_WqviR9dp { opacity: 0.8; fill-rule: evenodd; clip-rule: evenodd; fill: var(--theme-groups-0); enable-background: new;}.i5pWXikHRK { opacity: 0.5; fill-rule: evenodd; clip-rule: evenodd; fill: var(--theme-groups-0); enable-background: new;}.fEZbGCtTBQ { opacity: 0.3; fill-rule: evenodd; clip-rule: evenodd; fill: var(--theme-groups-1); enable-background: new;}.xRf4_foxM0 { opacity: 0.2; fill-rule: evenodd; clip-rule: evenodd; fill: var(--theme-groups-1); enable-background: new;}.f_rw6cRQSB { opacity: 0.1; fill-rule: evenodd; clip-rule: evenodd; fill: var(--theme-groups-1); enable-background: new;}.qL4COvvrqm { opacity: 6e-2; fill-rule: evenodd; clip-rule: evenodd; fill: var(--theme-groups-1); enable-background: new;}.wuoV73y1HN { opacity: 0.85; fill-rule: evenodd; clip-rule: evenodd; fill: url(#e7fioiI_Ue); enable-background: new;}</style></svg>