<svg id="gtHKFZ0-44" xmlns="http://www.w3.org/2000/svg" xmlns:xlink="http://www.w3.org/1999/xlink" viewBox="0 0 427 37" x="0px" y="0px" xml:space="preserve"><defs><linearGradient id="qcbSL5KKQT" x1="1655.5" y1="-801.08" x2="2079" y2="-801.08" gradientTransform="matrix(1, 0, 0, -1, -1652, -783)" gradientUnits="userSpaceOnUse"><stop offset="0" style="stop-color:var(--theme-groups-0);"/><stop offset="1" style="stop-color:var(--theme-groups-0);stop-opacity:0;"/></linearGradient><linearGradient id="eoIzw8afFH" x1="1965.87" y1="-791.55" x2="1999.91" y2="-791.55" xlink:href="#qcbSL5KKQT"/><linearGradient id="wjBriB3hcI" x1="2057.98" y1="-812.62" x2="2001.91" y2="-812.62" xlink:href="#qcbSL5KKQT"/></defs><path id="dX9H4S2OCh" data-name="Rectangle 658 copy" d="M3.5,2.51H427V33.64H13.17L3.5,23.6Z" style="fill:url(#qcbSL5KKQT);fill-rule:evenodd;"/><path d="M414,8.55h12v2H414v-2Z" style="fill:var(--theme-groups-1);fill-rule:evenodd;"/><path d="M.5,29.62l7,7H.5Z" style="fill:var(--theme-groups-1);fill-rule:evenodd;"/><path id="lmZdzxl4RG" data-name="Rectangle 36 copy" d="M347.91,11.56l-8-6h-6l8,6Zm-10,0-8-6h-6l8,6Zm-10,0-8-6h-6l8,6Z" style="fill:url(#eoIzw8afFH);fill-rule:evenodd;"/><path id="xbcr3U8JKl" data-name="Rectangle 36 copy 2" d="M426,30.62l-8-6h-6l8,6Zm-10,0-8-6h-6l8,6Zm-10,0-8-6h-6l8,6Z" style="fill:var(--theme-groups-0);fill-rule:evenodd;opacity:0.6;isolation: isolate"/><path id="AJGbfz0Gqx" data-name="Rectangle 36 copy 3" d="M426,30.62l-4-2h-6l4,2Zm-10,0-3-2h-6l3,2Z" style="fill:var(--theme-groups-0);fill-rule:evenodd;"/><path d="M349.91,28.61H403l3,2H349.91Z" style="fill:url(#wjBriB3hcI);fill-rule:evenodd;"/><polygon points="419.99 36.15 12.29 36.15 1 23.78 1 0 341.08 0 352.09 9.05 426 9.05 426 10.05 351.73 10.05 340.72 1 2 1 2 23.39 12.73 35.15 419.99 35.15 419.99 36.15" style="fill:var(--theme-groups-0);"/><polygon points="426 35.15 12.73 35.15 2 23.39 2 1 12.51 1 12.51 0 1 0 1 23.78 12.29 36.15 12.95 36.15 12.95 36.15 426 36.15 426 35.15" style="fill:var(--theme-groups-1);"/><style/></svg>