<svg id="AHg1Fw94Mq" data-name="btn pre" xmlns="http://www.w3.org/2000/svg" xmlns:xlink="http://www.w3.org/1999/xlink" viewBox="0 0 245 55" x="0px" y="0px" xml:space="preserve"><defs><linearGradient id="Acsg_cLWks" x1="1980" y1="-1423" x2="2215" y2="-1423" gradientTransform="matrix(1, 0, 0, -1, -1975.5, -1396.5)" gradientUnits="userSpaceOnUse"><stop offset="0" style="stop-color:var(--theme-groups-3);stop-opacity:0;"/><stop offset="0.5" style="stop-color:var(--theme-groups-3);"/><stop offset="0.5" style="stop-color:var(--theme-groups-3);"/><stop offset="1" style="stop-color:var(--theme-groups-3);stop-opacity:0;"/></linearGradient><linearGradient id="oz4zT1Dzn9" x1="1993" y1="-1408" x2="2216" y2="-1408" gradientTransform="matrix(1, 0, 0, -1, -1975.5, -1396.5)" gradientUnits="userSpaceOnUse"><stop offset="0" style="stop-color:var(--theme-groups-3);stop-opacity:0;"/><stop offset="0.5" style="stop-color:var(--theme-groups-3);"/><stop offset="1" style="stop-color:var(--theme-groups-3);stop-opacity:0;"/></linearGradient><linearGradient id="e-MG-6rPAZ" x1="1988.25" y1="-1448" x2="1988.25" y2="-1397" xlink:href="#Acsg_cLWks"/><linearGradient id="de4Ms8X98i" x1="2206.75" y1="-1451" x2="2206.75" y2="-1400" xlink:href="#Acsg_cLWks"/><linearGradient id="fPVA3Ns5m5" x1="2016" y1="-1443.5" x2="2179" y2="-1443.5" xlink:href="#Acsg_cLWks"/><linearGradient id="ciR3xMmM3e" x1="2016" y1="-1402.5" x2="2179" y2="-1402.5" xlink:href="#Acsg_cLWks"/></defs><path id="oKdy6xATYL" data-name="Rectangle 1876 copy 5" d="M4.5,18.5l12.86-13H239.5V33.15l-13,14.35H4.5Z" style="fill:url(#Acsg_cLWks);fill-rule:evenodd;opacity:0.5;isolation: isolate"/><path d="M227.5,4.5h12v12Z" style="fill:var(--theme-groups-3);fill-rule:evenodd;"/><path d="M226.72,48H4V18.28L18.16,5H240V33.34ZM5,47H226.28L239,33V6H18.56L5,18.72Z" style="fill:url(#Acsg_cLWks);"/><path d="M40.5,45.5h163v3H40.5v-3Z" style="fill:url(#fPVA3Ns5m5);fill-rule:evenodd;"/><path d="M40.5,4.5h163v3H40.5v-3Z" style="fill:url(#ciR3xMmM3e);fill-rule:evenodd;"/><polygon points="240.5 18 228.31 18 215.31 6 17.5 6 17.5 5 215.69 5 228.69 17 240.5 17 240.5 18" style="fill:url(#oz4zT1Dzn9);"/><polygon points="9.5 52 0 52 0 16.29 17.16 0 25.5 0 25.5 1 17.56 1 1 16.71 1 51 9.5 51 9.5 52" style="fill:url(#e-MG-6rPAZ);"/><polygon points="227.73 55 217.5 55 217.5 54 227.27 54 244 34.32 244 3.5 245 3.5 245 34.68 227.73 55" style="fill:url(#de4Ms8X98i);"/><style/></svg>