<svg id="d5bG7F7tZS" data-name="图层 1" xmlns="http://www.w3.org/2000/svg" xmlns:xlink="http://www.w3.org/1999/xlink" viewBox="0 0 120 48"><defs><linearGradient id="vS0R0x6mQ4" y1="24" x2="120" y2="24" gradientUnits="userSpaceOnUse"><stop offset="0" style="stop-color:var(--theme-groups-3);"/><stop offset="0.51" style="stop-color:var(--theme-groups-3);stop-opacity:0;"/><stop offset="1" style="stop-color:var(--theme-groups-3);"/></linearGradient><linearGradient id="g6qXCQzG1y" x1="8.62" y1="24" x2="111.38" y2="24" gradientUnits="userSpaceOnUse"><stop offset="0" style="stop-color:var(--theme-groups-3);"/><stop offset="0.51" style="stop-color:var(--theme-groups-3);stop-opacity:0;"/><stop offset="1" style="stop-color:var(--theme-groups-3);"/></linearGradient><linearGradient id="lSnsMpNpKB" y1="24" x2="120" y2="24" gradientUnits="userSpaceOnUse"><stop offset="0" style="stop-color:var(--theme-groups-3);"/><stop offset="0.3" style="stop-color:var(--theme-groups-3);stop-opacity:0;"/></linearGradient><linearGradient id="b9l3NZAZLf" y1="24" x2="120" y2="24" gradientUnits="userSpaceOnUse"><stop offset="0.7" style="stop-color:var(--theme-groups-3);stop-opacity:0;"/><stop offset="1" style="stop-color:var(--theme-groups-3);"/></linearGradient></defs><title>按钮</title><path class="zPTNj4GJjG" d="M14.26,6.08h91.45a6.37,6.37,0,0,1,5.19,2.66l8,11.27a6,6,0,0,1,.11,6.83l-8.1,12.26a6.4,6.4,0,0,1-5.31,2.82H14.45a6.36,6.36,0,0,1-5.33-2.86L1,26.54a6,6,0,0,1,.17-6.83l7.94-11A6.37,6.37,0,0,1,14.26,6.08Z"/><path class="u2w9oXO_wb" d="M17.84,12.24h84.3a3.8,3.8,0,0,1,3.08,1.58l5.46,7.66a3.78,3.78,0,0,1,.07,4.29l-5.54,8.31a3.78,3.78,0,0,1-3.15,1.68H18a3.78,3.78,0,0,1-3.17-1.71L9.24,25.57a3.78,3.78,0,0,1,.1-4.29l5.44-7.49A3.8,3.8,0,0,1,17.84,12.24Z"/><path class="kAL2mIVK4g" d="M105.71,8.08a4.35,4.35,0,0,1,3.56,1.82l8,11.26a4,4,0,0,1,.07,4.57L109.22,38a4.34,4.34,0,0,1-3.64,1.93H14.45a4.32,4.32,0,0,1-3.65-2L2.66,25.45a4,4,0,0,1,.11-4.57l7.94-11a4.37,4.37,0,0,1,3.55-1.79h91.45m0-2H14.26A6.37,6.37,0,0,0,9.09,8.7l-7.94,11A6,6,0,0,0,1,26.54L9.12,39.06a6.36,6.36,0,0,0,5.33,2.86h91.13a6.4,6.4,0,0,0,5.31-2.82L119,26.84a6,6,0,0,0-.11-6.83l-8-11.27a6.37,6.37,0,0,0-5.19-2.66Z"/><path class="tSlReDIr1q" d="M105.71,8.08a4.35,4.35,0,0,1,3.56,1.82l8,11.26a4,4,0,0,1,.07,4.57L109.22,38a4.34,4.34,0,0,1-3.64,1.93H14.45a4.32,4.32,0,0,1-3.65-2L2.66,25.45a4,4,0,0,1,.11-4.57l7.94-11a4.37,4.37,0,0,1,3.55-1.79h91.45m0-2H14.26A6.37,6.37,0,0,0,9.09,8.7l-7.94,11A6,6,0,0,0,1,26.54L9.12,39.06a6.36,6.36,0,0,0,5.33,2.86h91.13a6.4,6.4,0,0,0,5.31-2.82L119,26.84a6,6,0,0,0-.11-6.83l-8-11.27a6.37,6.37,0,0,0-5.19-2.66Z"/><g class="xUDkHzrr2_"><path class="ufIPOTnVhv" d="M105.71,8.08a4.35,4.35,0,0,1,3.56,1.82l8,11.26a4,4,0,0,1,.07,4.57L109.22,38a4.34,4.34,0,0,1-3.64,1.93H14.45a4.32,4.32,0,0,1-3.65-2L2.66,25.45a4,4,0,0,1,.11-4.57l7.94-11a4.37,4.37,0,0,1,3.55-1.79h91.45m0-2H14.26A6.37,6.37,0,0,0,9.09,8.7l-7.94,11A6,6,0,0,0,1,26.54L9.12,39.06a6.36,6.36,0,0,0,5.33,2.86h91.13a6.4,6.4,0,0,0,5.31-2.82L119,26.84a6,6,0,0,0-.11-6.83l-8-11.27a6.37,6.37,0,0,0-5.19-2.66Z"/></g><style>.zPTNj4GJjG,.xUDkHzrr2_{opacity:0.3;}.zPTNj4GJjG{fill:url(#vS0R0x6mQ4);}.ufIPOTnVhv{fill:var(--theme-groups-3);}.u2w9oXO_wb{opacity:0.4;fill:url(#g6qXCQzG1y);}.kAL2mIVK4g{fill:url(#lSnsMpNpKB);}.tSlReDIr1q{fill:url(#b9l3NZAZLf);}</style></svg>